<?xml version="1.0" encoding="UTF-8" standalone="no"?>
<svg xmlns:rdf="http://www.w3.org/1999/02/22-rdf-syntax-ns#" xmlns="http://www.w3.org/2000/svg" height="29" width="308" version="1.1" xmlns:cc="http://creativecommons.org/ns#" xmlns:dc="http://purl.org/dc/elements/1.1/">
 <path fill="#333" d="m16.513,1.1875c-0.76801,0.00003-1.5445,0.0748-2.3125,0.21875-1.896,0.38403-3.6348,1.31-5.2188,2.75-1.56,1.416-2.6355,3.027-3.1875,4.875,0,0.072-0.0435,0.54227-0.1875,1.4062-0.096,0.55202-0.29125,1.0005-0.53125,1.3125-0.864-0.072-1.573,0.0318-2.125,0.34375-1.152,0.64802-1.6585,1.8128-1.5625,3.4688-0.048,0.14401-0.0408,0.30076,0.0312,0.46875,0.096,0.168,0.1925,0.24275,0.3125,0.21875,0.216-0.71999,0.8285-1.0937,1.8125-1.0938,0.72,0.16801,1.212,0.47426,1.5,0.90625,0.456,3.48,1.2108,6.017,2.2188,7.625,1.368,2.232,3.5167,3.6282,6.4688,4.1562,0.26399,0.024,0.51724,0.0312,0.78125,0.0312,0.83999,0,1.9517-0.217,3.3438-0.625,1.416-0.432,2.4457-0.65625,3.0938-0.65625,0.95998,0,1.8787,0.30625,2.7188,0.90625-0.00002-0.096,0.0217-0.25275,0.0937-0.46875s0.11775-0.3945,0.0937-0.5625c0.072-0.456,0.34698-1.4568,0.875-2.9688,0.43198-1.272,0.65623-2.256,0.65625-3-0.00002-1.056-0.38102-1.9747-1.125-2.7188-0.88802-0.38399-1.6863-0.56249-2.4062-0.5625-0.55202,0.00001-1.0295,0.0965-1.4375,0.3125,0.12,0.60001,0.18748,1.2053,0.1875,1.7812-0.00002,1.632-0.45577,2.9223-1.3438,3.9062-0.50401,0.576-1.1745,0.875-2.0625,0.875-0.38401,0-0.77951-0.0675-1.1875-0.1875-0.86401-0.456-1.491-1.2325-1.875-2.3125-0.21601-0.59999-0.42576-1.584-0.59375-3,0.048-2.376,0.101-4.7417,0.125-7.0938,0.21599-2.736,0.95399-4.8485,2.25-6.3125,0.74399-0.47998,1.4602-0.71873,2.1562-0.71875,0.31199,0.00002,0.61824,0.0602,0.90625,0.15625,1.344,0.64802,2.0312,2.0275,2.0312,4.1875-0.00002,0.50402-0.0675,1.348-0.1875,2.5,0.50398,0.144,1.0032,0.21877,1.5312,0.21875,1.2,0.00002,2.126-0.38098,2.75-1.125,0.31198-0.64798,0.46873-1.3715,0.46875-2.1875-0.00002-0.57598-0.0965-1.4417-0.3125-2.5938-0.21602-1.152-0.34377-2.025-0.34375-2.625-0.00002-0.40797,0.053-0.79622,0.125-1.1562-0.74402,0.57603-1.5205,0.87503-2.3125,0.875-0.26402,0.00003-0.55577-0.053-0.84375-0.125-1.56-0.93597-3.335-1.4062-5.375-1.4062zm256.16,0c-1.344,0.00003-2.5088,0.37378-3.4688,1.0938-0.45602,0.48003-0.87327,0.87552-1.2812,1.1875-1.056-1.392-2.6453-2.0937-4.7812-2.0938-1.896,0.00003-3.3285,0.62703-4.3125,1.875-0.50401,1.008-0.78126,1.6713-0.78125,2.0312-0.00001,0.26402,0.0675,0.54127,0.1875,0.78125,0.35999-0.23998,0.59874-0.47148,0.71875-0.6875,0.50399-0.336,1.1165-0.471,1.8125-0.375,0.45599,0.19202,0.70925,0.51277,0.78125,0.96875-0.096,0.76802-0.32751,1.7688-0.6875,2.9688-0.43201,1.392-0.69251,2.3543-0.8125,2.9062-0.096,0.28802-0.33476,0.43025-0.71875,0.40625-0.55201-0.024-0.8655-0.0168-0.9375,0.0312-1.68,0.16802-2.7918,0.94451-3.3438,2.3125-0.21601,1.176-0.14126,1.9068,0.21875,2.2188,0.33599-0.79199,0.76049-1.255,1.3125-1.375,0.86399-0.16799,1.5512-0.0475,2.0312,0.3125,0.072,0.19201,0.0937,0.34876,0.0937,0.46875-0.36001,1.344-0.69526,2.6945-1.0312,4.0625-0.43201,1.632-1.0445,2.9005-1.8125,3.8125-0.45601,0.456-1.0155,0.55975-1.6875,0.34375-0.12,0-0.2695-0.10375-0.4375-0.34375s-0.31025-0.375-0.40625-0.375c-0.072,0-0.154,0.0457-0.25,0.0937-0.168,0.384-0.25,0.80125-0.25,1.2812,0,0.864,0.2845,1.5875,0.8125,2.1875,0.624,0.408,1.3402,0.625,2.1562,0.625,0.67199,0,1.2387-0.1495,1.7188-0.4375,0.19199-0.072,0.43074-0.236,0.71875-0.5,0.28799-0.288,0.51224-0.452,0.65625-0.5,0.50399,0.624,0.88499,0.95925,1.125,1.0312,0.69599,0.192,1.2772,0.28125,1.7812,0.28125,0.95999,0,1.6835-0.32075,2.1875-0.96875,0.43199-0.456,0.65623-1.083,0.65625-1.875-0.00002-0.36-0.029-0.69525-0.125-1.0312-0.74401,0.504-1.3348,0.72825-1.7188,0.65625-0.43201,0-0.82751-0.22425-1.1875-0.65625-0.096-0.264-0.12501-0.563-0.125-0.875-0.00001-0.38399,0.23874-1.257,0.71875-2.625,0.95999-0.62399,2.0935-0.93749,3.4375-0.9375,0.81598,0.00001,1.5852,0.14226,2.2812,0.40625,0.43198,0.33601,0.74548,0.87376,0.9375,1.5938,0.024,0.072,0.12048,0.71351,0.3125,1.9375-0.14402,0.576-0.45752,0.94975-0.9375,1.0938-0.19202,0.048-0.37052,0.0625-0.5625,0.0625-0.57602,0-1.1065-0.246-1.5625-0.75-0.24002,0.6-0.19427,1.3452,0.0937,2.2812,0.35998,0.6,0.86648,1.0485,1.5625,1.3125,0.40798,0.168,1.0952,0.3175,2.0312,0.4375,1.848,0.048,3.1912-0.632,4.0312-2,1.032,1.08,1.7555,1.6852,2.1875,1.7812,0.62397,0.192,1.251,0.28125,1.875,0.28125,1.536,0,2.708-0.492,3.5-1.5,0.47997-0.84,0.71872-1.5875,0.71875-2.1875-0.00003-0.24-0.0602-0.47875-0.15625-0.71875-0.14403,0-0.31528,0.135-0.53125,0.375-0.19203,0.24-0.3415,0.3895-0.4375,0.4375-0.72003,0.312-1.2868,0.3265-1.7188,0.0625-0.40803-0.12-0.81803-0.53725-1.25-1.2812-1.56-5.088-2.7393-8.9247-3.5312-11.469-0.31202-0.93598-0.62552-1.8765-0.9375-2.8125-0.33602-1.104-0.5385-2.0662-0.5625-2.9062,0.33598-0.81598,0.94848-1.2332,1.8125-1.2812,0.62397-0.048,1.2655,0.35477,1.9375,1.2188,0.16797-0.14398,0.29575-0.38998,0.34375-0.75,0.048-0.26398,0.0697-0.54848,0.0937-0.8125,0.024-0.83998-0.36428-1.5635-1.1562-2.1875-1.008-0.59997-2.1198-0.90622-3.3438-0.90625zm-228.34,0.3437c-1.728,0.00003-3.4378,0.25328-5.0938,0.78125-2.016,0.64803-3.6945,1.8948-5.0625,3.7188-1.344,1.824-2.1278,3.8088-2.3438,5.9688-0.19201,0.14402-0.65501,0.32977-1.375,0.59375-0.62401,0.21602-1.0485,0.52227-1.3125,0.90625-0.504,0.69601-0.75,1.458-0.75,2.25,0,0.36001,0.0362,0.69526,0.15625,1.0312,0.47999-0.47999,0.86099-0.73325,1.125-0.78125,0.86399-0.21599,1.5512-0.023,2.0312,0.625,0.52799,3.12,1.1092,5.247,1.7812,6.375,2.16,3.6,6.0932,5.2495,11.781,4.9375,2.064-0.12,3.9812-0.83625,5.7812-2.1562,1.824-1.32,3.0852-2.955,3.7812-4.875,0.79197-2.232,1.1875-4.5302,1.1875-6.9062-0.00003-3.912-1.0588-6.994-3.2188-9.25-2.016-2.16-4.8448-3.2187-8.4688-3.2188zm161.56,0c-1.728,0.00003-3.4065,0.25328-5.0625,0.78125-2.016,0.64803-3.7258,1.8948-5.0938,3.7188-1.344,1.824-2.0965,3.8088-2.3125,5.9688-0.192,0.14402-0.655,0.32977-1.375,0.59375-0.624,0.21602-1.0798,0.52227-1.3438,0.90625-0.504,0.69601-0.75,1.458-0.75,2.25,0,0.36001,0.0675,0.69526,0.1875,1.0312,0.48-0.47999,0.82975-0.73325,1.0938-0.78125,0.864-0.21599,1.5512-0.023,2.0312,0.625,0.528,3.12,1.1405,5.247,1.8125,6.375,2.16,3.6,6.062,5.2495,11.75,4.9375,2.064-0.12,4.0125-0.83625,5.8125-2.1562,1.824-1.32,3.0852-2.955,3.7812-4.875,0.79197-2.232,1.1875-4.5302,1.1875-6.9062-0.00003-3.912-1.09-6.994-3.25-9.25-2.016-2.16-4.8448-3.2187-8.4688-3.2188zm91.031,0c-1.968,0.00003-3.4245,0.75253-4.3125,2.3125-0.19201,0.00002-0.36326-0.15673-0.53125-0.46875-0.24001-0.35997-0.41126-0.553-0.53125-0.625-0.76801-0.67197-1.7833-1.0312-3.0312-1.0312-0.768,0.00003-1.477,0.14228-2.125,0.40625-1.368,0.55203-2.0168,1.7458-1.9688,3.5938,0.096,0.144,0.18525,0.21877,0.28125,0.21875,0.12,0.00002,0.337-0.15673,0.625-0.46875,0.312-0.312,0.55075-0.423,0.71875-0.375,0.216-0.072,0.40175-0.12498,0.59375-0.125,0.696,0.00002,1.2338,0.29177,1.5938,0.84375,0.31199,0.72002,0.4615,1.6895,0.4375,2.9375-0.048,1.824-0.0553,2.8393-0.0312,3.0312-0.12,0.14402-0.19475,0.24775-0.21875,0.34375-1.656,0.12002-2.7605,0.55402-3.3125,1.25-0.552,0.67201-0.84375,1.4028-0.84375,2.2188,0,0.26401,0.0145,0.50276,0.0625,0.71875,0.12,0.43201,0.255,0.60325,0.375,0.53125,0.504-0.88799,1.2805-1.3125,2.3125-1.3125,0.168,0,0.33925,0.0145,0.53125,0.0625,0.648,0.16801,1.029,0.50326,1.125,1.0312,0.072,2.376,0.019,4.7273-0.125,7.0312-0.408,0.84-1.0495,1.2355-1.9375,1.1875-0.864-0.048-1.491-0.46525-1.875-1.2812-0.192,0.288-0.28125,0.6305-0.28125,1.0625,0,0.552,0.15675,1.1718,0.46875,1.8438,0.624,0.984,1.796,1.476,3.5,1.5,1.968,0.024,3.3402-0.72125,4.1562-2.2812,0.33599,0.72,0.94849,1.2722,1.8125,1.6562,0.76799,0.36,1.5735,0.53125,2.4375,0.53125,0.71999,0,1.7425-0.17125,3.0625-0.53125s2.2822-0.5625,2.9062-0.5625c0.95998,0,1.8257,0.30625,2.5938,0.90625,0.024-0.816,0.24098-2.0242,0.625-3.6562,0.40798-1.56,0.62498-2.7777,0.625-3.5938-0.00002-0.79199-0.14952-1.5227-0.4375-2.2188-0.14402-0.40799-0.44302-0.70699-0.875-0.875-0.40802-0.16799-0.80352-0.32474-1.1875-0.46875-0.48002,0.024-0.96477,0.077-1.4688,0.125-0.60002,0.048-1.0558,0.21926-1.3438,0.53125,0.21598,0.69601,0.37275,1.2193,0.46875,1.5312,0.048,0.40801,0.0937,0.76501,0.0937,1.125-0.00002,1.608-0.46302,2.7945-1.375,3.5625-0.45602,0.384-1.054,0.59375-1.75,0.59375-0.40801,0-0.75051-0.082-1.0625-0.25-0.60001-0.216-0.92075-0.73925-0.96875-1.5312-0.144-7.032-0.21876-12.263-0.21875-15.719-0.024-0.59998,0.28949-1.2125,0.9375-1.8125,0.26399-0.192,0.74149-0.28123,1.4375-0.28125,0.26398,0.072,0.50273,0.22877,0.71875,0.46875,0.21598,0.21602,0.39448,0.44027,0.5625,0.65625,0.35998-0.33598,0.56248-0.81348,0.5625-1.4375-0.00002-0.38398-0.0675-0.76498-0.1875-1.125-0.43202-1.2-1.633-1.7812-3.625-1.7812zm-211.33,0.0312c-1.32,0.00003-2.2148,0.41003-2.7188,1.25-0.096,0.38402-0.23103,0.56252-0.375,0.5625-0.096,0.00002-0.25278-0.15673-0.46875-0.46875-0.21603-0.33597-0.37275-0.5145-0.46875-0.5625-0.67203-0.45597-1.4485-0.68747-2.3125-0.6875-0.36003,0.00003-0.71702,0.053-1.125,0.125-1.272,0.45603-2.034,1.1265-2.25,2.0625-0.21602,0.93602-0.0883,1.616,0.34375,2,0.52798-0.67198,1.1695-0.99998,1.9375-1,0.16798,0,0.33198,0.0145,0.5,0.0625,0.38397,0.12002,0.76497,0.46252,1.125,1.0625,0.264,3.264,0.30747,6.7198,0.1875,10.344-0.048,0.072-0.0697,0.1395-0.0937,0.1875-0.93603-1.44-2.1298-3.7165-3.5938-6.8125-1.44-3.12-2.6338-5.4182-3.5938-6.9062-0.26402-0.62397-0.80177-0.99775-1.5938-1.0938-0.98402,0.12003-1.7075,0.42628-2.1875,0.90625-0.048,0.024-0.20477,0.24103-0.46875,0.625-0.19201,0.28802-0.41626,0.44475-0.65625,0.46875-0.93601-1.224-2.0188-1.8582-3.2188-1.9062-2.376-0.096-3.8303,0.64203-4.4062,2.25-0.26401,0.79202-0.18926,1.5155,0.21875,2.1875,0.23999-0.21598,0.39675-0.40173,0.46875-0.59375,0.43199-0.576,1.1025-0.79298,2.0625-0.625,0.50399,0.31202,0.86324,0.76052,1.0312,1.3125,0.048,3.792,0.0625,5.6802,0.0625,5.6562-0.048,0.14402-0.13726,0.2405-0.28125,0.3125-1.512,0.28802-2.5273,0.67627-3.0312,1.1562-0.67201,0.64801-1,1.4463-1,2.4062-0.00001,0.26401,0.0217,0.50276,0.0937,0.71875,0.072,0.192,0.14675,0.28126,0.21875,0.28125,0.096,0.00001,0.23824-0.11099,0.40625-0.375,0.16799-0.28799,0.31749-0.4905,0.4375-0.5625,0.59999-0.408,1.3307-0.51174,2.2188-0.34375,0.35999,0.072,0.66624,0.37826,0.90625,0.90625,0.16799,1.728,0.16074,3.9805-0.0312,6.8125-0.16801,0.384-0.33201,0.683-0.5,0.875-0.43201,0.336-0.94801,0.5-1.5,0.5-0.28801,0-0.54851-0.029-0.8125-0.125-0.096-0.024-0.23101-0.15175-0.375-0.34375-0.12001-0.216-0.2165-0.3125-0.3125-0.3125-0.072,0-0.14675,0.0217-0.21875,0.0937-0.144,0.36-0.21876,0.74825-0.21875,1.1562-0.00001,0.792,0.25324,1.4938,0.78125,2.0938,0.64799,0.528,1.439,0.78125,2.375,0.78125,1.44,0,2.53-0.51375,3.25-1.5938,0.64799,0.888,1.3642,1.3728,2.1562,1.4688,1.56,0.192,2.8067-0.271,3.7188-1.375,0.26398-0.408,0.40623-0.9385,0.40625-1.5625-0.00002-0.576-0.13502-1.0535-0.375-1.4375-0.096,0-0.178,0.0747-0.25,0.21875-0.072,0.12-0.14675,0.19475-0.21875,0.21875-0.38402,0.36-0.86152,0.5625-1.4375,0.5625-0.31202,0-0.61102-0.0675-0.875-0.1875-0.45602-0.168-0.79852-0.6455-1.0625-1.4375-0.00001-0.64799-0.053-2.3505-0.125-5.0625-0.072-2.064-0.072-3.7955,0-5.1875,0.024-0.024,0.024-0.14948,0-0.4375-0.00001-0.28798,0.082-0.48325,0.25-0.53125,0.74398,1.512,2.051,3.938,3.875,7.25,1.68,3.12,2.9412,5.5148,3.7812,7.2188,0.52798,1.104,1.3552,1.6562,2.5312,1.6562,0.81597,0,1.5852-0.3425,2.2812-1.0625,0.16797-0.288,0.32472-0.4375,0.46875-0.4375,0.14397,0,0.39722,0.23875,0.78125,0.71875,0.40797,0.456,0.78897,0.673,1.125,0.625,0.47997,0.096,0.95022,0.125,1.4062,0.125,1.392,0,2.4362-0.4775,3.1562-1.4375,0.28797-0.576,0.43747-1.1428,0.4375-1.7188-0.00003-0.432-0.0893-0.83475-0.28125-1.2188-0.12003,0.024-0.25503,0.1205-0.375,0.3125-0.096,0.192-0.19253,0.327-0.3125,0.375-0.43203,0.408-0.96978,0.572-1.5938,0.5-0.86403-0.312-1.3488-0.84975-1.4688-1.5938-0.024-10.464-0.0313-15.851-0.0312-16.188-0.00003-0.74398,0.39547-1.3855,1.1875-1.9375,0.21597-0.096,0.45472-0.15623,0.71875-0.15625,0.74397,0.00002,1.4312,0.31352,2.0312,0.9375,0.264-0.88798,0.33871-1.6717,0.21875-2.3438-0.28803-0.83997-0.89328-1.3922-1.7812-1.6562-0.40803-0.048-0.79628-0.0625-1.1562-0.0625zm161.59,0c-1.32,0.00003-2.246,0.41003-2.75,1.25-0.096,0.38402-0.19977,0.56252-0.34375,0.5625-0.096,0.00002-0.25277-0.15673-0.46875-0.46875-0.21602-0.33597-0.37275-0.5145-0.46875-0.5625-0.67202-0.45597-1.4485-0.68747-2.3125-0.6875-0.36002,0.00003-0.74827,0.053-1.1562,0.125-1.272,0.45603-2.0028,1.1265-2.2188,2.0625-0.21602,0.93602-0.11952,1.616,0.3125,2,0.52798-0.67198,1.1695-0.99998,1.9375-1,0.16798,0,0.33198,0.0145,0.5,0.0625,0.38398,0.12002,0.76498,0.46252,1.125,1.0625,0.264,3.264,0.33873,6.7198,0.21875,10.344-0.048,0.072-0.0697,0.1395-0.0937,0.1875-0.93602-1.44-2.161-3.7165-3.625-6.8125-1.44-3.12-2.6338-5.4182-3.5938-6.9062-0.26401-0.62397-0.80176-0.99775-1.5938-1.0938-0.98401,0.12003-1.7075,0.42628-2.1875,0.90625-0.048,0.024-0.20476,0.24103-0.46875,0.625-0.19201,0.28802-0.41626,0.44475-0.65625,0.46875-0.93601-1.224-1.9875-1.8582-3.1875-1.9062-2.376-0.096-3.8615,0.64203-4.4375,2.25-0.264,0.79202-0.18925,1.5155,0.21875,2.1875,0.24-0.21598,0.39675-0.40173,0.46875-0.59375,0.432-0.576,1.1338-0.79298,2.0938-0.625,0.504,0.31202,0.83199,0.76052,1,1.3125,0.048,3.792,0.0625,5.6802,0.0625,5.6562-0.048,0.14402-0.13726,0.2405-0.28125,0.3125-1.512,0.28802-2.496,0.67627-3,1.1562-0.672,0.64801-1.0312,1.4463-1.0312,2.4062,0,0.26401,0.053,0.50276,0.125,0.71875,0.072,0.192,0.14675,0.28126,0.21875,0.28125,0.096,0.00001,0.207-0.11099,0.375-0.375,0.168-0.28799,0.3175-0.4905,0.4375-0.5625,0.6-0.408,1.362-0.51174,2.25-0.34375,0.36,0.072,0.63499,0.37826,0.875,0.90625,0.16799,1.728,0.16074,3.9805-0.0312,6.8125-0.16801,0.384-0.33201,0.683-0.5,0.875-0.432,0.336-0.91675,0.5-1.4688,0.5-0.288,0-0.57975-0.029-0.84375-0.125-0.096-0.024-0.19975-0.15175-0.34375-0.34375-0.12-0.216-0.24775-0.3125-0.34375-0.3125-0.072,0-0.1155,0.0217-0.1875,0.0937-0.144,0.36-0.21875,0.74825-0.21875,1.1562,0,0.792,0.25325,1.4938,0.78125,2.0938,0.648,0.528,1.439,0.78125,2.375,0.78125,1.44,0,2.53-0.51375,3.25-1.5938,0.64799,0.888,1.3642,1.3728,2.1562,1.4688,1.56,0.192,2.7755-0.271,3.6875-1.375,0.26399-0.408,0.40624-0.9385,0.40625-1.5625-0.00001-0.576-0.10376-1.0535-0.34375-1.4375-0.096,0-0.178,0.0747-0.25,0.21875-0.072,0.12-0.14675,0.19475-0.21875,0.21875-0.38401,0.36-0.86151,0.5625-1.4375,0.5625-0.31201,0-0.61101-0.0675-0.875-0.1875-0.45601-0.168-0.82976-0.6455-1.0938-1.4375-0.00001-0.64799-0.0217-2.3505-0.0937-5.0625-0.072-2.064-0.072-3.7955,0-5.1875,0.024-0.024,0.024-0.14948,0-0.4375-0.00001-0.28798,0.082-0.48325,0.25-0.53125,0.74399,1.512,2.0197,3.938,3.8438,7.25,1.68,3.12,2.9412,5.5148,3.7812,7.2188,0.52798,1.104,1.3865,1.6562,2.5625,1.6562,0.81598,0,1.5852-0.3425,2.2812-1.0625,0.16798-0.288,0.32473-0.4375,0.46875-0.4375,0.14398,0,0.39723,0.23875,0.78125,0.71875,0.40798,0.456,0.78898,0.673,1.125,0.625,0.47997,0.096,0.91897,0.125,1.375,0.125,1.392,0,2.4675-0.4775,3.1875-1.4375,0.28797-0.576,0.43747-1.1428,0.4375-1.7188-0.00003-0.432-0.12053-0.83475-0.3125-1.2188-0.12003,0.024-0.22378,0.1205-0.34375,0.3125-0.096,0.192-0.19253,0.327-0.3125,0.375-0.43203,0.408-0.96978,0.572-1.5938,0.5-0.86403-0.312-1.3488-0.84975-1.4688-1.5938-0.024-10.464-0.0313-15.851-0.0312-16.188-0.00003-0.74398,0.39547-1.3855,1.1875-1.9375,0.21597-0.096,0.45472-0.15623,0.71875-0.15625,0.74397,0.00002,1.4,0.31352,2,0.9375,0.264-0.88798,0.33872-1.6717,0.21875-2.3438-0.28803-0.83997-0.86203-1.3922-1.75-1.6562-0.40803-0.048-0.79628-0.0625-1.1562-0.0625zm-139.72,0.0312c-1.992,0.00003-3.7453,0.40278-5.2812,1.2188-0.096,0.048-0.31301,0.19753-0.625,0.4375-0.28801,0.21602-0.52676,0.327-0.71875,0.375-0.60001-0.88797-1.4948-1.409-2.7188-1.625-0.528-0.144-1.0658-0.21872-1.5938-0.21875-1.584,0.00003-2.785,0.51378-3.625,1.5938-0.432,0.55202-0.65625,1.179-0.65625,1.875,0,0.43202,0.082,0.86602,0.25,1.25,0.144-0.072,0.30075-0.22873,0.46875-0.46875,0.168-0.26398,0.32475-0.4665,0.46875-0.5625,0.408-0.432,1.064-0.53573,2-0.34375,0.576,0.19202,0.9425,0.58027,1.0625,1.1562l0.0625,5.75c0,0.14402-0.0747,0.2405-0.21875,0.3125-0.144,0.072-0.308,0.11775-0.5,0.0937-0.648-0.072-1.275,0.0463-1.875,0.40625-0.6,0.36001-1.0245,0.87601-1.3125,1.5-0.168,0.50401-0.25,0.92126-0.25,1.2812,0,0.48001,0.15675,0.87551,0.46875,1.1875,0.696-0.98399,1.4412-1.3867,2.2812-1.2188,0.768,0.26401,1.2165,0.58476,1.3125,0.96875,0.12,3.576,0.067,5.92-0.125,7-0.504,0.888-1.1382,1.2908-1.9062,1.2188-0.864-0.144-1.4308-0.5105-1.7188-1.0625-0.264,0.192-0.40625,0.573-0.40625,1.125,0,0.408,0.0675,0.81075,0.1875,1.2188,0.552,1.032,1.3502,1.6372,2.4062,1.7812,0.528,0.096,1.0512,0.125,1.5312,0.125,2.064,0,3.4892-0.70175,4.2812-2.0938,0.62399,0.408,1.0485,0.789,1.3125,1.125,1.248,0.672,2.8227,1,4.7188,1,1.224,0,2.478-0.11825,3.75-0.40625,2.28-0.456,4.1972-1.7172,5.7812-3.7812,1.392-1.824,2.3782-4.004,2.9062-6.5,0.12-1.176,0.15622-2.2805,0.15625-3.3125-0.00003-4.968-1.5893-8.4527-4.7812-10.469-2.064-1.296-4.4298-1.9375-7.0938-1.9375zm20.031,0.0937c-0.84001,0.048-1.6093,0.28678-2.2812,0.71875-0.74401,0.45603-1.2143,1.0758-1.4062,1.8438-0.26401,1.008-0.19651,1.6495,0.1875,1.9375,0.19199-0.50398,0.58749-0.92123,1.1875-1.2812,0.31199-0.096,0.61824-0.15623,0.90625-0.15625,0.74399,0.00002,1.2215,0.29177,1.4375,0.84375,0.28799,0.69602,0.43749,1.5835,0.4375,2.6875-0.00001,0.40802-0.053,1.0953-0.125,2.0312-0.048,0.84002-0.0553,1.4743-0.0312,1.9062-0.096,0.24-0.32026,0.32925-0.65625,0.28125-0.43201-0.048-0.69976-0.0408-0.84375,0.0312-0.93601,0.072-1.727,0.72076-2.375,1.9688-0.24001,1.176-0.20376,1.938,0.15625,2.25,0.19199-0.23999,0.327-0.44974,0.375-0.59375,0.43199-0.528,1.2302-0.69924,2.4062-0.53125,0.50399,0.26401,0.803,0.55576,0.875,0.84375,0.19199,2.4,0.13899,4.7875-0.125,7.1875-0.40801,0.696-0.98201,1.024-1.75,1-0.55201,0.096-1.1573-0.1645-1.7812-0.8125-0.21601,0.336-0.31251,0.746-0.3125,1.25-0.00001,0.504,0.0965,0.914,0.3125,1.25,0.14399,0.336,0.42124,0.62775,0.78125,0.84375,0.072,0.048,0.39274,0.20475,0.96875,0.46875,0.57599,0.144,1.15,0.21875,1.75,0.21875,1.968,0,3.4005-0.61975,4.3125-1.8438,0.11999,0.096,0.35873,0.34925,0.71875,0.78125,0.28798,0.36,0.57248,0.5915,0.8125,0.6875,0.79198,0.312,1.612,0.46875,2.5,0.46875,1.464,0,2.6142-0.41725,3.4062-1.2812,0.45598-0.504,0.7165-1.4445,0.8125-2.8125-0.048-0.192-0.1155-0.28125-0.1875-0.28125s-0.18302,0.111-0.375,0.375c-0.16802,0.24-0.31025,0.38225-0.40625,0.40625-0.55202,0.216-1.0368,0.3125-1.4688,0.3125-0.48002,0-0.86102-0.10375-1.125-0.34375-0.36002-0.552-0.5915-1.0078-0.6875-1.3438,0-0.14399-0.007-2.8305-0.0312-8.0625-0.024-3.192-0.024-5.893,0-8.125-0.00002-0.57598,0.29173-1.1282,0.84375-1.6562,0.43198-0.312,0.99873-0.447,1.7188-0.375,0.71998,0.24002,1.13,0.62827,1.25,1.1562,0.26398-0.47998,0.40623-1.025,0.40625-1.625-0.00002-1.152-0.70902-1.9502-2.125-2.4062-0.64802-0.144-1.2605-0.21872-1.8125-0.21875-1.224,0.00003-2.179,0.31353-2.875,0.9375-0.14402,0.096-0.38277,0.34203-0.71875,0.75-0.26402,0.28802-0.49551,0.44475-0.6875,0.46875-0.64801-1.56-2.095-2.2762-4.375-2.1562zm47.875,0c-0.84001,0.048-1.6093,0.28678-2.2812,0.71875-0.744,0.45603-1.2142,1.0758-1.4062,1.8438-0.264,1.008-0.1965,1.6495,0.1875,1.9375,0.192-0.50398,0.5875-0.92123,1.1875-1.2812,0.31199-0.096,0.61824-0.15623,0.90625-0.15625,0.74399,0.00002,1.2215,0.29177,1.4375,0.84375,0.28799,0.69602,0.43749,1.5835,0.4375,2.6875-0.00001,0.40802-0.053,1.0953-0.125,2.0312-0.048,0.84002-0.0553,1.4743-0.0312,1.9062-0.096,0.24-0.28901,0.32925-0.625,0.28125-0.43201-0.048-0.73101-0.0408-0.875,0.0312-0.93601,0.072-1.727,0.72076-2.375,1.9688-0.24,1.176-0.1725,1.938,0.1875,2.25,0.192-0.23999,0.29575-0.44974,0.34375-0.59375,0.43199-0.528,1.2302-0.69924,2.4062-0.53125,0.50399,0.26401,0.803,0.55576,0.875,0.84375,0.19199,2.4,0.17024,4.7875-0.0937,7.1875-0.40801,0.696-1.0133,1.024-1.7812,1-0.55201,0.096-1.126-0.1645-1.75-0.8125-0.216,0.336-0.34375,0.746-0.34375,1.25s0.12775,0.914,0.34375,1.25c0.144,0.336,0.39,0.62775,0.75,0.84375,0.072,0.048,0.39274,0.20475,0.96875,0.46875,0.57599,0.144,1.15,0.21875,1.75,0.21875,1.968,0,3.4317-0.61975,4.3438-1.8438,0.11999,0.096,0.35874,0.34925,0.71875,0.78125,0.28799,0.36,0.54124,0.5915,0.78125,0.6875,0.79199,0.312,1.6432,0.46875,2.5312,0.46875,1.464,0,2.583-0.41725,3.375-1.2812,0.45598-0.504,0.7165-1.4445,0.8125-2.8125-0.048-0.192-0.0842-0.28125-0.15625-0.28125-0.072,0-0.21427,0.111-0.40625,0.375-0.16802,0.24-0.31025,0.38225-0.40625,0.40625-0.55202,0.216-1.0368,0.3125-1.4688,0.3125-0.48002,0-0.86102-0.10375-1.125-0.34375-0.36002-0.552-0.56025-1.0078-0.65625-1.3438,0-0.14399-0.0385-2.8305-0.0625-8.0625-0.024-3.192-0.024-5.893,0-8.125-0.00002-0.57598,0.29173-1.1282,0.84375-1.6562,0.43198-0.312,0.99873-0.447,1.7188-0.375,0.71998,0.24002,1.13,0.62827,1.25,1.1562,0.26398-0.47998,0.40623-1.025,0.40625-1.625-0.00002-1.152-0.70902-1.9502-2.125-2.4062-0.64802-0.144-1.2293-0.21872-1.7812-0.21875-1.224,0.00003-2.2103,0.31353-2.9062,0.9375-0.14401,0.096-0.38276,0.34203-0.71875,0.75-0.26401,0.28802-0.49551,0.44475-0.6875,0.46875-0.64801-1.56-2.095-2.2762-4.375-2.1562zm-23.06,0.04c-0.64801,0.00003-1.656,0.15678-3,0.46875-1.32,0.31203-2.2895,0.46878-2.9375,0.46875-1.08,0.00003-2.0278-0.26772-2.8438-0.84375,0.072,0.33603,0.0937,0.67853,0.0937,1.0625,0,0.57602-0.0892,1.4345-0.28125,2.5625-0.168,1.128-0.25,1.972-0.25,2.5,0,1.08,0.246,1.9748,0.75,2.7188,0.6,0.50402,1.362,0.75002,2.25,0.75,0.50399,0.00002,0.92849-0.082,1.3125-0.25,0.55199-0.096,0.84374-0.28173,0.84375-0.59375-0.00001-0.14398-0.13501-0.44298-0.375-0.875-0.24001-0.43198-0.34376-0.75998-0.34375-1,0-0.11998,0.0145-0.24775,0.0625-0.34375,0.096-1.584,0.57349-2.6137,1.4375-3.0938,0.38399-0.144,0.75774-0.21873,1.0938-0.21875,0.55199,0.00002,0.97649,0.21702,1.3125,0.625,0.26399,0.76802,0.40624,1.805,0.40625,3.125,0.024,1.896,0.0312,2.9715,0.0312,3.1875-0.16801,0.216-0.66726,0.30525-1.5312,0.28125-1.392,0.24002-2.3783,0.97801-2.9062,2.25-0.096,0.43201-0.12501,0.82026-0.125,1.1562-0.00001,0.74401,0.23874,1.2745,0.71875,1.5625,0.19199-0.38399,0.45249-0.71199,0.8125-1,0.57599-0.26399,1.1065-0.40624,1.5625-0.40625,0.28799,0.00001,0.53399,0.029,0.75,0.125,0.43199,0.14401,0.678,0.50326,0.75,1.0312,0-0.31199,0.007,0.79976,0.0312,3.3438,0.024,1.344-0.058,2.4413-0.25,3.2812-0.24001,0.48-0.75376,0.7935-1.5938,0.9375-0.40801,0.072-0.83476-0.0485-1.2188-0.3125l-0.84375-0.78125c-0.192,0.336-0.28126,0.717-0.28125,1.125-0.00001,0.744,0.25324,1.453,0.78125,2.125,0.71999,0.912,2.1235,1.3075,4.1875,1.1875,0.71999-0.048,1.3832-0.28675,2.0312-0.71875,0.64798-0.456,1.1037-1.0155,1.3438-1.6875,0.072,0.072,0.22148,0.27225,0.4375,0.65625,0.23998,0.384,0.47148,0.6685,0.6875,0.8125,0.88798,0.6,1.925,0.90625,3.125,0.90625,0.93598,0,1.756-0.2025,2.5-0.5625,1.2-0.6,1.798-1.7262,1.75-3.4062-0.00002-0.312-0.053-0.46875-0.125-0.46875-0.024,0-0.10602,0.10375-0.25,0.34375-0.14402,0.216-0.2405,0.351-0.3125,0.375-0.48002,0.312-1.025,0.46875-1.625,0.46875-0.48002,0-0.94302-0.135-1.375-0.375-0.40802-0.24-0.71427-0.7175-0.90625-1.4375-0.072-5.544-0.0865-9.7305-0.0625-12.562,0.024-0.19198,0.0168-0.91548-0.0312-2.1875-0.024-0.88798,0.12548-1.5825,0.4375-2.0625,0.67198-0.74398,1.2387-1.0865,1.7188-1.0625,0.81598,0.16802,1.3827,0.48877,1.7188,0.96875,0.192,0.45602,0.31248,0.99377,0.3125,1.5938-0.00002,0.98402-0.23152,1.9463-0.6875,2.9062,0.55198,0.52802,1.2827,0.78127,2.2188,0.78125,0.55197,0.00002,1.0752-0.0965,1.5312-0.3125,1.008-0.71998,1.5-1.757,1.5-3.125-0.00003-0.50398-0.0893-1.295-0.28125-2.375-0.168-1.104-0.25003-1.9407-0.25-2.4688,0-0.33597,0.0145-0.64947,0.0625-0.9375-0.67203,0.28803-1.4413,0.43753-2.2812,0.4375-0.60003,0.00003-1.4948-0.0965-2.7188-0.3125-1.224-0.21597-2.1645-0.34372-2.8125-0.34375-0.52802,0.00003-1.02,0.0675-1.5,0.1875-0.55202,0.072-1.0898,0.36378-1.5938,0.84375-0.48002,0.48002-0.80802,0.98652-1,1.5625-0.28802-0.55198-0.51227-0.96923-0.65625-1.2812-0.93601-0.86397-2.0405-1.3125-3.3125-1.3125zm-108.09,3.125c0.79198,0.00002,1.4117,0.24602,1.8438,0.75,1.008,1.296,1.5385,3.37,1.5625,6.25-0.84002,0.31202-1.5128,0.48325-1.9688,0.53125-1.512,0.67202-2.303,1.6945-2.375,3.0625-0.00002,0.24001-0.00002,0.51726,0,0.78125,0.024,0.24001,0.0987,0.41851,0.21875,0.5625,0.79198-0.81599,1.583-1.2187,2.375-1.2188,0.21598,0,0.44023,0.0145,0.65625,0.0625,0.67198,0.28801,0.99998,0.92951,1,1.9375-0.00002,0.31201-0.0217,0.75326-0.0937,1.2812-0.072,0.60001-0.12502,0.98826-0.125,1.1562-0.36002,1.296-0.62777,2.169-0.84375,2.625-0.48002,0.96-1.1745,1.5412-2.0625,1.7812-1.728,0.12-2.8325-0.3575-3.3125-1.4375-0.86402-1.944-1.2813-4.4207-1.2812-7.4688-0.00002-1.2,0.082-2.8495,0.25-4.9375,0.19198-2.88,1.1397-4.7392,2.8438-5.5312,0.47998-0.144,0.90448-0.18748,1.3125-0.1875zm161.59,0c0.79198,0.00002,1.4117,0.24602,1.8438,0.75,1.008,1.296,1.5072,3.37,1.5312,6.25-0.84002,0.31202-1.4815,0.48325-1.9375,0.53125-1.512,0.67202-2.303,1.6945-2.375,3.0625v0.78125c0.024,0.24001,0.0987,0.41851,0.21875,0.5625,0.79198-0.81599,1.583-1.2187,2.375-1.2188,0.21598,0,0.44023,0.0145,0.65625,0.0625,0.67198,0.28801,0.99998,0.92951,1,1.9375-0.00002,0.31201-0.053,0.75326-0.125,1.2812-0.072,0.60001-0.0938,0.98826-0.0937,1.1562-0.36002,1.296-0.65902,2.169-0.875,2.625-0.48002,0.96-1.1433,1.5412-2.0312,1.7812-1.728,0.12-2.8325-0.3575-3.3125-1.4375-0.86401-1.944-1.3125-4.4207-1.3125-7.4688-0.00001-1.2,0.082-2.8495,0.25-4.9375,0.19199-2.88,1.1397-4.7392,2.8438-5.5312,0.47999-0.144,0.93573-0.18748,1.3438-0.1875zm-98.688,0.25c0.74399,0.00002,1.3325,0.18577,1.8125,0.59375,0.83998,0.69602,1.385,1.7113,1.625,3.0312,0.12,0.74402,0.18025,1.9305,0.15625,3.5625-1.608-0.096-2.8018,0.44902-3.5938,1.625-0.48001,0.69601-0.60776,1.569-0.34375,2.625,0.11999,0.12,0.24775,0.18751,0.34375,0.1875,0.11999,0.00001,0.28399-0.14224,0.5-0.40625,0.23999-0.28799,0.42573-0.43749,0.59375-0.4375,0.59998-0.28799,1.3017-0.29524,2.0938-0.0312,0.38398,0.31201,0.59373,0.80401,0.59375,1.5-0.00002,0.048-0.082,0.72076-0.25,1.9688-0.28802,1.296-0.57977,2.198-0.84375,2.75-0.43202,1.008-1.0518,1.7628-1.8438,2.2188-0.45601,0.168-0.92626,0.25-1.4062,0.25-0.60001,0-1.0993-0.1495-1.5312-0.4375-0.31201-0.6-0.4615-1.444-0.4375-2.5,0.048-1.44,0.0553-2.3057,0.0312-2.5938-0.072-5.256-0.0938-9.2255-0.0937-11.938-0.00001-0.67198,0.34974-1.2242,1.0938-1.6562,0.45599-0.21598,0.97199-0.31248,1.5-0.3125zm158.22,4.125c0.91198,2.904,1.5462,5.1058,1.9062,6.5938,0.024,0.048,0.0168,0.1155-0.0312,0.1875-0.048,0.048-0.0625,0.0697-0.0625,0.0937-1.656-0.28799-2.8883-0.27349-3.6562,0.0625-0.072-0.14399-0.072-0.38999,0-0.75,0.38399-1.824,1.0037-3.8835,1.8438-6.1875z"/>
</svg>
