<?xml version="1.0" encoding="UTF-8" standalone="no"?>
<svg xmlns:rdf="http://www.w3.org/1999/02/22-rdf-syntax-ns#" xmlns="http://www.w3.org/2000/svg" height="41" width="40.643" version="1.1" xmlns:cc="http://creativecommons.org/ns#" xmlns:dc="http://purl.org/dc/elements/1.1/">
 <path fill="#434343" d="M23.183,39.411c-1.726-0.302-6.153-0.95-9.836-1.441-3.683-0.492-7.4403-1.004-8.3492-1.139-1.0174-0.151-2.1032-0.696-2.8252-1.418l-1.1726-1.173v-11.974c0-9.11,0.1352-12.297,0.5652-13.321,0.4075-0.9711,1.7452-2.1388,4.7958-4.1861,2.3269-1.5616,4.86-3.1021,5.629-3.4234,1.434-0.59905,3.474-0.46974,15.797,1.0012,1.9567,0.23356,4.6229,0.54361,5.9248,0.689,2.7845,0.31096,4.8137,1.4193,5.3943,2.9463,0.22875,0.60166,0.44309,5.6694,0.47631,11.262l0.06037,10.168-1.1372,2.3244c-0.87049,1.7792-2.0401,3.0957-4.9861,5.6123-4.5688,3.9028-5.7051,4.7103-6.558,4.6602-0.35163-0.02071-2.0519-0.28459-3.7784-0.58653zm4.2307-2.515,0.25452-1.6742,0.05935,1.7922c0.05832,1.7609,0.07719,1.7828,1.0767,1.2556,1.3273-0.7,5.917-4.6891,7.7311-6.7194,1.2817-1.4344,1.4566-1.9366,1.7525-5.0299,0.489-5.109,0.456-19.467-0.047-20.406-0.694-1.2968-1.716-1.6146-8.022-2.4942-18.483-2.578-16.915-2.5411-20.323-0.4786-1.5547,0.94078-3.249,2.0456-3.7652,2.4553-0.93024,0.73816-0.91917,0.74454,1.2556,0.72276,2.1557-0.021628,4.0776,0.49063,4.0776,1.0867,0,0.94994-5.1128,0.82596-6.195-0.15022-0.5879-0.5302-0.8384-0.5482-1.4438-0.1041-1.0309,0.7564-0.9132,1.2585,0.4186,1.7847l1.151,0.45481-1.3254,0.04449c-0.729,0.0245-1.4161-0.1909-1.5269-0.4786-0.1113-0.289-0.2433-0.1485-0.2947,0.3139-0.2373,2.1309-0.4156,23.968-0.2027,24.827,0.41161,1.6597,1.3826,1.8987,16.534,4.0693,1.9567,0.28034,4.6877,0.48556,6.069,0.45608l2.5113-0.0536,0.25451-1.6742zm-6.665-1.045c-1.8496-1.5417-1.0255-4.6053,1.2389-4.6053,1.3618,0,2.809,0.93614,3.3075,2.1395,0.66576,1.6073,0.25501,2.608-0.91773,2.2358-0.71799-0.22788-0.84943-0.14822-0.64302,0.38969,0.37766,0.98414-1.7499,0.87036-2.9856-0.15966zm8.1294-0.66337c-0.13973-0.36412-0.25406-1.1498-0.25406-1.7459s-0.30051-1.4159-0.6678-1.8217c-0.55777-0.61633-0.65805-1.826-0.60861-7.3419,0.0326-3.6322,0.13698-6.6818,0.23205-6.7768,0.09502-0.09512,0.69854,0.45895,1.3411,1.2312,0.64252,0.77223,1.6974,1.973,2.3443,2.6685,0.99519,1.07,1.1378,1.1264,0.92752,0.36681-0.15427-0.55715,0.01692-1.1631,0.45145-1.5976,0.6543-0.6543,0.63723-0.78697-0.26134-2.0322l-0.96134-1.3322,1.035,0.94174c1.1641,1.0592,1.9895,1.2768,1.1903,0.31391-0.3135-0.37774-0.34812-0.62783-0.08693-0.62783,0.42851,0,3.4353,3.8245,3.4353,4.3695,0,0.15465-0.46492-0.24728-1.0331-0.89317-0.79346-0.90189-1.0362-1.0101-1.0464-0.46659-0.0071,0.38926,0.1741,0.82354,0.40307,0.96505,0.22896,0.14151,0.63307,0.67057,0.898,1.1757l0.48171,0.91843-0.96372-0.8371-0.9637-0.8371,0.2358,0.94174c0.12969,0.51795,0.05392,0.94174-0.16827,0.94174-0.22224,0-0.26968,0.21744-0.10542,0.48322,0.17343,0.28062,0.11593,0.3703-0.13715,0.21389-0.58984-0.36455-1.5086,0.80538-1.1638,1.4819,0.15179,0.29784-0.9748-0.77691-2.5035-2.3883-3.0527-3.2178-3.0762-2.5655-0.03516,0.9759,2.6176,3.0483,2.4328,3.3284-0.22707,0.34411-1.1788-1.3226-2.2441-2.304-2.3673-2.1808-0.12319,0.12318,0.66768,1.4032,1.7575,2.8444l1.9815,2.6204-1.9162-2.0813c-2.0608-2.2384-2.5801-2.1203-0.86981,0.19782,1.3465,1.8251,1.3256,2.0745-0.06745,0.80541-0.61263-0.55807-0.9731-0.77101-0.80107-0.47317,0.17204,0.29784,0.09646,0.80226-0.16808,1.1209-0.36718,0.44242-0.32368,0.88341,0.184,1.8651,0.68467,1.324,1.2347,1.6034,1.694,0.86033,0.14459-0.23396,0.44496-0.31285,0.66748-0.17533,0.52016,0.32147,0.3425,3.5306-0.19546,3.5306-0.22356,0-0.28754,0.11894-0.14217,0.2643,0.3266,0.32661-0.43879,1.8284-0.93184,1.8284-0.19747,0-0.47336-0.29792-0.6131-0.66206zm2.3438-13.021c-0.98557-1.3757-3.3106-3.5603-2.8097-2.64,0.18792,0.34531,0.99274,1.4386,1.7885,2.4296,1.5707,1.956,2.3931,2.1254,1.0212,0.21043zm-27.261,11.21c-1.1212-0.862-1.3931-1.767-1.0429-3.472,0.29549-1.439,1.3966-1.7886,3.226-1.0242,1.6542,0.69117,2.4856,2.4266,1.9092,3.985-0.30227,0.81711-0.47276,0.8981-0.98888,0.46977-0.5089-0.42236-0.62364-0.39264-0.62364,0.1615,0,0.90478-1.2239,0.84575-2.4798-0.11963zm2.4927-2.0571c-0.2402-0.08006-0.31866-0.33662-0.17434-0.57014,0.16007-0.259-0.07299-0.24506-0.5977,0.03577-1.2295,0.658-1.6891,0.54422-0.73049-0.18082,0.44685-0.33799,0.59923-0.61451,0.33861-0.61451-0.51298,0-1.0804,0.73581-1.2061,1.564-0.05709,0.37625,0.13226,0.40484,0.69318,0.10464,1.296-0.69358,1.514-0.44342,0.40822,0.46829l-1.0464,0.86271,1.3759-0.76218c0.75672-0.41919,1.1793-0.82768,0.93912-0.90775zm28.9-1.08c-0.77071-0.92865,0.52565-4.8533,1.6031-4.8533,0.62177,0,0.77248,2.4938,0.18041,2.9852-0.30354,0.25192-0.45918,0.60804-0.34586,0.79138,0.26355,0.42645-0.20305,1.6645-0.62733,1.6645-0.17738,0-0.54203-0.26451-0.81034-0.58779zm-5.824-11.563c-1.2282-1.1963-2.161-2.4789-2.161-2.9712,0-1.1062-2.3219-3.2945-3.4973-3.296-0.4936-0.000831-3.1576-0.37682-5.92-0.8359s-5.1638-0.83523-5.3365-0.83589c-0.17265-0.00084-0.31391-0.20066-0.31391-0.44445s0.14126-0.35812,0.31391-0.25406c0.17265,0.10405,3.0449,0.59144,6.3829,1.0831,7.8945,1.1628,8.4263,1.2788,8.1215,1.772-0.28708,0.4645,1.4058,2.4462,2.0896,2.4462,0.24123,0,0.04039-0.39825-0.4464-0.88499-0.82792-0.82793-0.84067-0.93806-0.19765-1.7077,0.92137-1.1028,5.4485-4.688,6.7563-5.3506,1.1449-0.58005,0.83057-0.20005-0.9223,1.1152l-1.1316,0.84905,1.2362,1.1844c1.211,1.1602,1.2362,1.1651,1.2362,0.24145,0-1.2519,0.7299-2.5621,1.4273-2.5621,0.30844,0,0.6785,0.58858,0.82237,1.308,0.41818,2.0909,0.33741,2.4611-0.47086,2.1582-0.63052-0.2363-0.65575-0.18012-0.18127,0.40368,0.46667,0.57418,0.41619,0.81319-0.32917,1.5585-0.4842,0.48421-0.7517,1.1089-0.59443,1.3883,0.41324,0.73403-0.237,0.01076-2.0832-2.3173-0.86716-1.0935-1.8577-1.9881-2.2011-1.9881-0.37952,0,0.21661,0.95552,1.5198,2.436,1.9722,2.2405,4.4879,5.935,4.0414,5.935-0.10414,0-0.76451-0.89465-1.4675-1.9881-1.3166-2.0481-4.929-5.8449-5.2514-5.5197-0.09984,0.10076,0.88896,1.4394,2.1974,2.9749,2.1421,2.5138,4.5885,6.2071,4.1116,6.2071-0.10279,0-0.96997-1.2019-1.9271-2.6709-1.8863-2.8952-3.2271-4.319-3.6598-3.8863-0.15065,0.15065,0.01025,0.60466,0.35745,1.0089,1.1254,1.3102,1.4076,2.0664,0.46232,1.2388-0.83695-0.73272-0.86592-0.72348-1.1386,0.36313-0.19371,0.77178-0.05966,1.3583,0.43549,1.9054,0.39344,0.43475,0.59537,0.91042,0.44873,1.0571-0.14664,0.14663-0.38538-0.04284-0.53052-0.42112-0.14515-0.37825-0.45377-0.68773-0.68582-0.68773s-0.11338,0.47087,0.2637,1.0464c0.98881,1.5091,0.65544,1.3105-1.7767-1.0586zm-0.85342-2.6107c-0.41337-0.41028-0.46144-0.36221-0.2343,0.2343,0.15718,0.41278,0.39122,0.64507,0.52008,0.5162,0.12887-0.12886,0.000276-0.46659-0.28577-0.7505zm6.705-3.765c-0.92654-1.4992-2.5726-3.1731-2.5726-2.6162,0,0.48332,3.0545,4.4154,3.2658,4.2041,0.09789-0.09789-0.21405-0.81247-0.69328-1.5879zm-14.317,6.5807c-0.81012-1.042-1.0292-1.7362-0.89926-2.8492,0.35064-3.0035,4.8084-2.9513,5.8545,0.06857,0.33488,0.9667,0.31074,2.9276-0.04039,3.2788-0.3249,0.32489-1.9108-0.43206-1.6817-0.8027,0.14808-0.23959,0.0695-0.31217-0.17469-0.16127-0.24416,0.1509-0.35796,0.60378-0.2529,1.0064,0.35575,1.3633-1.6217,0.98226-2.8056-0.54057zm-15.367-1.374c-2.1071-0.299-3.3155-4.552-1.629-5.733,1.0627-0.74435,2.758-0.78273,3.6469-0.08262,1.1237,0.88506,1.7435,2.9423,1.2654,4.1999-0.41205,1.0838-1.2849,1.5625-1.2849,0.70478,0-0.72117-0.77211-0.45559-0.91263,0.31391-0.09051,0.49576-0.4414,0.6888-1.0858,0.59736zm2.0518-2.4808c0.52062-0.66384,0.50582-0.67865-0.15802-0.15802-0.6972,0.54678-0.91892,0.89048-0.57443,0.89048,0.08692,0,0.41652-0.3296,0.73246-0.73245zm-1.8418-0.523c0.5853-0.4604,0.89753-0.8329,0.69383-0.82778-0.4881,0.0123-2.5676,1.6435-2.1106,1.6556,0.1939,0.0051,0.83142-0.36739,1.4167-0.82779zm0.53276-2.3412c0-0.08365-0.47088,0.06243-1.0464,0.3246-0.5755,0.26222-1.0464,0.63922-1.0464,0.83777,0,0.19856,0.47087,0.05248,1.0464-0.32459,0.5755-0.37709,1.0464-0.75408,1.0464-0.83778zm17.675-1.822c-2.476-0.4025-3.136-1.1464-1.301-1.4672,1.753-0.3065,4.815-0.10797,5.2643,0.34132,0.36888,0.36889-1.0267,1.5529-1.7321,1.4695-0.24376-0.0288-1.2474-0.18324-2.2303-0.34315zm2.1011-2.4111c-1.1428-0.22011-1.2447-1.2019-0.15446-1.4871,1.1803-0.30864,4.7849,0.071855,5.2692,0.55619,0.96091,0.9609-2.0828,1.5148-5.1148,0.93087zm-16.323-2.2695c-0.7482-0.2136-1.3603-0.5495-1.3603-0.7462,0-0.86021,5.1464-0.9175,5.9972-0.06673,0.37073,0.37073-0.05453,0.54303-2.6488,1.0731-0.34531,0.070523-1.24-0.046537-1.9881-0.26015zm20.195,0.1824c-1.381-0.3604-2.027-1.0354-1.38-1.4421,0.299-0.1878,0.826-0.2673,1.171-0.1768,0.34531,0.090512,1.5452,0.28949,2.6664,0.44221s1.8746,0.43642,1.6742,0.63043c-0.48953,0.47389-3.0905,0.81777-4.1313,0.54622zm-16.083-2.1906c-1.26-0.3262-1.589-1.1416-0.577-1.4322,1.2904-0.37078,4.1039,0.3081,4.1039,0.99025,0,0.67525-1.7693,0.89699-3.5266,0.44198z"/>
</svg>
