<?xml version="1.0" encoding="UTF-8" standalone="no"?>
<svg xmlns:rdf="http://www.w3.org/1999/02/22-rdf-syntax-ns#" xmlns="http://www.w3.org/2000/svg" height="85" width="88" version="1.1" xmlns:cc="http://creativecommons.org/ns#" xmlns:dc="http://purl.org/dc/elements/1.1/">
 <path fill="#434343" d="m54.881,82.658c-0.61399-0.59353-1.1527-1.0791-1.197-1.0791-0.08369,0-1.1286-0.99265-3.1422-2.9849-0.6443-0.63749-1.4149-1.3305-1.7124-1.54-0.59636-0.41991-0.87204-0.66695-2.3718-2.1253-0.56061-0.54515-1.5039-1.4099-2.0963-1.9218-1.1749-1.0151-2.7195-2.3957-4.1099-3.6734-0.48905-0.44939-1.163-0.99537-1.4978-1.2133-0.33473-0.21793-0.91973-0.70502-1.3-1.0824-0.63345-0.62866-1.0773-0.9899-1.6594-1.3506-0.19114-0.11844-2.4168-2.3429-3.4109-3.4091-0.47054-0.50466-2.0023-1.9328-2.0731-1.9328-0.0563,0-0.70616-0.57925-1.0456-0.93199-0.0996-0.10348-0.48238-0.46864-0.85071-0.81147s-1.0739-1.0341-1.568-1.5362c-0.49403-0.5021-0.9491-0.9129-1.0113-0.9129s-0.30064-0.1978-0.52997-0.43955c-0.22932-0.24175-0.80973-0.77428-1.2898-1.1834s-1.2338-1.1242-1.6749-1.5891c-0.44114-0.4649-0.84603-0.84528-0.89977-0.84528-0.0537,0-0.97713-0.86726-2.052-1.9272-1.0748-1.06-2.2719-2.1707-2.6601-2.4682-0.38821-0.29754-1.2877-1.1039-1.9989-1.792-0.71119-0.68806-1.3179-1.251-1.3482-1.251s-0.4147-0.36516-0.85413-0.81147-0.8645-0.81147-0.94459-0.81147c-0.0801,0-0.28311-0.21226-0.45116-0.47168-0.16805-0.25943-0.35718-0.47244-0.42028-0.47336-0.0631-0.000921-0.47763-0.36684-0.92118-0.81314-0.44354-0.44631-0.86176-0.81147-0.92936-0.81147s-0.25791-0.18258-0.4229-0.40574c-0.16498-0.22315-0.3646-0.40591-0.44359-0.40612-0.079-0.000214-0.26535-0.18262-0.41412-0.40535-0.14876-0.22273-0.31054-0.40513-0.35951-0.40534-0.14115-0.000676-1.239-1.1121-1.5032-1.5219-0.13189-0.20456-0.32624-0.37192-0.4319-0.37192s-0.29996-0.18258-0.43178-0.40574c-0.13182-0.22315-0.31474-0.40574-0.4065-0.40574-0.0918,0-0.32884-0.21242-0.52686-0.47204-0.19803-0.25962-0.40496-0.44428-0.45986-0.41035s-0.17283-0.07475-0.26208-0.24151c-0.0892-0.16676-0.44836-0.4842-0.79804-0.70542-0.71286-0.45099-1.1091-0.8109-1.1091-1.0074,0-0.07248,0.16952-0.21943,0.37671-0.32658,0.20719-0.10714,0.46091-0.35214,0.56383-0.54445s0.24439-0.34965,0.31436-0.34965c0.07,0,0.48572-0.37209,0.92386-0.82687,0.43815-0.45478,0.79663-0.78484,0.79663-0.73347s0.15756-0.09385,0.35014-0.32271c0.19257-0.22886,0.43601-0.41611,0.54098-0.41611,0.10496,0,0.19084-0.08195,0.19084-0.18212s0.1994-0.38925,0.44311-0.64241c0.24372-0.25316,0.5831-0.6588,0.75419-0.90143,0.1711-0.24262,0.36729-0.4064,0.43598-0.36394,0.0687,0.04246,0.12491,0.02363,0.12491-0.04184,0-0.1209,0.25481-0.4085,2.4729-2.791,0.6855-0.73632,1.4732-1.5884,1.7505-1.8934,0.27727-0.30506,0.74893-0.81828,1.0482-1.1405,0.29921-0.3222,0.54402-0.64172,0.54402-0.71004,0-0.06831,0.0913-0.12421,0.20287-0.12421s0.20286-0.05076,0.20286-0.1128c0-0.10836,1.6074-1.8291,4.3278-4.633,1.334-1.3749,5.1472-5.372,5.9197-6.2053,0.24328-0.26239,0.66007-0.75093,0.92621-1.0857,1.7118-2.153,3.7134-3.9221,4.4374-3.9221,0.41681,0,0.45325,0.26828,0.0821,0.6042-0.1461,0.13222-0.36588,0.5029-0.48841,0.82374s-0.30822,0.61613-0.41263,0.6562-0.25091,0.21134-0.32554,0.38062c-0.33435,0.75832-1.9704,2.4041-2.3898,2.4041-0.0536,0-0.25196,0.15194-0.44072,0.33765-0.50594,0.49775-2.1586,2.0726-2.9231,2.7854-0.36631,0.34157-0.93989,0.94134-1.2746,1.3328-0.33473,0.39148-0.88248,1.0024-1.2172,1.3576-0.33473,0.35519-0.80728,0.88134-1.0501,1.1692-1.0276,1.2182-1.5061,1.7371-2.452,2.6591-2.4743,2.4119-4.7206,4.6885-5.1714,5.2413-0.77946,0.9559-2.731,2.9177-2.9978,3.0135-0.1337,0.04804-0.30592,0.26758-0.38271,0.48787-0.077,0.221-0.34696,0.52286-0.60219,0.67345-0.25441,0.15011-0.46257,0.33942-0.46257,0.42071,0,0.08128-0.0578,0.11206-0.12846,0.0684-0.0707-0.04367-0.19889,0.05925-0.28497,0.2287-0.15059,0.29644-0.35646,0.53358-1.4043,1.6176-0.52303,0.54112-0.59294,0.73175-0.27857,0.75969,0.7353,0.06536,1.2303,0.02885,2.1751-0.16043,3.9274-0.78684,7.0952-0.96857,11.823-0.67826,3.2642,0.20045,4.937,0.19524,5.2795-0.01643,0.0837-0.05173,0.11804-0.23008,0.0763-0.39634-0.0611-0.24342,0.13153-0.51049,0.98922-1.3715,1.0029-1.0067,2.2117-2.2018,2.5135-2.4849,0.85916-0.80584,1.3752-1.2139,1.4872-1.1761,0.0747,0.02522,0.20993-0.05077,0.30055-0.16888,0.0906-0.1181,0.16669-0.14538,0.16905-0.06061,0.002,0.08477-0.21206,0.38907-0.4765,0.67622-0.26445,0.28716-0.63159,0.74111-0.81588,1.0088-0.18429,0.26767-0.48524,0.56704-0.66878,0.66527-0.18353,0.09823-0.3337,0.25238-0.3337,0.34255,0,0.09018-0.21301,0.32643-0.47336,0.52501-0.5432,0.41432-0.62504,0.73866-0.16905,0.67001,0.16736-0.0252,0.42602-0.06247,0.57479-0.08284,0.14877-0.02036,0.3444-0.15874,0.43475-0.30751,0.15398-0.25356,0.16456-0.24643,0.16906,0.11391,0.003,0.21142-0.11693,0.53914-0.2657,0.72828-0.3616,0.45969-0.34123,0.56228,0.10143,0.5109,0.20456-0.02374,0.54415-0.0098,0.75464,0.03097,0.38791,0.07515,0.3954,0.11112,0.16229,0.77986-0.0822,0.2357-0.058,0.22942,0.18752-0.04879,0.155-0.17561,0.28181-0.40383,0.28181-0.50717s0.0556-0.18788,0.1235-0.18788c0.0683,0,0.0559,0.17915-0.0277,0.40057-0.17329,0.45909-0.0603,0.66201,0.23312,0.41853,0.11012-0.09139,0.26502-0.12611,0.34422-0.07716,0.0821,0.05073,0.22913-0.11474,0.34198-0.38484,0.22233-0.53209,0.42154-0.71309,0.50599-0.45973,0.0344,0.10322,0.12374,0.04391,0.22838-0.1516,0.14088-0.26324,0.13887-0.34288-0.0111-0.44176-0.14732-0.09708-0.13181-0.15969,0.0795-0.32091,0.14439-0.11016,0.39895-0.2003,0.56568-0.2003,0.18302,0,0.33672-0.10578,0.38787-0.26694,0.0466-0.14682,0.2485-0.34488,0.44866-0.44014,0.20017-0.09526,0.42438-0.31071,0.49824-0.47877,0.0739-0.16806,0.20103-0.27995,0.28258-0.24866,0.0816,0.03129,0.25278-0.12002,0.38051-0.33626,0.23026-0.3898,0.48744-0.52303,0.48744-0.25252,0,0.26374-0.55263,1.2248-0.74722,1.2994-0.10672,0.04095-0.32217,0.2818-0.4788,0.53523s-0.3316,0.43185-0.38881,0.39648c-0.0572-0.03536-0.24345,0.0841-0.41385,0.26548-0.17039,0.18138-0.35717,0.30051-0.41505,0.26473-0.0579-0.03577-0.23826,0.12176-0.40083,0.35007s-0.32738,0.38332-0.36624,0.34446c-0.15571-0.15571-0.57606,0.21967-0.57606,0.51444,0,0.26928,0.0536,0.30495,0.37192,0.24758,0.20456-0.03686,0.44533-0.12495,0.53506-0.19576,0.0897-0.07081,0.22249-0.09205,0.29504-0.04721,0.0726,0.04484,0.22251-0.04781,0.33323-0.20589,0.11073-0.15808,0.25182-0.25848,0.31356-0.22313,0.0617,0.03536,0.29482-0.04843,0.51797-0.1862,0.22316-0.13777,0.53552-0.30802,0.69414-0.37834,0.15863-0.07033,0.42603-0.32114,0.59424-0.55736,0.39206-0.55059,1.1152-1.281,1.9031-1.9222,0.7036-0.57261,0.82968-1.0888,0.38304-1.5682-0.14527-0.15594-0.26291-0.47756-0.26531-0.72536-0.004-0.42075-0.0152-0.43078-0.20286-0.18267-0.18633,0.24635-0.19857,0.23226-0.19857-0.2287,0-0.27018,0.0609-0.52884,0.13525-0.57481,0.27255-0.16845,0.12206-0.31656-0.41358-0.40706-0.51894-0.08767-0.54423-0.11367-0.46433-0.47742,0.0784-0.35703,0.0493-0.39131-0.40541-0.47661-0.39168-0.07348-0.4854-0.14962-0.46742-0.37974,0.0124-0.15831,0.0158-0.35593,0.008-0.43916-0.0228-0.23072-0.87347-0.08864-1.0293,0.17193-0.0744,0.12438-0.24309,0.32277-0.3749,0.44088-0.13181,0.1181-0.52125,0.50382-0.86543,0.85715-0.72287,0.7421-1.0707,0.84352-0.92771,0.27049,0.0511-0.20456,0.17937-0.46801,0.28515-0.58544s0.19233-0.26149,0.19233-0.32013c0-0.15343,0.99071-1.093,1.2624-1.1972,0.22376-0.08586,0.40806-0.44236,0.5773-1.1167,0.0719-0.28637,0.0417-0.32718-0.21291-0.28832-0.16315,0.0249-0.35156,0.13205-0.41869,0.23812-0.0671,0.10607-0.12298,0.139-0.12412,0.07318-0.001-0.06582-0.12538,0.03709-0.27609,0.22868-0.15071,0.1916-0.38491,0.38355-0.52045,0.42657s-0.31209,0.22231-0.39233,0.39842c-0.40868,0.89695-3.1988,3.4938-3.4664,3.2263-0.19006-0.19006-0.0543-0.54477,0.26397-0.68979,0.18941-0.0863,0.44065-0.32429,0.55832-0.52888,0.11767-0.20458,0.48001-0.5847,0.80521-0.8447,0.32519-0.26,0.59126-0.55712,0.59126-0.66026s0.19966-0.37729,0.44368-0.60923c0.39103-0.37166,0.64857-0.72953,1.2754-1.7722,0.32669-0.54345,0.34331-0.63477,0.15061-0.82748-0.17116-0.17116-0.23386-0.15698-0.49481,0.11192-1.301,1.3405-1.5593,1.5927-1.6312,1.5927-0.12593,0-1.1155,0.97848-1.5694,1.5519-0.22315,0.28187-0.66439,0.75885-0.98052,1.06-0.31614,0.30112-0.5748,0.6443-0.5748,0.76264s-0.28214,0.36604-0.62699,0.55044c-0.34484,0.18441-0.72522,0.49298-0.84528,0.68571-0.47605,0.76421-1.1204,1.374-1.4518,1.374-0.18317,0-0.36741-0.03438-0.40943-0.0764-0.10072-0.10072,0.81704-1.0411,1.2046-1.2343,0.16676-0.08311,0.38525-0.32227,0.48556-0.53146,0.1003-0.20919,0.43142-0.603,0.73581-0.87514,0.3044-0.27213,0.64835-0.60911,0.76435-0.74884,0.11599-0.13973,0.43912-0.4849,0.71807-0.76705,0.27894-0.28215,0.50716-0.56887,0.50716-0.63715s0.15215-0.19346,0.33812-0.2782c0.18596-0.08473,0.33811-0.2393,0.33811-0.34349,0-0.19934,0.51305-0.80687,1.7744-2.1012,0.73277-0.75191,0.78356-0.77901,1.413-0.75385,0.70161,0.02805,1.9519-0.40016,1.9519-0.6685,0-0.08511-0.0832-0.27479-0.18492-0.42151-0.1017-0.14672-0.28342-0.81451-0.40382-1.484-0.1204-0.66946-0.31115-1.6432-0.4239-2.1639-0.55955-2.5841-0.72433-3.9752-0.68085-5.7479,0.0268-1.0925-0.013-1.6283-0.13357-1.8007-0.18712-0.26743-0.12747-0.68522,0.15752-1.1033,0.25398-0.3726,0.22724-0.57851-0.0977-0.75242-0.22113-0.11835-0.35539-0.09863-0.64241,0.09433-0.19957,0.13417-0.49995,0.31755-0.6675,0.4075-0.29869,0.16036-0.3029,0.15248-0.21552-0.40339,0.12607-0.80202,1.1538-2.0299,2.4272-2.8999,0.77005-0.52612,1.1995-0.37851,2.4406,0.83879,0.38283,0.37549,1.0067,0.95658,1.3864,1.2913,0.37969,0.33473,0.94829,0.92812,1.2636,1.3186,0.31527,0.39052,0.62857,0.71004,0.69623,0.71004,0.0677,0,0.60393,0.48807,1.1917,1.0846,0.58778,0.59653,1.3168,1.2412,1.6201,1.4327,0.30329,0.19146,0.80229,0.60532,1.1089,0.9197s0.65606,0.62821,0.77657,0.69741c0.39817,0.22863,1.7206,1.4491,3.983,3.676,1.228,1.2088,2.282,2.1977,2.3421,2.1977,0.06011,0,1.1075,0.97492,2.3276,2.1665,3.5026,3.4207,5.4683,5.3216,5.7474,5.5577,0.14178,0.11996,0.57464,0.5612,0.96191,0.98053,0.38726,0.41932,0.76169,0.76241,0.83205,0.76241s0.1917,0.18293,0.26964,0.40651c0.08134,0.23333,0.28863,0.46237,0.48659,0.53763,0.18968,0.07212,0.34488,0.18905,0.34488,0.25985,0,0.18337,4.935,5.0916,6.7737,6.7369,0.84914,0.75985,1.8392,1.5904,2.2001,1.8457,0.9581,0.67768,3.4713,2.983,3.9035,3.5807,0.09564,0.13226,0.45675,0.43338,0.80246,0.66915s1.0006,0.81042,1.4552,1.277c0.45467,0.46657,0.89377,0.90918,0.97577,0.98356,0.28049,0.25443,1.4534,1.3522,1.6111,1.508,0.31443,0.31043,0.70108,0.6749,1.772,1.6703,0.60021,0.55788,1.8306,1.7329,2.7341,2.6112,0.90354,0.87829,2.0384,1.9797,2.5219,2.4476,0.4835,0.46789,1.161,1.0105,1.5057,1.2059,0.34461,0.19534,0.66242,0.44859,0.70624,0.56279,0.11666,0.304-0.12808,0.84577-0.42458,0.93988-0.27746,0.08806-0.96128,0.7531-0.77437,0.7531,0.06236,0-0.29219,0.4201-0.7879,0.93356-0.4957,0.51346-0.90128,0.9969-0.90128,1.0743,0,0.07741-0.18675,0.2507-0.415,0.38507-0.22825,0.13438-0.50339,0.42691-0.61143,0.65006-0.20559,0.42464-2.0254,2.6265-3.1305,3.7877-0.35437,0.37236-1.1008,1.189-1.6586,1.8148-0.55788,0.62578-1.3491,1.4795-1.7582,1.8971-0.40912,0.41762-0.9069,0.97581-1.1062,1.2404-0.19929,0.26462-2.8163,2.9495-5.8155,5.9663-2.9993,3.0169-5.6662,5.7382-5.9265,6.0475-0.58884,0.69953-2.5889,2.75-3.3135,3.3971-0.29754,0.26571-0.66704,0.63087-0.82111,0.81147-0.8682,1.0177-2.6285,2.5597-2.9191,2.5571-0.21073-0.0019-0.69168-0.36488-1.4335-1.082zm1.1274-0.53816c0.13757,0,0.1918-0.1746,0.1918-0.61749,0-0.33962,0.05449-0.72,0.12109-0.84528s0.15188-0.80396,0.18951-1.5082c0.04016-0.75154,0.1298-1.3008,0.21702-1.3299,0.17684-0.05895,0.20514-1.6499,0.02935-1.6499-0.06559,0-0.16044-0.53253-0.21078-1.1834-0.14153-1.8298-0.22534-2.3705-0.42877-2.7658-0.10336-0.20086-0.18767-0.5356-0.18737-0.74385,0.0012-0.80636-0.44214-3.6454-0.63099-4.041-0.10935-0.22908-0.2242-0.83769-0.25523-1.3524-0.03103-0.51476-0.11965-1.6967-0.19693-2.6265-0.07728-0.92981-0.19167-2.36-0.2542-3.1783-0.06253-0.81823-0.21334-1.8406-0.33515-2.272-0.27517-0.97441-0.27738-1.2325-0.01246-1.4524,0.11496-0.09541,0.17562-0.2605,0.13481-0.36688-0.04082-0.10637,0.02994-0.36973,0.15725-0.58524,0.22019-0.37275,0.21938-0.40068-0.01669-0.5733-0.20296-0.14841-0.2204-0.2333-0.09578-0.46616,0.17523-0.32741,0.19835-0.58024,0.05094-0.55696-0.30606,0.04833-0.44-0.04834-0.44385-0.32032-0.0024-0.16736-0.09366-0.42244-0.20287-0.56683s-0.19857-0.39244-0.19857-0.55122-0.15215-0.43162-0.33811-0.60633c-0.18596-0.1747-0.33811-0.38694-0.33811-0.47163s-0.17649-0.32308-0.39219-0.52974c-0.3778-0.36196-0.48461-0.64946-0.64351-1.7322-0.04052-0.27609-0.14875-0.5643-0.24052-0.64045-0.09176-0.07616-1.0679-0.2911-2.1691-0.47766-1.185-0.20075-2.2844-0.4701-2.6934-0.65992-0.38012-0.1764-0.98018-0.42849-1.3335-0.5602-0.35329-0.13171-0.98482-0.53917-1.4034-0.90547-0.41859-0.3663-0.92072-0.76449-1.1158-0.88488-0.56376-0.34781-1.3726-1.1492-1.6025-1.5876-0.11608-0.22143-0.22844-0.66267-0.24969-0.98053-0.0345-0.51599-0.007-0.57766,0.25601-0.57546,0.35813,0.003,1.4202,0.70272,1.7084,1.1255,1.1946,1.7527,3.0839,2.7662,6.3628,3.4134,1.4152,0.27931,6.0136,0.86496,6.8299,0.86984,1.0153,0.0061,4.1547,0.57521,7.0327,1.275,1.0414,0.25319,2.4697,0.55878,3.174,0.67908,0.70434,0.1203,1.6781,0.3338,2.1639,0.47446,0.48582,0.14066,1.2789,0.29486,1.7624,0.34268s1.1404,0.20205,1.4597,0.34274c0.76323,0.33625,3.224,0.77713,5.2427,0.9393,0.88833,0.07136,2.1933,0.19885,2.9,0.28332,1.2504,0.14946,5.33,0.11479,5.4915-0.04666,0.08851-0.08851-0.55512-0.74937-1.3474-1.3835-0.27883-0.22315-0.73192-0.61618-1.0069-0.8734-0.27496-0.25721-1.139-1.0466-1.92-1.7542-0.78104-0.70761-1.5624-1.4557-1.7364-1.6624-0.17398-0.20674-0.40351-0.37589-0.51007-0.37589s-0.26083-0.14724-0.34283-0.32721c-0.082-0.17996-0.43064-0.52887-0.77476-0.77534-0.34412-0.24648-0.84676-0.66219-1.117-0.92381-1.4018-1.3572-2.1124-1.9984-2.6102-2.3552-0.30258-0.21688-0.59131-0.4627-0.64164-0.54628-0.05032-0.08358-0.735-0.69659-1.5215-1.3623-0.78651-0.66567-1.43-1.2539-1.43-1.3072,0-0.05326-0.28447-0.35884-0.63216-0.67908-0.34769-0.32023-0.73641-0.68188-0.86383-0.80366s-0.32498-0.27393-0.43903-0.33811-0.59258-0.46038-1.0634-0.88043c-0.47083-0.42006-1.0995-0.96735-1.397-1.2162-0.29754-0.24886-1.1496-0.98916-1.8934-1.6451-0.74385-0.65595-1.4133-1.2411-1.4877-1.3003-0.07438-0.05919-0.26442-0.25327-0.42229-0.43129s-0.52304-0.52848-0.81147-0.77881c-0.28844-0.25033-1.2361-1.1218-2.1059-1.9367-0.86981-0.81487-1.9653-1.775-2.4344-2.1335-0.7943-0.60714-4.0114-3.756-6.2233-6.0913-1.2358-1.3048-1.3941-1.4909-1.5868-1.8661-0.0878-0.17092-0.30884-0.3675-0.49119-0.43683s-0.4009-0.27826-0.48566-0.46428c-0.08476-0.18603-0.26016-0.37189-0.38978-0.41303s-0.37175-0.27054-0.53808-0.50977c-0.31589-0.45435-1.5197-1.4875-3.2426-2.7829-1.0176-0.7651-2.0236-1.6451-3.0393-2.6586-0.59705-0.59571-2.2913-1.9958-2.961-2.4469-0.23307-0.15699-0.68459-0.58301-1.0034-0.94672-1.0207-1.1645-1.495-1.6375-1.9013-1.8963-0.21823-0.13898-0.71546-0.51303-1.105-0.83123-0.52941-0.4325-0.78073-0.55628-0.99559-0.49037-0.37919,0.11634-0.34845,0.06985-0.54109,0.81824-0.22077,0.85762-0.17846,2.4015,0.10493,3.8296,0.12492,0.62949,0.21848,1.512,0.20791,1.9611-0.0106,0.44909,0.0477,1.2121,0.12954,1.6956,0.0818,0.4835,0.21834,1.3051,0.30339,1.8258,0.085,0.52069,0.22672,1.0684,0.31484,1.2172,0.21467,0.36243,0.44723,1.3184,0.54676,2.2476,0.0448,0.41792,0.19974,0.98066,0.34438,1.2505,0.14464,0.26987,0.26427,0.62782,0.26584,0.79546,0.002,0.16764,0.15782,0.73081,0.34724,1.2515,0.18941,0.52069,0.3951,1.0989,0.45708,1.2848,0.22411,0.6724,0.58031,1.422,0.82141,1.7285,0.13538,0.17211,0.28726,0.50786,0.33751,0.74612,0.0503,0.23826,0.25908,0.85922,0.46407,1.3799,0.205,0.52069,0.44868,1.2814,0.54153,1.6906,0.0929,0.40912,0.25142,0.87563,0.35236,1.0367,0.10095,0.16106,0.28587,0.7088,0.41095,1.2172s0.33375,1.1378,0.46372,1.3986c0.33397,0.67032,0.80534,2.1484,0.80534,2.5253,0,0.17469,0.0761,0.44213,0.16905,0.59433,0.14895,0.24379,0.1181,0.32261-0.25929,0.66248-0.57654,0.51923-1.664,0.7345-3.2233,0.63808-1.1005-0.06805-3.0689-0.46706-3.4422-0.69779-0.13305-0.08223-1.9649-0.5696-4.1316-1.0992-1.7665-0.43178-6.9944-1.1626-10.076-1.4086-0.85542-0.06827-1.8421-0.16208-2.1926-0.20847-1.7988-0.23807-4.3487-0.28057-6.4616-0.10771-2.5421,0.20798-2.6481,0.22443-4.6674,0.72454-1.6698,0.41354-1.7949,0.54612-1.2927,1.3699,0.15255,0.25023,0.27759,0.40417,0.27787,0.34209,0.00029-0.06208,0.38763,0.22701,0.86079,0.64241,0.47315,0.41541,0.88664,0.75528,0.91887,0.75528,0.0322,0,0.42106,0.33516,0.86409,0.74481,0.44303,0.40964,0.90227,0.77581,1.0205,0.81371,0.11826,0.0379,0.29376,0.21603,0.39,0.39586,0.0962,0.17982,0.35087,0.39981,0.56584,0.48885s0.43506,0.23239,0.48909,0.31854c0.054,0.08615,0.61055,0.59654,1.2367,1.1342,0.62617,0.53766,1.223,1.0982,1.3263,1.2457,0.10329,0.14747,0.26503,0.26813,0.35943,0.26813s0.31456,0.15215,0.48926,0.33811,0.36321,0.33811,0.41891,0.33811,0.30374,0.18719,0.55121,0.41598,0.82668,0.76132,1.2871,1.1834c0.88974,0.8156,1.1433,1.0556,1.5435,1.4605,0.13781,0.13947,0.47005,0.43616,0.73831,0.65932,0.26826,0.22315,0.83258,0.72574,1.254,1.1168,0.42145,0.39111,0.87278,0.74516,1.003,0.78677,0.13017,0.04161,0.23668,0.12292,0.23668,0.18068,0,0.14512,1.3105,1.4997,1.4509,1.4997,0.0625,0,0.22156,0.18258,0.35338,0.40574,0.13182,0.22315,0.30052,0.40574,0.3749,0.40574,0.0744,0,0.29915,0.17592,0.49952,0.39094,0.20036,0.21501,0.87832,0.82303,1.5066,1.3511,0.62826,0.52812,1.2064,1.1071,1.2848,1.2867,0.0784,0.17958,0.65986,0.76842,1.2921,1.3085,0.63227,0.54012,1.2409,1.1155,1.3524,1.2785,0.11158,0.16307,0.68975,0.71758,1.2848,1.2322,1.2473,1.0788,2.502,2.3271,2.502,2.4894,0,0.06129,0.11336,0.14741,0.25191,0.19139,0.28005,0.08888,2.8272,2.4851,4.6787,4.4014,0.39528,0.40912,0.78025,0.80471,0.85549,0.87909,0.0753,0.07438,0.7669,0.79196,1.537,1.5946,2.8051,2.9236,5.3042,5.3705,5.4851,5.3705,0.0388,0,0.73441,0.66948,1.5458,1.4877,0.81137,0.81826,1.7022,1.6328,1.9796,1.8101,0.45976,0.29385,1.3594,1.1134,1.7391,1.5844,0.22084,0.27388,5.1735,5.0318,5.3658,5.1549,0.08892,0.05689,0.24273,0.07364,0.34179,0.03723s0.26643-0.0662,0.37192-0.0662zm-15.247-40.537c-0.30386-0.06975-0.6542-0.84479-0.6542-1.4473,0-0.30878-0.0743-0.51949-0.20022-0.56781-0.26216-0.1006-0.4743-0.88822-0.47525-1.7645-0.00067-0.58532-0.0562-0.74386-0.33886-0.96618-0.18597-0.14628-0.33812-0.32628-0.33812-0.4,0-0.20843,0.63047-0.57088,0.99302-0.57088,0.43962,0,0.55431,0.18532,0.75332,1.2172,0.20503,1.0632,0.31382,1.5204,0.67575,2.8401,0.153,0.55788,0.27922,1.1187,0.28049,1.2463,0.003,0.26796-0.36842,0.48819-0.69593,0.41301zm17.711,39.545c1.3485-1.3089,1.678-1.6644,1.8609-2.0076,0.10619-0.19929,0.31708-0.4017,0.46865-0.4498,0.15157-0.04811,0.37046-0.23227,0.48642-0.40925s0.52515-0.65181,0.9093-1.0552c0.38415-0.40337,0.89549-0.96906,1.1363-1.2571,1.0203-1.2204,1.3677-1.6121,2.2332-2.5188,0.5021-0.52595,0.9129-1.0095,0.9129-1.0745,0-0.06505,0.67679-0.79613,1.504-1.6246,0.82719-0.8285,1.6071-1.676,1.7332-1.8833,0.12607-0.20731,0.39262-0.50545,0.59232-0.66254,0.19971-0.15709,0.3631-0.3532,0.3631-0.43581s0.34995-0.4966,0.77766-0.91997c0.42771-0.42338,0.84449-0.8839,0.92618-1.0234,0.08169-0.13948,0.2865-0.32358,0.45515-0.4091,0.16864-0.08552,0.41722-0.4025,0.55238-0.7044,0.17144-0.38294,0.38478-0.607,0.70554-0.74102,0.25288-0.10566,0.59282-0.36685,0.75543-0.58042,0.38295-0.50297,1.6558-1.8084,1.7633-1.8084,0.14668,0,1.1503-0.99568,1.6359-1.6229,0.25912-0.33473,0.746-0.86711,1.082-1.1831,0.9094-0.85525,2.0309-2.1319,2.0309-2.312,0-0.05767,0.39559-0.5123,0.87909-1.0103,0.4835-0.49799,0.87909-0.94093,0.87909-0.98432s0.36516-0.45322,0.81147-0.91073,0.81147-0.8755,0.81147-0.92886c0-0.20639-0.95306-0.25874-2.3515-0.12916-1.7465,0.16182-5.321-0.01154-6.9127-0.33526-1.2564-0.25552-4.3783-0.27495-4.8456-0.03015-0.53751,0.28156-2.6815,2.2687-3.9023,3.6169-1.3361,1.4754-2.8722,3.0264-4.4346,4.4774-0.9211,0.85542-1.7705,1.6544-1.8875,1.7755-0.46879,0.48528-1.3117,1.446-1.5959,1.8189-0.95847,1.2579-1.149,1.5178-1.4048,1.9168-0.155,0.24175-0.33452,0.43955-0.39894,0.43955s-0.1855,0.12776-0.26907,0.2839c-0.20035,0.37435,0.08499,4.4175,0.36889,5.2272,0.22299,0.6359,0.39086,3.178,0.23308,3.5297-0.26885,0.59943-0.35316,1.8892-0.21946,3.3573,0.07766,0.85265,0.07693,1.6951-0.0019,2.2161-0.10026,0.66242-0.08882,0.86455,0.05399,0.95426,0.29026,0.18235,0.68079,0.002,1.3025-0.60149zm-0.204-17.976c0.39641-0.39052,1.2551-1.1969,1.9083-1.792,0.65316-0.59508,1.2887-1.1973,1.4122-1.3382,0.62242-0.7098,1.3457-1.405,1.6785-1.6134,0.20456-0.12808,0.37192-0.30205,0.37192-0.38658,0-0.08454,0.4266-0.58523,0.948-1.1127,0.5214-0.52742,1.556-1.5718,2.2992-2.3209,0.74314-0.74908,1.3512-1.4146,1.3512-1.479,0-0.06435,0.12431-0.24933,0.27624-0.41105,0.15193-0.16173,0.28887-0.46989,0.3043-0.6848,0.04493-0.62566-0.47614-0.60774-1.023,0.03518-0.24017,0.28237-0.66489,0.72934-0.94384,0.99327-0.27894,0.26393-0.50717,0.51886-0.50717,0.56651s-0.56296,0.66544-1.251,1.3729c-0.68806,0.70742-1.677,1.7553-2.1977,2.3286-1.3584,1.4956-1.812,1.9066-2.3932,2.1687-0.30876,0.13923-0.5146,0.32581-0.5146,0.46645,0,0.12892-0.16729,0.34401-0.37176,0.47798-0.52253,0.34238-1.9274,1.7584-1.9274,1.9427,0,0.08418-0.21301,0.36606-0.47336,0.62641-0.59055,0.59055-0.61319,0.87008-0.07048,0.87008,0.30433,0,0.57919-0.17369,1.1236-0.71004zm-0.81327-1.5833c0.16561-0.20167,0.51761-0.49622,0.78223-0.65455,0.66711-0.39915,2.9676-2.6733,2.9676-2.9336,0-0.11718,0.10651-0.25271,0.23668-0.30116,0.36983-0.13765,1.2381-0.86771,1.317-1.1074,0.03913-0.11887,0.372-0.45957,0.73971-0.7571,0.3677-0.29754,0.67158-0.60348,0.67528-0.67986s0.44323-0.53284,0.97674-1.0143c0.5335-0.4815,1.0965-1.0255,1.251-1.2088,0.15456-0.18334,0.60053-0.67572,0.99104-1.0942,0.39052-0.41847,0.71004-0.83142,0.71004-0.91768,0-0.08738-0.19464-0.15551-0.43955-0.15385-0.32777,0.0022-0.60402,0.15325-1.0863,0.5939-1.6477,1.5054-2.523,2.3869-3.2362,3.2594-0.99848,1.2215-0.9875,1.2101-2.0737,2.1621-0.50921,0.44631-1.2256,1.1158-1.592,1.4877-0.3664,0.37192-0.80359,0.76752-0.97153,0.87909-0.51816,0.34426-1.2851,1.3608-1.2851,1.7034,0,0.17892-0.06086,0.32532-0.13524,0.32532-0.20182,0-0.67622,0.51297-0.67622,0.73119,0,0.29233,0.50092,0.10364,0.84848-0.31962zm-0.511-2.192c0.89478,0.09043,1.0143,0.06404,1.0143-0.22392,0-0.14765,0.18983-0.33596,0.47643-0.47263,0.26204-0.12496,0.53329-0.37675,0.60279-0.55955s0.2995-0.42189,0.51111-0.53132c0.42106-0.21774,1.5203-1.3498,1.5203-1.5657,0-0.07414,0.18258-0.22921,0.40574-0.34461,0.40591-0.2099,0.55852-0.6086,0.23296-0.6086-0.27102,0-0.77394,0.40046-0.77394,0.61627,0,0.10736-0.05574,0.1952-0.12386,0.1952-0.06813,0-0.41323,0.26949-0.76691,0.59886-0.58894,0.54848-1.1392,0.85797-1.137,0.6395,0.002-0.20013,0.56292-0.84497,1.9997-2.2989,0.83369-0.84364,1.5183-1.574,1.5213-1.6229,0.01248-0.20052,1.0327-1.2065,1.3142-1.2959,0.45091-0.14311,0.38261,0.13039-0.23774,0.95204-0.29754,0.39409-0.54098,0.77571-0.54098,0.84805,0,0.15295,1.2592-0.51565,1.3373-0.71011,0.02888-0.07183,0.33318-0.41646,0.67622-0.76585,1.2582-1.2815,1.5053-1.5718,1.4149-1.6622-0.17781-0.17781-0.46814-0.08956-0.80126,0.24356-0.18476,0.18476-0.56152,0.48922-0.83724,0.67658-0.45841,0.3115-0.50907,0.32037-0.59203,0.10361-0.06387-0.16686,0.03541-0.34405,0.33535-0.59855,0.23434-0.19883,0.38721-0.40038,0.33971-0.44788s-0.29055,0.0927-0.54012,0.31156c-0.24956,0.21886-0.57394,0.42094-0.72084,0.44908s-0.33703,0.19144-0.42251,0.36289-0.31523,0.47854-0.51057,0.68243c-0.19533,0.20388-0.35515,0.4413-0.35515,0.5276,0,0.08629-0.11499,0.21844-0.25554,0.29366s-0.47144,0.33602-0.73532,0.57955c-1.2256,1.1311-1.8245,1.5924-2.0676,1.5924-0.30059,0,0.58962-0.97084,2.9007-3.1634,0.96571-0.9162,1.916-1.987,1.916-2.1589,0-0.04813-0.20323-0.08751-0.45163-0.08751-0.33581,0-0.55608,0.11272-0.85894,0.43955-0.22402,0.24175-0.56853,0.57608-0.76558,0.74295s-0.35827,0.38096-0.35827,0.47576c0,0.27512-2.4778,2.8048-2.7473,2.8048-0.13426,0-0.20909,0.05666-0.16629,0.1259s0.01452,0.16501-0.06283,0.21282c-0.09376,0.05795-0.11114-0.09758-0.05214-0.46656,0.06981-0.43654,0.04905-0.54104-0.09824-0.49461-0.10271,0.03238-0.35412,0.09554-0.55867,0.14037-0.20456,0.04482-0.37192,0.16102-0.37192,0.25821,0,0.21618-0.66263,0.8589-0.78855,0.76484-0.0498-0.03719-0.1931,0.13781-0.31846,0.3889s-0.3688,0.52648-0.54098,0.61199c-0.26468,0.13144-0.53844,0.7573-0.33126,0.7573,0.31131,0,0.76206-0.30821,0.76206-0.52107,0-0.30733,0.33637-0.61972,0.53506-0.49693,0.07764,0.04799,0.14117,0.0269,0.14117-0.04687,0-0.07376,0.13694-0.17512,0.3043-0.22525,0.16737-0.05013,0.40191-0.21442,0.52122-0.36508,0.1193-0.15067,0.30105-0.2459,0.40388-0.21162,0.13446,0.04482,0.07826,0.16306-0.20012,0.42106-0.2129,0.1973-0.43337,0.33013-0.48994,0.29517s-0.13661,0.06551-0.17786,0.22326c-0.05452,0.20847-0.14973,0.26729-0.34852,0.21531-0.32062-0.08385-0.50965,0.10583-0.5748,0.57678-0.02572,0.18596-0.17711,0.39535-0.33641,0.4653-0.1593,0.06996-0.38753,0.34906-0.50717,0.62024-0.26274,0.5955-0.26934,0.68404-0.04459,0.5978,0.09512-0.0365,0.2921,0.02077,0.43775,0.12728,0.25209,0.18433,0.25353,0.20611,0.02993,0.45318-0.12918,0.14275-0.23488,0.36803-0.23488,0.50062,0,0.20624,0.07329,0.22659,0.50717,0.14081,0.27894-0.05515,0.56803-0.09412,0.64241-0.0866zm-0.53228-1.7763c0.05079-0.13338,0.12641-0.20844,0.16805-0.1668s0.000087,0.15077-0.09234,0.24251c-0.13357,0.13258-0.1491,0.11704-0.07571-0.07571zm2.0876,0.0354c0-0.17432,0.38532-0.33174,0.50908-0.20798,0.05043,0.05043,0.0022,0.1483-0.10727,0.2175-0.2618,0.16557-0.40182,0.16225-0.40182-0.0095zm-0.81147-0.9189c0-0.1812,0.66703-0.75408,0.76451-0.65659,0.04914,0.04914-0.07547,0.24211-0.27692,0.42881-0.3896,0.36107-0.48759,0.40685-0.48759,0.22778zm5.0003-2.2506c0.26742-0.32223,0.10658-0.50776-0.23361-0.26948-0.16698,0.11696-0.3036,0.27006-0.3036,0.34022,0,0.19725,0.35342,0.1507,0.53721-0.07074zm-6.976-0.242c0.16856-0.26722,0.0042-0.48183-0.20716-0.27048-0.08221,0.08221-0.23335,0.11729-0.33586,0.07795-0.10809-0.04148-0.18639,0.01503-0.18639,0.13454,0,0.39167,0.49414,0.43096,0.7294,0.05799zm4.2151-1.4133c0.6894-0.57626,0.73904-0.71521,0.25554-0.71521-0.35816,0-1.3245,0.89725-1.1939,1.1085,0.12366,0.20009,0.33376,0.11202,0.93834-0.39334zm1.1213-1.2694c0.41488-0.14462,0.59864-0.52775,0.25314-0.52775-0.22844,0-0.77394,0.38671-0.77394,0.54865,0,0.15934,0.0043,0.15916,0.5208-0.0209zm1.5755-1.6097c0.0489-0.07912-0.09142-0.13524-0.33811-0.13524s-0.38701,0.05613-0.33811,0.13524c0.04597,0.07438,0.19812,0.13524,0.33811,0.13524s0.29214-0.06086,0.33811-0.13524zm-34.249-20.19c0.0685-0.20613,0.77633-0.24514,0.77596-0.04278-0.00013,0.08189-0.18709,0.162-0.41544,0.17802-0.27513,0.0193-0.39674-0.02632-0.36052-0.13524zm-5.1823-0.99625c-0.1132-0.29772-0.0857-0.41239,0.16217-0.67622,0.16416-0.17474,0.36394-0.31905,0.44395-0.32069,0.08-0.0016,0.43255-0.2603,0.78341-0.57479,1.0831-0.97088,1.342-1.1804,1.4586-1.1804,0.0619,0,0.13684-0.07308,0.16661-0.1624,0.0386-0.11584,0.0807-0.11942,0.14679-0.01248,0.10488,0.1697-0.73829,1.2916-1.3706,1.8236-0.23027,0.19376-0.45878,0.51208-0.5078,0.70738-0.18366,0.73176-1.0535,1.0002-1.2832,0.396zm4.3356,0.01182c0-0.29342,0.0357-0.33301,0.18708-0.2074,0.14426,0.11972,0.20519,0.10804,0.26624-0.05106,0.0436-0.11347,0.13998-0.20632,0.21431-0.20632,0.0833,0,0.092,0.11666,0.0226,0.3043-0.0619,0.16736-0.16646,0.30523-0.23232,0.30637-0.0659,0.0011-0.19583,0.05038-0.28881,0.10942-0.1199,0.07613-0.16906,0.0019-0.16906-0.25531zm5.2069-2.0877c0.046-0.07438,0.11043-0.13524,0.14323-0.13524s0.0596,0.06086,0.0596,0.13524-0.0644,0.13524-0.14323,0.13524c-0.0788,0-0.10561-0.06086-0.0596-0.13524zm-2.3668-0.72639c0-0.4793,0.26285-0.83945,0.73811-1.0113,0.58199-0.21045,0.71215-0.1394,0.51881,0.28324-0.18301,0.40008-1.2569,1.0221-1.2569,0.72806zm2.5696-0.003c0-0.02923,0.0913-0.08818,0.20287-0.131,0.11158-0.04282,0.20287-0.0189,0.20287,0.05315s-0.0913,0.131-0.20287,0.131c-0.11158,0-0.20287-0.02392-0.20287-0.05315zm-3.6516-0.67082c0-0.2247,0.50818-0.52047,0.61031-0.35522,0.11459,0.18541-0.0172,0.3578-0.33772,0.4416-0.15818,0.04137-0.27259,0.0051-0.27259-0.08638zm-7.2762-0.38503c-0.21625-0.21625-0.20486-0.44548,0.0319-0.64196,0.1068-0.08863,0.2343-0.34382,0.28333-0.56708,0.0563-0.25656,0.15406-0.38103,0.26552-0.33826,0.097,0.03722,0.28901-0.05732,0.4267-0.2101,0.13769-0.15277,0.52-0.52888,0.84957-0.83579,0.32958-0.30691,0.91977-0.89275,1.3115-1.3019,1.5692-1.6387,1.9854-2.0287,2.1653-2.0287,0.0831,0,0.2268-0.09129,0.3194-0.20287s0.27904-0.20287,0.41431-0.20287c0.52155,0,0.42464,0.32626-0.31752,1.0689-2.7157,2.7176-4.2485,4.3737-4.4429,4.8003-0.23499,0.51576-0.9869,0.78052-1.3072,0.46027zm-0.27551-1.8984c-0.1818-0.1818,0.83938-1.1851,1.2062-1.1851,0.33797,0,0.33017,0.16126-0.0183,0.37891-0.18501,0.11554-0.25093,0.25811-0.19736,0.42689,0.0442,0.13937,0.008,0.29835-0.0812,0.3533-0.26352,0.16287-0.7583,0.17704-0.9093,0.02605zm2.1691-2.5038c0.0862-0.20456,0.35873-0.56662,0.6057-0.80458s0.44904-0.4915,0.44904-0.56343,0.24486-0.32471,0.54414-0.56174c0.41964-0.33236,0.62413-0.41089,0.89372-0.34323,0.34713,0.08713,0.34404,0.0936-0.44271,0.92677-0.43575,0.46147-1.0357,0.98048-1.3333,1.1534-0.29754,0.17288-0.56127,0.37068-0.58606,0.43955-0.0248,0.06886-0.0996,0.12521-0.16616,0.12521-0.0666,0-0.0506-0.16737,0.0356-0.37192z"/>
</svg>
