<?xml version="1.0" encoding="UTF-8" standalone="no"?>
<svg xmlns:rdf="http://www.w3.org/1999/02/22-rdf-syntax-ns#" xmlns="http://www.w3.org/2000/svg" height="49" width="37" version="1.1" xmlns:cc="http://creativecommons.org/ns#" xmlns:dc="http://purl.org/dc/elements/1.1/">
 <path d="m7.1296,2.859c1.8732-0.6057,5.6496,0.6363,11.329,3.7261,1.6468,0.6744,2.9811,1.4869,4.0028,2.4373l0.06491,0.2007-0.23415,0.076c-8.4313-4.5153-13.439-6.5169-15.022-6.0049l-0.14063-0.4349m5.662-1.5724,0.23416-0.076c0.2007-0.065,0.49582,0.086,0.88536,0.4526l-0.4034,0.3522c-0.2899,0.094-0.48173,0-0.57549-0.2942l-0.14063-0.4349m-7.0178,2.7499c1.4541-0.15,2.2532,0,2.3975,0.444l-0.46831,0.1514c-1.1563,0-1.7741-0.1159-1.8534-0.3613l-0.07572-0.2341m6.2552-2.0229c6.6127,3.1575,10.087,4.9897,10.424,5.4967l0.07572,0.2342-0.23416,0.076c-6.982-3.309-10.523-5.1196-10.624-5.4319l0.35913-0.3747m-6.099,3.1917c0.28991-0.094,1.8695,0.2206,4.7389,0.943,1.2356,0.2409,1.8823,0.4505,1.94,0.6289l0.14063,0.4348-0.23415,0.076c-2.5047-0.8896-5.2045-1.088-8.0996-0.5952l-0.14063-0.4349c1.4764-0.1572,2.3484-0.279,2.616-0.3656-0.09375-0.2899-0.36362-0.3627-0.80964-0.2185l-0.15145-0.4683m2.2412-0.7248,0.669-0.2164c2.811,0.6182,4.2597,1.0611,4.3463,1.3287-0.1338,0.043-0.17545,0.143-0.12497,0.299-0.20071,0.065-1.8308-0.4055-4.8903-1.4113m7.3413-1.6352,0.4683-0.1515c2.8358,1.1521,4.5069,2.0158,5.0131,2.591l-0.35913,0.3748c-0.06491-0.2007-1.7471-1.0607-5.0466-2.5802l-0.07572-0.2341m-12.653,5.0896,0.90316-0.292c0.57982-0.1875,1.5892-0.3415,3.0282-0.4621l0.14064,0.4349-3.9205,0.7875-0.15145-0.4683m4.4646-0.7048,0.20071-0.065c5.1859,0.2689,11.58,2.9797,19.183,8.1324,0.09373,0.2899-0.0043,0.4818-0.29422,0.5755-5.9981-3.9228-11.275-6.4901-15.829-7.7021-1.8941-0.3727-2.9303-0.5303-3.1088-0.4726l-0.15145-0.4683m-3.1287,1.7508,1.7729-0.5734c0.30433-0.049,0.49977,0.06,0.5863,0.3277l0.06491,0.2007-0.2007,0.065-2.0719,0.4484-0.15145-0.4683m-1.0616,0.6019,0.46831-0.1514c0.1154,0.3568-0.71042,1.1166-2.4775,2.2792l-0.14063-0.4349c1.1871-1.05,1.9037-1.6143,2.149-1.6937m10.503-3.3968,0.66901-0.2163c0.2007-0.065,2.3699,1.0441,6.5074,3.327l-0.35913,0.3748c-4.2058-2.113-6.4314-3.1299-6.6767-3.0506l-0.14063-0.4349m-5.8805,2.3821,1.7236-0.04,0.14063,0.4348-0.23416,0.076c-0.94249,0.1324-1.4606,0.054-1.5544-0.2363l-0.07573-0.2342m5.5035-1.2625,0.23416-0.076c1.2448,0.041,5.2375,1.9519,11.978,5.7331,0.09374,0.2899-0.01548,0.4854-0.32768,0.5863-7.3387-4.0311-11.253-5.9674-11.744-5.8088l-0.14063-0.4348m-8.8664,3.089,0.38561,0.3926c-1.1163,0.5089-2.1904,1.2627-3.2222,2.2614l-0.075724-0.2342c-0.17307-0.5351,0.7977-1.3417,2.9123-2.4198m2.2412-0.7248c2.4103-0.1636,3.6948-0.0001,3.8535,0.4904l-0.43486,0.1407c-0.22301,0.072-1.3121,0.018-3.2672-0.1628l-0.15145-0.4683m3.7956-0.4885,0.20071-0.065c0.2453-0.079,0.64371,0.1244,1.1952,0.6111l-0.35913,0.3748-0.96109-0.6868-0.07573-0.2342m-5.604,2.5514,0.15145,0.4683-0.90316,0.292-1.4315,0.9433-0.34134-0.3699c0.61266-0.543,1.4542-0.9875,2.5246-1.3337m0.90316-0.2921,1.1039-0.357,0.15145,0.4683-1.1039,0.357-0.15145-0.4683m1.6144-0.2635,0.23415-0.076c4.0587-1.3126,10.444,1.1425,19.157,7.365,0.10096,0.3123,0.0065,0.5152-0.2834,0.6089-8.9873-6.1583-15.31-8.6461-18.967-7.4633l-0.14063-0.4349m14.988-4.8451l0.43486-0.1406,0.21636,0.669c-0.28991,0.094-0.48174,0-0.57549-0.2942l-0.07572-0.2342m-9.7587,3.4146c0.80282-0.2596,3.4648,0.8501,7.9861,3.3291l-0.35913,0.3748c-1.8737-0.9951-4.5393-2.116-7.9969-3.3626l0.37-0.3415m-10.798,3.9725c0.30433-0.049,0.49617,0.049,0.57549,0.2942-0.223,0.072-0.64447,0.7874-1.2644,2.1455l-0.37479-0.3591c-0.072108-0.223,0.28247-0.9165,1.0637-2.0806m1.8486-0.3392c0.15611-0.05,0.40073-0.056,0.73391-0.016,0.75955-0.3934,1.4069-0.6767,1.9421-0.8498l0.23415-0.076,1.1688-0.1563,0.15145,0.4683-0.66902,0.2163-1.4137,0.1986c-1.0541,1.006-1.7707,1.5703-2.1498,1.6929l-0.07572-0.2342c-0.09375-0.2899,0.08238-0.5069,0.52837-0.6512l-0.07572-0.2342-0.23415,0.076c-0.39684,0.4486-0.71792,0.7125-0.96324,0.7918l-0.06491-0.2007c-0.10816-0.3345,0.18767-0.6765,0.88752-1.026m4.623-1.0147,0.2007-0.065c3.6959-0.5302,7.9903,0.7906,12.883,3.9623l1.6458,1.2043,0.15145,0.4684-0.23415,0.076c-7.3741-4.2168-12.21-5.9538-14.507-5.211l-0.14063-0.4348m-5.8382,2.627,0.3856,0.3926c-0.20069,0.065-0.50246,0.6552-0.90531,1.7707-0.05047-0.156-0.15373-0.2089-0.30987-0.1584,0.02895-0.7483,0.30548-1.4166,0.82958-2.0049m2.9859-0.707,1.5722-0.5084,1.1796-0.1229,0.14063,0.4349-1.1796,0.1228c-1.6785,1.208-2.6962,1.8696-3.053,1.985-0.09375-0.2899,0.35297-0.927,1.3402-1.9114m17.896-5.7889l0.20071-0.065c0.20069-0.065,0.62074,0.2057,1.2602,0.8117l0.07572,0.2342c-0.62898-0.1168-1.1412-0.4438-1.5366-0.981m-20.496,6.8871,0.66901-0.2164,0.06491,0.2007c0.10098,0.3123,0.0065,0.5153-0.2834,0.609l-0.3856-0.3926-0.06491-0.2007m7.0649-1.8044c3.2492-0.3118,7.4961,1.3569,12.741,5.0061,0.38033,0.5667,1.772,1.5946,4.1749,3.0837l0.14063,0.4348-0.20071,0.065c-2.0934-1.2936-4.4819-2.3194-7.1656-3.0772-5.0846-3.3068-9.0875-4.4879-12.009-3.5432-1.0318,0.9988-1.6034,1.5163-1.7149,1.5523l-0.37479-0.3591c-0.13702-0.4237,0.48745-1.0444,1.8734-1.8622,3.0735-0.5505,6.4773,0.073,10.212,1.8705,1.5982,1.1335,3.2023,2.0188,4.8124,2.6558l-0.07572-0.2341c-5.623-3.6007-9.7137-5.3199-12.272-5.1576l-0.14064-0.4348m11.841-3.8299c0.08917-0.029,0.90766,0.4455,2.4554,1.4229l0.07572,0.2342-0.4683,0.1514c-0.9798-0.6684-1.6481-0.9449-2.0049-0.8296l-0.35215-0.4034c-0.04912-0.3043,0.04891-0.4961,0.29423-0.5755m1.4787,0,0.4683-0.1515c0.94106,0.8535,1.6234,1.2117,2.0472,1.0746l0.37478,0.3591c0.10096,0.3123,0.0065,0.5152-0.2834,0.609-0.05049-0.1561-0.15374-0.2089-0.30988-0.1585l0.07573,0.2342c0.81124,0.452,1.2313,0.7226,1.2602,0.8118l0.07573,0.2341-0.23416,0.076c-0.77786-0.044-1.936-1.0735-3.4744-3.0885m-14.755,6.2495c2.1454-0.3736,4.9895,0.2708,8.5323,1.9332,7.2994,3.4527,11.212,5.6484,11.737,6.587l0.14063,0.4348-0.20071,0.065c-0.28992,0.094-1.7707-0.9053-4.4425-2.9972l-4.2105-1.5942c-5.4296-2.8504-8.635-4.1169-9.6162-3.7996-1.1714,0.034-1.824,0.073-1.9578,0.1158-1.2731,0.6335-1.8195,1.229-1.6392,1.7864l-0.66902,0.2164-0.07572-0.2342c-0.17308-0.5352,0.62751-1.3729,2.4018-2.5133m-4.935,2.335,0.4683-0.1515,0.07572,0.2342c-0.56634,2.8188-0.92756,4.2535-1.0837,4.304l-0.23415,0.076-0.07572-0.2342c-0.1298-0.4013,0.15338-1.8108,0.84953-4.2282m1.5722-0.5085,0.15145,0.4683c-0.73477,1.7649-0.99038,2.993-0.76682,3.6843l0.52837-0.6512,0.34134,0.3699,0.07572,0.2342c-0.24084,1.2356-0.43931,1.8787-0.59543,1.9291l-0.23415,0.076c0.15355-0.5915,0.16542-1.088,0.0356-1.4894l-0.07573-0.2342c-0.3122,0.101-0.3493,0.5195-0.11132,1.2553l-0.43486,0.1407-0.43271-1.338c0.42202-2.4273,0.92819-3.9089,1.5185-4.4447m-2.6938,1.6102,0.23415-0.076,0.07572,0.2341c0.12982,0.4014-0.11914,0.8884-0.74688,1.4609l-0.37478-0.3592,0.81179-1.2601m5.5862-1.8066,1.1373-0.3678c2.2759-0.046,3.5075,0.2205,3.6951,0.8003l-0.2007,0.065c-2.4293-0.1997-3.9227-0.2094-4.4802-0.029l-0.15145-0.4683m13.18-4.262c0.93129,0.29,2.0701,0.9932,3.4165,2.1097l0.21636,0.669c-2.281-1.0359-3.6116-1.8372-3.992-2.4039l0.35913-0.3748m-14.132,5.0875,0.66902-0.2164,0.06491,0.2007c0.07212,0.2231-0.07876,0.5182-0.45266,0.8854-0.2899,0.094-0.48172,0-0.57549-0.2942-0.04912-0.3043,0.04894-0.4961,0.29422-0.5755m-1.039,0.5577,0.2007-0.065c0.10098,0.3122,0.0065,0.5152-0.2834,0.6089l-0.23415,0.076c-0.05633-0.3266,0.04926-0.5331,0.31686-0.6197m3.9314-0.7541c0.30433-0.049,0.49617,0.049,0.57549,0.2942l0.07572,0.2342c-2.676,0.8654-3.7508,2.1121-3.2244,3.74l-0.669,0.2163c-0.60579-1.8732,0.39687-3.3428,3.008-4.409l0.23415-0.076m2.8924-0.1964,0.23416-0.076c2.2056,0.346,4.9145,1.6006,8.1267,3.764l0.29208,0.9032-0.23416,0.076c-2.8686-1.634-5.6532-3.1229-8.3539-4.4664l-0.06491-0.2007m13.849-4.4786c1.0683,0.7137,1.689,1.3382,1.8621,1.8734l-2.1563-1.2979c-0.04912-0.3043,0.04891-0.4961,0.29422-0.5755m-20.632,7.1527,0.23415-0.076,0.07573,0.2341c0.06492,0.2008-0.08597,0.4959-0.45265,0.8854l-0.15145-0.4683c-0.04912-0.3043,0.04892-0.4961,0.29422-0.5755m5.3521-1.7308,0.07573,0.2341c0.06491,0.2008-0.82782,0.9821-2.6782,2.3441l-0.09353,0.5106,0.07572,0.2341c0.31221-0.1009,0.5152-0.01,0.60894,0.2834,0.80424-1.2453,1.552-1.9798,2.2433-2.2034,0.60211-0.1947,1.6636,0.041,3.1845,0.7067-0.1561,0.051-0.2089,0.1539-0.15843,0.3099-2.0738-0.1668-3.2334-0.2105-3.4787-0.1312l0.07572,0.2341,0.65121,0.5284-0.35913,0.3748c-0.10096-0.3122-0.30755-0.4178-0.61976-0.3169l-1.1887,2.3797,0.64907,2.007c0.56964,2.5993,0.5311,4.0035-0.11561,4.2126l1.376,2.7696-0.66902,0.2164c-0.60001-0.8652-0.96132-1.4873-1.0839-1.8664l-0.43271-1.3381-0.43486,0.1407,2.1186,4.266-0.4034,0.3521c-1.0781-1.277-1.8587-2.6627-2.3419-4.1568l-0.29208-0.9032c-0.02686-0.3115,0.08237-0.5069,0.32768-0.5863l0.23415-0.076c0.44601-0.1442,0.78801,0.1516,1.026,0.8875l0.43486-0.1406c-0.19472-0.6021-0.14712-0.95,0.14277-1.0438l-0.55769-1.039c-0.4163-1.5157-0.43489-2.3349-0.05578-2.4575l-0.37479-0.3591-0.15145-0.4684c0.14568-0.5397,0.2028-1.1247,0.17139-1.755-0.1561,0.05-0.40434,0.044-0.74474-0.018,0.14425,0.446,0.07141,0.7159-0.2185,0.8096-0.05047-0.1561-0.15374-0.2089-0.30987-0.1584-0.44714-1.3826,0.30729-2.8582,2.2633-4.4269l1.1039-0.3569m0.84309,0.2076,0.43486-0.1406c5.2526,1.9224,9.1449,4.2846,11.677,7.0867l2.8725,2.027,0.15145,0.4683c-2.1852-0.9683-4.6272-2.6542-7.3258-5.0576-3.9153-2.2809-6.4933-3.6641-7.7341-4.1496l-0.07572-0.2342m13.22-2.5386,0.669-0.2163c2.9584,1.5312,4.5061,2.5086,4.6432,2.9323l-0.20071,0.065c-3.2707-1.4302-4.9492-2.2791-5.0358-2.5467l-0.07572-0.2342m-18.674,7.0369,0.43486-0.1406,0.07572,0.2341-0.09352,0.5106,0.37478,0.3591c0.04318,0.9714-0.03559,1.4895-0.23629,1.5544l0.60196,1.0616c0.13238,0.9425,0.04246,1.4643-0.26975,1.5652-0.05048-0.1561-0.14261-0.2125-0.27643-0.1692-0.47198-1.9165-0.67576-3.5749-0.61133-4.9752m16.525-5.344,0.669-0.2163c0.02161,0.067,0.1859,0.3463,0.49279,0.8382l-0.20071,0.065c-0.22301,0.072-0.51814-0.079-0.88536-0.4526l-0.07572-0.2342m-9.9929,3.4903c1.6056-0.5192,3.8945,0.4649,6.8666,2.9522,0.39285,0,2.2157,1.2911,5.4685,3.8847l0.21636,0.669-0.23415,0.076c-1.3576-0.6941-2.1337-1.3422-2.3284-1.9443-0.76145-0.2217-2.0504-1.1227-3.867-2.703-2.5203-1.6235-4.7118-2.3065-6.5745-2.049l0.21636,0.669-1.1796,0.1228-0.23416,0.076c0.14424,0.446,0.07141,0.7159-0.2185,0.8096-0.3122,0.101-0.51518,0.01-0.60894-0.2834l-0.15145-0.4683c-0.1298-0.4014,0.7465-1.005,2.6289-1.8109m15.72-4.862,0.2007-0.065c0.24529-0.079,0.6437,0.1244,1.1952,0.6111l0.07572,0.2341-0.23415,0.076c-0.22303,0.072-0.61029-0.1351-1.1618-0.6219l-0.07572-0.2341m-21.29,7.4025,0.66901-0.2163,0.43271,1.338c0.09376,0.2899-0.01547,0.4853-0.32768,0.5863-0.09375-0.2899-0.28557-0.388-0.57549-0.2942l-0.19855-1.4138m16.79-5.2082,0.46831-0.1514c3.5119,1.7955,5.9486,3.2367,7.3101,4.3236l-0.36995,0.3414c-4.802-2.5853-7.2462-4.0118-7.3327-4.2794l-0.07573-0.2342m-19.952,6.9698,0.4683-0.1514,0.28126,0.8697-0.4683,0.1514-0.28126-0.8697m1.5722-0.5084,0.23415-0.076,0.26347,1.6144-0.43486,0.1406-0.35699-1.1038c-0.04912-0.3043,0.04892-0.4961,0.29422-0.5755m6.0211-1.9472c1.6502-0.5337,2.6412-0.2876,2.973,0.7382l0.43486-0.1406-0.65121-0.5284c0.1561-0.05,0.21251-0.1426,0.16924-0.2764,0.33318,0.04,0.57781,0.035,0.73392-0.016l0.15145,0.4683-0.09353,0.5106,0.80965,0.2185-0.14063-0.4349,0.23415-0.076c1.5596,0.481,2.7341,1.3327,3.5237,2.5554,0.60209-0.1947,2.4285,1.1113,5.4793,3.9181,0.40139-0.1298,1.0109,0.4983,1.8287,1.8842l-0.23416,0.076c-0.65194-0.035-1.4533-0.7616-2.4042-2.1784-0.46831,0.1515-2.0777-0.9784-4.8281-3.3898-0.57982,0.1876-0.96707-0.02-1.1618-0.6219l-0.669,0.2164c0.09374,0.2899,0.90106,0.7678,2.4219,1.4337-0.2755,0.1384-0.36996,0.3413-0.2834,0.6089l0.0649,0.2007,0.2007-0.065,0.4034-0.3521c3.504,2.6848,5.3461,4.3061,5.5264,4.8635,1.854,0.706,2.8315,1.2151,2.9325,1.5272l0.06491,0.2008-0.43486,0.1406c-3.4608-1.7135-5.4755-3.1065-6.044-4.1789l-0.43486,0.1406c0.18028,0.5575,1.2568,1.6011,3.2294,3.1308,0.09374,0.29-0.0043,0.4818-0.29422,0.5755-0.10819-0.3345-2.1793-1.6353-6.2132-3.9025l-0.29208-0.9031c-0.04913-0.3044,0.04892-0.4962,0.29422-0.5755,0.223-0.072,1.2117,0.4333,2.966,1.5164l0.23416-0.076-0.21636-0.669c-0.60212,0.1948-2.103-0.6377-4.5026-2.4974-1.4658-0.191-2.3883-0.2252-2.7674-0.1026,1.9754,0.3957,3.312,0.9488,4.0098,1.6591l-0.46831,0.1515c-1.2494-0.3596-1.9282-0.7066-2.0363-1.0411l-0.23415,0.076,0.0649,0.2007c1.9818,2.1672,4.2423,3.8255,6.7817,4.9749l-0.09352,0.5106c0.63095-0.1055,1.0041,0.02,1.1195,0.3769l-0.35913,0.3748c-1.1241-0.2769-2.2377-0.9021-3.3408-1.8755-0.08925,0.029-0.67945-0.2729-1.7707-0.9053l-0.43486,0.1406c0.32197,0.4624,2.6354,2.0175,6.9402,4.665l0.14063,0.4349-0.46831,0.1514c-4.036-2.0448-7.1507-4.3259-9.3443-6.8434l-0.21636-0.669-0.46831,0.1514,0.23201,1.403c-0.66702-0.01-1.1844-0.5777-1.5522-1.715l-0.12283-1.1796-0.54403-0.083-0.43486,0.1406,0.07572,0.2342c0.44857,0.3969,0.73775,0.796,0.86757,1.1974l0.06491,0.2007c0.07211,0.223-0.07876,0.5181-0.45266,0.8854-0.04326-0.1338-0.13179-0.1791-0.2656-0.1358l0.04925-0.5333-0.14063-0.4348-0.35913,0.3748-0.23415,0.076c-0.44893-2.8353-0.43925-4.3287,0.02906-4.4802l0.23415-0.076-0.0649-0.2006c-0.07211-0.223-0.36724-0.3739-0.88536-0.4527-0.01795,2.0011,0.01635,3.1354,0.10289,3.403l-0.66902,0.2163c-0.24311-1.818-0.24984-3.1337-0.02018-3.947l1.6902-0.029-0.07572-0.2341-0.49278-0.8383c0.1338-0.043,0.17906-0.1318,0.13579-0.2656m15.486-4.7863,3.6929,2.2789,0.14063,0.4348c-0.34173,0.086-1.6924-0.5488-4.0521-1.9041l-0.06491-0.2007c-0.05633-0.3266,0.03809-0.5296,0.28342-0.6089m-6.0389,2.6919,0.4683-0.1514c0.2007-0.065,0.49582,0.086,0.88537,0.4526l0.15145,0.4683-0.46831,0.1515c-0.20071,0.065-0.49583-0.086-0.88536-0.4527l-0.15145-0.4683m-8.6413,5.2702,0.2007-0.065c0.44602-0.1442,0.57165-0.5174,0.37693-1.1195,1.2547-0.2334,1.9289-0.2051,2.0227,0.085l0.15145,0.4683-1.8063,0.5842,0.37478,0.3591,0.15145,0.4683-0.2185,0.8097,0.06491,0.2007c0.93528-0.1547,1.5255,0.1471,1.7707,0.9053l-0.23415,0.076c0.47086,0.3897,0.74956,0.7183,0.83612,0.9859l0.43486-0.1407c-0.64064-1.2954-1.4004-2.1212-2.2792-2.4774l-0.21636-0.6691,1.0281-0.5911,0.23416-0.076c0.72404,0.2585,1.2422,0.3373,1.5544,0.2363l-0.65121-0.5284-0.14063-0.4349c0.223-0.072,0.61026,0.1352,1.1618,0.6219,0.23941-0.2498,0.43718-0.4,0.59328-0.4505-2.2062-1.1093-3.8111-1.5017-4.8146-1.1772-0.65657,0.4834-0.85505,1.1264-0.59542,1.9292m-4.5225-0.274,0.43486-0.1407,0.43271,1.338c0.25242,0.7806,0.17726,1.3099-0.22548,1.5879-0.2899,0.094-0.48533-0.015-0.58631-0.3277l-0.05578-2.4575m-2.9929,1.4851,0.43486-0.1406,0.28126,0.8697-0.43486,0.1407-0.28126-0.8698m16.824-5.219,0.9611,0.6868-0.35914,0.3748-0.4683,0.1515c-0.10819-0.3345-0.27242-0.614-0.49279-0.8383l0.35913-0.3748m4.6653-0.7698,0.46831-0.1514c1.9399,1.0477,3.6831,2.1343,5.2295,3.2599l-0.35914,0.3748-5.1115-2.7808-0.22717-0.7025m-2.5246,1.3338,0.46831-0.1515,3.8335,2.7138,0.14063,0.4349-0.46831,0.1514c-0.64407-0.087-1.4983-0.7101-2.5626-1.8685-0.22302,0.072-0.62143-0.1316-1.1952-0.6111l-0.21636-0.669m-0.52837,0.6512c0.63483,0.2874,2.2547,1.4878,4.8595,3.6013l0.29208,0.9031-0.20071,0.065c-3.3886-2.328-5.1586-3.7262-5.31-4.1945l0.35913-0.3748m7.5933-2.4557,0.23415-0.076c0.30431-0.049,0.49974,0.06,0.58631,0.3277l0.0649,0.2007-0.2007,0.065c-0.31222,0.101-0.5152,0.01-0.60893-0.2834l-0.07572-0.2342m-24.261,8.8435,0.2007-0.065c0.31221-0.101,0.54042,0.072,0.68466,0.5175-0.06234,0.3405-0.06827,0.5887-0.01779,0.7448l-0.43486,0.1406-0.43271-1.338m-0.76253,0.7269,0.43486-0.1406,0.50844,1.5722,0.59114,1.0281-0.43486,0.1407c-0.31219,0.1009-0.51517,0.01-0.60893-0.2835l-0.35699-1.1038-0.13366-1.2131m-0.59329,0.4505,0.37479,0.3592,0.58416,1.8063-0.46831,0.1515-0.70914-1.5073-0.07573-0.2342c-0.04912-0.3043,0.04893-0.4961,0.29422-0.5755m8.5722-2.5135,0.14063,0.4348c0.13838,0.2755,0.33018,0.3736,0.57549,0.2943l0.23416-0.076c-0.41052-0.5076-0.72727-0.7254-0.95028-0.6533m14.5-3.9502,0.23415-0.076c0.76476-0.1487,1.2048-0.045,1.3202,0.3121l0.21636,0.669-0.43486,0.1406c-0.7031-0.1175-1.1484-0.4661-1.3359-1.0459m-21.067,7.2933,0.20071-0.065c0.31221-0.1009,0.7768,0.574,1.3938,2.0248,0.223-0.072,0.67352,0.5212,1.3515,1.7799l-0.70246,0.2272-0.5577-1.039-0.23415,0.076,0.14063,0.4349c0.24986,0.2394,0.40003,0.4372,0.45051,0.5933l-0.39258,0.3856-0.2007,0.065-0.36781-1.1373-0.23416,0.076,0.21636,0.669-0.43486,0.1406-0.51541-0.7939c0.79105-0.6007,1.1613-0.9791,1.1108-1.1352-0.60001-0.8652-0.96132-1.4873-1.0839-1.8664l-0.14063-0.4349m3.4208-0.8476,0.23416-0.076c1.1635,0.018,2.3604,0.4436,3.5907,1.2774,0.8978,0.7196,1.3936,1.2243,1.4873,1.5142l-0.35913,0.3748c-1.4703-1.3473-2.2612-2.0029-2.3727-1.9669l0.14063,0.4349,1.1125,1.1551-0.36995,0.3413c-0.96204-0.9944-1.5323-1.4627-1.7107-1.4051l0.06491,0.2007c0.24265,0.2172,0.41806,0.493,0.52623,0.8275l-0.35913,0.3748c-0.89059-0.6973-1.4801-1.492-1.7686-2.384l-0.21636-0.669m5.8675-0.9369,0.07572,0.2342c0.37764,0.8632,0.74491,1.2371,1.1017,1.1216l0.23416-0.076c-0.56197-0.9759-1.0325-1.4026-1.4116-1.2801m-1.9313,0.8833,0.43486-0.1407,0.21636,0.669-0.43486,0.1407-0.21636-0.669m16.29-5.2683,0.23415-0.076c0.51877,0,1.2844,0.5823,2.297,1.7328l-0.4683,0.1514c-0.17842,0.058-0.9641-0.3532-2.357-1.2329-0.04913-0.3044,0.04891-0.4962,0.29423-0.5755m-1.463,0.7317,0.43486-0.1406c0.14421,0.446,1.3716,1.1945,3.6821,2.2455,0.10094,0.3122,0.0065,0.5152-0.28341,0.6089-2.3269-0.8732-3.714-1.5824-4.1612-2.1274-0.04912-0.3044,0.06005-0.4998,0.32768-0.5864m-22.004,7.5963,0.37478,0.3591,0.07572,0.2342-0.23415,0.076c-0.2899,0.094-0.48173,0-0.57549-0.2942l0.35913-0.3748m12.885-3.6867c0.41772,0.53,0.73808,0.7589,0.9611,0.6868l-0.06491-0.2007c-0.24987-0.2394-0.40364-0.4483-0.46133-0.6268l-0.43486,0.1407m6.4245-2.2994c0.17839-0.058,1.431,0.7689,3.7578,2.4796-0.15612,0.051-0.20894,0.1538-0.15843,0.3099-0.80017-0.037-1.9026-0.6656-3.3073-1.8863l-0.29208-0.9032m-10.798,3.9723c0.14424,0.446,0.50626,0.5753,1.0861,0.3877l0.21636,0.6691c0.10096,0.3122,0.0065,0.5151-0.2834,0.6089-0.28991,0.094-0.76044-0.3329-1.4116-1.2801l0.39258-0.3856m12.945-4.1865,5.2473,2.5152-0.36995,0.3413c-1.178-0.062-2.9094-0.808-5.1942-2.2367-0.03407-0.3339,0.07154-0.5405,0.31686-0.6198m-3.2693,1.3159,0.43486-0.1406c0.25248-0.057,0.99291,0.4425,2.2212,1.4986l0.07572,0.2341-0.46831,0.1515c-1.2782-0.4487-2.0328-1.0299-2.2635-1.7436m-13.708,4.9135c0.07933,0.2453,0.86429,1.1492,2.3549,2.7116l0.21636,0.669c-0.33451,0.1082-1.3224-0.8901-2.9638-2.995l0.39259-0.3856m-1.4207,0.9767,0.66902-0.2163,0.28127,0.8697-0.23416,0.076c-0.2899,0.094-0.48173,0-0.57549-0.2942l-0.14064-0.4349m3.2515-0.5712,0.76039,0.7517-0.4034,0.3522-0.65121-0.5284c-0.04913-0.3043,0.04893-0.4961,0.29422-0.5755m0.74474,0.018,0.23415-0.076c0.223-0.072,0.51812,0.079,0.88537,0.4526l-0.36995,0.3414-0.68466-0.5176-0.06491-0.2007m3.2093-0.8162c0.30432-0.049,0.49976,0.06,0.5863,0.3277l-0.36995,0.3413c-0.28991,0.094-0.48175,0-0.57549-0.2942l0.35913-0.3748m-1.4965,0.7426,0.23416-0.076c0.223-0.072,0.73519,0.2549,1.5366,0.981l0.07572,0.2342-0.2007,0.065c-0.22301,0.072-0.74636-0.2513-1.57-0.9702l-0.07572-0.2342m-4.7766,2.0251,0.46831-0.1514c0.30433-0.049,0.49977,0.06,0.58631,0.3276,0.09376,0.29-0.0043,0.4818-0.29422,0.5755l-0.68466-0.5175-0.07573-0.2342m17.345-5.0921,0.23415-0.076c0.33449-0.1081,0.67648,0.1877,1.026,0.8875l-0.23416,0.076c-0.24532,0.079-0.58732-0.2165-1.026-0.8876m-12.446,4.2466c0.32662-0.056,0.53321,0.049,0.61976,0.3169,0.09375,0.2899-0.01548,0.4853-0.32768,0.5863-0.28991,0.094-0.48174,0-0.57549-0.2942-0.05634-0.3267,0.0381-0.5296,0.28341-0.609m2.4753-0.8005,0.66902-0.2164c2.5059,1.579,4.2743,2.7437,5.3052,3.4942l0.06491,0.2007-0.35913,0.3747-5.5286-3.3849-0.15145-0.4683m12.352-3.736c0.89199-0.2885,1.7833-0.084,2.6739,0.6132l0.14063,0.4349-0.66901,0.2163c-1.2933-0.4192-1.9616-0.6957-2.0049-0.8295l-0.14063-0.4349m-15.639,5.7967,0.23416-0.076c0.30433-0.049,0.49615,0.049,0.57549,0.2942l0.21636,0.669-0.23416,0.076c-0.2899,0.094-0.48173,0-0.57549-0.2942l-0.21636-0.669m2.676-0.8654,0.46831-0.1515c0.56993,0.087,1.6664,0.9637,3.2895,2.6311l-0.35913,0.3748c-2.0927-1.3678-3.2256-2.3192-3.3987-2.8544m10.503-3.3969,0.23415-0.076c1.4132,1.0948,3.1899,1.7519,5.33,1.9712l0.35216,0.4034,0.06491,0.2007c-1.4403,0.2688-3.1196-0.087-5.0379-1.068-0.41252-0.2854-0.6296-0.4615-0.65121-0.5284l-0.29208-0.9032m-14.208,4.8534c0.15609-0.051,1.0355,0.6504,2.6383,2.1027l0.14063,0.4349-0.43486,0.1406c-0.26761,0.087-1.0021-0.6612-2.2034-2.2433l-0.14063-0.4349m3.4857-0.6469,0.37479,0.3591,0.15145,0.4683-0.23416,0.076c-0.28991,0.094-0.48534-0.015-0.58631-0.3277-0.04913-0.3043,0.04892-0.4962,0.29422-0.5755m7.8274-2.5314,0.2007-0.065c0.22299-0.072,0.51811,0.079,0.88537,0.4527l0.14063,0.4348-0.43486,0.1407c-0.28992,0.094-0.48175,0-0.5755-0.2943l-0.21636-0.669m-9.0248,3.399c0.31153-0.027,0.50697,0.082,0.58631,0.3276l0.06491,0.2007-0.43486,0.1407c-0.31221,0.1009-0.51519,0.01-0.60894-0.2834l0.39258-0.3856m17.863-5.7768c0.22298-0.072,0.5181,0.079,0.88536,0.4527-0.15612,0.051-0.20895,0.1537-0.15843,0.3099-0.65195-0.035-1.014-0.1648-1.0861-0.3878l0.35913-0.3748m-9.5246,3.3389c2.3727,1.5481,4.1278,2.1383,5.2651,1.7705,0.11538,0.3568,1.8423,0.3649,5.1807,0.024l0.15145,0.4683-0.669,0.2164c-4.1255,0.4967-7.1205,0.1474-8.9849-1.0479-0.79619-0.4814-1.2087-0.7668-1.2375-0.856-0.04913-0.3043,0.04892-0.4961,0.29423-0.5755m7.3591-2.3799c1.214,0.1739,1.857,0.3724,1.9292,0.5954l0.15145,0.4683-0.43486,0.1407c-1.0651-0.2468-1.6337-0.4816-1.7058-0.7047l0.06007-0.4997m-13.708,4.9134,0.23416-0.076c0.28989-0.094,0.73879,0.2661,1.3467,1.0794l-0.4034,0.3521-0.9611-0.6868-0.21636-0.669m8.338-2.4378,0.66901-0.2164,0.14063,0.4349-0.2007,0.065c-0.31222,0.101-0.51519,0.01-0.60893-0.2834m2.676-0.8655c0.0216,0.067,0.24984,0.2395,0.68466,0.5176l-0.39258,0.3856c-0.41253-0.2853-0.6296-0.4614-0.65121-0.5284l0.35913-0.3748m-11.902,4.3293,0.23415-0.076,4.1857,3.1172-0.36995,0.3413-4.4425-2.9972,0.39258-0.3856m11.014-3.3033c0.63482,0.2874,1.1529,0.3662,1.5544,0.2363l0.15145,0.4683c-1.0927,0.3534-1.7558,0.3216-1.9892-0.096-0.05634-0.3266,0.03809-0.5296,0.28341-0.609m-3.9383,1.5323,0.23415-0.076,3.6172,2.0448-0.4683,0.1514c-0.20072,0.065-1.2815-0.4969-3.2424-1.6856l-0.14063-0.4349m-7.3769,3.1247c0.30433-0.049,0.49615,0.049,0.57549,0.2942l0.07572,0.2342c0.09375,0.2899-0.0043,0.4817-0.29422,0.5755l-0.68466-0.5176c-0.02686-0.3115,0.08237-0.507,0.32768-0.5863m-1.2623,0.6669,0.20071-0.065,0.21636,0.669-0.20071,0.065c-0.31221,0.1009-0.51879,0-0.61976-0.3169l0.4034-0.3521m6.2552-2.023,0.43486-0.1406c0.22299-0.072,0.51812,0.079,0.88537,0.4526,0.09374,0.29-0.0043,0.4818-0.29422,0.5755l-0.96109-0.6868-0.06491-0.2007m8.6971-2.8126,0.90316-0.2921c0.30432-0.049,0.49614,0.049,0.5755,0.2942l0.07572,0.2342-1.4137,0.1985-0.14063-0.4348m-9.8945,3.6802,0.20071-0.065c0.32662-0.056,0.5296,0.038,0.60894,0.2834,0.10095,0.3122-0.0047,0.5188-0.31686,0.6198l-0.35216-0.4034-0.14063-0.4349m4.0898-1.064,0.23415-0.076,2.6561,1.3579c-0.15612,0.051-0.21254,0.1427-0.16924,0.2765-1.0809-0.1431-2.1223-0.5453-3.1244-1.2065l0.4034-0.3522m-6.5495,2.5984,0.34134,0.37-0.35913,0.3748-0.37479-0.3592,0.39258-0.3856m5.8627-1.6373,1.57,0.9702-0.4683,0.1515c-0.20072,0.065-0.69128-0.1952-1.4717-0.7804l0.36995-0.3413m-10.363,3.8317c1.0579,0.2244,1.6229,0.4481,1.695,0.6711l-0.35913,0.3748c-0.81847-0.4743-1.2385-0.7449-1.2602-0.8118l-0.07572-0.2341m8.8063-2.5893,0.66902-0.2164c0.13379-0.043,0.74567,0.3254,1.8356,1.106l-0.23416,0.076c-0.55752,0.1803-1.2927-0.075-2.2056-0.7646l-0.06491-0.2007m6.9892-2.0386c0.22299-0.072,1.1871-0.1376,2.8924-0.1964l0.15145,0.4683-0.23415,0.076c-0.37912,0.1226-1.2652,0.1628-2.6582,0.1207l-0.15145-0.4683m-11.766,4.0636,0.2007-0.065c0.81779,0.5484,1.3939,0.7686,1.7285,0.6604,0.05768,0.1784,0.1967,0.3797,0.41705,0.6041l-0.35913,0.3748c-1.1949-0.6482-1.8573-1.1729-1.9871-1.5744m-1.0616,0.602,2.7545,1.5478-0.39258,0.3856c-1.5222-0.5176-2.4328-1.0483-2.7318-1.5921l0.36995-0.3413m2.9102-0.9412,0.23416-0.076c0.30432-0.049,0.49615,0.049,0.57549,0.2942,0.09375,0.29-0.0043,0.4818-0.29422,0.5755l-0.37479-0.3591-0.14063-0.4349m6.9892-2.0385c0.32661-0.056,0.5332,0.049,0.61975,0.3168l0.06491,0.2007-0.4683,0.1515c-0.28992,0.094-0.48175,0-0.57549-0.2943l0.35913-0.3747m-3.8626,1.7664,0.43486-0.1406c0.0721,0.223,0.38886,0.4408,0.95027,0.6533l-0.43486,0.1407c-0.22302,0.072-0.51813-0.079-0.88536-0.4527l-0.06491-0.2007m2.3061-0.5241,0.90316-0.2921,0.21636,0.669-0.23415,0.076c-0.22302,0.072-0.51814-0.079-0.88536-0.4527m5.1179-1.6551,0.23416-0.076c0.78504,0.066,1.2504,0.2484,1.3959,0.5461-0.13383,0.043-0.17549,0.143-0.12498,0.2991-0.78508-0.066-1.2615-0.2448-1.4294-0.5354l-0.07572-0.2341m-3.1287,1.7508,0.669-0.2164,0.15145,0.4683-0.20071,0.065c-0.31222,0.101-0.5188,0-0.61975-0.3168m-9.8837,3.7136,0.2007-0.065c0.32663-0.056,0.5296,0.038,0.60894,0.2834l0.07573,0.2342-0.23416,0.076c-0.28991,0.094-0.48535-0.015-0.58631-0.3277l-0.06491-0.2007m8.0281-2.5963,1.4029-0.232,0.15145,0.4684-0.20071,0.065-1.213,0.1336-0.14063-0.4349m-3.5143,1.3583,0.38561,0.3925-0.35913,0.3748-0.38561-0.3926,0.35913-0.3747m2.5333,0.1783,1.5722-0.5084,0.15145,0.4683-1.5722,0.5084-0.15145-0.4683m3.3451-1.0818,0.669-0.2163,0.15145,0.4683-0.20071,0.065c-0.31222,0.101-0.5188,0-0.61975-0.3169m2.3169-0.4906,0.669-0.2164,0.07573,0.2342c0.09374,0.2899-0.0043,0.4817-0.29422,0.5755l-0.23415,0.076-0.21636-0.669m-2.384,1.7686,0.66901-0.2164,0.14063,0.4349-0.669,0.2164-0.14063-0.4349m-2.0426,2.1385,0.90316-0.292,0.14063,0.4348-0.90316,0.2921-0.14063-0.4349" stroke="#FFF" stroke-width="0.2" fill="#000"/>
</svg>
