<?xml version="1.0" encoding="UTF-8" standalone="no"?>
<svg xmlns:rdf="http://www.w3.org/1999/02/22-rdf-syntax-ns#" xmlns="http://www.w3.org/2000/svg" height="52" width="101" version="1.1" xmlns:cc="http://creativecommons.org/ns#" xmlns:dc="http://purl.org/dc/elements/1.1/">
 <path fill="#434343" d="m17.396,51.024c0.12677-0.3303-0.55351-1.1777-1.2253-1.5263-0.29173-0.1514-0.24862-0.047,0.16155,0.3902,0.64213,0.6848,0.57187,0.7499-1.0398,0.9637l-0.98252,0.1304-1.994-1.7168c-1.0967-0.9442-2.0489-1.8055-2.1159-1.914-0.25461-0.412,0.23615-0.1627,1.195,0.607,2.0761,1.6666,3.3349,2.5783,3.5539,2.5738,0.23821,0-0.74455-0.9597-2.8428-2.7622-1.166-1.0016-2.0021-2.0456-2.0038-2.5019-0.00039-0.107,0.76313,0.5645,1.6967,1.4924,1.494,1.4848,1.6701,1.6082,1.4691,1.0292-0.21784-0.6275-2.6276-3.2225-2.9924-3.2225-0.0957,0-0.17408-0.09-0.17408-0.1989,0-0.5523,0.8186-0.05,2.0283,1.2436,0.74178,0.7935,1.35,1.3059,1.3516,1.1387,0.004-0.4255-0.47982-1.097-1.7884-2.4818-1.1148-1.1798-1.7479-2.0894-1.4542-2.0894,0.0832,0,0.75538,0.5995,1.4938,1.3322,0.73837,0.7327,1.3923,1.2824,1.4532,1.2215,0.31074-0.3107-0.53404-1.431-2.6555-3.5215-1.2924-1.2735-2.9547-3.099-3.6941-4.0566-0.73938-0.9576-1.4264-1.7412-1.5268-1.7412-0.10038,0-0.18247,0.2159-0.18247,0.4796,0,0.5167,0.76139,1.5481,2.872,3.8905,0.7358,0.8166,1.4272,1.6516,1.5363,1.8557,0.43876,0.8198-0.60578-0.072-1.8963-1.6195-1.2-1.4387-2.2329-2.3649-2.4242-2.1736-0.15259,0.1526,1.3078,2.0833,2.8853,3.8143,0.88699,0.9734,1.5737,1.8088,1.5259,1.8565-0.21391,0.2139-1.2241-0.7224-2.3891-2.2143-1.4743-1.888-1.911-2.3123-1.911-1.8568,0,0.5795,2.8404,4.3204,3.6315,4.7827,0.30098,0.1759,0.54723,0.4781,0.54723,0.6716,0,0.4758-2.3786-1.8801-3.3133-3.2819-0.38812-0.582-0.74205-1.0218-0.78651-0.9774-0.16247,0.1625,0.33627,2.244,0.73502,3.0678,0.22553,0.4658,1.0754,1.4684,1.8887,2.2279,1.3578,1.268,1.4745,1.4392,1.4276,2.0946-0.0281,0.3925-0.11817,0.7139-0.20025,0.7141-0.0821,0.0002-0.14924-0.089-0.14924-0.1986,0-0.1095-0.0974-0.199-0.21647-0.199-0.14232,0-0.17041,0.2727-0.082,0.7959,0.0739,0.4378,0.0787,0.796,0.0109,0.796-0.2824,0-1.1049-0.661-1.1049-0.888,0-0.1348-0.50674-1.0424-1.1261-2.0167-2.5637-4.0331-2.9251-5.1088-2.3406-6.9669,0.31128-0.9897,0.3231-1.4107,0.11849-4.2201-0.12501-1.7164-0.27881-4.24-0.34178-5.608-0.10559-2.2937-0.5096-5.6651-0.80317-6.7024-0.10451-0.3691-0.0586-0.4174,0.30563-0.3221,0.29015,0.076,0.68791,0.6279,1.2318,1.7096,1.1846,2.356,3.4433,5.6351,4.5518,6.6083l0.45336,0.398-0.14289-0.597c-0.22187-0.9268-0.9505-2.0469-2.4593-3.7808-1.0127-1.1637-1.7869-2.368-2.8784-4.4772-0.82123-1.5869-1.5576-3.1091-1.6363-3.3828l-0.14311-0.4974,0.36375,0.4974c0.20008,0.2737,1.1862,1.9302,2.1915,3.6813,1.6961,2.9545,3.8807,6.0691,4.257,6.0691,0.27971,0-0.1767-1.2271-0.75144-2.0203-1.266-1.7473-1.4468-2.0286-1.4383-2.2376,0.005-0.1206,0.40786,0.226,0.89545,0.7702,0.9643,1.0763,1.167,0.8753,0.39583-0.3925-1.6322-2.6834-1.8079-3.626-0.29384-1.5765,0.45096,0.6105,0.86526,1.0646,0.92066,1.0092,0.27378-0.2738-0.30656-1.5613-1.4753-3.2731-0.71296-1.0443-1.4229-2.2017-1.5776-2.572-0.26901-0.6438-0.26452-0.6644,0.10233-0.4681,0.21101,0.113,0.71445,0.8566,1.1187,1.6525,0.40429,0.796,0.8279,1.5591,0.94134,1.696,0.28497,0.3436,0.55549,0.3113,0.55549-0.066,0-0.1733,0.11195-0.2782,0.24874-0.233,0.16252,0.054,0.29371,0.7318,0.37851,1.9567,0.2306,3.3307,3.7462,19.295,5.1237,23.266l0.58669,1.6914,0.015-1.0025c0.035-2.3442-0.70817-7.0013-2.3646-14.817-1.4226-6.7123-1.4321-6.7655-1.2167-6.7655,0.23637,0,0.61145,1.12,0.61145,1.8258,0,0.3149,0.35688,2.0738,0.79309,3.9087,1.0285,4.3264,1.7278,7.7752,1.9042,9.3907,0.0774,0.7101,0.23483,1.4703,0.34959,1.6892,0.33437,0.6377,0.7817,2.5318,0.75866,3.2124-0.0171,0.5029,0.0724,0.6491,0.45602,0.7454,0.26246,0.066,0.61984,0.1745,0.79417,0.2414,0.20893,0.08,0.31698,0.013,0.31698-0.1982,0-0.1759,0.0895-0.3198,0.19898-0.3198,0.10944,0,0.19899,0.1344,0.19899,0.2985,0,0.3857,0.28753,0.3805,0.68031-0.012,0.28169-0.2817,0.20158-0.4118-0.85647-1.3914-1.1455-1.0606-1.7378-2.0079-1.5699-2.5114,0.0466-0.1398,0.32824,0.1615,0.62593,0.6694,0.6029,1.0288,1.2356,1.6925,0.98683,1.0352-0.0783-0.207-0.31221-0.6658-0.51971-1.0197s-0.33662-0.7568-0.28693-0.8954c0.0525-0.1466,0.24726,0.024,0.4654,0.4084,0.2063,0.3633,0.67806,1.1244,1.0484,1.6914,0.37031,0.567,0.73449,1.2547,0.80927,1.5283,0.11697,0.4279,0.26669,0.506,1.0701,0.5582l0.93411,0.061-1.1019-1.6182c-1.8922-2.7789-3.3275-6.0282-4.4369-10.044-0.80809-2.9255-0.91204-3.4823-0.6501-3.4823,0.11815,0,0.21596,0.2463,0.21736,0.5472,0.004,0.923,1.7363,5.7833,2.9793,8.3604,0.9931,2.0591,3.0487,5.4195,3.3151,5.4195,0.1254,0-0.64898-1.4104-1.311-2.3878-0.33358-0.4925-0.6069-1.0074-0.60737-1.1442-0.0004-0.1368-0.0769-0.2487-0.16982-0.2487-0.27034,0-1.9265-3.7075-2.5779-5.7707-1.4654-4.6418-2.0824-9.4037-2.082-16.068l0.0004-4.8254h-0.5208c-0.28644,0.0008-0.85022,0.057-1.2528,0.1232-0.68725,0.1136-0.74677,0.1824-0.97256,1.1236-0.39627,1.6518-0.11626,4.1996,0.90876,8.2686,0.50536,2.0061,0.88476,3.8418,0.84311,4.0792-0.0688,0.3924-0.0987,0.3773-0.3281-0.1652-0.4533-1.0722-1.6044-6.33-1.7397-7.9467-0.1069-1.2762-0.16774-1.4861-0.31751-1.0944-0.17351,0.4538-0.0744,2.9311,0.18467,4.6136,0.0912,0.5926,0.0509,0.7462-0.19562,0.7462-0.34082,0-0.63592-0.6727-0.43658-0.9953,0.0691-0.1116-0.0269-0.8876-0.21309-1.7245-0.54833-2.4647-0.11305-5.8289,1.2084-9.3397,0.48514-1.2889,0.47327-1.5567-0.041-0.9244-0.20606,0.2534-0.31138,0.2805-0.38675,0.1-0.057-0.1368-0.35945-0.2487-0.67221-0.2487-0.5946,0-0.93929-0.2829-0.60011-0.4925,0.10864-0.067,0.64996-0.1757,1.203-0.2412,1.7592-0.2083,1.5284-0.8703-0.24405-0.7-0.79623,0.077-1.0666,0.026-1.2576-0.2352-0.21783-0.2979-0.25583-0.3-0.36335-0.02-0.0948,0.2472-0.20426,0.2679-0.52099,0.098-0.22061-0.118-0.40102-0.3572-0.40102-0.5315,0-0.2796,0.32343-0.3051,2.7361-0.2161,4.3682,0.1612,5.634,0.8589,6.4927,3.579,0.0927,0.2934,0.38833,0.1646,1.957-0.8525,4.0659-2.6362,8.4067-4.537,17.269-7.5621,3.1191-1.0647,6.8352-2.3446,8.258-2.8444,1.4228-0.4997,3.2136-1.0022,3.9797-1.1166s6.4778-0.2981,12.693-0.4082c9.4973-0.1683,11.386-0.1565,11.84,0.074,0.37239,0.1891,1.6825,0.3087,4.2212,0.3855,2.4687,0.075,4.7955,0.2828,7.064,0.632,1.8605,0.2864,4.726,0.6997,6.3676,0.9184s3.2534,0.5201,3.5818,0.6698c0.32834,0.1497,1.0306,0.3361,1.5605,0.4142,0.60024,0.088,1.163,0.3267,1.4924,0.6317,0.42754,0.3958,0.4526,0.4632,0.13086,0.3518-3.5052-1.2134-8.1822-1.8497-11.243-1.5296-1.2147,0.127-1.696,0.088-2.5868-0.2078-1.5767-0.5241-4.0343-0.8969-7.5615-1.1471-1.6964-0.1203-3.241-0.2645-3.4325-0.3205-0.19288-0.056-0.34823,0-0.34823,0.1338,0,0.1556-0.15207,0.1853-0.44771,0.087-0.24625-0.081-2.4177-0.2279-4.8254-0.3253-2.4078-0.097-4.6016-0.1887-4.8752-0.2028-0.2736-0.014-1.026,0.084-1.672,0.2183-0.92566,0.1923-1.7855,0.1927-4.0579,0-3.1388-0.2635-5.8224-0.1539-8.1858,0.3342-6.0319,1.246-11.261,4.5405-14.029,8.8383-1.254,1.9474-3.3491,4.7819-3.4558,4.6753-0.1581-0.1581,1.7248-3.4848,2.6779-4.7312,1.0401-1.3601,2.9848-3.3768,4.5455-4.7136,0.786-0.6732,0.8554-0.7746,0.33054-0.4827-1.9201,1.068-4.647,3.8446-6.5588,6.6784-1.0803,1.6014-2.2287,3.7705-2.2287,4.2097,0,0.356-0.7214,1.2618-0.87955,1.1043-0.18953-0.1886,2.0067-4.5068,3.2294-6.3497,0.61724-0.9303,1.8409-2.446,2.7192-3.3684,1.4228-1.494,1.4993-1.6106,0.70153-1.0691-2.1394,1.4522-3.3525,3.1503-6.2265,8.7157-2.9072,5.6296-3.3155,6.0054-1.2329,1.1347,1.2794-2.9922,3.0932-6.0405,4.8347-8.1252,1.0171-1.2176,1.1557-1.4516,0.62324-1.0517-1.218,0.9146-3.2828,3.7023-4.5228,6.1065-0.66204,1.2835-1.977,4.203-2.9221,6.4877-1.7228,4.1647-3.392,7.697-4.131,8.7418-0.21732,0.3073-0.35123,0.6026-0.29757,0.6563,0.2023,0.2023,1.5264-1.5969,2.4365-3.3105,0.5198-0.9788,1.2532-2.1166,1.6297-2.5284l0.68463-0.7487-0.64334,1.1939c-1.2637,2.3453-2.2412,3.9946-2.9361,4.9544-0.38812,0.536-0.5764,0.9322-0.41839,0.8805,0.158-0.052,0.62307-0.5729,1.0335-1.1579,0.95049-1.3549,0.97339-0.851,0.0322,0.7074-1.1512,1.906-1.2004,2.0453-0.48812,1.3812,0.35217-0.3283,1.3008-1.582,2.108-2.7858,0.80723-1.2039,1.7428-2.5023,2.0789-2.8853l0.61124-0.6965-0.53267,1.0944c-0.56339,1.1576-1.8354,3.0968-3.3273,5.0725-0.49514,0.6557-0.8703,1.2221-0.83366,1.2588,0.10103,0.101,1.7094-1.6841,2.4408-2.7091,0.35568-0.4985,0.64671-0.7975,0.64671-0.6645,0,0.4467-0.76003,1.7374-1.7088,2.9021-0.72369,0.8884-0.81832,1.0748-0.40982,0.8071,0.74004-0.4848,2.2396-2.4342,3.6288-4.7174,0.64616-1.062,1.2499-1.8558,1.3416-1.764,0.19489,0.1949-0.29051,1.2137-0.7664,1.6087-0.18073,0.1499-0.47359,0.635-0.6508,1.0779-0.17719,0.4429-0.89271,1.553-1.59,2.4669-0.69731,0.9139-1.2119,1.7176-1.1434,1.786,0.12533,0.1254,2.0947-1.9011,2.0947-2.1554,0-0.075,0.30083-0.5306,0.6685-1.0122,0.36769-0.4815,0.89609-1.3226,1.1742-1.8692,0.27814-0.5466,0.74945-1.2176,1.0473-1.4912l0.54161-0.4975-0.43597,0.8644c-0.69495,1.3777-1.9575,3.3896-3.1685,5.0489-0.94961,1.3013-1.2118,1.5388-1.7176,1.5562-0.51546,0.018-0.54264,0.044-0.19899,0.1915,0.21888,0.094,1.3491,0.1773,2.5116,0.185,1.6195,0.011,2.5499-0.098,3.9798-0.4656,2.2741-0.5845,3.921-1.2856,3.5534-1.5128-0.18886-0.1167,0.067-0.5621,0.96246-1.6752,1.5786-1.9623,2.0978-2.8813,2.6067-4.6142,0.39638-1.3495,1.0363-2.4635,1.4152-2.4635,0.29417,0-2.0196,5.1875-3.1064,6.9646-0.50124,0.8196-0.50925,0.8617-0.0945,0.4974,0.24924-0.2189,0.90225-1.0471,1.4511-1.8406,0.54887-0.7935,1.0778-1.4427,1.1754-1.4427,0.29379,0-0.74122,1.8579-1.8167,3.2611-0.5546,0.7236-0.93021,1.3156-0.83469,1.3156,0.26659,0,0.68122-0.5199,2.1908-2.7473,0.76448-1.1279,1.4425-1.9657,1.5068-1.8618,0.0643,0.104-0.27256,0.7583-0.74849,1.4539-0.47592,0.6957-1.0692,1.6678-1.3184,2.1603l-0.4531,0.8955,0.43598-0.3897c0.23979-0.2143,0.84801-1.0649,1.3516-1.8903,0.5036-0.8255,1.0878-1.7694,1.2983-2.0978l0.38266-0.5969-0.11614,0.6964c-0.0639,0.3831-0.65518,1.4841-1.314,2.4468s-1.0383,1.6649-0.84337,1.5606c0.55826-0.2988,0.95136-0.8186,1.7514-2.316,1.044-1.9539,1.5432-2.6834,1.8373-2.685,0.18915-0.0008,0.16864,0.1635-0.0805,0.6454-0.30766,0.5951-0.30807,0.6249-0.005,0.3736,0.18107-0.1502,0.32923-0.3855,0.32923-0.5228,0-0.1374,0.12635-0.3546,0.28076-0.4828,0.44303-0.3677,0.61793,0.1389,0.20536,0.5948-0.19185,0.212-0.25149,0.3854-0.13254,0.3854,0.46241,0,1.834-2.4752,1.8193-3.2833-0.004-0.2369-0.22388,0.041-0.54284,0.6863-0.78909,1.5974-1.1323,1.5152-0.51612-0.1235,0.84607-2.2502,1.3469-3.3285,1.4301-3.0789,0.0433,0.1299-0.0142,0.503-0.12786,0.829-0.11365,0.326-0.12869,0.5927-0.0335,0.5927,0.0953,0,0.27428-0.3062,0.39781-0.6805,0.23436-0.7101,0.72229-1.2556,0.93386-1.044,0.0677,0.068,0.0123,0.2565-0.12312,0.4196-0.13539,0.1631-0.20466,0.4115-0.15393,0.552,0.0559,0.1551,0.1902,0.047,0.34154-0.2749,0.13713-0.2917,0.39513-0.5828,0.57331-0.6468s0.4359-0.1687,0.5727-0.2325c0.36421-0.1698,0.31016,0.5343-0.0858,1.1166l-0.33447,0.492,0.4524-0.3957c0.24881-0.2177,0.54288-0.5649,0.65349-0.7715,0.2656-0.4963-0.003-0.6509-1.4127-0.8129-1.336-0.1535-2.141-0.4435-2.287-0.8239-0.13125-0.342-0.14822-0.3418,0.80014-0.012,1.1059,0.3839,2.1052,0.5559,1.9714,0.3393-0.0622-0.1006-0.58152-0.3192-1.1541-0.4857-1.1044-0.3212-2.0841-0.9005-1.5385-0.9096,0.16416,0,1.5073,0.2964,2.9848,0.6647,3.2106,0.8005,4.4582,1.0118,4.2811,0.7252-0.0693-0.112-0.39451-0.2036-0.72284-0.2036-0.36982,0-0.54737-0.08-0.46661-0.2109,0.0827-0.1339,0.51797-0.1625,1.191-0.078,0.80007,0.1,1.3698,0.034,2.319-0.2694,0.80368-0.2567,2.0511-0.4382,3.4525-0.5024,2.1118-0.097,3.875-0.5292,3.875-0.9504,0-0.2599-0.67735-0.2164-0.95514,0.061-0.18572,0.1857-0.23879,0.1785-0.23879-0.032,0-0.4566,0.98184-1.9764,1.4327-2.2177,0.39755-0.2128,0.39012-0.1676-0.11413,0.6928-0.29666,0.5062-0.44606,0.9204-0.33201,0.9204,0.36363,0,1.0118-0.7889,1.1288-1.3737,0.0725-0.3628,0.23078-0.5566,0.44151-0.541,0.24668,0.018,0.34163-0.1738,0.38148-0.7716,0.14323-2.1494,0.54365-2.257,0.73662-0.1978,0.077,0.8214,0.22181,1.443,0.32185,1.3811,0.10005-0.062,0.1819-0.2804,0.1819-0.4857,0-0.5266,0.38388-1.4745,0.53568-1.3227,0.0696,0.07,0.11252,0.485,0.0954,0.923-0.0225,0.5735,0.0487,0.7965,0.2541,0.7965,0.15692,0,0.34036-0.089,0.40763-0.1979,0.0673-0.1089,0.29642-0.2911,0.50921-0.405,0.30761-0.1646,0.38689-0.1424,0.38689,0.1086,0,0.1736-0.3134,0.4466-0.69645,0.6067-0.38305,0.16-0.69646,0.3793-0.69646,0.4873,0,0.2889,0.14974,0.2446,0.80156-0.2373,0.9652-0.7136,0.96064-0.1844-0.005,0.6522-1.0788,0.9341-0.76418,1.0263,0.48864,0.1432,0.49403-0.3482,0.94648-0.5849,1.0054-0.526,0.24642,0.2465-0.20601,0.8058-1.0535,1.3025-0.49812,0.2919-0.80103,0.5656-0.67314,0.6082,0.1279,0.043,0.23253,0.2009,0.23253,0.3518,0,0.1508,0.33579,0.3624,0.7462,0.4701,0.41042,0.1078,1.4626,0.3843,2.3381,0.6145,2.3011,0.6051,4.7384,0.7303,5.8701,0.3015,0.49249-0.1866,1.3916-0.4081,1.9981-0.4923,1.8727-0.26,3.0687-1.1385,3.3702-2.4754,0.21506-0.9536-0.003-0.8943-0.49314,0.1339-0.23897,0.5015-0.67622,0.9955-1.0944,1.2364-1.4177,0.8169-5.2089,0.2981-6.226-0.852-0.24205-0.2737-0.69099-0.7483-0.99765-1.0548-0.52971-0.5294-0.54616-0.5996-0.32911-1.4057,0.28359-1.0531,1.59-2.443,2.1341-2.2704,0.53426,0.1696,4.9067,0.6918,5.0015,0.5973,0.21285-0.212-1.6126-0.7289-3.2372-0.9165-0.99979-0.1155-1.9525-0.3278-2.1171-0.4718-0.16463-0.1441-0.97053-0.5779-1.7909-0.964-1.7778-0.8367-4.5825-1.2716-12.336-1.9126-5.0804-0.4201-9.0405-0.8735-10.43-1.1944-1.0476-0.2419-1.3626-0.2435-1.2159-0.01,0.065,0.1053-0.7411,1.0231-1.7915,2.0396-2.3145,2.2399-2.2474,2.1857-1.7971,1.4502,0.67201-1.0974,1.7668-2.3378,2.527-2.8628,0.85518-0.5907,0.9529-0.8184,0.3512-0.8184-0.24926,0-0.45841,0.1598-0.52068,0.398-0.0572,0.2188-0.18628,0.3979-0.28676,0.3979s-0.98547,0.7739-1.9667,1.7198c-0.9812,0.9459-1.784,1.6208-1.784,1.4999,0-0.3567,1.6431-2.2671,2.5348-2.9473,0.78694-0.6002,0.8871-0.8693,0.32356-0.8693-0.14248,0-0.21653,0.1119-0.16456,0.2487,0.0526,0.1387-0.30053,0.4979-0.79811,0.8116-0.49093,0.3096-1.4719,1.2574-2.1799,2.1063-0.70799,0.8488-1.4429,1.6701-1.6331,1.8249-0.83563,0.6805,0.50115-1.1521,2.0167-2.7647,0.87554-0.9316,1.4804-1.657,1.3441-1.6121-0.52736,0.1739-2.0075,1.5296-3.5086,3.2138-0.86215,0.9672-1.6111,1.7151-1.6643,1.6618-0.18163-0.1816,0.8233-1.608,2.0112-2.8546,0.65222-0.6844,1.136-1.2944,1.0749-1.3554-0.17856-0.1786-1.4442,1.0271-2.8596,2.7241-1.1819,1.417-2.3967,2.4918-1.9625,1.7363,0.33774-0.5876,1.6075-2.1196,2.6554-3.2036,0.60831-0.6293,1.0343-1.1442,0.94674-1.1442-0.35284,0-2.0106,1.5456-3.2444,3.0248-0.71991,0.8631-1.35,1.5283-1.4001,1.4782-0.17355-0.1736,0.36075-0.9311,1.7322-2.456,0.75761-0.8423,1.3384-1.5706,1.2906-1.6184-0.18587-0.1859-1.9358,1.4534-3.1097,2.913-1.6081,1.9996-1.564,1.952-1.564,1.6859,0-0.5516,2.5027-3.8892,3.9267-5.2367,1.5012-1.4205,3.7248-2.951,3.9541-2.7216,0.0601,0.06-0.42931,0.4751-1.0876,0.9221-1.2443,0.845-1.7142,1.3109-1.0827,1.0733,0.19721-0.074,1.2967-0.6552,2.4434-1.2911,2.2017-1.2212,3.0959-1.5004,2.157-0.6736-0.29362,0.2586-0.65179,0.5121-0.79595,0.5635-0.6295,0.224,0.0313,0.2941,1.0313,0.1093,1.4389-0.2659,6.3842-0.082,7.7107,0.2867,0.99172,0.2757,1.0447,0.2715,1.0447-0.082,0-0.3017,0.0982-0.348,0.51616-0.2431l0.51616,0.1296-0.33185-0.6417c-0.43079-0.8331-0.28285-0.9471,0.55622-0.4285,0.37436,0.2314,0.73725,0.4207,0.80641,0.4207,0.24854,0,0.11785-0.4248-0.30784-1.0006-0.23847-0.3225-0.38559-0.6344-0.32696-0.693,0.23355-0.2336,0.79218,0.1909,1.4746,1.1206,1.1187,1.5239,1.9667,1.751,1.72,0.4606-0.1206-0.6309,0.38758-0.6542,0.80475-0.037l0.30257,0.4478,0.1464-0.597c0.20664-0.8426,0.68022-1.3502,1.0068-1.0792,0.14106,0.1171,0.21085,0.3317,0.1551,0.477-0.0696,0.1815,0.15194,0.3069,0.70829,0.4009,0.60637,0.1024,0.80963,0.2294,0.80963,0.5055,0,0.2028-0.0895,0.4241-0.19898,0.4917-0.10944,0.068-0.19534,0.2297-0.1909,0.36,0.004,0.1303,0.25721-0.054,0.5617-0.4097,0.3045-0.3557,0.61426-0.6467,0.68837-0.6467,0.20602,0,0.16032,0.7743-0.0712,1.207-0.12611,0.2356-0.13189,0.3849-0.0149,0.3849,0.10505,0,0.39927-0.374,0.65372-0.8311,0.60276-1.0828,1.0724-1.2725,0.88973-0.3593l-0.13076,0.6538,0.48903-0.5276c0.26897-0.2903,0.58286-0.5277,0.69753-0.5277,0.27618,0,0.26488,0.5173-0.0231,1.0577-0.21227,0.3985-0.2029,0.411,0.11262,0.1507,0.18931-0.1562,0.4749-0.5368,0.63465-0.8457,0.15976-0.3089,0.38052-0.5617,0.49059-0.5617,0.2846,0,0.48328,0.6116,0.24892,0.7663-0.26375,0.174-0.46748,1.0246-0.24543,1.0246,0.0971,0,0.23274-0.2239,0.30142-0.4975,0.0686-0.2736,0.2069-0.4975,0.3072-0.4975,0.10027,0,0.26744-0.2238,0.37147-0.4974,0.18736-0.4928,0.59697-0.6908,0.59697-0.2886,0,0.1149-0.13976,0.4791-0.31057,0.8094-0.17082,0.3303-0.27431,0.7064-0.23,0.8358,0.0443,0.1294,0.31141-0.2181,0.59353-0.7722,0.88384-1.7358,1.702-2.0574,0.9586-0.3767-0.50035,1.1311-0.5084,1.2123-0.0855,0.8613,0.18101-0.1502,0.57716-0.8259,0.88036-1.5017,0.30319-0.6757,0.73712-1.3281,0.9643-1.4496,0.28598-0.1531,0.41307-0.156,0.41307-0.01,0,0.3321-1.1841,2.6162-1.7395,3.3553-0.44966,0.5985-0.45914,0.645-0.0913,0.4481,0.53433-0.2859,1.0196-0.9873,1.9079-2.7574,0.39816-0.7935,0.81457-1.4427,0.92535-1.4427,0.39204,0,0.62675,1.0911,0.50293,2.3381-0.0679,0.684-0.0717,1.2437-0.009,1.2437,0.0634,0,0.24614-0.3134,0.40618-0.6965,0.33932-0.8121,0.68364-0.9123,0.68364-0.199,0,0.5025,0.27091,0.6651,0.49746,0.2985,0.19315-0.3125,0.49748-0.2328,0.49748,0.1304,0,0.3062,0.0256,0.3062,0.36436-0.0004,0.45602-0.4127,0.66152-0.2282,0.49765,0.4468-0.12198,0.5025-0.11413,0.5075,0.26803,0.1695,0.57487-0.5085,0.89165-0.4448,0.74255,0.1492-0.16989,0.6769,0.0403,0.6266,0.41576-0.1,0.16979-0.3283,0.40197-0.597,0.51598-0.597,0.18985,0,0.14009,0.3293-0.17703,1.1714-0.19213,0.5102,0.43048,0.1115,0.76298-0.4886,0.17775-0.3208,0.48157-0.6139,0.67516-0.6514,0.30005-0.058,0.33232,0.03,0.21869,0.5969l-0.13327,0.6652,0.52581-0.6468c0.66421-0.8169,0.98259-0.836,0.82532-0.05-0.14951,0.7476,0.16024,0.7778,0.50918,0.05,0.36279-0.7569,0.86881-0.7256,0.80393,0.05-0.0449,0.5377-0.0251,0.5601,0.19899,0.2252,0.13692-0.2045,0.41131-0.5627,0.60977-0.796,0.35731-0.42,0.35962-0.4166,0.23604,0.3417-0.14334,0.8796,0.11873,0.8452,0.49578-0.065,0.13698-0.3307,0.33816-0.6012,0.44708-0.6012,0.19878,0,0.13076,0.5934-0.14253,1.2436-0.2864,0.6814,0.26544,0.3401,0.62602-0.3871,0.51968-1.0481,0.92361-1.1176,0.76319-0.1312-0.11655,0.7166-0.10451,0.7419,0.18352,0.3843,0.16956-0.2106,0.35732-0.7031,0.41728-1.0945,0.26992-1.7625,0.41031-2.277,0.64227-2.3538,0.1368-0.045,0.24873,0.059,0.24873,0.2327,0,0.1733,0.0877,0.3151,0.19473,0.3151,0.12221,0,0.116,0.1728-0.0166,0.4639-0.16058,0.3524-0.13564,0.6453,0.10374,1.2183,0.17333,0.4148,0.31515,0.9224,0.31515,1.1279,0,0.4908,0.32844,0.4774,0.59697-0.024,0.11714-0.2189,0.29938-0.398,0.40497-0.398,0.27154,0,0.23873,0.6696-0.0468,0.9552-0.14637,0.1463-0.1583,0.2387-0.0309,0.2387,0.11437,0,0.37001-0.179,0.5681-0.3979,0.1981-0.2189,0.48061-0.398,0.62781-0.398,0.32383,0,0.33254,0.1038,0.0525,0.6271-0.3178,0.5938-0.0136,0.7359,0.40041,0.187,0.42248-0.5601,0.89019-0.3933,0.69352,0.2473l-0.1323,0.431,0.48526-0.4477c0.56017-0.5169,0.95709-0.5788,0.95709-0.1493,0,0.3622,0.23266,0.3842,0.56368,0.053,0.19441-0.1944,0.26677-0.1632,0.3488,0.1505,0.0944,0.3608,0.22118,0.3854,1.4361,0.2787,0.73295-0.064,1.4893-0.1865,1.6809-0.2713,0.25902-0.1147,0.34823-0.063,0.34823,0.2003,0,0.3174,0.0482,0.3092,0.46054-0.078,0.53485-0.5025,0.82536-0.5614,0.66142-0.1342-0.20481,0.5337,0.0547,0.3161,0.59305-0.4975,0.2897-0.4377,0.65195-0.7959,0.80502-0.7959,0.44641,0,0.51325-0.4938,0.17606-1.3008-0.40466-0.9684-0.28863-1.0592,0.36345-0.2842,0.89851,1.0678,0.62099,2.0869-0.96691,3.5506-1.7029,1.5697-2.3519,1.6484-9.0483,1.0968-2.5812-0.2126-4.9185-0.2825-6.9496-0.2078-2.7236,0.1-3.0193,0.08-2.6863-0.1817,0.34227-0.269,0.30785-0.2828-0.40417-0.1619-0.67501,0.1146-0.76135,0.088-0.65048-0.2009,0.11503-0.2998,0.0804-0.2977-0.34682,0.022l-0.47462,0.3546,0.48177,0.063c0.8088,0.1063,0.31193,0.4333-0.68089,0.4482-0.51339,0.01-1.1125,0.086-1.3314,0.1742-0.32481,0.1308-0.19677,0.2179,0.69645,0.4739,0.60193,0.1726,1.4141,0.3698,1.8049,0.4382,1.8649,0.3268,3.1698,1.8131,3.1698,3.6106,0,1.0603-0.658,2.8533-1.2457,3.3944-0.40608,0.3739-3.2903,1.4029-4.8732,1.7385-0.48791,0.1035-0.64718,0.2432-0.64866,0.5691-0.004,0.9245-1.0174,2.6019-2.3557,3.9001l-1.348,1.3075,0.41019,0.6965c0.3565,0.6052,0.40416,0.9813,0.36398,2.8722-0.0458,2.1542-0.0525,2.1823-0.68575,2.8355-0.35173,0.3629-0.79362,0.6599-0.98198,0.6599-0.33382,0-0.60492,0.5631-1.1769,2.4446-0.1321,0.4345-0.45302,0.8932-0.75844,1.0839-0.2912,0.1819-0.55814,0.3492-0.5932,0.3718-0.035,0.023,0.17319,0.6333,0.46276,1.3571,0.38781,0.9694,0.48988,1.4855,0.38745,1.9593-0.20198,0.9343-0.99988,2.447-2.072,3.9283-0.51559,0.7124-1.0452,1.4965-1.1769,1.7425-0.49707,0.9288-4.8506,2.6673-8.5917,3.4309-3.2938,0.6723-5.969,0.7864-14.217,0.6063-7.9931-0.1746-9.2852-0.2993-12.437-1.2004-0.71138-0.2034-1.7859-0.4327-2.3878-0.5095-0.90211-0.1151-3.501-0.8608-4.7802-1.3716-0.20381-0.081-0.42593,0.092-0.67852,0.5296-1.8092,3.1347-2.7762,3.8222-4.2815,3.0438-0.49955-0.2584-0.59603-0.2584-0.81044,0-0.32012,0.3857-0.61187,0.376-0.4617-0.015zm2.8816-0.4807c0.59736-0.4977,0.27841-0.5011-0.62466-0.01-0.56567,0.3097-0.61652,0.3828-0.27078,0.3896,0.23412,0,0.63707-0.1678,0.89544-0.383zm33.575-1.4161c0.23472-0.4161,0.22582-0.591-0.065-1.2775l-0.33697-0.7953-0.47318,0.8954c-0.26023,0.4925-0.47722,0.9679-0.48216,1.0564-0.0175,0.3141,0.41629-0.1074,0.59532-0.5782,0.20319-0.5345,0.58962-0.6457,0.58962-0.1698,0,0.1696-0.14177,0.5825-0.31502,0.9175-0.39026,0.7547,0.0597,0.7099,0.48744-0.049zm-5.9647-1.7187c1.6131-1.7413,1.8106-1.7544,0.84051-0.056l-0.51136,0.8954,0.49295-0.3114c0.27114-0.1713,0.73921-0.7918,1.0402-1.3789,0.55289-1.0784,0.72308-1.9241,0.3395-1.687-0.11423,0.071-0.33539,0.022-0.49145-0.1072-0.23147-0.1921-0.34585-0.1052-0.62093,0.4716-0.31872,0.6684-0.86877,1.1279-0.86877,0.7257,0-0.102,0.17778-0.6364,0.39507-1.1877l0.39506-1.0022h-0.59405c-0.52741,0-0.59406-0.067-0.59406-0.597,0-0.6471-0.34471-0.8131-0.5164-0.2487-0.0583,0.1915-0.2282,0.6168-0.37765,0.9451-0.14946,0.3284-0.45083,1.0194-0.6697,1.5357-0.21889,0.5162-0.82964,1.4025-1.3572,1.9694-0.72578,0.7799-0.83175,0.9631-0.43539,0.7527,1.0127-0.5375,2.1761-1.7883,2.7137-2.9178,0.43283-0.9092,0.55622-1.0487,0.60756-0.6869,0.10995,0.775-0.72948,2.1573-2.0738,3.4148-0.70864,0.6629-1.2345,1.2053-1.1686,1.2053,0.33329,0,1.0944-0.5459,2.0338-1.4587,1.2059-1.1717,1.3848-1.0117,0.31156,0.2787-1.5054,1.8101-1.4086,1.6633-0.93263,1.4138,0.233-0.1221,1.1519-1.0082,2.0421-1.969zm2.4908,0.2543c0.58024-0.7774,0.72162-1.1319,0.67461-1.6914-0.0813-0.9689-0.34632-0.8275-0.78531,0.4191-0.20299,0.5764-0.69445,1.538-1.0921,2.137l-0.72307,1.0889,0.59591-0.485c0.32775-0.2668,0.92624-0.9277,1.33-1.4686zm-13.003,0.8128c0.54565-0.3674,1.4012-1.1957,1.9013-1.8406,0.8302-1.0706,2.0656-2.122,2.0656-1.7581,0,0.2558-1.0158,1.5188-2.3777,2.9566l-1.3035,1.3762,0.93553-0.6329c0.51455-0.348,1.5821-1.3921,2.3723-2.3202,0.79025-0.9281,1.4728-1.6514,1.5167-1.6075,0.19867,0.1987-0.71882,1.5264-1.9029,2.7538-0.71284,0.7389-1.2353,1.4042-1.1609,1.4786,0.0744,0.074,1.1257-0.8884,2.3363-2.1394,1.9091-1.9728,2.1457-2.1622,1.7834-1.4276-0.22972,0.4658-1.0104,1.4752-1.7349,2.2432-0.72448,0.768-1.2617,1.452-1.1938,1.5199,0.0679,0.068,0.82342-0.5834,1.6789-1.4474,1.0471-1.0574,1.8-2.0422,2.3037-3.0134,0.41156-0.7935,0.87773-1.4427,1.0359-1.4427,0.42006,0,0.35205,0.3517-0.16874,0.8725-0.25101,0.251-0.56294,0.8121-0.69321,1.2468-0.13594,0.4538-0.7116,1.3152-1.3512,2.022-1.2243,1.3529-1.2033,1.5564,0.0644,0.6241,1.5762-1.1592,3.0147-3.6651,3.3353-5.81,0.17926-1.1996-0.19966-1.2871-0.64659-0.1493-0.17196,0.4378-0.39858,0.796-0.50361,0.796-0.24238,0-0.0142-1.2591,0.39654-2.1889,0.39847-0.9018,0.46569-2.1889,0.11434-2.1889-0.14276,0-0.25955-0.091-0.25955-0.2027,0-0.117-0.2106-0.15-0.49747-0.078-0.61176,0.1535-0.63181-0.048-0.0648-0.6517,0.31626-0.3366,0.35492-0.4606,0.14372-0.4606-0.15892,0-0.44228,0.1791-0.62971,0.398-0.1874,0.2189-0.47801,0.398-0.64577,0.398-0.48945,0,0.19251-0.9017,0.90526-1.1969,0.84855-0.3515,0.56478-0.5446-0.69735-0.4746-0.60538,0.034-1.1007-0.017-1.1007-0.1124,0-0.095,0.3134-0.3672,0.69645-0.604,0.38306-0.2367,0.69646-0.4679,0.69646-0.5137,0-0.2396-0.44931-0.01-1.1939,0.6132-0.45847,0.3831-0.96472,0.6965-1.125,0.6965-0.45938,0-0.1308-0.3462,1.0387-1.0943,0.59469-0.3804,1.0813-0.7823,1.0813-0.8931,0-0.3589-0.33241-0.2173-1.5203,0.6474-1.9048,1.3866-2.2703,1.5972-2.1279,1.226,0.0663-0.1729,0.8832-0.8896,1.8152-1.5926,0.93204-0.703,1.569-1.2778,1.4155-1.2774-0.58044,0-4.472,2.9989-4.6591,3.5882-0.17593,0.5543-0.87181,1.0886-1.109,0.8515-0.14257-0.1426,0.45904-0.8378,1.9448-2.2474,1.8057-1.713,2.0112-1.9652,1.2797-1.5698-0.47934,0.2591-1.6828,1.2322-2.6742,2.1625-1.3397,1.257-1.7036,1.5202-1.4168,1.0249,0.21224-0.3666,1.0127-1.2124,1.7788-1.8795s1.4825-1.295,1.5919-1.3954c0.12194-0.1119,0.007-0.1241-0.29813-0.032-0.89252,0.271-3.0119,2.1669-3.6843,3.2959-0.22035,0.3699-0.56807,0.7049-0.77272,0.7443-0.55879,0.1077,0.69941-1.5725,2.1126-2.821,0.62606-0.5531,1.1045-1.0394,1.0632-1.0807-0.3287-0.3287-3.8928,2.9598-3.8928,3.5918,0,0.4165-0.52213,0.8232-0.6959,0.5421-0.16966-0.2745,0.31217-1.0132,1.4761-2.263,0.87347-0.9378,0.88475-0.9648,0.272-0.6503-0.35157,0.1804-1.1212,0.9319-1.7102,1.6699-1.1192,1.4025-1.6791,1.9565-1.8273,1.8083-0.0483-0.048,0.31202-0.5753,0.80076-1.1711,0.48873-0.5958,0.88861-1.1543,0.88861-1.241,0-0.346-0.77979,0.2935-1.6921,1.3876-1.3253,1.5894-2.5357,2.8465-2.7406,2.8465-0.27426,0,0.62093-1.1988,1.8202-2.4376,0.73986-0.7642,0.99671-1.1442,0.77352-1.1442-0.18379,0-0.44962,0.1447-0.59074,0.3215-0.14111,0.1768-0.52518,0.5574-0.85349,0.8457-1.626,1.428-7.0992,6.9965-6.6661,6.7822,0.2736-0.1353,1.1579-0.7257,1.9651-1.3119,0.80717-0.5862,1.5541-1.0658,1.6598-1.0658s-0.62581,0.6825-1.6256,1.5167c-0.99982,0.8343-1.7774,1.5572-1.728,1.6066,0.12182,0.1218,1.2124-0.4554,2.3872-1.2635,1.1866-0.8162,1.5-0.8481,1.3644-0.1389-0.1172,0.6131-0.0464,0.5849,1.4175-0.5659,0.8842-0.6951,1.3253-0.9135,1.3253-0.6564,0,0.055-1.0298,0.8627-2.2884,1.794-1.2586,0.9312-2.2884,1.7303-2.2884,1.7758,0,0.2539,1.4619-0.4054,2.5832-1.165,1.17-0.7925,2.1924-1.2829,2.1924-1.0514,0,0.048-0.94022,0.7372-2.0894,1.5308-1.1491,0.7935-2.0894,1.4824-2.0894,1.5308,0,0.18,0.9209-0.1931,1.6712-0.6771,0.85858-0.5539,1.9955-0.9531,1.7962-0.6307-0.0671,0.1087-0.53896,0.4594-1.0485,0.7794-0.50955,0.32-0.81199,0.5836-0.67207,0.5857,0.44204,0.01,2.4878-1.1125,3.7267-2.0384,0.65593-0.4903,1.4165-0.9529,1.6901-1.0281,0.82987-0.2279-1.0539,1.3149-2.9415,2.4091-1.7337,1.005-1.9502,1.4252-0.30779,0.5975,1.1356-0.5723,2.2544-0.8525,2.2544-0.5646,0,0.1097-0.30624,0.3005-0.68054,0.424-0.77667,0.2563-1.3607,0.8012-0.85872,0.8012,0.1652,0,0.7358-0.3074,1.268-0.6831,1.7829-1.2585,2.6454-1.7366,3.0018-1.6638,0.25582,0.052,0.0908,0.2279-0.59596,0.6342-0.52234,0.3091-1.0404,0.7313-1.1512,0.9383-0.42873,0.8011,0.5763,0.237,2.0364-1.143,1.0636-1.0052,1.7559-1.3406,1.7559-0.8507,0,0.1193-0.78352,0.9685-1.7412,1.8873-2.5088,2.407-1.5445,2.0642,1.1442-0.4068,1.7433-1.6021,1.9899-1.7883,1.9899-1.5022,0,0.1411-0.8224,1.0952-1.8276,2.1202-1.0051,1.0249-1.7627,1.8635-1.6835,1.8635s0.59043-0.3006,1.1361-0.6681zm-3.4265-2.7726c0.25662-0.2779,0.68195-0.5594,0.94518-0.6254,0.30161-0.076,0.4786-0.2642,0.4786-0.5098,0-0.4466,0.82277-1.0609,1.2891-0.9624,0.70862,0.1496-1.395,2.076-2.682,2.4561l-0.49747,0.1469,0.4666-0.5054zm-1.9483-1.0612c0.7963-0.8374,2.1444-1.8656,2.446-1.8656,0.28002,0-0.97426,1.3029-1.9394,2.0145-1.0734,0.7915-1.3293,0.7163-0.50665-0.1489zm4.964-0.4727c0.59874-0.756,1.1939-1.046,1.1939-0.5817,0,0.3376-1.1277,1.3776-1.4938,1.3776-0.25803,0-0.19227-0.1745,0.29989-0.7959zm1.7909-0.069c0-0.3318,0.75232-1.0363,0.92362-0.865,0.15855,0.1586-0.46859,1.1326-0.72922,1.1326-0.1069,0-0.1944-0.1204-0.1944-0.2676zm4.9747-0.01c0-0.3307,0.48413-0.7673,0.65802-0.5935,0.16177,0.1618-0.21737,0.8676-0.46603,0.8676-0.10559,0-0.19199-0.1234-0.19199-0.2741zm-11.939-0.485c0-0.097,0.53727-0.6435,1.1939-1.2146,1.3151-1.1439,1.7009-0.9185,0.41558,0.2427-0.87827,0.7935-1.6095,1.235-1.6095,0.9719zm8.5564,0.012c0-0.1095,0.13432-0.3105,0.29847-0.4467,0.16651-0.1382,0.29849-0.1597,0.29849-0.049,0,0.1094-0.13432,0.3104-0.29849,0.4467-0.1665,0.1382-0.29847,0.1597-0.29847,0.049zm-5.1737-0.2195c0-0.1831,1.5052-1.6201,1.6971-1.6201,0.0572,0-0.034,0.2671-0.20293,0.5936-0.29613,0.5726-1.4942,1.3957-1.4942,1.0265zm6.5666-0.095c0-0.3759,0.19188-0.5208,0.522-0.3941,0.218,0.084,0.23096,0.173,0.0557,0.3842-0.28988,0.3493-0.57768,0.3543-0.57768,0.01zm-12.492-0.3642c0.11738-0.3522,1.3489-1.2458,1.3489-0.9788,0,0.2983-0.90533,1.2104-1.2015,1.2104-0.12354,0-0.18987-0.1042-0.14741-0.2316zm7.7164-0.055c0-0.048,0.35818-0.5012,0.79596-1.0071,0.43777-0.5058,0.79595-1.0932,0.79595-1.3055,0-0.2122,0.13431-0.3858,0.29848-0.3858,0.16416,0,0.29847,0.048,0.29847,0.1074,0,0.2583-0.87756,1.823-1.2511,2.2307-0.35741,0.3901-0.93779,0.6131-0.93779,0.3603zm1.8528-1.1926c0.45845-0.7041,0.9375-1.4428,1.0645-1.6417,0.18093-0.2832,0.19024-0.1727,0.043,0.5099-0.23998,1.1121-0.44556,1.4872-1.0955,1.9984-0.88068,0.6927-0.88373,0.472-0.012-0.8666zm5.6395,0.683c0.17859-1.0101,0.61006-1.9899,0.87627-1.9899,0.12836,0,0.17693,0.1395,0.10965,0.3148-0.0665,0.1731-0.12079,0.5263-0.12079,0.7849,0,0.2585-0.22235,0.7213-0.49413,1.0284l-0.49414,0.5583,0.12314-0.6965zm-4.2846-0.398c0.24604-0.4377,0.51202-0.7959,0.59107-0.7959,0.22047,0-0.0368,0.8522-0.3754,1.2437-0.54423,0.6291-0.67191,0.364-0.21567-0.4478zm1.9673,0.4478c0.0008-0.082,0.17923-0.4179,0.39667-0.7462l0.39535-0.597,0.002,0.5074c0.0008,0.2791-0.10614,0.6149-0.23747,0.7462-0.26854,0.2686-0.55784,0.3152-0.55586,0.09zm1.3057-0.2998c0.40556-1.3019,0.50315-1.457,0.69795-1.1089,0.23486,0.4197-0.0647,1.259-0.51029,1.43-0.26397,0.1013-0.30003,0.04-0.18766-0.3211zm-2.6999-3.1276c0-0.3112,2.0488-2.554,2.3516-2.5744,0.17545-0.012,0.11545,0.1965-0.18126,0.6291-0.91153,1.3291-2.1704,2.4574-2.1704,1.9453zm-0.1907-0.742c-0.0169-0.487,0.4477-1.2156,0.9091-1.4258,0.26154-0.1192,0.47553-0.144,0.47553-0.055,0,0.2679-1.3757,1.7393-1.3846,1.4809zm-1.0032-0.6086c0-0.4373,0.72506-1.1796,0.9411-0.9636,0.17813,0.1782-0.3558,1.1536-0.69238,1.265-0.14145,0.047-0.24872-0.083-0.24872-0.3014zm3.3011,0.1017c0.24101-0.4256,0.93887-1.1441,1.1112-1.1441,0.31227,0,0.16254,0.4178-0.32412,0.9045-0.51061,0.5106-1.0301,0.6688-0.78712,0.2396zm8.1984,10.713c0.622-0.7085,1.1314-1.9317,0.98157-2.3569-0.0478-0.1359-0.22918,0.088-0.40291,0.497-0.17371,0.4092-0.59377,1.1479-0.93345,1.6416-0.72629,1.0557-0.50174,1.1938,0.35479,0.2183zm1.1959-0.1663c0.59078-0.8668,0.96882-1.9402,0.68335-1.9402-0.088,0-0.31586,0.2641-0.5065,0.5868-0.37297,0.6314-0.96776,2.1991-0.83435,2.1991,0.0446,0,0.34048-0.3806,0.6575-0.8457zm6.6878-0.4056c0.11156-0.1768,0.13885-0.3855,0.0607-0.4637-0.14606-0.1461-1.512,1.2775-1.5268,1.5912-0.0109,0.2255,1.2001-0.7056,1.4662-1.1275zm-1.141-0.2094c0.16104-0.3114,0.25354-0.6054,0.20557-0.6534-0.0825-0.082-0.28912,0.1984-1.0785,1.4673l-0.34042,0.5473,0.46028-0.3975c0.25316-0.2187,0.59203-0.6523,0.75306-0.9637zm2.6513-0.3353c0-0.1143-0.26864,0.098-0.59697,0.4721-0.32832,0.374-0.59695,0.7486-0.59695,0.8324,0,0.084,0.26863-0.1286,0.59695-0.4722,0.32833-0.3435,0.59697-0.7181,0.59697-0.8323zm-26.637,0.5922,0.46977-0.4078-0.64671,0.3134c-0.63637,0.3084-0.81762,0.5022-0.46976,0.5022,0.0973,0,0.38833-0.1835,0.6467-0.4078zm21.827-0.01c0.36818-0.5896,0.20478-0.6338-0.22395-0.061-0.19663,0.2629-0.28533,0.478-0.1971,0.478,0.0882,0,0.2777-0.1878,0.42105-0.4174zm1.0381,0c0.12215-0.2283,0.18074-0.4564,0.13018-0.507-0.11989-0.1198-0.73627,0.4973-0.73627,0.7372,0,0.3362,0.38024,0.1918,0.60609-0.2302zm-48.504-0.8797c-0.39516-0.3838-0.76476-0.6515-0.82134-0.5949-0.14912,0.1491,0.99062,1.2926,1.2884,1.2926,0.13827,0-0.072-0.3139-0.46706-0.6977zm19.692-2.0537c0.47947-0.4062,0.43613-0.6161-0.0995-0.4819-0.47934,0.1202-2.0424,1.1249-2.2351,1.4368-0.15804,0.2557,1.8987-0.5855,2.3346-0.9549zm36.464,0.3636c0.0743-0.1202-0.19692-0.199-0.68472-0.199-0.44423,0-0.80745-0.067-0.80715-0.1492,0.00019-0.082,0.36527-0.5522,0.81105-1.0447,0.45041-0.4976,0.74958-0.7186,0.67334-0.4975-0.38273,1.1104-0.30403,1.1599,0.47457,0.2985,0.44515-0.4925,0.81317-0.8014,0.81784-0.6865,0.004,0.1149-0.0974,0.3149-0.22699,0.4444-0.12951,0.1295-0.18087,0.2901-0.11415,0.3568,0.16918,0.1692,1.2982-1.4066,1.8644-2.602,0.25918-0.5472,0.47209-1.3403,0.47316-1.7625,0.002-0.6236,0.0621-0.7444,0.32259-0.6444,0.23467,0.09,0.28801,0.038,0.19898-0.194-0.067-0.1743-0.12165-0.3992-0.12165-0.4997,0-0.4348-2.0357-0.1587-3.9201,0.5316l-1.95,0.7143-2.5289-0.13-2.5289-0.13-0.98258,1.9528c-0.89104,1.7708-2.0185,3.27-2.0185,2.6839,0-0.1285-0.21587-0.2337-0.47973-0.2337s-1.0474-0.1779-1.7411-0.3954c-1.5487-0.4855-1.9002-0.5121-1.5744-0.1195,0.12827,0.1545,0.67629,0.3873,1.2178,0.5172,0.54154,0.1299,0.94016,0.3081,0.88582,0.396-0.20624,0.3338,1.2953,0.6362,4.0794,0.8218,1.5869,0.1058,3.3608,0.2632,3.9418,0.3498,1.0276,0.1532,1.0754,0.1386,1.7478-0.5337,0.38019-0.3802,0.75537-0.6272,0.83372-0.5488,0.0783,0.078-0.14414,0.3986-0.49444,0.7116l-0.63691,0.569,0.73653,0.077c1.4165,0.149,1.6094,0.143,1.7315-0.055zm-4.3638-0.7734c-0.12064-0.1952,0.4341-0.7353,0.59252-0.5768,0.14055,0.1405-0.11772,0.7532-0.31752,0.7532-0.0912,0-0.21503-0.079-0.275-0.1764zm0.78201-0.023c0.0676-0.1094,0.25202-0.199,0.40971-0.199,0.15771,0,0.28675,0.09,0.28675,0.199,0,0.1094-0.18438,0.199-0.40973,0.199s-0.35437-0.09-0.28673-0.199zm-2.8586-0.3814c-0.14628-0.09-0.0781-0.413,0.21051-0.9964,0.38291-0.7739,0.45269-0.8272,0.6785-0.5184,0.13842,0.1893,0.34718,0.2851,0.46391,0.213,0.31053-0.1919,0.259,0.3339-0.0801,0.8182-0.32149,0.459-0.93525,0.6922-1.2728,0.4836zm1.3483-0.1822c0.28045-0.524,0.81382-0.9445,0.81382-0.6416,0,0.4298-0.40702,1.0062-0.71047,1.0062-0.2277,0-0.2522-0.087-0.10331-0.3646zm-4.1546,0.085c-0.003-0.099,0.31294-0.7507,0.70311-1.4484,0.48017-0.8586,0.81519-1.2506,1.0368-1.213,0.19536,0.033,0.52453-0.2454,0.81628-0.6906,0.73211-1.1173,0.77097-0.7168,0.0618,0.6362-0.34226,0.653-0.51308,1.1452-0.37958,1.0938,0.1335-0.051,0.51136-0.6023,0.83969-1.2243s0.7146-1.1676,0.85838-1.2123c0.31489-0.098-1.1269,2.833-1.7424,3.542-0.37974,0.4375-0.40648,0.4451-0.22163,0.063,0.26228-0.5422,0.26352-0.6598,0.007-0.6598-0.11179,0-0.303,0.219-0.42493,0.4866-0.12192,0.2675-0.35271,0.5368-0.51287,0.5982-0.19296,0.074-0.11216-0.1937,0.23955-0.7939,0.2919-0.4981,0.49193-1.0136,0.4445-1.1455-0.0475-0.1319-0.25505,0.063-0.46134,0.4341-0.45017,0.8088-1.2554,1.786-1.2642,1.5341zm4.3714-1.7035c0-0.2556,0.79421-0.672,0.96192-0.5043,0.0725,0.072-0.0418,0.2589-0.25406,0.4141-0.44932,0.3285-0.70786,0.3615-0.70786,0.09zm-0.59697-0.6766c0-0.308,0.79588-1.3867,0.92667-1.2559,0.12619,0.1262-0.57517,1.5275-0.76452,1.5275-0.0892,0-0.16215-0.1222-0.16215-0.2716zm-1.9899-1.0904c0-0.202,0.17909-0.5292,0.39797-0.7273,0.47637-0.4311,0.5037-0.2842,0.0944,0.5073-0.34986,0.6766-0.49235,0.7403-0.49235,0.22zm-32.037,2.7793c1.1488-0.769,5.3726-4.9947,5.3726-5.3751,0-0.1215-0.24684-0.2209-0.54852-0.2209-0.3017,0-0.86134-0.093-1.2437-0.2073-0.38233-0.114-1.2731-0.2193-1.9795-0.2341l-1.2844-0.027,0.78694-0.6116c1.2319-0.9574,2.4783-2.2242,2.4783-2.5187,0-0.1475-0.47012,0.1864-1.0447,0.7419-0.93135,0.9005-1.7411,1.4351-1.7411,1.1494,0-0.057,0.24625-0.3147,0.54722-0.5738,1.015-0.8735,0.31727-0.7198-0.85134,0.1876-0.63709,0.4947-1.236,0.8995-1.3309,0.8995s0.0632-0.4254,0.35114-0.9452c0.59004-1.0648,0.76748-1.2239-1.5516,1.3907-1.3385,1.5091-1.4889,1.9021-0.32575,0.8513,0.81216-0.7338,2.1969-1.483,2.7562-1.4914,0.50276-0.01-0.20526,0.5539-2.0953,1.6616-1.6266,0.9532-3.1067,2.3446-2.8099,2.6414,0.0718,0.072,0.57576-0.286,1.12-0.795,1.4764-1.381,1.6833-1.118,0.25458,0.3235-0.68085,0.6869-1.2379,1.3137-1.2379,1.3929,0,0.3281,0.45723,0.1035,1.0008-0.4916,0.76186-0.8342,0.99939-0.572,0.30572,0.3374-0.78696,1.0318-0.51431,1.3496,0.35291,0.4114,0.3976-0.4302,0.7664-0.7386,0.81955-0.6855,0.0532,0.053-0.21665,0.5618-0.59951,1.1304-0.7327,1.0879-0.67812,1.2986,0.16468,0.6357,0.27826-0.2189,0.62614-0.397,0.77303-0.3958,0.1469,0.0009-0.0239,0.2316-0.37961,0.5119-0.35569,0.2803-0.64671,0.6435-0.64671,0.8071,0,0.2007,0.28163,0.067,0.86618-0.4124,1.19-0.9752,1.6342-0.8878,0.52673,0.1036-0.74339,0.6654-0.81096,0.7794-0.39797,0.671,0.2736-0.072,0.98996-0.4602,1.5919-0.8631zm-0.92497-1.6345c0.38862-0.5548,1.124-1.0651,1.124-0.7799,0,0.2846-0.9115,1.1961-1.1962,1.1961-0.13675,0-0.10956-0.1567,0.0722-0.4162zm1.5375-0.3582c0.41749-0.5647,1.5763-1.5325,1.5763-1.3165,0,0.1936-1.6357,1.8919-1.8222,1.8919-0.0987,0,0.0119-0.2589,0.24586-0.5754zm42.382,0.3505c0.21161-0.4148,0.38473-0.9054,0.38473-1.0902s-0.23156,0.1-0.51459,0.6318c-0.28301,0.5323-0.79211,1.3291-1.1313,1.7707-1.0212,1.3296-1.0374,1.4523-0.0556,0.4209,0.5126-0.5385,1.1051-1.3184,1.3167-1.7332zm-13.659,0.8881c0.16675-0.4345,0.053-0.5207-1.4776-1.1189-1.2537-0.4901-3.8482-0.9902-2.8241-0.5444,0.25256,0.1099,0.87937,0.548,1.3929,0.9736,1.0617,0.8799,1.2847,0.9839,2.1561,1.0058,0.4106,0.01,0.66915-0.098,0.75272-0.3161zm-2.2736-0.5637c-0.31594-0.3807,0.007-0.3807,0.99494,0l0.69645,0.2682-0.72184,0.015c-0.41512,0.01-0.82709-0.1117-0.96955-0.2833zm-31.241,0.2985c0-0.1094-0.12903-0.199-0.28675-0.199-0.1577,0-0.34207,0.09-0.40971,0.199-0.0676,0.1095,0.0614,0.199,0.28674,0.199,0.22535,0,0.40972-0.09,0.40972-0.199zm28.496-0.052c-0.47839-0.1532-0.71741-0.1478-0.88549,0.02-0.17431,0.1743-0.0151,0.2253,0.65526,0.2099l0.8855-0.02-0.65527-0.2099zm-36.923-1.2089c-0.27636-0.4715-1.1873-1.4703-2.0244-2.2195-0.83706-0.7492-2.235-2.2426-3.1065-3.3188-0.87152-1.0762-1.6783-1.9567-1.7928-1.9567-0.26498,0,0.85422,2.0103,1.7725,3.1838,0.9737,1.2443,5.5044,5.5898,5.5865,5.3582,0.037-0.1043-0.15895-0.5754-0.43531-1.047zm35.869-0.5116c-0.31889-1.0644-0.0672-1.623,1.055-2.3413,0.65024-0.4162,0.76809-0.5639,0.49526-0.6207-0.4554-0.095-1.2275,0.4078-1.6746,1.09-0.39364,0.6008-0.42567,1.7609-0.0671,2.4308,0.36215,0.6767,0.46854,0.3661,0.19144-0.5588zm6.3855,0.3101c0-0.2878-0.17192-0.55-0.44773-0.683-0.35646-0.1719-0.37674-0.2187-0.0995-0.2294,0.63368-0.024,0.36175-0.3206-0.53866-0.5864-1.0231-0.3021-1.6705-0.1909-0.904,0.1552,0.46261,0.209,0.44866,0.2176-0.19899,0.123-0.38305-0.056-1.046-0.1605-1.4731-0.2323-0.54731-0.092-0.73623-0.065-0.63973,0.091,0.0754,0.1219,0.46959,0.2813,0.87615,0.3543,1.3654,0.2451,1.3924,0.4893,0.0429,0.3862l-1.2934-0.099,1.6914,0.5741c0.93025,0.3157,1.9824,0.5828,2.3381,0.5935,0.55148,0.017,0.64671-0.049,0.64671-0.4475zm1.9899-1.4344c0-0.1581-0.036-0.2874-0.0798-0.2874-0.10875,0-0.91667,1.3811-0.9088,1.5535,0.0122,0.2677,0.98864-0.9828,0.98864-1.2661zm-44.533,0.2697c-0.13134-0.1313-0.23879-0.4449-0.23879-0.6969,0-0.285-0.31236-0.7401-0.82619-1.2039-0.45439-0.4101-1.7429-1.8202-2.8632-3.1335-1.1204-1.3134-2.272-2.6061-2.5592-2.8727l-0.52211-0.4849,0.2186,0.6271c0.29932,0.8586,3.1683,4.6304,4.3284,5.6905,0.25443,0.2325,0.88124,0.8474,1.3929,1.3665,0.51167,0.5191,1.0154,0.9445,1.1194,0.9452,0.10396,0.0008,0.0817-0.106-0.0497-0.2374zm43.55-0.1805c0.12344-0.2307,0.14897-0.486,0.0568-0.5674-0.36512-0.3223-2.6419-0.8024-3.663-0.7723-0.73247,0.022-0.85666,0.055-0.38491,0.1024,0.9141,0.093,2.3482,0.4203,3.0396,0.6943,0.41149,0.163,0.52222,0.3136,0.43431,0.5905-0.16126,0.5081,0.23957,0.4712,0.51723-0.048zm-33.496-2.2558c1.0971-1.1972,2.3924-3.2116,2.1932-3.4107-0.0492-0.049-0.567,0.5528-1.1507,1.3379-0.58374,0.785-1.6045,2.06-2.2684,2.8335-1.5224,1.7735-0.53456,1.1606,1.2259-0.7607zm0.7839-2.3284c0.2327-0.4766,0.49005-1.0898,0.5719-1.3625,0.13107-0.4368,0.11121-0.4647-0.16665-0.2341-0.1735,0.144-0.87455,1.0835-1.5579,2.0878s-1.5393,2.1934-1.9021,2.6424c-1.1528,1.4268-0.71406,1.1704,0.986-0.5762,0.90511-0.9299,1.836-2.0807,2.0687-2.5574zm37.386,2.9975c0.0844-0.1367-0.0385-0.1912-0.33649-0.1493-0.35547,0.05-0.45528-0.019-0.41101-0.2823,0.0322-0.1915-0.0475-0.3482-0.17705-0.3482-0.12953,0-0.35446,0.1567-0.49986,0.3482-0.25114,0.3309-0.26465,0.3305-0.27067-0.01-0.003-0.1953,0.13829-0.5759,0.31504-0.8457,0.46687-0.7125,0.0699-0.6045-0.56785,0.1545l-0.54497,0.6485,0.67523-1.7411c0.51473-1.3274,0.6076-1.7412,0.39075-1.7412-0.15689,0-0.33801,0.2677-0.40387,0.597-0.0656,0.3283-0.23854,0.5969-0.38416,0.5969-0.21947,0-0.21856-0.131,0.005-0.7655,0.45843-1.2994,1.0879-2.395,1.5038-2.6176,0.47571-0.2546,0.47412-0.2673,0.0988,0.7963-0.16415,0.4653-0.29847,0.9765-0.29847,1.136,0,0.5131,0.46284,0.1548,0.69646-0.539,0.12451-0.3699,0.33215-0.7077,0.46142-0.7508,0.36419-0.1214,0.28733,0.1476-0.45621,1.5965-0.52483,1.0226-0.61788,1.3431-0.39,1.3431,0.23424,0,0.25452,0.084,0.0933,0.3849-0.11329,0.2117-0.20026,0.5923-0.19326,0.8457,0.0113,0.4112,0.0474,0.3911,0.33459-0.1859,0.38597-0.7756,0.95274-0.8977,0.76901-0.1657-0.14483,0.5771,0.13945,1.4938,0.35505,1.1449,0.21406-0.3463,0.5185-0.2819,0.5185,0.1098,0,0.2817,0.0551,0.264,0.30975-0.1,0.38555-0.5505,0.75521-0.5784,0.58569-0.044-0.0695,0.2189-0.042,0.398,0.0612,0.398,0.10309,0,0.24125-0.2687,0.30691-0.597,0.0657-0.3283,0.22162-0.597,0.34657-0.597,0.1292,0,0.18228,0.1717,0.12309,0.398-0.0644,0.2461-0.007,0.398,0.15257,0.398,0.14116,0,0.30347-0.1791,0.36072-0.398,0.14945-0.5715,0.53931-0.4911,0.53931,0.1112,0,0.7103,0.32568,0.436,0.48392-0.4075,0.16768-0.8938,0.66037-0.9277,0.75373-0.052l0.0689,0.6467,0.26915-0.8954,0.26915-0.8954,0.19607,0.5697c0.14671,0.4263,0.23933,0.5014,0.36792,0.2985,0.0945-0.1492,0.17322-0.4728,0.1749-0.719,0.002-0.2462,0.0925-0.4477,0.20203-0.4477,0.10944,0,0.19899,0.2313,0.19899,0.514,0,0.7915,0.48741,0.469,0.55859-0.3696,0.0422-0.4971,0.1421-0.6891,0.32255-0.6198,0.14379,0.055,0.31494-0.039,0.38034-0.2096,0.0654-0.1705,0.24636-0.31,0.4021-0.31,0.15572,0,0.33933-0.2238,0.408-0.4974,0.1305-0.52,0.48876-0.6434,0.84205-0.2901,0.2935,0.2935,0.49194-0.02,1.2651-1.9983,0.36356-0.9302,0.74944-1.8061,0.8575-1.9463,0.13567-0.176,0.1044-0.33-0.1008-0.4975-0.16351-0.1334-0.41152-0.5335-0.55113-0.8892-0.13962-0.3557-0.32975-0.6467-0.4225-0.6467-0.0928,0-0.80029,0.4086-1.5723,0.908-2.0428,1.3215-3.7611,2.069-5.3067,2.3085-0.74855,0.116-1.4141,0.2953-1.4789,0.3984-0.0723,0.1149-0.48157,0.096-1.0588-0.05-1.0575-0.2663-3.7851-0.142-4.8924,0.2229-0.57312,0.1889-0.78094,0.4219-1.1734,1.3155-0.32173,0.7324-0.41144,1.1514-0.27562,1.2873,0.13582,0.1358,0.27353-0.085,0.42309-0.6793,0.21571-0.8566,0.7126-1.5148,0.95821-1.2692,0.067,0.067-0.0248,0.3452-0.20379,0.6184-0.179,0.2731-0.31814,0.7013-0.3092,0.9514,0.0137,0.3842,0.066,0.3468,0.3374-0.2418,0.26859-0.5824,0.33256-0.6292,0.39077-0.2854,0.11064,0.6534-0.29034,1.4793-0.7182,1.4793-0.3663,0-0.74422,0.5423-0.52837,0.7581,0.0573,0.057,0.10418-0.0002,0.10418-0.1279s0.13433-0.2322,0.29849-0.2322c0.43149,0,0.3708,0.1865-0.40484,1.2437-0.64261,0.8759-1.1602,1.1808-1.3197,0.7776-0.0364-0.092-0.33495-0.051-0.66328,0.091-0.58229,0.2517-0.58474,0.2585-0.0995,0.2764,0.27361,0.01,1.2586,0.2312,2.1888,0.4916,1.7826,0.4989,4.0632,0.6519,4.2882,0.2878zm-4.2326-1.2918c0.17386-0.3363,0.47017-0.7392,0.65846-0.8954,0.32211-0.2672,0.32365-0.2478,0.0262,0.3275-0.17386,0.3363-0.47017,0.7392-0.65845,0.8954-0.32211,0.2672-0.32367,0.2478-0.0262-0.3275zm0.74033,0.3959c0-0.2235,0.90423-1.6718,1.0447-1.6732,0.41232,0-0.24384,1.4695-0.73883,1.6594-0.16821,0.065-0.30584,0.071-0.30584,0.014zm4.1787-1.1441c0-0.1642-0.11192-0.3396-0.24874-0.3897-0.19177-0.07-0.19484-0.1485-0.0134-0.3415,0.34775-0.3698,0.89874-0.08,0.82327,0.4328-0.0725,0.4933-0.56117,0.7531-0.56117,0.2984zm-3.677-1.7246c0.17331-0.8396,0.75324-2.0257,1.1524-2.357,0.39024-0.3238-0.5684,2.3447-0.98969,2.755-0.27495,0.2678-0.29169,0.2268-0.16271-0.398zm-35.436,0.2985c0.25436-0.4378,0.51703-1.0646,0.58371-1.3929l0.12124-0.597-0.44593,0.5864c-0.24526,0.3226-0.6474,0.7806-0.89364,1.0178-0.24625,0.2372-0.44772,0.5573-0.44772,0.7114,0,0.154-0.2549,0.5915-0.56642,0.9721-0.60738,0.7421-1.0311,1.4608-1.0163,1.7236,0.0153,0.2724,2.1719-2.1726,2.6651-3.0214zm-10.435,2.1869c-0.11598-0.3051-0.92088-1.3047-1.7887-2.2215-2.3794-2.5136-3.5032-4.052-4.3358-5.935-0.34123-0.7717-0.21673-0.6263,1.7037,1.9898,0.88373,1.2039,2.1058,2.6783,2.7157,3.2765,0.96937,0.9508,1.1089,1.0305,1.1089,0.6337,0-0.6587-0.21922-0.986-1.6584-2.4756-1.0967-1.1352-2.9267-3.6856-4.6703-6.5087-0.56827-0.9202-0.54045-0.3768,0.0508,0.9941,0.27836,0.6454,0.39292,1.1424,0.27949,1.2125-0.34034,0.2103,0.0387,2.2263,0.52049,2.768,0.24334,0.2737,1.0102,1.2586,1.7042,2.1889,0.69394,0.9303,1.6094,2.0943,2.0343,2.5868,0.80027,0.9275,2.3422,2.2493,2.4723,2.1193,0.0408-0.041-0.0208-0.3238-0.13668-0.6288zm18.043-0.3887c0.90997-0.6128,1.4106-1.1458,1.9597-2.0864,0.26017-0.4456-2.5661,1.7945-3.0624,2.4273-0.42302,0.5394-0.0189,0.4145,1.1027-0.3409zm-10.133-0.2577c0.23115-0.4113,0.65059-0.9641,0.93208-1.2286,0.28149-0.2644,0.5118-0.5861,0.5118-0.7147,0-0.1287,0.26862-0.6048,0.59695-1.0581,0.33624-0.4641,0.59186-1.0638,0.58527-1.373-0.0109-0.5048-0.0307-0.5185-0.24874-0.1707-0.13037,0.208-0.78685,1.2123-1.4588,2.2318-1.1867,1.8003-1.8008,3.0611-1.4908,3.0611,0.0836,0,0.34111-0.3365,0.57228-0.7478zm9.194-0.2544c0.66234-0.5512,1.2042-1.0927,1.2042-1.2034,0-0.2653-1.5334,0.8052-2.2758,1.5888-0.90781,0.9581-0.265,0.7269,1.0716-0.3854zm3.7118-0.6383c1.1372-1.2588,0.75604-1.2361-0.81616,0.049-0.82082,0.6708-1.4924,1.3091-1.4924,1.4185,0,0.3369,1.5938-0.6758,2.3086-1.467zm20.043,1.1603c0.0762-0.1987,0.33095-0.2543,0.86697-0.1893,0.70774,0.086,0.78042,0.045,1.075-0.5996,0.39007-0.854,0.27778-1.9147-0.20272-1.9147-0.1865,0-1.0046-0.1769-1.818-0.3933-0.81342-0.2163-1.9714-0.3871-2.5734-0.3795l-1.0944,0.014,1.8527,0.4072c1.1094,0.2439,1.7803,0.4797,1.6721,0.5879-0.1081,0.1081-0.74861,0.051-1.5963-0.1414-0.88822-0.202-1.5336-0.256-1.7323-0.1448-0.22378,0.1252,0.15033,0.2486,1.2761,0.4209,1.6354,0.2504,3.3288,0.7414,3.4974,1.0142,0.10538,0.1705-1.3161-0.064-2.4538-0.4049-0.40276-0.1207-0.99928-0.1858-1.3256-0.1447-0.6167,0.078-0.70591,0.053,2.8392,0.7989,1.1908,0.2507,1.4653,0.6835,0.29849,0.4705-0.41041-0.075-1.1044-0.1755-1.5422-0.2237l-0.79594-0.088,0.69645,0.2307c0.9138,0.3027,0.33574,0.4411-0.78788,0.1887-1.4504-0.3259-1.6314,0.021-0.2059,0.3947,1.6383,0.4295,1.921,0.4427,2.0541,0.096zm0.92958-2.1066c0-0.1095,0.12903-0.199,0.28673-0.199,0.15771,0,0.34207,0.09,0.40973,0.199,0.0676,0.1094-0.0615,0.199-0.28675,0.199-0.22534,0-0.40971-0.09-0.40971-0.199zm1.9526,1.8033c0.0497-0.1492-0.0249-0.2238-0.1741-0.1741-0.14366,0.048-0.30035,0.2046-0.34824,0.3482-0.0497,0.1493,0.0249,0.2239,0.17412,0.1741,0.14363-0.048,0.30034-0.2045,0.34822-0.3482zm-22.06-0.4042c0.93386-0.5992,1.8791-1.6689,1.7641-1.9963-0.0347-0.099-0.73462,0.4391-1.5554,1.1951-1.6065,1.4798-1.6748,1.7421-0.20868,0.8012zm1.6151-0.171c0.89011-0.5645,2.5733-2.3107,2.5733-2.6696,0-0.1989-0.67655,0.3554-2.6479,2.1692-1.2852,1.1825-1.2606,1.3472,0.0746,0.5004zm10.931-0.2453c0-0.2609-0.62871,0.068-1.0113,0.5295-0.26583,0.3204-0.24476,0.3208,0.36459,0.01,0.35568-0.1839,0.6467-0.4247,0.6467-0.5352zm-26.732-0.31c0.83628-0.898,2.0572-3.0399,2.0572-3.6089,0-0.1571-0.61133,0.6419-1.3585,1.7756-0.74719,1.1337-1.5755,2.212-1.8406,2.3964-0.43068,0.2994-0.44115,0.3362-0.0981,0.3456,0.21124,0.01,0.76921-0.4032,1.2399-0.9087zm27.96-1.5923c-0.0474-1.2507-0.12459-1.6568-0.28446-1.4969-0.40971,0.4097-0.12774,3.2045,0.32413,3.2128,0.0139,0.0002-0.004-0.7719-0.0397-1.7159zm-28.44-0.5959c0.62929-0.9381,1.144-1.8987,1.1438-2.1347-0.0002-0.2998-0.27561-0.01-0.91318,0.9638-0.50202,0.7661-1.056,1.5529-1.231,1.7484-0.30978,0.3461-0.49219,1.1413-0.25979,1.1325,0.0638,0,0.63086-0.7719,1.2602-1.71zm1.5633-0.914c0.20724-0.4062,0.37677-0.8457,0.37677-0.9767,0-0.2614-1.7811,2.2109-2.167,3.0081-0.38547,0.7962,1.3557-1.1795,1.7903-2.0314zm34.603,1.3219c0-0.8624-1.5921-1.6707-3.2833-1.6669-1.1468,0-1.1743,0.014-0.69644,0.2979,0.47674,0.283,0.45909,0.2902-0.4242,0.1729-0.52124-0.069-0.97333-0.039-1.0406,0.07-0.0686,0.111,0.90986,0.4046,2.3146,0.6943,2.601,0.5365,3.13,0.6095,3.13,0.4317zm1.1876-1.6728c0.004-0.2156-0.10516-0.1814-0.4158,0.1292-0.23217,0.2321-0.35788,0.526-0.27937,0.6531,0.16768,0.2713,0.68498-0.3108,0.69517-0.7823zm-38.058-0.6522c1.9539-2.8575,3.0417-5.1553,5.4424-11.496,0.80711-2.1318,1.9498-4.7266,2.5394-5.7663,2.3642-4.1695,2.7879-5.4591,0.79299-2.4137-1.3997,2.1367-2.6202,4.7516-4.8418,10.373-2.312,5.8504-3.851,9.0569-4.6954,9.7833-0.33914,0.2918-0.5566,0.6276-0.48325,0.7462,0.0733,0.1187,0.16167,0.2158,0.19626,0.2158,0.0346,0,0.5068-0.6492,1.0494-1.4426zm2.0698-1.7365c1.6901-3.1115,2.5946-4.6181,2.7059-4.5069,0.11746,0.1174-0.74439,1.9471-1.8395,3.9053-0.61164,1.0936-0.64266,1.2012-0.20083,0.6964,1.5034-1.7175,3.5115-5.6867,5.9633-11.787,1.3052-3.2474,1.4696-4.6121,0.28213-2.3412-0.40059,0.7661-1.2602,2.7361-1.9102,4.3778-1.0211,2.5789-2.0345,4.6873-2.0369,4.2378-0.00087-0.2404,1.7554-4.873,2.6128-6.89,0.90181-2.1217,2.439-5.2116,3.284-6.6008,0.9322-1.5326-0.0451-0.4655-1.1474,1.2528-1.3457,2.0978-2.7306,5.0458-4.74,10.09-1.6672,4.1848-3.3466,7.8629-4.4019,9.6406-0.52069,0.8771-0.53326,0.9298-0.0986,0.4129,0.27397-0.3257,0.96133-1.445,1.5275-2.4873zm22.977-0.045c0.15538-0.2955,0.28223-0.788,0.28189-1.0944-0.0006-0.5056-0.0752-0.4468-0.80661,0.6368-0.44329,0.6567-0.98991,1.5521-1.2147,1.9899l-0.40873,0.7959,0.93282-0.8954c0.51304-0.4925,1.06-1.1373,1.2153-1.4328zm7.0854,1.7943c1.0609,0.3244,2.5789,0.4233,2.4929,0.1623-0.0408-0.124-0.58203-0.2522-1.2027-0.285-0.62066-0.033-1.1285-0.1348-1.1285-0.2266,0-0.2628,1.2736-0.434,2.1664-0.2912,0.65269,0.1044,0.83679,0.065,0.93921-0.2022,0.16593-0.4324-0.0616-0.6526-0.36287-0.3512-0.13466,0.1346-0.8089,0.2354-1.5748,0.2354-1.0483,0-1.4918,0.097-2.0412,0.4477-0.386,0.2463-0.70561,0.5736-0.71024,0.7273-0.007,0.2149,0.0808,0.1988,0.37707-0.069,0.31589-0.2858,0.50452-0.3124,1.0447-0.1472zm-6.8013-0.8612c0.33968-0.4937,0.7563-1.2324,0.92582-1.6416l0.30823-0.744-0.48994,0.4558c-0.41625,0.3872-1.5416,2.3694-1.5416,2.7154,0,0.27,0.2209,0.052,0.79746-0.7856zm5.4706,0.019c0.32833-0.2751,0.47914-0.5033,0.33515-0.5073-0.43238-0.012-0.95472,0.3433-1.316,0.8948-0.32603,0.4976-0.3251,0.5113,0.0215,0.3164,0.1993-0.1121,0.631-0.4288,0.95931-0.7039zm6.7656,0.2815c-0.0676-0.1094-0.49826-0.1901-0.95694-0.1791-0.71227,0.017-0.76136,0.043-0.33648,0.1791,0.72419,0.2319,1.4368,0.2319,1.2934,0zm-9.3438-1.3968c0.004-0.2714,0.251-0.8502,0.54722-1.286,0.50378-0.7412,0.7255-1.7028,0.38933-1.6886-0.30923,0.013-0.77798,0.5005-0.70101,0.7289,0.10211,0.3031-0.29466,1.0557-0.55666,1.0557-0.12527,0-0.1167-0.1538,0.0231-0.415,0.29258-0.5468,0.15711-0.6472-0.48087-0.3565-0.35439,0.1615-0.52319,0.3932-0.52319,0.7182,0,0.2639-0.23237,0.8764-0.51638,1.361-0.64595,1.1022-0.32592,1.1487,0.52365,0.076,0.75087-0.9481,1.0703-0.8999,0.3546,0.053-0.8656,1.153-0.85958,1.2344,0.054,0.7305,0.66423-0.3664,0.87959-0.604,0.88614-0.9777zm-27.889-0.3443c1.0655-1.6538,1.7608-3.2305,3.3267-7.5438,0.66908-1.8429,1.6096-4.1608,2.09-5.1509,0.4804-0.99,0.87345-1.862,0.87345-1.9377,0-0.076,0.44772-0.9185,0.99494-1.8728,1.0742-1.8734,1.2821-2.5069,0.50959-1.5529-1.5905,1.9643-2.9971,4.9262-5.4806,11.541-0.90396,2.4078-2.0366,5.1613-2.517,6.1189-0.48041,0.9576-0.82598,1.7411-0.76794,1.7411,0.0581,0,0.4949-0.6044,0.97086-1.3431zm5.3124-1.9093c0.46079-0.8925,1.0019-1.858,1.2024-2.1454,0.20049-0.2875,1.0483-2.347,1.884-4.5767,2.252-6.0084,3.7928-8.909,6.0364-11.364,1.2586-1.3772,1.3304-1.9404,0.0944-0.7408-1.8972,1.8412-3.2891,3.9608-4.1172,6.2698-0.27673,0.7716-0.95221,2.2491-1.5011,3.2833-0.54887,1.0341-1.5977,3.313-2.3308,5.0641-1.4151,3.3804-2.4898,5.6321-3.1011,6.4978-0.60864,0.8619-0.40896,0.9242,0.31936,0.1,0.3717-0.4208,1.0528-1.4953,1.5136-2.3878zm40.612,1.959c1.4014-1.2222,1.7946-1.3911,1.1583-0.4975-0.23378,0.3284-0.48696,0.597-0.56263,0.597-0.19879,0-0.67853,0.815-0.55339,0.9402,0.0581,0.058,1.7436-0.7082,3.7457-1.7027,4.1013-2.0371,5.5531-3.1358,6.4065-4.8483,0.6132-1.2305,0.69234-2.3461,0.16699-2.3538-0.74242-0.011-4.2376-0.3876-4.7197-0.5086-0.41286-0.1036-0.48513-0.067-0.38518,0.1931,0.1561,0.4068,0.10635,0.4029-0.9425-0.073-0.47709-0.2165-1.1808-0.3893-1.5639-0.384l-0.69646,0.01,0.79114,0.2896c0.9192,0.3365,1.4974,0.8104,0.70126,0.5748-1.248-0.3693-2.5868-0.9369-2.5868-1.0967,0-0.247,1.2648-0.4563,1.8233-0.3018,0.44994,0.1245,0.45248,0.1187,0.0787-0.1801-0.64267-0.5137-1.9272-0.3914-2.841,0.2705-0.71095,0.515-1.6479,1.584-1.6479,1.88,0,0.06,0.33579,0.162,0.7462,0.2261,1.4036,0.2193,2.1974,0.5021,2.3222,0.8272,0.19427,0.5063,0.0544,0.5029-0.98565-0.024-0.53284-0.2697-1.0083-0.4509-1.0566-0.4026-0.18373,0.1838,0.41861,0.6742,0.97919,0.7973,0.63824,0.1402,1.2281,0.8921,0.6998,0.8921-0.16156,0-0.34908-0.09-0.41672-0.199-0.0676-0.1094-0.22285-0.199-0.34491-0.199-0.12207,0-0.01,0.2263,0.25052,0.5029l0.47245,0.5029-0.52804,0.5281-0.52806,0.528,0.11785-0.4837c0.11144-0.4575,0.0828-0.4487-0.53029,0.163-0.60091,0.5996-1.1979,0.8475-1.1979,0.4974-0.00002-0.082,0.3335-0.4292,0.74113-0.7714,0.65615-0.5509,0.7093-0.6606,0.46359-0.9567-0.9119-1.0988-3.6558-2.0941-6.1794-2.2416-2.6684-0.1559-3.9934,0.1487-4.7763,1.0978-1.2906,1.5647-1.7587,4.1399-0.9055,4.9818,0.30953,0.3055,0.31779,0.2897,0.12162-0.2324-0.48323-1.2861,0.0266-3.1619,1.1205-4.1224,0.89055-0.7819,1.1608-0.5765,0.29997,0.2281-0.35365,0.3305-0.58302,0.6979-0.5097,0.8166,0.0819,0.1325,0.28304,0.01,0.52161-0.3174,0.43704-0.6,1.0837-0.9768,2.2046-1.2846,0.64022-0.1758,0.74538-0.1633,0.65296,0.077-0.13974,0.3641,0.049,0.3613,0.94746-0.014,0.3964-0.1656,0.72075-0.2179,0.72075-0.1161s-0.11192,0.2251-0.24874,0.2739c-0.53067,0.1896,0.13422,0.4418,1.1644,0.4418,0.90916,0,1.0278,0.039,0.74416,0.2467-0.45504,0.3327-0.15112,0.5975,0.33639,0.293,0.21242-0.1327,0.53206-0.2412,0.7103-0.2412,0.29382,0,0.29166,0.051-0.0231,0.5472-0.19097,0.301-0.22813,0.4353-0.0825,0.2985,0.14554-0.1368,0.40171-0.2487,0.56923-0.2487,0.20636,0,0.10581,0.1988-0.31194,0.6165-0.60454,0.6046-0.63738,0.6125-1.6876,0.4089-0.58906-0.1142-1.7426-0.2683-2.5634-0.3426-0.82081-0.074-1.6846-0.2077-1.9195-0.2967-0.27176-0.1028-0.55427-0.069-0.77661,0.094-0.64414,0.4711-0.15469,0.6962,1.2578,0.5786,1.5217-0.1266,4.1156,0.2174,4.7442,0.6293,0.31051,0.2034,0.47978,0.2175,0.64376,0.053,0.12237-0.1224,0.29114-0.1533,0.37504-0.069,0.0838,0.085-0.11607,0.3692-0.4444,0.6324-0.53094,0.4257-0.55128,0.4788-0.18392,0.4797,0.22716,0.0006,0.62333-0.2229,0.88038-0.4965,0.54481-0.5799,1.2338-0.7283,0.77056-0.166-0.1502,0.1824-0.70647,0.6749-1.2362,1.0945-0.68018,0.5388-0.853,0.7629-0.58836,0.7629,0.2061,0,0.90423-0.4477,1.5514-0.995,0.64719-0.5472,1.3149-0.9925,1.4838-0.9895,0.32026,0.01-0.29603,0.6206-2.059,2.0547-1.2575,1.0229-1.017,1.172,0.32483,0.2015,2.1256-1.5375,3.0785-2.3722,3.3203-2.9083,0.22163-0.4915,0.81036-0.7776,0.81036-0.3938,0,0.3022-2.6155,2.8401-3.6332,3.5254-0.70073,0.4719-0.90936,0.6966-0.64242,0.6918,0.58958-0.011,1.13-0.3648,2.6993-1.7698,1.1748-1.0519,1.3663-1.1668,1.1063-0.664-0.1729,0.3343-0.85163,0.9979-1.5083,1.4746-0.65665,0.4768-1.1965,0.934-1.1997,1.016-0.0158,0.4075,0.68965,0.041,1.8207-0.9451zm-2.8154-3.2945c0.21749-0.4064,0.72578-0.7162,0.89591-0.5461,0.12377,0.1238-0.67414,0.9553-0.91668,0.9553-0.12491,0-0.11723-0.1513,0.0208-0.4092zm3.2407-3.7438c-1.6504-0.6561-1.2443-0.8689,0.4916-0.2576,0.57021,0.2008,0.97719,0.4247,0.90438,0.4975-0.18448,0.1844-0.43832,0.1408-1.396-0.2399zm1.2382-0.4632c-0.21463-0.1244-0.7519-0.3396-1.1939-0.4781l-0.8037-0.2517h0.79596c0.46786,0,1.165,0.1933,1.6914,0.4751,0.76027,0.4071,0.82036,0.48,0.39798,0.4825-0.27362,0-0.67308-0.099-0.8877-0.2234zm-8.1662,7.999c0.38759-0.099-0.13585-0.1532-1.4924-0.1556-1.3226,0-1.9068,0.055-1.5919,0.1556,0.62493,0.2001,2.2978,0.2001,3.0843,0zm-40.072-0.9547c0.17705-0.3479,0.4113-0.7455,0.52058-0.8836s0.53497-1.2809,0.94599-2.5394c1.5257-4.6719,3.8949-10.192,5.3936-12.566,0.8423-1.3343,0.43766-1.695-0.43024-0.3835-0.28426,0.4295-0.655,0.834-0.82387,0.8988-0.26636,0.1022-0.26356,0.051,0.0212-0.3831,0.56719-0.8656-0.0306-0.5435-0.63997,0.3449-1.7324,2.5255-3.6767,6.921-4.9979,11.299-0.90595,3.002-0.98985,3.5525-0.40843,2.6796,0.57563-0.8641,1.1706-2.5412,1.4856-4.1879,0.16097-0.8413,0.63691-2.1644,1.1511-3.1999,0.48215-0.9711,1.1613-2.4819,1.5091-3.3575,0.34785-0.8755,0.85782-1.8605,1.1332-2.1888l0.50081-0.597-0.32356,0.796c-0.17798,0.4377-0.9082,2.2286-1.6228,3.9797-1.9836,4.8612-4.2256,11.074-3.9671,10.993,0.1269-0.04,0.37559-0.3568,0.55264-0.7047zm29.849,0.1128c0.13068-0.2442,0.44723-0.6089,0.70346-0.8104,0.25622-0.2016,0.46587-0.4666,0.46587-0.5891,0-0.1238-0.11037-0.09-0.24874,0.076-0.13681,0.164-0.58453,0.5438-0.99494,0.8441-0.77787,0.5692-0.95241,0.9237-0.45471,0.9237,0.16031,0,0.39838-0.1997,0.52906-0.4439zm10.895-0.2302c0.46522-0.2579,0.46053-0.2639-0.29849-0.3809-1.9071-0.2939-4.2135-0.3797-4.5743-0.1701-0.29625,0.172-0.0525,0.2193,1.1549,0.2241,1.4686,0.01,2.2486,0.2814,1.3081,0.4622-0.24786,0.048,0.0866,0.096,0.74325,0.1067,0.65665,0.011,1.4066-0.098,1.6666-0.242zm-41.68-2.5878c0.635-2.6443,2.0501-6.2735,3.8683-9.921,0.75014-1.5048,1.3355-2.7361,1.3008-2.7361s-0.42689,0.5357-0.87153,1.1905c-1.7118,2.5207-3.4674,6.5963-4.2872,9.9528-0.20051,0.8208-0.46011,1.5819-0.57691,1.6914-0.22465,0.2105-0.3488,1.4016-0.1948,1.8691,0.14292,0.4339,0.207,0.2617,0.76135-2.0467zm32.24-0.3351c-0.0567-0.2819-0.005-0.7701,0.11453-1.0849,0.21702-0.5708,0.2165-0.5713-0.19708-0.197-0.22807,0.2064-0.39266,0.5156-0.36576,0.687s-0.10331,0.5402-0.28927,0.8195c-0.18599,0.2793-0.39262,0.8166-0.45916,1.1939l-0.12098,0.6861,0.71038-0.796c0.54252-0.6078,0.68603-0.917,0.60734-1.3086zm9.4648,1.8001c-1.1842-0.2794-3.9043-0.4437-4.4022-0.266-0.39392,0.1406-0.29002,0.1887,0.62144,0.2875,0.60194,0.065,1.8556,0.1241,2.7858,0.1307,1.3,0.01,1.5302-0.026,0.99493-0.1522zm-0.39797-0.7899c0.21483-0.1389,0.0197-0.1942-0.69646-0.1974-0.54721,0-1.6217-0.061-2.3878-0.1303-1.4134-0.1277-1.6552,0.047-0.45783,0.3304,0.94907,0.2247,3.1928,0.223,3.5421,0zm-11.323-1.1455c0.33827-0.8897,0.42258-1.4421,0.22012-1.4421-0.11102,0-0.33512,0.3806-0.49799,0.8457-0.16288,0.4651-0.36715,1.0248-0.45394,1.2437-0.14364,0.3622-0.12581,0.3719,0.19867,0.1076,0.19605-0.1596,0.43596-0.4994,0.53314-0.7549zm1.46-1.069c0.34123-0.8528,0.34111-1.045-0.0004-0.81-0.26134,0.1798-0.69439,1.6308-0.48672,1.6308,0.0873,0,0.30655-0.3693,0.48718-0.8208zm2.3553,0.075c0.16271-0.4104,0.35861-1.0371,0.43535-1.3927,0.11776-0.5456,0.0892-0.6272-0.18321-0.5227-0.1775,0.068-0.49801,0.4675-0.71223,0.8874-0.43492,0.8525-0.50125,1.2698-0.16919,1.0646,0.14826-0.092,0.17641,0,0.0861,0.2867-0.23328,0.735,0.23386,0.457,0.54318-0.3233zm8.1618,0.3653c-0.63669-0.5314-2.1615-0.7267-2.5602-0.328-0.17102,0.171-0.41647,0.3244-0.54546,0.3409-0.42197,0.054,1.5322,0.3077,2.5513,0.3315,0.99293,0.023,0.99404,0.023,0.55439-0.3444zm-42.107-1.8349c0.26613-0.7903,1.0979-2.7865,1.8483-4.436,1.7355-3.8147,2.0286-4.5349,1.7843-4.3839-0.1088,0.067-0.65394,1.0331-1.2114,2.1465-1.0448,2.0866-1.7385,3.2068-1.8912,3.0542-0.0481-0.048,0.36467-0.9869,0.91716-2.0862s1.0021-2.0725,0.99917-2.1627c-0.002-0.09-0.27972,0.1495-0.61506,0.5326-0.33532,0.383-0.55959,0.5397-0.49836,0.3482,0.13453-0.4207,0.061-0.4289-0.63272-0.07-0.63642,0.3291-1.3457,1.0688-1.1819,1.2325,0.0635,0.063,0.21525-0.071,0.33743-0.2997,0.12215-0.2282,0.30627-0.415,0.40916-0.415,0.21689,0,0.002,0.6298-0.72753,2.1263-0.27643,0.5675-0.46374,1.1943-0.41624,1.3929,0.0607,0.2538,0.21577,0.066,0.5219-0.6339,0.64025-1.4625,1.0728-2.2997,1.1488-2.2236,0.10255,0.1025-0.89116,2.9345-1.194,3.4028-0.14683,0.227-0.3298,0.6677-0.40661,0.9794-0.222,0.9009,0.27772,0.5477,0.65028-0.4595,0.17702-0.4786,0.43241-0.907,0.56754-0.952,0.15445-0.051,0.0537,0.4227-0.27148,1.277-0.65092,1.7102-0.86965,2.4478-0.86965,2.9327,0,0.6157,0.21505,0.2331,0.73215-1.3025zm32.985,0.1498c0.16184,0.062,0.34698-0.1435,0.48461-0.5383,0.34584-0.9921,0.27454-1.0281-0.45625-0.2307-0.37342,0.4074-0.62566,0.8271-0.56053,0.9324,0.0707,0.1144,0.14903,0.1,0.19434-0.036,0.0418-0.1252,0.19378-0.1825,0.33783-0.1272zm28.168-5.0975c-0.16416-0.1061-0.52234-0.1853-0.79595-0.1761l-0.49746,0.017,0.49746,0.1593c0.27361,0.088,0.63179,0.1669,0.79595,0.1761,0.26531,0.015,0.26531,0,0-0.1761zm-12.878-0.3425c-0.57277-0.071-0.61583-0.1198-0.40552-0.4566,0.36438-0.5834-0.0276-0.7495-0.45528-0.1929-0.55082,0.7169-0.49265,0.7965,0.55639,0.7612,0.71597-0.024,0.7898-0.051,0.30441-0.1117zm12.735-0.3396c-1.536-0.4974-3.0194-0.8254-2.8192-0.6233,0.19771,0.1996,3.2169,1.065,3.7584,1.0773,0.2736,0.01-0.14904-0.1981-0.9392-0.454zm2.5311,0.08c0-0.1122-0.26864-0.2577-0.59697-0.3233-0.87582-0.1752-0.72738-0.4052,0.24874-0.3853,0.83297,0.017,0.84569,0.01,0.84569-0.6615v-0.6786l-1.9822-0.6645c-2.1656-0.7261-3.3907-0.829-4.2957-0.361-0.66282,0.3428-0.78634,0.8903-0.20085,0.8903,0.21243,0,0.44158,0.09,0.50922,0.199,0.0736,0.1191-0.17481,0.199-0.61839,0.199-0.83943,0-0.84058,0.1251-0.002,0.2771,0.31022,0.056,1.3827,0.3734,2.3834,0.7047,1.5493,0.5131,2.9817,0.9106,3.5605,0.9881,0.0821,0.011,0.14923-0.072,0.14923-0.184zm-2.6863-0.99c-0.14683-0.2375,0.24311-0.2375,0.79594,0,0.35536,0.1528,0.34064,0.1726-0.1375,0.1851-0.2945,0.01-0.59081-0.076-0.65844-0.1851zm-60.423-2.503-0.2454-0.5812-0.0755,0.5592c-0.0819,0.6067,0.3993,1.4571,0.50853,0.8987,0.0319-0.1625-0.0526-0.557-0.18765-0.8767zm61.418,0c-0.65667-0.1481-1.4178-0.2647-1.6914-0.259-0.74354,0.016,1.3644,0.5213,2.1889,0.5252,0.54466,0,0.43622-0.056-0.49747-0.2662zm-49.253-1.6108c0.38112-0.6391,1.0751-1.6868,1.5422-2.3281,1.3465-1.8489,0.98673-1.9074-0.55907-0.091-1.3594,1.5975-1.9632,2.5334-2.2663,3.5126-0.26203,0.8466,0.52734,0.1739,1.2832-1.0936zm-13.215,0.018c-0.21073-0.1541-0.42791-0.2354-0.48264-0.1807-0.0547,0.055,0.0729,0.2256,0.28364,0.3797,0.21073,0.1541,0.42791,0.2354,0.48263,0.1806,0.0547-0.055-0.0729-0.2255-0.28363-0.3796zm62.169-1.2629c0-0.1005,0.0592-0.3468,0.13136-0.5473,0.11099-0.3079,0.055-0.295-0.36105,0.083-0.27082,0.2463-0.64334,0.4478-0.82782,0.4478-0.39578,0-0.40949-0.082-0.11061-0.6598,0.19215-0.3716,0.14003-0.3552-0.35912,0.1125-0.6978,0.654-0.8606,0.6805-0.8606,0.14,0-0.3965-0.0125-0.3978-0.47592-0.05-0.31952,0.24-0.40126,0.4055-0.24873,0.5037,0.33051,0.2127,3.1125,0.1855,3.1125-0.03zm-5.1258-2.4413c0.0452-0.3079,0.0515-0.5598,0.0141-0.5598-0.10222,0-0.85646,1.2707-0.85732,1.4443-0.002,0.4116,0.77208-0.4005,0.84311-0.8845zm-0.046-1.3602c0.12636-0.3051,0.20003-0.7199,0.16369-0.9219-0.0427-0.2373-0.33033,0.1566-0.81351,1.114l-0.74744,1.4811,0.58374-0.5593c0.32107-0.3076,0.68715-0.8089,0.81352-1.1139zm-29.153,0.8004c0.0676-0.1095-0.0113-0.199-0.17551-0.199-0.16417,0-0.35381,0.09-0.42146,0.199-0.0676,0.1094,0.0113,0.199,0.17551,0.199,0.16416,0,0.35381-0.089,0.42146-0.199zm-33.48,42.688c0.0284-0.4919,0.12225-0.8949,0.20857-0.8954,0.0864-0.0006,0.53405,0.3549,0.99494,0.7899,0.80851,0.7632,0.82013,0.7912,0.33058,0.796-0.27908,0-0.61488-0.1024-0.7462-0.2338-0.18573-0.1857-0.2388-0.1636-0.2388,0.1,0,0.186-0.13515,0.3383-0.30035,0.3383-0.23093,0-0.28843-0.2068-0.24874-0.8945zm2.0415,0.1309c-0.6863-0.4185-1.9666-1.8133-1.8091-1.9709,0.10276-0.1027,2.9035,2.0634,2.9035,2.2456,0,0.202-0.53168,0.069-1.0944-0.2747zm-3.3214-4.306c-0.70739-0.656-1.6335-1.8815-1.5129-2.0021,0.12957-0.1296,2.1481,2.0167,2.1481,2.2841,0,0.2912-0.0325,0.2767-0.63514-0.282zm10.682-0.5518c-0.71522-0.8287-2.8125-4.8627-2.6254-5.0498,0.0522-0.052,0.54888,0.7471,1.1037,1.7763,0.5548,1.0291,1.3262,2.2511,1.7142,2.7155,0.60515,0.7243,0.90591,1.4037,0.62143,1.4037-0.0462,0-0.41242-0.3806-0.81385-0.8457zm-13.119-2.3258c-0.19296-0.2132-0.31241-0.5029-0.26544-0.6438,0.0537-0.1612,0.21887-0.053,0.44535,0.2932,0.43243,0.6599,0.31217,0.8944-0.17991,0.3506zm9.2414-1.2066c-0.16999-0.3177-0.15132-0.398,0.0924-0.398,0.17283,0,0.30549,0.1728,0.30549,0.398,0,0.2189-0.0415,0.398-0.0925,0.398-0.0508,0-0.18833-0.1791-0.30548-0.398zm0.87733,0.171c-0.11141-0.1487-0.3077-0.5167-0.43618-0.8177-0.32163-0.7534,0.0664-0.7002,0.46128,0.063,0.33825,0.6541,0.3196,1.2149-0.0251,0.7545zm-0.27382-2.9841c-0.2271-0.3681-0.54724-1.124-0.71145-1.68-0.38827-1.3145-1.4564-6.526-1.3596-6.6336,0.17528-0.1948,0.32567,0.2906,0.9582,3.0925,0.36752,1.628,0.89692,3.5835,1.1764,4.3456,0.27953,0.7621,0.47246,1.4214,0.42875,1.4651-0.0437,0.044-0.26529-0.2216-0.49237-0.5896zm-12.22,0.1184c-0.25161-0.6556-0.37988-2.479-0.17441-2.479,0.11176,0,0.26629,0.5891,0.34339,1.3091,0.13934,1.3011,0.0687,1.7895-0.16898,1.1699zm-0.51286-3.7594c-0.15925-0.1931-0.30567-0.8123-0.32537-1.376-0.0197-0.5636-0.17917-1.4602-0.35438-1.9924-0.1752-0.5321-0.36533-1.6962-0.42252-2.5868l-0.10396-1.6193,0.40091,1.2934c0.5667,1.8282,1.0551,4.333,0.91574,4.6962-0.0648,0.169-0.0231,0.4845,0.0929,0.7011,0.11593,0.2166,0.18276,0.5831,0.14853,0.8144-0.0588,0.3971-0.0783,0.401-0.35178,0.07zm23.472-2.602c0-0.056,0.65141-0.858,1.4476-1.7823,0.85931-0.9976,1.797-2.3727,2.3074-3.3837,0.47288-0.9368,1.0394-1.7993,1.2588-1.9168,0.3093-0.1655,0.18496,0.182-0.55284,1.5453-1.4195,2.623-1.8356,3.2398-3.0325,4.495-0.97156,1.0189-1.4284,1.3523-1.4284,1.0425zm2.057-1.0425c0.92864-1.1989,2.1218-2.4171,2.1218-2.1665,0,0.5895-1.325,2.4013-2.1655,2.9611-0.88721,0.591-0.87633,0.3931,0.0437-0.7946zm0.52987,0.844c0-0.056,0.49249-0.637,1.0944-1.2917,0.60193-0.6548,1.0944-1.2808,1.0944-1.3912s0.13431-0.2007,0.29847-0.2007c0.4137,0,0.37987,0.1501-0.30191,1.3388-0.32907,0.5738-0.85925,1.1762-1.1822,1.3432-0.59037,0.3053-1.0032,0.3882-1.0032,0.2016zm1.7909-0.2673c0-0.099,0.13092-0.2884,0.29094-0.4212,0.45536-0.3779,2.1272-3.0749,3.396-5.4784,1.3064-2.4748,1.2536-2.3888,1.3863-2.2561,0.14926,0.1493-1.7424,4.7167-2.3766,5.7384-0.30572,0.4925-0.79129,1.1496-1.0791,1.4604-0.57791,0.624-1.6176,1.2391-1.6176,0.9569zm1.7909-0.4263c0-0.1469,0.42932-0.8565,0.95405-1.5768,0.90349-1.2402,3.2247-5.6726,3.2247-6.1576,0-0.1245,0.12646-0.2263,0.28104-0.2263,0.34001,0-1.8776,5.0305-2.8142,6.3841-0.75731,1.0943-1.6455,1.9453-1.6455,1.5766zm1.4238-0.5981c1.4201-2.3308,2.7337-4.6997,3.4809-6.2769,0.49021-1.0349,0.97514-1.8816,1.0776-1.8816,0.26177,0,0.3051-0.1211-0.98459,2.7511-1.4722,3.2786-1.9678,4.1148-3.0281,5.1089-0.60677,0.5689-0.76246,0.654-0.54582,0.2985zm-2.8169-2.9746c0.44665-0.8853,1.7921-2.995,1.91-2.995,0.13082,0-0.53596,1.6754-0.9034,2.2699-0.2115,0.3422-0.62499,0.8445-0.91888,1.1162l-0.53433,0.4941,0.44663-0.8852zm1.063,0.1888c0.51653-1.2923,1.9164-3.6873,1.919-3.2833,0.003,0.5454-1.0417,2.6539-1.677,3.3827l-0.52042,0.597,0.27839-0.6964zm-5.0362-1.6173c-0.003-0.1781,0.12798-0.4354,0.29215-0.5716,0.38256-0.3175,0.38658,0.01,0.007,0.5092-0.24543,0.3245-0.29316,0.3345-0.29848,0.062zm-1.8078-0.8313c0.26337-0.7067,1.6048-2.4784,1.5954-2.107-0.01,0.3759-0.36269,0.9569-1.1469,1.8867-0.5905,0.7002-0.63559,0.7224-0.44848,0.2203zm-24.059-0.029c-0.1362-0.1641-0.37502-1.1736-0.53073-2.2434s-0.32285-2.057-0.37144-2.1938c-0.0486-0.1368,0.0322-0.2487,0.17952-0.2487,0.14733,0,0.35596,0.1119,0.46361,0.2487,0.17945,0.2281,0.70121,4.541,0.56572,4.6765-0.0325,0.033-0.17049-0.075-0.30668-0.2393zm38.206-0.01c-0.009-0.2088,1.5663-3.908,1.7367-4.0796,0.13067-0.1315-0.12174,1.2979-0.39409,2.2316-0.20812,0.7135-1.3262,2.2524-1.3426,1.848zm1.2897-0.629c0.17781-0.4203,0.64937-1.5572,1.0479-2.5263,0.39855-0.9692,0.75827-1.6612,0.79941-1.5378,0.12244,0.3673-0.74676,2.9927-1.26,3.8057-0.65634,1.0397-0.97758,1.1811-0.5873,0.2584zm1.1894-0.3663c0.97097-2.2499,1.2699-3.0569,1.401-3.7819,0.17096-0.9452,0.2625-1.134,0.48349-0.9974,0.41555,0.2568-1.0872,4.5472-1.8259,5.2129-0.40196,0.3622-0.40198,0.362-0.0586-0.4336zm1.6564-1.9315c0.65116-1.7693,0.94988-2.377,0.99499-2.0242,0.1044,0.8169-0.72167,3.2093-1.3504,3.9109-0.56715,0.6329-0.56226,0.6069,0.35546-1.8867zm-39.216-1.5195c-1.181-1.7761-1.8271-3.0683-2.2341-4.4682-0.47733-1.642-0.28016-2.0639,0.27456-0.5875,0.345,0.9183,0.56507,1.2437,0.84099,1.2437,0.37683,0,0.52037-0.4828,0.20202-0.6796-0.24848-0.1535-0.67674-1.7939-0.58262-2.2316,0.0589-0.2743,0.21498-0.1106,0.59359,0.6228,0.43384,0.8405,1.7526,4.3051,1.7526,4.6044,0,0.3232-0.50277-0.3135-0.82781-1.0483-0.40075-0.9059-0.49111-0.9736-0.92914-0.6959-0.206,0.1306-0.0184,0.6584,0.84735,2.3848,0.61155,1.2194,1.0795,2.2171,1.04,2.2171-0.0396,0-0.47942-0.6128-0.97743-1.3617zm1.5767,0.632c-0.25564-0.2556-0.13336-0.651,0.16582-0.5362,0.16416,0.063,0.29848,0.2393,0.29848,0.3917,0,0.2926-0.24119,0.3677-0.4643,0.1445zm-5.6626-3.1506c0.0692-1.4292,0.40549-1.5024,0.58081-0.1263,0.0687,0.5398,0.18012,1.0706,0.24742,1.1795,0.0703,0.1137-0.0923,0.1858-0.38182,0.1693-0.48732-0.028-0.50225-0.068-0.44641-1.2225zm70.128,0.2296c-0.92627-0.2197-0.952-0.244-0.59661-0.564,0.3885-0.3497,1.3228-0.7605,1.7268-0.7593,0.12967,0.0004-0.0654,0.1844-0.43338,0.4087-0.36803,0.2244-0.61832,0.4588-0.5562,0.5209,0.0621,0.062,0.52697-0.1297,1.033-0.4262,0.93317-0.5469,1.5618-0.5134,0.73957,0.039-0.72536,0.4877-0.51151,0.7274,0.24874,0.2788,0.51814-0.3057,0.69646-0.3416,0.69646-0.1404,0,0.1487-0.14714,0.3269-0.32696,0.3959-0.17984,0.069-0.27906,0.1734-0.2205,0.232,0.0585,0.058,0.4433-0.034,0.85498-0.2063,0.82658-0.3454,1.0762-0.2785,0.6914,0.1851-0.30454,0.367-2.3795,0.386-3.8573,0.035zm4.2513,0.069c0.39465-0.255,1.252-0.255,1.0944,0-0.0676,0.1095-0.40871,0.1977-0.75794,0.196-0.48315,0-0.5636-0.049-0.33649-0.196zm-26.366-0.7755c-0.43777-0.2028-1.1541-0.6896-1.5919-1.0817-0.67886-0.6081-0.73462-0.7142-0.37907-0.7213,0.22928,0,0.57894,0.1708,0.77704,0.3897,0.19809,0.2189,0.45484,0.398,0.57057,0.398s-0.23058-0.4478-0.76956-0.995c-0.77001-0.7818-0.89631-0.9936-0.58948-0.9886,0.51826,0.01,0.89152,0.3166,1.6402,1.3544,0.41468,0.5748,1.0081,1.0547,1.7759,1.4364l1.1531,0.5732h-0.89544c-0.4925,0.0008-1.2536-0.1641-1.6914-0.3669zm-40.792-0.2437c-1.3049-0.8043-1.4262-1.5098-0.29079-1.6914,0.45587-0.073,0.77294-0.2246,0.73268-0.3506-0.039-0.1221-0.5126-0.5114-1.0524-0.8652-0.94632-0.6201-1.9745-1.6139-1.8247-1.7637,0.0399-0.04,0.76086,0.1398,1.6021,0.3993,0.84124,0.2596,1.5289,0.4145,1.5282,0.3443-0.002-0.2682-0.7267-1.2108-1.2402-1.6147-0.295-0.2321-1.0725-0.6653-1.7277-0.9627-0.79441-0.3607-1.1424-0.6201-1.0444-0.7787,0.11137-0.1802,0.52254-0.1439,1.6971,0.1496,0.85258,0.213,1.633,0.4386,1.7343,0.5012,0.37567,0.2322,0.16686,0.4303-0.36302,0.3445-0.48762-0.079-0.41177,0.04,0.69645,1.0945,1.791,1.7039,1.6497,2.1726-0.46584,1.5456l-0.97681-0.2895,0.61984,0.5382c0.34091,0.2961,0.92296,0.7821,1.2934,1.0802,0.65867,0.5299,0.66486,0.5488,0.27947,0.8514-0.25392,0.1995-0.59009,0.2665-0.94518,0.1885-0.71677-0.1574-0.72386,0.206-0.0184,0.9423,0.65609,0.6848,0.55835,0.8254-0.23422,0.3369zm46.981,0.1735c0.0786-0.1368,0.43549-0.6547,0.79311-1.1509,0.35765-0.4963,0.71129-1.1455,0.78589-1.4427,0.13425-0.5349,0.69125-0.7712,0.6875-0.2917-0.004,0.5392-0.97331,2.2938-1.4924,2.7021-0.60663,0.4771-0.9959,0.5693-0.77414,0.1832zm14.758-0.354c0.35742-0.3251,0.80513-0.5885,0.99492-0.5853,0.26145,0,0.18759,0.1491-0.30475,0.5969-0.35742,0.3252-0.80514,0.5886-0.99494,0.5853-0.26143,0-0.18758-0.1491,0.30477-0.5969zm-14.918-1.0749c0.6515-1.0294,0.95462-1.366,0.99766-1.1079,0.11708,0.7022-1.1062,2.5866-1.6791,2.5866-0.14547,0,0.14634-0.6333,0.6814-1.4787zm-3.1434,1.0936c-1.0145-0.3097-2.1117-0.9976-2.8853-1.8088l-0.79594-0.8347,1.1258,0.6275c1.3006,0.7249,2.3565,1.0768,2.3565,0.7854,0-0.341-0.54138-1.2571-0.97456-1.6492-0.52818-0.478-0.53179-0.7148-0.0109-0.7148,0.54981,0,1.3834,0.9353,1.3834,1.5522,0,0.4711,0.0206,0.4807,0.36389,0.17,0.20015-0.1811,0.42402-0.3293,0.49748-0.3293,0.2692,0,0.12285,0.411-0.26441,0.7426-0.4656,0.3987-0.5117,0.6503-0.11914,0.6503,0.15335,0,0.46374-0.3134,0.68974-0.6965,0.22601-0.383,0.50348-0.6964,0.61661-0.6964,0.30045,0,0.25232,0.2241-0.19227,0.8954-0.44059,0.6653-0.4926,0.8954-0.20234,0.8954,0.10755,0,0.42251-0.4477,0.69981-0.9949,0.58603-1.1565,1.0223-1.3486,0.56472-0.2487-0.71669,1.7228-0.82203,1.8418-1.6145,1.8235-0.40759-0.01-0.96494-0.086-1.2386-0.169zm16.722,0.037c0.0129-0.2666,1.4394-1.2436,1.8157-1.2436,0.52197,0,0.46806,0.09-0.46921,0.7787-0.80002,0.5883-1.3619,0.7823-1.3464,0.4649zm-11.603-0.5969c0.24803-0.6562,0.89005-1.6417,1.0694-1.6417,0.24257,0,0.23588,0.034-0.21158,1.0779-0.21683,0.5059-0.5242,0.912-0.6902,0.912-0.20256,0-0.25676-0.1126-0.16767-0.3482zm1.0498,0.1559c0-0.38,0.53178-1.2794,1.0044-1.6986l0.44815-0.3975-0.13827,0.597c-0.22273,0.9616-1.3142,2.2066-1.3142,1.4991zm1.3695-0.5539c0.41976-0.8186,1.4163-1.8536,1.4163-1.471,0,0.5115-0.57665,1.5834-1.0182,1.8927-0.71356,0.4998-0.81539,0.392-0.39813-0.4217zm8.3789,0.4501c0.38918-0.4689,1.5702-1.1381,1.843-1.0443,0.13659,0.047-0.1945,0.3678-0.73579,0.7129-1.0583,0.6747-1.5025,0.8077-1.1072,0.3314zm-7.3605,0.022c0-0.2627,0.98907-2.0865,1.2034-2.2189,0.4065-0.2513,0.41629,0.067,0.0256,0.8322-0.36553,0.7162-1.229,1.6905-1.229,1.3867zm-59.159-1.3176c-0.22714-0.8487-0.24031-1.8037-0.0589-4.2783,0.21011-2.8667,0.49119-2.5771,0.48281,0.4975-0.007,2.5706-0.22568,4.5212-0.42386,3.7808zm32.393-2.1704c1.8826-3.7267,4.5704-6.7607,7.481-8.4447,0.99661-0.5766,1.1764-0.6276,1.1764-0.3333,0,0.1073-0.3734,0.3855-0.82977,0.6183-1.1577,0.5906-4.1559,3.647-6.1318,6.2508-1.9819,2.6118-2.1418,2.7918-1.6958,1.9089zm33.338,0.2232c-0.008-0.3332,0.5854-1.2366,0.81256-1.2366,0.31093,0,0.18921,0.3609-0.31509,0.9341-0.27016,0.307-0.49401,0.4432-0.49747,0.3025zm-20.743-3.655c0.87078-1.2537,2.5689-2.7553,3.1159-2.7553,0.24176,0-2.8206,3.1265-3.3456,3.4158-0.27347,0.1506-0.21308-0.023,0.22974-0.6605zm2.8276,0.3532c0-0.2606,0.43261-1.0025,0.85477-1.4661,0.83883-0.921,0.11985-0.6508-0.943,0.3544-1.3991,1.3233-1.4369,0.9587-0.061-0.5881,0.66843-0.7515,1.2082-1.1808,1.4986-1.1921,0.48738-0.019,0.88093,0.5987,0.46897,0.736-0.1738,0.058-0.18302,0.1534-0.0323,0.3349,0.27462,0.3309,0.0508,0.9014-0.35375,0.9014-0.17382,0-0.56719,0.2406-0.87415,0.5347-0.30696,0.294-0.5581,0.4673-0.5581,0.3849zm-41.29-0.6303c-0.82998-0.6831-2.5265-1.2843-4.0164-1.4234-0.86718-0.081-1.2568-0.201-1.2568-0.3871,0-0.3789,2.2186-0.3576,3.5369,0.034,1.6096,0.478,3.3257,1.9752,2.5322,2.2093-0.10944,0.032-0.46762-0.1624-0.79595-0.4326zm36.514-5.2285c0-0.2017,1.0031-0.6921,1.1386-0.5566,0.0508,0.051-0.1847,0.2355-0.52318,0.4105-0.33851,0.1751-0.61547,0.2408-0.61547,0.1461zm-0.38853-1.1124c0.45684-0.478,1.5824-0.7674,1.5824-0.4069,0,0.1544-0.24624,0.3356-0.54721,0.4026-0.30096,0.067-0.7263,0.1678-0.94519,0.2241-0.36144,0.093-0.3697,0.073-0.09-0.2198zm44.663-0.7155c0.0676-0.1094,0.24672-0.199,0.39797-0.199,0.15124,0,0.33034,0.089,0.39798,0.199,0.07,0.1133-0.10135,0.199-0.39798,0.199s-0.46799-0.086-0.39797-0.199zm-16.284-0.1327c-0.20643-0.2064-0.15598-0.8622,0.0663-0.8622,0.10946,0,0.199,0.2238,0.199,0.4974,0,0.521-0.046,0.5842-0.26532,0.3648z"/>
</svg>
