<?xml version="1.0" encoding="UTF-8" standalone="no"?>
<svg xmlns:rdf="http://www.w3.org/1999/02/22-rdf-syntax-ns#" xmlns="http://www.w3.org/2000/svg" height="34" width="357.49" version="1.1" xmlns:cc="http://creativecommons.org/ns#" xmlns:dc="http://purl.org/dc/elements/1.1/">
 <path fill="#333" d="M1.001,1.0138v7.1473l2.4358-1.4744h5.4808v20.417l-1.1219,3.044h8.9424l-0.929-3.109v-20.353h5.5116l2.3405,1.186,0.0318-6.8588h-22.694zm72.242,0,1.0892,3.0768v23.013l-0.99381,3.044h18.077l-0.03179-6.8264-2.3722,1.1538h-7.7557v-6.8582h4.968l2.4686,0.704v-7.1788l-2.4358,0.801h-5.0004v-5.2568h6.6982l3.0768,1.0577v-6.7306h-17.788zm178.26,0c-0.70768,0.025948-1.3333,0.099997-1.8564,0.1923-2.7692,0.51691-5.1794,1.7388-7.21,3.6217-3.0665,2.8061-4.6152,6.4123-4.6152,10.769,0,1.9568,0.39999,3.9671,1.241,5.9608,0.82048,2.0308,1.9384,3.6758,3.3434,4.968,1.5487,1.5138,3.3434,2.5178,5.446,3.1086,3.3537,0.88613,7.3229,0.66664,10.348-0.73639v-6.9875c-1.6922,1.5508-3.7333,2.2758-6.0511,2.2758-2.2974,0-4.1435-0.85638-5.5486-2.6286-1.1794-1.6246-1.764-3.5979-1.764-5.9608,0-4.0245,1.518-6.7875,4.6152-8.3013,2.8409-1.3661,6.2767-0.22615,8.5228,1.7308v-7.0848c-1.7143-0.7477-4.3886-1.0073-6.5029-0.92941zm-226.82,3.4614,0.962,2.6603v20.288l-0.99381,2.724h8.0131l-0.96001-2.7234v-5.3526l3.204,1.122,3.2696-1.122v5.3526l-0.96202,2.724h8.0131l-0.961-2.725v-20.289l0.92921-2.6602h-7.9485l0.92921,2.6602v9.9353l-3.267,1.1852-3.205-1.185v-9.9355l0.961-2.6602h-7.9803zm21.441,0,0.96202,2.7564v20.256l-0.89843,2.6605h15.929v-6.0254l-2.084,0.99381h-6.8264v-5.9608h4.327l2.1794,0.57639v-6.3139l-2.1143,0.70466h-4.3923v-4.6152h5.8653l2.7237,0.89717v-5.929h-15.672zm47.179,0,1.3456,1.1538,3.8789,10.769-4.5835,12.05-1.5702,1.6984h7.9803l-0.44819-1.762,2.6276-7.5003,2.6256,7.5321-0.37947,1.7302h8.01l-1.7333-1.923-4.646-11.858,3.8152-10.737,1.4461-1.1538h-7.251l0.4205,1.1218-2.2153,6.3456-2.2718-6.3456,0.48101-1.1218h-7.5321zm40.224,0,0.96408,2.6602v15.448c0,3.0276,1.5281,5.1967,3.7434,6.3783,2.882,1.5877,7.5485,1.565,10.389-0.09641,2.0615-1.2553,3.4562-3.402,3.4562-6.2819v-15.448l0.9333-2.6602h-7.7947l0.87176,2.6602v15.031c0,3.4337-5.6408,3.4337-5.6408,0v-15.032l0.89228-2.6602h-7.8151zm20.409,0,0.9333,2.7564v20.256l-0.89228,2.6605h7.9178l-0.93331-2.6605v-20.256l0.86152-2.7564h-7.8869zm26.994,0,0.92305,2.7564v20.256l-0.89228,2.6605h7.8869l-0.90253-2.6605v-20.256l0.83074-2.7564h-7.8459zm8.8408,0v6.3136l2.1537-1.2818h4.7998v17.949l-0.95381,2.6922h7.8459l-0.79997-2.724v-17.917h4.8408l2.1127,1.0254v-6.0576h-19.999zm20.933,0,0.96408,2.7564v20.256l-0.93331,2.6605h15.959v-6.0254l-2.1127,0.99381h-6.8306v-5.9608h4.3589l2.1846,0.57639v-6.3136l-2.1538,0.7046h-4.3896v-4.6161h5.8666l2.7281,0.89721v-5.929h-15.64zm59.167,0c-2.9537,0-5.4973,1.2712-7.5998,3.782-2.1025,2.5102-3.1692,5.5306-3.1692,9.0382,0,3.5445,1.0666,6.5598,3.1692,9.0705,2.1025,2.5106,4.646,3.7814,7.5998,3.7814,2.9845,0,5.5486-1.2708,7.651-3.7814,2.1127-2.5106,3.1794-5.526,3.1794-9.0705,0-3.5076-1.0666-6.528-3.1794-9.0382-2.1025-2.5106-4.6666-3.782-7.651-3.782zm11.722,0,0.99484,2.7564v20.223l-0.96407,2.6922h7.9895l-0.96408-2.6922v-5.8326c0.44101,0,0.93331-0.03282,1.405-0.03282l3.1794,5.8655-0.93331,2.6922h9.7125l-2.5948-2.6276-3.8768-6.9229c3.0974-1.1815,4.646-3.9579,4.646-7.2439-0.041-5.9072-3.0564-8.8777-9.0664-8.8777h-9.528zm21.353,0,0.99484,2.7564v20.223l-0.96408,2.6922h7.9793l-0.96408-2.6922v-5.2563h1.9897c5.3127,0,9.5587-3.3076,9.4869-8.8459-0.041-5.9072-3.0255-8.8777-9.0356-8.8777h-9.4869zm37.558,0,0.96407,2.7564v20.256l-0.93331,2.6605h15.959v-6.0254l-2.1127,0.99381h-6.8203v-5.9608h4.3589l2.1743,0.57639v-6.3136l-2.1436,0.7046h-4.3896v-4.6161h5.8563l2.7281,0.89721v-5.929h-15.64zm-218.68,0.031999c-2.9537,0-5.487,1.2713-7.5895,3.7821-2.1127,2.474-3.2102,5.4934-3.2102,9.0379s1.0974,6.528,3.2102,9.0387c1.3949,1.7353,3.0564,2.843,4.9024,3.3968v0.67382l-0.9,2.563h7.2101l-0.73844-2.5968v-0.6728c1.7743-0.55383,3.3434-1.6666,4.7486-3.3651,2.1025-2.5106,3.1692-5.4942,3.1692-9.0387s-1.0666-6.5639-3.1692-9.0379c-2.1025-2.5106-4.6358-3.7821-7.6306-3.7821zm47.886,0c-1.6102,0.094562-3.1178,0.48779-4.2973,1.3462-1.6205,1.2184-2.4306,2.935-2.4306,5.2237,0,2.1784,0.81023,3.9321,2.4306,5.2245,0.85126,0.6646,2.564,1.5477,5.2307,2.6922,2.2871,0.9969,3.4255,2.0564,3.4255,3.2379,0,1.6246-1.159,2.4348-3.5281,2.4348-2.8409,0-5.3947-1.3149-7.7228-3.9732v7.9803c2.7692,1.2184,7.9792,1.9436,10.902,1.0574,1.323-0.36922,2.5436-1.1087,3.6512-2.1794,1.7333-1.7353,2.6256-3.7589,2.6256-6.1219,0-3.4337-2.1846-6.0973-6.5332-7.9803-1.6308-0.62767-2.8102-1.1097-3.6306-1.442-0.6564-0.29537-0.98459-0.72306-0.98459-1.3138,0-0.88665,0.60511-1.3466,1.7949-1.3466,2.3178,0,4.5948,1.2441,6.6972,3.7179v-7.4333c-2.0114-0.62309-4.96-1.2793-7.6343-1.1218zm159.58,0c-1.6102,0.094562-3.1178,0.48779-4.2871,1.3462-1.6308,1.2184-2.4409,2.935-2.4409,5.2237,0,2.1784,0.81024,3.9321,2.4409,5.2245,0.841,0.6646,2.564,1.5477,5.2204,2.6922,2.2871,0.9969,3.4665,2.0564,3.4665,3.2379,0,1.6246-1.2,2.4348-3.5589,2.4348-2.8512,0-5.405-1.3149-7.7228-3.9732v7.9803c2.7692,1.2184,7.9793,1.9436,10.892,1.0574,1.3333-0.36922,2.5436-1.1087,3.6512-2.1794,1.7333-1.7353,2.6256-3.7589,2.6256-6.1219,0-3.4337-2.1743-6.0973-6.5332-7.9803-1.6205-0.62767-2.8102-1.1097-3.6204-1.442-0.66664-0.29537-0.99484-0.72306-0.99484-1.3138,0-0.88665,0.61537-1.3466,1.7948-1.3466,2.3281,0,4.5948,1.2441,6.6972,3.7179v-7.4333c-2.0229-0.62309-4.9486-1.2793-7.6458-1.1218zm-59.429,4.9359c1.1794,0,2.2974,0.60347,3.3333,1.8586,1.2102,1.5138,1.8256,3.5251,1.8256,5.9619s-0.61537,4.4152-1.8256,5.9291c-1.0359,1.2553-2.1538,1.923-3.3333,1.923-1.1897,0-2.2768-0.66767-3.2717-1.923-1.2615-1.5138-1.8974-3.4923-1.8974-5.9291s0.63588-4.448,1.8974-5.9619c0.99484-1.2551,2.082-1.8586,3.2717-1.8586zm-148.46,0.064c1.2922-0.164,2.6256,0.48829,3.7435,1.8592,2.5127,3.1014,2.5127,8.7618,0,11.826-0.14357,0.18461-0.29741,0.36512-0.45126,0.5128v-1.6984h-5.5691v1.8584c-0.22563-0.18461-0.43075-0.41435-0.61537-0.6728-2.5436-3.0645-2.5436-8.7249,0-11.826,0.87177-1.0984,1.8768-1.7317,2.8922-1.8592zm167.24,0.1925h1.2512c1.5487,0,2.6153,0.15322,3.1999,0.4486,2.0718,0.849,1.8871,4.5659,0.2564,5.6735-0.69741,0.47998-1.8461,0.73639-3.3948,0.73639h-1.3128v-6.8586zm21.343,0h1.2512c1.5897,0,2.7076,0.17559,3.3333,0.5448,0.92305,0.47998,1.3436,1.444,1.3436,2.884,0,2.6953-1.5077,4.0707-4.6152,4.0707h-1.3128v-7.4998z"/>
</svg>
