<?xml version="1.0" encoding="UTF-8" standalone="no"?>
<svg xmlns:rdf="http://www.w3.org/1999/02/22-rdf-syntax-ns#" xmlns="http://www.w3.org/2000/svg" height="109" width="96" version="1.1" xmlns:cc="http://creativecommons.org/ns#" xmlns:dc="http://purl.org/dc/elements/1.1/">
 <path fill="#434343" d="m8.5105,102.89c-0.005-0.1702-0.2399-0.4426-0.52178-0.6054-0.28187-0.1627-0.71217-0.7533-0.95621-1.3124-0.24405-0.5591-0.56938-1.0891-0.72297-1.1778-0.1536-0.089-0.48108-0.7792-0.72774-1.5346-0.4666-1.4288-0.35506-2.2465,0.21939-1.6082,0.17835,0.1981,0.1369-0.138-0.0921-0.7471-0.22899-0.609-0.57061-1.6412-0.75914-2.2937s-0.39747-1.2179-0.4643-1.2565c-0.0668-0.039-0.18122-0.3792-0.2542-0.7569-0.11392-0.5897-0.19821-0.6625-0.59615-0.5152-0.37881,0.1402-0.37372,0.3116,0.0279,0.9382,0.47016,0.7336,0.47841,1.3518,0.0145,1.084-0.21955-0.1268-0.87789-2.1853-0.76269-2.3848,0.0333-0.058,0.25658-0.037,0.49607,0.046,0.36159,0.1252,0.38305-0.019,0.12657-0.8494-0.23006-0.7449-0.42003-0.9812-0.74449-0.9258-0.24272,0.041-0.56879-0.1061-0.73636-0.3333-0.16541-0.2242-0.44256-0.4616-0.61588-0.5274-0.17333-0.066-0.28452-0.3129-0.24708-0.5491,0.0374-0.2362-0.0566-0.4258-0.20901-0.4212-0.15239,0-0.1495-0.2126,0.006-0.4827,0.16816-0.2913,0.1332-0.6396-0.0859-0.8561-0.4196-0.4145-0.29178-1.1061,0.44091-2.3856,0.46894-0.8188,0.4596-0.8999-0.1271-1.104l-0.63322-0.2204,1.376-2.3834,1.376-2.3833-0.5352-0.6534-0.5352-0.6534,1.2618-2.1855c0.78012-1.3512,1.2192-2.3445,1.1502-2.602-0.0784-0.2925,0.0101-0.4633,0.29712-0.5736,0.2248-0.086,0.79186-0.6536,1.2601-1.2605,0.61559-0.7977,1.1496-1.1942,1.9282-1.4314,0.59222-0.1805,1.2683-0.5438,1.5024-0.8074,0.23408-0.2635,0.61945-0.6971,0.85637-0.9636,0.39297-0.442,2.5171-1.2206,3.1279-1.1466,0.14005,0.017,1.202-0.4248,2.36-0.9817,3.6316-1.7466,3.7723-1.8053,4.0189-1.6749,0.13257,0.07,0.57509-0.061,0.98338-0.2914,0.40829-0.2303,1.3331-0.5957,2.0552-0.812,0.72205-0.2163,1.3679-0.4887,1.4351-0.6052,0.0673-0.1165,0.23418-0.1473,0.3709-0.068,0.13671,0.079,0.57044,0.021,0.96383-0.1278l0.71527-0.2714,0.1856,0.7915c0.21811,0.9301,0.32608,1.0339,0.59349,0.5707,0.10865-0.1881,0.0555-0.4241-0.11801-0.5243-0.17356-0.1002-0.24906-0.4245-0.16779-0.7207,0.11035-0.4021,0.69335-0.6956,2.3022-1.159,2.6388-0.76,2.9428-0.534,0.39537,0.2939-1.0139,0.3295-1.8855,0.6718-1.9368,0.7607-0.0513,0.089,0.25191,1.4008,0.67379,2.9156,1.1227,4.031,1.2896,4.5559,1.4844,4.6684,0.097,0.056,0.23781,0.3787,0.31295,0.7172,0.0751,0.3384,0.3873,1.1294,0.69369,1.7577,0.30638,0.6283,0.82482,1.7245,1.1521,2.436,0.32725,0.7116,0.75263,1.5157,0.9453,1.7869,0.51505,0.7251,0.97269,1.5527,1.2035,2.1762,0.43811,1.1838,3.7264,6.1054,4.3008,6.437,0.14309,0.083,0.20751,0.2414,0.14317,0.3529-0.1403,0.243,2.5144,3.3702,3.1628,3.7258,0.25049,0.1373,0.53259,0.4784,0.62689,0.7579,0.0943,0.2796,0.54902,0.8173,1.0105,1.195,0.80317,0.6574,0.87778,0.6628,1.7443,0.1278,0.49787-0.3075,0.98452-0.5132,1.0814-0.4573,0.0969,0.056,0.2602-0.044,0.36281-0.2214,0.10262-0.1777,0.29958-0.3035,0.4377-0.2796,0.13811,0.024,0.40077-0.1346,0.58368-0.3524,0.2335-0.2781,0.19081-0.5429-0.14331-0.8888-0.40465-0.4191-0.34153-0.4198,0.42182-0.01l0.8977,0.4879-0.66131,0.8142c-0.56504,0.6957-0.60704,0.8737-0.28852,1.2226,0.20505,0.2246,0.30108,0.5326,0.2134,0.6845-0.0877,0.1519-0.0556,0.5704,0.0713,0.9301,0.27274,0.7733-0.19242,1.7078-0.95129,1.9111-0.29684,0.08-0.6265,0.2949-0.73258,0.4787-0.10608,0.1837-0.3612,0.3073-0.56695,0.2747-0.20574-0.033-0.74911,0.1996-1.2075,0.516-0.45838,0.3164-1.5935,0.8228-2.5226,1.1254-0.92904,0.3026-1.7762,0.7009-1.8825,0.8851-0.10635,0.1842-0.52582,0.4694-0.93216,0.6338-0.62871,0.2542-2.3491,1.1926-4.3184,2.3554-0.27634,0.1632-0.78174,0.3867-1.1231,0.4966-0.34138,0.11-0.66403,0.2751-0.717,0.3668-0.053,0.092-0.72724,0.4299-1.4984,0.7515-0.77114,0.3215-1.4521,0.6714-1.5133,0.7773-0.10579,0.1833-0.92984,0.5408-1.9274,0.8362-0.25222,0.075-0.51714,0.2372-0.58872,0.3612-0.0716,0.1239-0.23292,0.2116-0.35855,0.1948-0.12564-0.017-0.9043,0.3663-1.7304,0.8513-0.82606,0.4849-1.5797,0.8368-1.6748,0.7819-0.095-0.055-0.47938,0.1-0.85405,0.3433-0.37467,0.2437-1.0977,0.6262-1.6066,0.85-0.50898,0.2237-0.97969,0.5008-1.046,0.6157-0.0663,0.1149-0.53017,0.3354-1.0307,0.49-0.50057,0.1546-1.1302,0.5082-1.3991,0.7859l-0.48902,0.5048-4.524-2.6119c-2.77-1.5993-4.5276-2.732-4.5333-2.9215zm3.3543-0.015c-0.25652-0.7147-0.5933-1.2959-0.7484-1.2915-0.34525,0.01,0.14678,1.375,0.58709,1.6293,0.1743,0.1006,0.25763,0.2856,0.1852,0.411-0.0724,0.1255-0.003,0.3007,0.1554,0.3894,0.15788,0.089,0.0772-0.4235-0.17929-1.1382zm-4.3713-2.7012c0.0724-0.1255,0.029-0.2874-0.0964-0.3598-0.12546-0.072-0.28738-0.029-0.35981,0.096-0.0724,0.1254-0.029,0.2874,0.0964,0.3598,0.12546,0.072,0.28737,0.029,0.35981-0.096zm3.5865,0.9872c0.10441-0.097-0.14582-0.7739-0.55608-1.5051-0.67156-1.197-0.82489-2.2584-0.34484-2.387,0.0986-0.026,0.43268,0.5189,0.74238,1.2119,0.3097,0.6929,0.70166,1.3399,0.87103,1.4377,0.16937,0.098,0.22538,0.3208,0.12448,0.4956-0.1009,0.1747-0.0571,0.4738,0.0974,0.6645,0.61144,0.7549,0.70703,0.5455,0.31739-0.6952-0.22429-0.7142-0.4845-1.3434-0.57825-1.3984-0.0937-0.055-0.0873-0.2438,0.0143-0.4198,0.10161-0.176-0.18031-1.0508-0.62649-1.944-0.44619-0.8932-0.86856-1.8302-0.93861-2.0823-0.0711-0.2556-0.43051-0.5646-0.81309-0.6989-0.57215-0.2007-0.78937-0.5922-1.3116-2.3639-1.0344-3.5097-1.446-4.5607-1.6484-4.2101-0.25922,0.449,2.4092,10.323,3.2002,11.841,0.35701,0.6855,0.65121,1.4397,0.65377,1.6761,0.005,0.4526,0.47437,0.6752,0.79634,0.3775zm2.0428,0.6851c0.0322-0.224-0.053-0.2011-0.21739,0.058-0.14874,0.2348-0.17261,0.4007-0.053,0.3686,0.11956-0.032,0.24126-0.2241,0.27044-0.4268zm0.57583-1.4582c0.0329-0.1608-0.0377-0.3487-0.15687-0.4175-0.11918-0.069-0.31719-0.036-0.44002,0.073-0.12282,0.1089-0.0522,0.2968,0.15687,0.4175,0.2091,0.1208,0.40711,0.088,0.44002-0.073zm-0.54078-0.8535c0.12817-0.069,0.11706-0.5098-0.0247-0.9797-0.32221-1.068-0.1192-1.4944,0.31366-0.6587,0.178,0.3436,0.48926,0.812,0.69168,1.0408,0.49343,0.5579-0.18531-1.402-1.2544-3.6221-0.45643-0.9479-1.0114-2.2388-1.2332-2.8687-1.7845-5.0676-1.9379-5.5892-2.5525-8.682-0.16948-0.8527-0.30523-1.0922-0.46676-0.8234-0.12529,0.2085-0.0907,0.9579,0.0768,1.6654,0.16754,0.7074,0.28668,1.3901,0.26475,1.5169-0.0753,0.4356,1.1477,5.0769,2.1747,8.253,0.56529,1.7482,1.1277,3.6074,1.2498,4.1314,0.23748,1.019,0.3906,1.2259,0.76006,1.0271zm2.0139,0.5102c0.0724-0.1254-0.0283-0.3205-0.22393-0.4334-0.1956-0.1129-0.35145-0.066-0.34635,0.1042,0.005,0.1702,0.10587,0.3653,0.22393,0.4334,0.11806,0.068,0.27391,0.021,0.34635-0.1042zm16.626-0.8762c0.0319-0.055-0.008-0.2233-0.0886-0.3733-0.0807-0.15-0.20948-0.164-0.28619-0.031-0.0767,0.1329-0.0368,0.3008,0.0886,0.3733,0.12546,0.072,0.25425,0.086,0.28619,0.031zm-19.354-11.782c0.0319-0.055-0.008-0.2233-0.0886-0.3733-0.0807-0.15-0.20947-0.164-0.28618-0.031-0.0767,0.1328-0.0368,0.3008,0.0886,0.3733,0.12546,0.072,0.25424,0.086,0.28618,0.031zm-0.4624-1.0793c-0.006-0.1893,0.16768-0.3495,0.38524-0.356,0.304-0.01,0.36517-0.2231,0.26425-0.9244-0.0722-0.5019-0.0359-0.9381,0.0806-0.9693,0.11657-0.031,0.20877,0.1798,0.20489,0.4689-0.004,0.2891,0.15546,0.6195,0.35406,0.7341,0.19861,0.1147,0.42519,0.5402,0.50351,0.9456,0.0783,0.4053,0.2065,0.626,0.28484,0.4903,0.15547-0.2693,0.0272-0.79-0.50007-2.0298-0.18859-0.4435-0.56537-1.461-0.8373-2.2612-0.6348-1.868-1.2256-2.0377-0.87494-0.2513,0.15977,0.8138,0.14177,1.1836-0.0461,0.9471-0.9695-1.2208-0.93912-1.2078-0.79423-0.3401,0.0748,0.4479,0.19546,1.0687,0.26812,1.3794,0.0727,0.3107,0.20575,0.9693,0.29574,1.4634,0.16339,0.897,0.43089,1.3544,0.41137,0.7033zm1.1759,0.5608c0.0722-0.4554-0.26705-0.7816-0.46189-0.4441-0.1,0.1731-0.008,0.3833,0.35617,0.8153,0.0217,0.026,0.0693-0.1413,0.10572-0.3712zm1.6538,0.6327c0.11292-0.1956,0.066-0.3515-0.10419-0.3464-0.17023,0-0.36527,0.1059-0.43343,0.224-0.0682,0.118-0.0213,0.2739,0.10418,0.3463,0.12546,0.072,0.32051-0.028,0.43344-0.2239zm18.895,10.471c0.0724-0.1255,0.029-0.2874-0.0964-0.3598-0.12546-0.072-0.28737-0.029-0.35981,0.096-0.0724,0.1254-0.0291,0.2873,0.0964,0.3598,0.12546,0.072,0.28738,0.029,0.35981-0.096zm1.207-0.5102c0.0702-0.1215-0.0605-0.2508-0.2904-0.2872-0.22989-0.036-0.44127-0.026-0.46974,0.023-0.0285,0.049,0.10222,0.1785,0.29041,0.2872,0.18819,0.1086,0.39957,0.098,0.46973-0.023zm-26.106-15.3c0.15539-0.2691-0.12328-0.8139-0.38102-0.7449s-0.22669,0.6802,0.0424,0.8356c0.11805,0.068,0.27041,0.027,0.33857-0.091zm26.733,14.799c-0.26174-0.4986-0.8114-0.8555-0.80135-0.5203,0.004,0.133,0.2344,0.3969,0.51202,0.5863,0.39344,0.2685,0.45725,0.2539,0.28933-0.066zm-20.28-13.164c-0.75876-2.1535-0.88552-2.4319-1.0831-2.3789-0.31153,0.084,0.0119,1.2457,0.62115,2.2324,0.30047,0.4866,0.49065,0.9811,0.42262,1.099-0.068,0.1178-0.006,0.1826,0.13862,0.1439,0.14428-0.039,0.0996-0.532-0.0992-1.0964zm21.222,12.82c-0.051-0.1821-0.34784-0.5765-0.65967-0.8764-0.42014-0.4041-0.56404-0.4481-0.5557-0.1701,0.006,0.2064,0.0973,0.3522,0.20239,0.3241,0.10513-0.028,0.31699,0.2187,0.4708,0.5487,0.29013,0.6224,0.70507,0.7553,0.54218,0.1737zm0.98771-0.3587c-0.11797-0.2303-0.47612-0.5582-0.79589-0.7287l-0.58139-0.31,0.46484,0.5119c0.25566,0.2816,0.6138,0.6095,0.79588,0.7287,0.29427,0.1927,0.30722,0.1703,0.11656-0.2019zm-19.172-11.601c0.0474-0.098-0.33957-1.1465-0.85996-2.3298-1.1879-2.7012-2.1748-5.6519-2.6995-8.0718-0.75791-3.495-0.81201-4.3643-0.25146-4.0406,0.12546,0.072,0.17365,0.226,0.10709,0.3413-0.18154,0.3144,1.149,4.9461,1.4749,5.1343,0.1553,0.09,0.26277,0.2759,0.23884,0.414-0.0568,0.3274,2.4776,5.4549,3.2478,6.5707,0.32766,0.4747,0.59981,0.9987,0.60478,1.1644,0.005,0.1656,0.18729,0.3933,0.40516,0.5059,0.3239,0.1674,0.34765,0.1446,0.13023-0.125-0.14624-0.1813-0.29087-0.5961-0.32139-0.9219-0.0305-0.3257-0.16038-0.6528-0.28859-0.7268-0.49994-0.2887-3.325-8.3932-3.076-8.8245,0.0536-0.093-0.14385-1.0546-0.43866-2.1376-0.5012-1.8411-0.51832-2.6199-0.0517-2.3504,0.10896,0.063,0.39333,0.843,0.63195,1.7335s0.37581,1.5856,0.30487,1.5447c-0.0709-0.041,0.13678,0.5194,0.4616,1.2453,0.32482,0.7258,0.60866,1.4069,0.63076,1.5135,0.20682,0.9979,2.7677,5.6864,3.0627,5.6073,0.11022-0.03-0.0152-0.422-0.2788-0.8721-0.26356-0.4501-0.42335-0.923-0.35508-1.0509,0.0683-0.1279-0.14506-0.7301-0.47406-1.3382-1.053-1.9466-3.049-9.9332-2.6536-10.618,0.10692-0.1852,0.43598,0.5794,0.73124,1.6992,0.29526,1.1197,0.60023,2.0731,0.67771,2.1186,0.0774,0.046,0.28495,0.5444,0.46102,1.1087,0.57914,1.8559,1.7034,4.1473,2.0608,4.2,0.19399,0.029,0.0964-0.2728-0.21836-0.6745-0.31304-0.3994-0.50787-0.8324-0.43295-0.9622,0.0749-0.1297-0.12074-0.9997-0.4348-1.9332-0.91038-2.7059-1.6475-6.0497-1.4204-6.4431,0.049-0.085,0.39151,0.7846,0.76119,1.9321,0.36968,1.1476,0.76814,2.1419,0.88547,2.2096,0.11734,0.068,0.38705,0.5677,0.59937,1.111,0.21231,0.5433,0.44351,1.1253,0.51376,1.2934,0.0703,0.168,0.36307,0.9053,0.65068,1.6385,0.28762,0.7331,0.62666,1.3051,0.75342,1.2711,0.24588-0.066-0.49063-2.6043-0.81308-2.8023-0.23942-0.1471-0.83604-2.0229-1.9015-5.9786l-0.82688-3.07-1.4609,0.5326c-2.508,0.9143-3.4053,1.3109-3.556,1.5719-0.0801,0.1387-0.27579,0.1814-0.43489,0.095-0.40895-0.2226-1.7884,0.4377-1.8063,0.8647-0.0604,1.4435,0.28088,3.8104,0.86901,6.0267,0.11852,0.4466,0.14821,0.9286,0.066,1.071-0.0822,0.1424,0.004,0.3479,0.19265,0.4565,0.18819,0.1087,0.25327,0.3516,0.14461,0.5398-0.10865,0.1881-0.11144,0.3918-0.006,0.4526,0.20227,0.1168,0.83342,1.7784,1.4581,3.8389,0.20619,0.6801,0.83134,2.0503,1.3892,3.045,0.55788,0.9947,1.018,1.9305,1.0224,2.0795,0.01,0.3309,0.40427,0.5873,0.52362,0.3404zm19.795,11.048c0.0724-0.1255,0.0375-0.2825-0.0777-0.349-0.1152-0.067-0.35676-0.3001-0.5368-0.519-0.28816-0.3504-0.31647-0.3303-0.23648,0.1676,0.0993,0.6185,0.64099,1.0642,0.85103,0.7004zm-21.995-13.003c0.0724-0.1255,0.029-0.2874-0.0964-0.3598-0.12546-0.072-0.28737-0.029-0.35981,0.096-0.0724,0.1254-0.029,0.2874,0.0964,0.3598,0.12547,0.072,0.28738,0.029,0.35982-0.096zm-2.0307-1.7507c0.0653-0.1131-0.0941-0.6075-0.35412-1.0988-0.26004-0.4912-0.69003-1.4651-0.95554-2.1642-0.48228-1.2699-0.48257-1.2701-0.30036-0.27,0.1003,0.5507,0.26263,1.2177,0.36073,1.4824,0.76112,2.0539,1.0108,2.4637,1.2493,2.0506zm24.998,14.546c-0.0282-0.1051-0.34321-0.4879-0.70013-0.8507-0.59402-0.6038-0.62783-0.6096-0.39946-0.069,0.22706,0.5374,1.2196,1.3677,1.0996,0.9198zm-23.882-14.666c-0.14061-0.3185-0.33218-0.5585-0.42571-0.5334-0.19802,0.053,0.15635,0.7977,0.46869,0.9849,0.11702,0.07,0.0976-0.1331-0.043-0.4515zm24.623,14.226c0.0633-0.3994-1.0319-1.5265-1.39-1.4305-0.30032,0.08,0.16946,0.8589,0.55939,0.9269,0.1851,0.032,0.34055,0.1919,0.34543,0.3547,0.0138,0.4594,0.41634,0.583,0.48514,0.1489zm-25.166-15.585c0.01-0.3052-0.13448-0.857-0.3207-1.2262s-0.51593-1.2632-0.73269-1.9868c-0.36455-1.2169-0.6779-1.7302-0.86177-1.4118-0.13321,0.2307,0.18449,1.1259,0.38091,1.0733,0.10444-0.028,0.13451,0.2011,0.0668,0.5092-0.0677,0.3081,0.0189,0.6422,0.19239,0.7423,0.1735,0.1002,0.31261,0.3949,0.30913,0.655-0.005,0.3916,0.66356,2.0268,0.88385,2.1608,0.0352,0.022,0.0722-0.2106,0.0821-0.5158zm25.796,14.546c-0.78094-1.1087-0.94829-1.2549-1.1119-0.9714-0.14407,0.2495,0.68318,1.2836,1.3249,1.6561,0.29033,0.1686,0.21306-0.08-0.21298-0.6847zm1.3075-0.1575c-0.005-0.1702,0.20208-0.1875,0.4604-0.038,0.69841,0.4032,0.75269,0.01,0.10731-0.7785-0.67608-0.8254-1.0212-0.8316-0.6752-0.012,0.23854,0.5649,0.22613,0.5754-0.34003,0.287l-0.58759-0.2992,0.46483,0.5119c0.25566,0.2815,0.49065,0.5404,0.5222,0.5753,0.0316,0.035,0.0532-0.076,0.0481-0.2461zm-19.482-11.824c0.0647-0.112-0.002-0.3516-0.14875-0.5325-0.27067-0.3342-0.53042-0.1602-0.41332,0.2769,0.0921,0.3438,0.424,0.4948,0.56207,0.2556zm21.253,11.357c0.2663-0.1433-0.0996-0.6977-0.68272-1.0343-0.30304-0.175-0.32358-0.1089-0.11768,0.3786,0.29249,0.6925,0.46674,0.8352,0.8004,0.6557zm1.1397-0.623c0.0802-0.1389-0.027-0.2799-0.23823-0.3134-0.2112-0.034-0.4289-0.2284-0.48377-0.4331-0.0549-0.2048-0.26605-0.3673-0.46928-0.3612-0.27879,0.01-0.32133,0.103-0.17324,0.3858,0.28162,0.5378,1.1926,1.0197,1.3645,0.7219zm-22.145-15.151c0.13292-0.071,0.0749-0.2949-0.129-0.4963-0.25952-0.2564-0.38904-0.2503-0.43192,0.02-0.0695,0.4388,0.20199,0.6692,0.56092,0.4761zm25.018,14.39c0.2412-0.4178,0.18748-1.313-0.1001-1.668-0.22263-0.2749-0.27889-0.2319-0.29358,0.2244-0.01,0.3104,0.0846,0.6854,0.21027,0.8333,0.12565,0.1478,0.0906,0.3104-0.0779,0.3612-0.17365,0.052-0.33291-0.1532-0.3677-0.4748-0.0337-0.3119-0.19093-0.642-0.34929-0.7334-0.23006-0.1328-0.27055-0.064-0.2015,0.3399,0.0699,0.4095,0.0245,0.4704-0.23805,0.3188-0.17846-0.1031-0.38863-0.3955-0.46704-0.6499-0.0916-0.2972-0.14416-0.3368-0.14701-0.1108-0.002,0.1934-0.16341,0.3292-0.3577,0.3017-0.1943-0.028,0.2323,0.299,0.94798,0.7254,0.78131,0.4655,1.3573,0.6781,1.4416,0.5322zm-23.188-19.893c0.0751-0.13-0.29937-1.3134-1.1238-3.552-0.3521-0.9561-0.60281-1.9562-0.55713-2.2226,0.0457-0.2664-0.0571-0.5652-0.22837-0.6641-0.17128-0.099-0.26853-0.3946-0.21611-0.657,0.0524-0.2625-0.0562-0.8177-0.24137-1.2337-0.32746-0.7358-0.35202-0.7499-0.89619-0.5174-0.48396,0.2067-0.53076,0.3074-0.34668,0.7458,0.33814,0.8052,1.0028,2.5799,1.2336,3.2937,0.11635,0.3599,0.24079,0.6038,0.27653,0.5419,0.0357-0.062,0.18193,0.2183,0.32487,0.6226,0.23794,0.673,1.5514,3.5901,1.6658,3.6997,0.0269,0.026,0.0759,0.0002,0.10884-0.057zm1.1905-1.5352c0.0552-0.096-0.25085-1.0472-0.68014-2.1145s-0.91304-2.7539-1.075-3.748c-0.17466-1.072-0.45956-1.8646-0.70025-1.9479-0.71984-0.2493-0.71286,0.3243,0.0276,2.2672,0.39877,1.0464,0.79854,2.1753,0.88837,2.5088,0.0898,0.3334,0.34624,0.9572,0.56978,1.3861,0.22354,0.429,0.41302,0.9581,0.42107,1.1759,0.016,0.4318,0.38737,0.7516,0.54858,0.4724zm1.658,0.1574c-0.12334-0.2935-0.16163-0.642-0.0851-0.7745,0.0765-0.1326,0.0638-0.3301-0.0283-0.4391-0.32052-0.3791-1.0935-2.5715-1.8164-5.1518-0.46785-1.67-0.80687-2.4596-0.94977-2.2121-0.23542,0.4078,0.32582,2.6601,0.71949,2.8873,0.12782,0.074,0.18038,0.3709,0.11682,0.6602-0.0636,0.2893,0.049,0.7064,0.25023,0.9268,0.20119,0.2204,0.25193,0.462,0.11275,0.5368-0.13918,0.075-0.11587,0.2154,0.0518,0.3122,0.16767,0.097,0.55125,0.928,0.85241,1.8472,0.30116,0.9191,0.64944,1.7317,0.77396,1.8058,0.12454,0.074,0.12549-0.1054,0.002-0.3988zm1.749-3.6878c-0.24386-0.4469-0.55655-1.3797-0.69487-2.0729-0.23756-1.1906-0.58935-1.761-0.82958-1.3449-0.14335,0.2483,0.40022,1.8067,0.68815,1.9729,0.1245,0.072,0.169,0.2301,0.0989,0.3515-0.0701,0.1215,0.0664,0.537,0.30333,0.9234,0.61536,1.0034,0.96328,1.1396,0.43409,0.17zm-2.075-2.4642c0.0106-0.3284-0.12421-0.68-0.29953-0.7812-0.17533-0.1012-0.26892-0.411-0.20799-0.6883,0.16158-0.7355-0.25972-1.8737-0.65259-1.7631-0.19807,0.056-0.0788,0.8088,0.30108,1.9002,0.69715,2.0034,0.83074,2.2106,0.85903,1.3324zm0.84213-1.7949c0.0364-0.2299-0.0254-0.4709-0.13746-0.5356-0.11204-0.065-0.2926,0.036-0.40126,0.2246-0.10865,0.1882-0.0468,0.4292,0.13746,0.5356,0.20407,0.1178,0.3609,0.03,0.40126-0.2246zm-25.049,26.865c0.175-0.3031,0.24593-0.2829,0.39189,0.1115,0.098,0.2648,0.15584,0.5202,0.12849,0.5676-0.0274,0.047-0.2037,0-0.39189-0.1114-0.18819-0.1087-0.24601-0.3641-0.12849-0.5677zm41.512-0.7836c0.0724-0.1255-0.047-0.3334-0.26548-0.4621-1.0283-0.6057-0.62327-1.7065,0.48909-1.3294l0.5508,0.1868-0.41532-0.4659c-0.49644-0.557-0.37794-0.8829,0.25878-0.7117,0.3902,0.1049,0.39674,0.053,0.0427-0.3373-0.22995-0.2536-0.3672-0.5493-0.305-0.657s0.31858,0.056,0.56976,0.3644c0.25118,0.3082,0.75796,0.7343,1.1262,0.9468,0.36822,0.2126,0.60388,0.5002,0.52369,0.6391-0.0802,0.1389,0.0423,0.2823,0.27219,0.3188,0.5801,0.092,0.29064,0.4847-0.54606,0.7409-0.38383,0.1176-0.93174,0.4798-1.2176,0.8051-0.4775,0.5433-1.4007,0.5105-1.0837-0.038zm0.28105-0.7502c-0.005-0.1702-0.11193-0.3687-0.23739-0.4412-0.12546-0.072-0.22394,0.01-0.21884,0.1778,0.005,0.1703,0.11193,0.3688,0.2374,0.4412,0.12546,0.072,0.22393-0.01,0.21883-0.1778zm1.0618,0.01c0.0724-0.1254,0.0291-0.2873-0.0964-0.3598-0.12546-0.072-0.28737-0.029-0.35981,0.096-0.0724,0.1255-0.029,0.2874,0.0964,0.3598,0.12546,0.072,0.28738,0.029,0.35981-0.096zm-0.69734-3.7967c-0.6612-0.883-1.3812-1.888-1.6-2.2334-0.21878-0.3454-1.2153-1.8789-2.2146-3.4078-0.99923-1.5288-1.7622-2.8743-1.6954-2.99,0.0668-0.1156-0.068-0.3195-0.29948-0.4532-0.23148-0.1336-0.48814-0.5555-0.57035-0.9376-0.0822-0.382-0.28754-0.7743-0.45629-0.8717-0.16874-0.097-0.25398-0.2686-0.18941-0.3805,0.0646-0.1118-0.16953-0.5953-0.52023-1.0744s-1.0176-1.6353-1.4821-2.5693c-0.46444-0.934-0.98904-1.8626-1.1658-2.0635-0.17674-0.2009-0.27052-0.4533-0.20839-0.5609,0.0621-0.1077-0.0955-0.521-0.35037-0.9186-0.5148-0.8033-1.8466-5.4977-1.8174-6.4058,0.0163-0.505,0.0952-0.5358,0.61045-0.2383,0.33643,0.1942,0.47411,0.4049,0.31909,0.4883-0.14998,0.081-0.12407,0.2325,0.0576,0.3374,0.19503,0.1126,0.57339-0.093,0.92412-0.5016,0.32664-0.3808,0.78444-0.6621,1.0174-0.6252,0.23291,0.037,0.47577-0.076,0.53969-0.25,0.0639-0.1744,0.65691-0.8241,1.3177-1.4436,1.262-1.1832,2.2876-3.0027,5.7576-10.215,0.72434-1.5055,1.6597-3.3607,2.0786-4.1225,0.4189-0.76184,0.80271-1.772,0.85291-2.2449,0.0502-0.47286,0.36926-1.5083,0.70902-2.3009,0.33975-0.79264,0.62871-1.6523,0.64213-1.9104,0.0134-0.25806,0.15994-1.0068,0.32561-1.664,0.16567-0.65712,0.28643-1.3402,0.26836-1.5179-0.0181-0.17772,0.36862-1.2547,0.85931-2.3933,0.67614-1.5689,1.2059-2.4414,2.1878-3.6032,1.8736-2.217,2.296-2.6283,2.5492-2.4821,0.12426,0.0717,0.25861-0.0758,0.29856-0.32784,0.0399-0.25205,0.31124-0.54023,0.60284-0.64043,0.29161-0.10019,0.83961-0.54847,1.2178-0.99618,0.37816-0.44772,0.92146-0.95525,1.2073-1.1278,0.28586-0.1726,0.64317-0.44785,0.79404-0.61167,0.56843-0.61726,2.4853-3.0381,3.3055-4.1745,0.46872-0.64944,1.0074-1.2419,1.1971-1.3165s0.65651-0.70535,1.0374-1.4016c0.38085-0.69623,0.90807-1.4045,1.1716-1.574,0.26353-0.16947,0.80296-0.71248,1.1987-1.2067,0.39577-0.49422,0.98796-1.042,1.316-1.2172,0.70499-0.37663,1.7035-1.9165,1.6074-2.479-0.0802-0.46992,1.3337-4.9788,1.8152-5.7885,0.53856-0.90563,1.5334-1.5479,1.9896-1.2845,0.22859,0.13198,0.65346,0.13776,0.94416,0.0128,0.42645-0.18323,0.88108-0.0236,2.3534,0.8265l1.8249,1.0536,0.62229,2.3464c0.69469,2.6193,0.86911,3.9415,0.65086,4.9338-0.081,0.36821-0.12718,1.1794-0.10265,1.8026,0.0487,1.2379-0.86895,3.9034-1.953,5.6729-0.37853,0.61786-0.90541,1.477-1.1708,1.9093-0.26543,0.43224-1.4048,2.4606-2.5319,4.5076-1.1271,2.0469-2.1738,3.7887-2.3261,3.8706-0.32118,0.17281,1.5712,0.81933,2.4681,0.8432,0.42047,0.0112,0.49064,0.0735,0.28659,0.25443-0.14862,0.13179-0.64945,0.11315-1.113-0.0414-1.4215-0.47399-2.2234-0.38759-2.6095,0.28114-0.19299,0.33427-0.31852,0.72948-0.27895,0.87825,0.0396,0.14876-0.17027,0.69002-0.46632,1.2028-0.47553,0.82365-0.47663,0.99409-0.009,1.4624,0.29088,0.29157,0.64082,0.46991,0.77763,0.3963,0.13681-0.0736,0.0374-0.25587-0.22094-0.40502-0.57054-0.3294-0.52833-0.42799,0.30984-0.72363,0.40436-0.14263,0.65453-0.1064,0.66059,0.0957,0.005,0.17887,0.25809,0.5074,0.56162,0.73008,0.48895,0.3587,0.6267,0.31437,1.2082-0.38884,0.361-0.43653,0.75464-0.73696,0.87476-0.66761,0.12464,0.072-0.0352,0.4217-0.37235,0.81472-0.37946,0.44232-0.52794,0.80535-0.41514,1.015,0.12491,0.23215,0.212,0.16077,0.30164-0.24724,0.0804-0.36597,0.22449-0.51678,0.39802-0.41659,0.17809,0.10282,0.0956,0.35781-0.23903,0.73853-0.7856,0.89391-0.47628,1.1814,0.39579,0.36783l0.77333-0.72144-0.42663,0.7794c-0.3841,0.70175-0.37025,0.77036,0.13901,0.68855,0.49532-0.0796,0.51839-0.052,0.18555,0.22196-0.2496,0.20542-0.26969,0.37655-0.0585,0.49846,0.61587,0.35558,0.87462-0.12295,1.0355-1.9151,0.10315-1.1491,0.37084-2.1512,0.73754-2.7612,0.79503-1.3225,1.2359-1.0694,0.51473,0.29566-0.32192,0.60938-0.61069,1.5244-0.64171,2.0334-0.031,0.50898-0.1341,1.06-0.22907,1.2245-0.095,0.16451-0.0157,0.55178,0.17609,0.86062,0.34639,0.5577,0.34845,0.55586,0.30171-0.27133-0.053-0.9375,0.44298-0.9005,0.54481,0.0407,0.0337,0.31197,0.16327,0.53991,0.28782,0.50653,0.12456-0.0334,0.15933-0.31125,0.0772-0.61753-0.082-0.30631-0.0836-0.67049-0.003-0.80932,0.0802-0.13884,0.13725-0.56047,0.12688-0.93695-0.0113-0.40903,0.17548-0.87834,0.46402-1.1661,0.43979-0.43861,0.45078-0.39593,0.12313,0.47842-0.36991,0.98714-0.36205,1.8168,0.0193,2.037,0.11906,0.0687,0.1483-0.12945,0.065-0.44043-0.19623-0.73235,0.12334-1.2757,0.59136-1.0055,0.22123,0.12774,0.24435,0.31063,0.0583,0.46132-0.16953,0.13732-0.19526,0.56729-0.0572,0.95547,0.1519,0.427,0.22457,0.50432,0.18396,0.19574-0.0369-0.28053,0.14258-0.9981,0.39888-1.5946,0.45207-1.0521,0.46089-1.0579,0.29514-0.1947-0.21441,1.1167,0.0444,1.3113,0.43502,0.32719,0.18445-0.46468,0.39464-0.68459,0.56212-0.5879,0.14711,0.0849,0.16283,0.21072,0.035,0.27953-0.12788,0.0688-0.19753,0.40497-0.15478,0.74704,0.0987,0.78982,0.25266,0.52702,0.74597-1.2734,0.34621-1.2636,0.40521-1.365,0.47141-0.81025,0.0416,0.34874-0.0152,0.795-0.12614,0.99169-0.11109,0.19663-0.19406,0.54476-0.1846,0.77349,0.01,0.24247,0.24996-0.0946,0.57542-0.80834,0.39852-0.87406,0.63872-1.1777,0.83973-1.0617,0.15484,0.0894,0.15408,0.26577-0.002,0.39195-0.15578,0.12617-0.25642,0.47715-0.22367,0.77994,0.0497,0.4593,0.1622,0.34573,0.67889-0.6853,0.42525-0.84857,0.54949-0.9981,0.39649-0.47715-0.28082,0.95611,0.0978,1.4873,0.41334,0.57994,0.13152-0.37817,0.32869-0.58266,0.47842-0.49621,0.14009,0.0809,0.16237,0.24772,0.0495,0.37076-0.11286,0.12303-0.11057,0.33747,0.005,0.47653,0.13495,0.16226,0.26337,0.0593,0.35849-0.28727,0.0842-0.30696,0.25816-0.47662,0.40293-0.39303,0.14009,0.0809,0.16232,0.30709,0.0494,0.50269-0.11293,0.19559-0.0604,0.35128,0.11677,0.34597,0.17715-0.005,0.37101-0.23229,0.43079-0.5044,0.0867-0.39445,0.18883-0.41556,0.504-0.10417,0.21741,0.21481,0.45474,0.2876,0.5274,0.16175,0.11896-0.20605,1.9118,0.3178,2.9139,0.8514,0.21709,0.11559,0.51127,0.17894,0.65375,0.14076,0.14248-0.0382,0.4533,0.0427,0.69072,0.17981,0.70901,0.40935-0.0182,0.55579-1.2107,0.24381-0.93954-0.2458-1.0575-0.22168-0.76134,0.15562,0.29048,0.37002,0.22613,0.37835-0.3757,0.0486-0.79051-0.43314-1.5716-0.10085-1.0287,0.43763,0.18024,0.17878-0.0128,0.14435-0.42892-0.0765-0.73031-0.38759-1.3723-0.14873-0.67787,0.25221,0.1882,0.10865,0.28031,0.3047,0.2047,0.43566-0.0756,0.13096-0.25617,0.14737-0.40124,0.0365-0.56578-0.43255-1.0993-0.59824-1.225-0.38044-0.0724,0.12547,0.14878,0.39421,0.4916,0.59723,0.55373,0.32791,0.56051,0.36929,0.0608,0.37075-0.40314,0.001-0.59266-0.11086-0.66892-0.39545-0.0585-0.2184-0.31079-0.5151-0.5606-0.65933-0.44819-0.25876-0.45083-0.25453-0.19911,0.31854,0.2478,0.5642,0.2353,0.57744-0.43783,0.46392-0.3811-0.0643-0.88239-0.14423-1.114-0.17771-0.2316-0.0335,0.16915,0.19717,0.89052,0.51262,0.95625,0.41806,1.2268,0.6191,0.99837,0.74198-0.1723,0.0927-0.52627,0.0456-0.7866-0.10471-0.72854-0.42063-2.5271-0.78931-2.6671-0.54674-0.0687,0.11903,0.0957,0.24908,0.3654,0.28902,1.0092,0.14944,2.1179,0.67771,1.9679,0.93762-0.0819,0.14188-0.39887,0.11365-0.70436-0.0627-0.88153-0.50895-2.0316-0.60778-2.0994-0.18039-0.0331,0.20908-0.25058,0.43192-0.48312,0.49524-0.32425,0.0883-0.30931,0.13339,0.0641,0.19359,0.34308,0.0553,0.42211,0.19077,0.26752,0.45853-0.12068,0.20902-0.28543,0.25733-0.36613,0.10735-0.0807-0.14997-0.20948-0.16397-0.28619-0.0311-0.0767,0.13287-0.28986,0.15475-0.47366,0.0486-0.62952-0.36345-2.9419-0.71743-3.3072-0.50628-0.20078,0.11605-0.51998,0.12156-0.70934,0.0122-0.18937-0.10933-0.34012-0.0595-0.33502,0.11073,0.005,0.17023-0.13902,0.22388-0.32027,0.11923-0.51672-0.29832-1.7713-0.28508-1.8336,0.0194-0.0309,0.15117-0.44386,0.21122-0.91762,0.13347-0.48168-0.0791-0.85708,0.002-0.85162,0.18434,0.006,0.18406-0.17773,0.21746-0.42137,0.0768-0.23713-0.1369-0.6993-0.0616-1.027,0.16741-0.32775,0.22898-0.86284,0.60291-1.1891,0.83096-0.48826,0.34129-0.59869,0.60033-0.62427,1.4645-0.0171,0.57741,0.068,1.1206,0.1891,1.2072,0.1211,0.0865,0.54857,0.36755,0.94993,0.62448,0.40136,0.25694,0.7481,0.68305,0.77053,0.94692,0.0309,0.36377,0.10645,0.29708,0.31242-0.27584,0.14941-0.41559,0.25337-0.59508,0.23094-0.39894-0.0587,0.51569,0.33994,0.6634,0.59555,0.22067,0.19338-0.33495,0.24344-0.29841,0.44397,0.32411,0.22472,0.6976,0.22732,0.69719,0.45223-0.072,0.21849-0.74721,0.23353-0.75174,0.44095-0.13273,0.22438,0.66959,0.66231,0.79129,1.2182,0.33854,0.27305-0.22238,0.29467-0.20264,0.12942,0.11822-0.24727,0.48013,0.25762,1.1758,0.52156,0.71862,0.43271-0.74948,0.30415-1.8149-0.29202-2.4202-0.71306-0.72398-2.5203-1.4285-3.819-1.4887-0.93712-0.0435-1.6532-0.3416-1.479-0.6158,0.14246-0.22424,1.314-0.71228,1.1887-0.49517-0.0542,0.0938,0.19915,0.14452,0.56295,0.11263,0.36379-0.0319,0.84003,0.11848,1.0583,0.33414,0.3385,0.33445,0.42299,0.30001,0.57455-0.23416,0.0977-0.34445,0.16253-0.46394,0.14402-0.26553-0.052,0.55673,0.42143,0.69287,0.52481,0.15093,0.0871-0.45663,0.0953-0.45191,0.17182,0.0992,0.0442,0.31826,0.20994,0.65346,0.36829,0.74489,0.23007,0.13283,0.27056,0.0645,0.2015-0.33989-0.0623-0.36503-0.013-0.46372,0.17697-0.35404,0.14487,0.0836,0.21911,0.43445,0.16498,0.77958-0.0874,0.55755-0.0547,0.59339,0.29338,0.32145,0.48936-0.38229,0.97733-0.14741,0.49886,0.24013-0.22445,0.1818-0.22649,0.40398-0.006,0.62213,0.18889,0.18664,0.38181,0.8357,0.42869,1.4424,0.0821,1.0618,0.11328,1.1014,0.83554,1.0606,0.72337-0.0409,0.73459-0.0262,0.31266,0.40937-0.24068,0.24847-0.47811,0.76732-0.52761,1.153-0.0773,0.60239-0.0395,0.56961,0.26815-0.23252,0.45828-1.1948,0.92835-0.99449,0.5032,0.21449-0.44754,1.2727,0.0416,1.3701,0.52524,0.1046,0.4683-1.2254,0.86098-0.92073,0.4563,0.354-0.18459,0.58146-0.15151,0.74685,0.12016,0.60068,0.21357-0.11491,0.33511-0.35007,0.28247-0.54653-0.13742-0.51336,0.0722-0.7365,0.47409-0.50449,0.21343,0.12323,0.22807,0.27395,0.0366,0.37697-0.21905,0.11786-0.16262,0.19644,0.18006,0.25075,0.32256,0.0511,0.52498,0.28418,0.57226,0.65889,0.0698,0.55335,0.0843,0.56132,0.31667,0.17478,0.13393-0.22276,0.36279-0.31529,0.50858-0.20564,0.44048,0.33129,1.4736,0.47682,1.6173,0.22782,0.0741-0.12836,0.031-0.46824-0.0957-0.75529-0.12676-0.28704-0.11699-0.5523,0.0217-0.58947,0.13868-0.0372,0.32239,0.19459,0.40825,0.51499,0.3071,1.1461,0.85597,0.69334,0.68435-0.56452-0.0316-0.23137,0.0656-0.44898,0.21598-0.48359,0.15036-0.0346,0.24513,0.0918,0.21059,0.28101-0.0345,0.18916,0.0518,0.41011,0.19194,0.491,0.177,0.10219,0.21942,0.0153,0.13904-0.28471-0.0636-0.23747-0.0366-0.56883,0.0602-0.73634,0.13503-0.23388,0.249-0.18677,0.49109,0.20299,0.24611,0.39623,0.35607,0.43688,0.50132,0.1853,0.10233-0.17724,0.10586-0.53894,0.008-0.80378-0.098-0.26484-0.0783-0.64662,0.0437-0.8484,0.16877-0.27899,0.25742-0.16424,0.37006,0.479l0.14812,0.84589,0.30741-0.88704c0.27403-0.79073,0.31724-0.82357,0.39797-0.30249,0.0498,0.3215,0.13912,0.61258,0.19847,0.64685,0.22828,0.13179,0.57544-0.76025,0.52892-1.3591-0.0268-0.34546,0.0144-0.73226,0.0916-0.85956,0.21204-0.34956,0.4017,1.3745,0.19254,1.7503-0.0998,0.17934-0.0949,0.30288,0.0109,0.27453,0.10581-0.0284,0.34349-0.5356,0.52817-1.1272,0.28446-0.91123,0.36127-1.0068,0.5025-0.62523,0.13324,0.36001,0.21754,0.3624,0.41989,0.0119,0.13926-0.24119,0.20185-0.63013,0.1391-0.86431-0.0627-0.23418,0.005-0.45778,0.15135-0.4969,0.14599-0.0391,0.28204,0.13982,0.30235,0.39761,0.0277,0.3512,0.0765,0.31245,0.19473-0.15452,0.13732-0.54235,0.20856-0.56765,0.54882-0.1949,0.3965,0.43436,0.78319,0.20354,0.5099-0.30438-0.17769-0.33025,0.15589-0.97451,0.42433-0.81953,0.10533,0.0608,0.15865,0.45145,0.1185,0.86809-0.0401,0.41664,0.0184,0.73303,0.13013,0.7031,0.11173-0.0299,0.17424-0.38415,0.13892-0.78715-0.0894-1.0206,0.13788-1.2933,0.39992-0.47978,0.34482,1.0704,0.66179,0.68177,0.4958-0.6079-0.14095-1.0951,0.12877-1.4504,0.38242-0.5038,0.1973,0.73632,0.54559,0.3496,0.4948-0.54938-0.0485-0.85919-0.0482-0.85952,0.30017-0.2986,0.19182,0.30883,0.28171,0.67766,0.19975,0.81962-0.082,0.14196-0.0708,0.23715,0.0247,0.21155,0.0956-0.0256,0.26871-0.42749,0.38476-0.89307,0.29359-1.1777,0.66192-0.85904,0.49633,0.42944-0.0731,0.56895-0.031,1.0072,0.0935,0.97377,0.12455-0.0334,0.18693-0.2921,0.13864-0.57495-0.0483-0.28284-0.0226-0.47663,0.057-0.43064,0.0797,0.046,0.12282-0.47384,0.0959-1.1552-0.0621-1.5704,0.0633-1.7896,0.39486-0.69052,0.31144,1.0323,0.58457,0.73698,0.41409-0.44773-0.12815-0.89062-1.1149-2.6201-1.7663-3.0959-1.192-0.87063-4.5138-2.6113-5.0574-2.6501-0.3484-0.0249-1.6963-0.45178-2.9953-0.94867-1.299-0.49688-2.4608-0.81567-2.5818-0.70841-0.12095,0.10725-0.32835,0.1324-0.46089,0.0559s-1.2762-0.12092-2.5415-0.0987c-1.2653,0.0223-2.3708-0.00011-2.4567-0.0497-0.0859-0.0496-0.47438-0.0169-0.86324,0.0727-0.38887,0.0896-0.97022,0.10506-1.2919,0.0344-0.45993-0.10105-0.51154-0.18787-0.24166-0.40647,0.18875-0.15288,0.47361-0.20267,0.63302-0.11064,0.1594,0.092,0.5146,0.0842,0.78932-0.0175,0.27472-0.10167,1.2749-0.13592,2.2226-0.0761,0.94771,0.0598,1.971,0.0424,2.2739-0.0388,0.52187-0.13984,0.9108-0.0649,1.2871,0.24808,0.0921,0.0766,0.55105,0.0841,1.0199,0.0166,0.46888-0.0675,1.0476-0.0101,1.286,0.1276,0.23842,0.13765,0.74794,0.2325,1.1323,0.21079,0.9086-0.0513,6.8274,2.8697,8.4202,4.1555,0.98099,0.7919,1.2124,1.1655,1.5337,2.476,0.35425,1.4448,0.32968,1.6305-0.3849,2.9095-0.41981,0.75137-1.0367,1.6302-1.3709,1.9529-0.4901,0.47324-0.5678,0.71039-0.40171,1.226,0.1603,0.49762,0.3111,0.6213,0.68061,0.55821,0.67281-0.11489,1.3535,0.81344,2.0216,2.7572,0.17167,0.49943,0.23322,1.0447,0.13678,1.2118-0.0973,0.16852-0.3216-0.20517-0.50387-0.83939-0.31253-1.0875-1.0148-2.1904-1.6056-2.5214-0.16165-0.0906-0.18451,0.0147-0.0562,0.25901,0.17207,0.32778,0.1251,0.43594-0.2307,0.53128-0.33915,0.0909-0.40869,0.0538-0.28871-0.15403,0.0869-0.15055,0.0554-0.333-0.0701-0.40543-0.12546-0.0724-0.32334,0.0333-0.43975,0.23487-0.13794,0.23893-0.30843,0.24707-0.48961,0.0234-0.21339-0.26346-0.30544-0.21816-0.3962,0.19493-0.0853,0.38813-0.22242,0.47797-0.49206,0.32229-0.42245-0.2439-1.3298-0.0651-1.543,0.30404-0.0776,0.13442-0.23647,0.18935-0.35302,0.12206-0.11655-0.0673-1.162,0.38421-2.3232,1.0033-1.1612,0.61913-2.9233,1.4023-3.9158,1.7404-0.99252,0.33811-1.8581,0.70748-1.9236,0.82082-0.0654,0.11335-0.18945,0.0751-0.27557-0.085-0.0867-0.16105-0.34095-0.10444-0.56937,0.12675-0.24668,0.24966-0.50985,0.29794-0.654,0.11997-0.15032-0.18559-0.41895-0.11431-0.71295,0.18918-0.44042,0.45464-0.47663,0.44817-0.54542-0.0975-0.0405-0.32148-0.14679-0.46541-0.23615-0.31985-0.0894,0.14556-0.37932,0.32276-0.64436,0.39378-0.26504,0.071-0.73729,0.3556-1.0495,0.63241-0.31216,0.27681-0.6554,0.41836-0.76275,0.31456-0.27292-0.26389,0.2923-0.92536,0.93873-1.0986,0.29663-0.0795,0.62609-0.29477,0.73211-0.47841,0.15197-0.26321,0.0663-0.33797-0.40441-0.35314-0.32845-0.0106-0.66071,0.0908-0.73834,0.22526-0.0776,0.13447-0.27115,0.084-0.43003-0.11215-0.15887-0.19615-0.49072-0.32217-0.73744-0.28004-0.24671,0.0421-0.52037-0.0569-0.60814-0.21998-0.0878-0.16311-0.38067-0.25881-0.6509-0.21267-0.27024,0.0462-0.45309,0.0176-0.40633-0.0633,0.0468-0.081-0.26123-0.12768-0.68442-0.10378s-0.8214,0.002-0.88492-0.0477c-0.66166-0.52223-1.2862-0.69732-1.4536-0.40748-0.10975,0.19009-0.40031,0.2251-0.65377,0.0788-0.2581-0.14902-0.54402-0.11133-0.65841,0.0868-0.15908,0.27554-0.0791,0.35416,0.37538,0.36879,0.31766,0.0102,0.80315,0.14886,1.0789,0.30805,0.75781,0.43752,1.5139,2.0438,1.3057,2.7741-0.11216,0.39347-0.0397,0.66986,0.18499,0.70547,0.24796,0.0393,0.25314,0.15272,0.0158,0.345-0.23555,0.19079-0.23273,0.28282,0.008,0.27559,0.22144-0.007,0.27637,0.13763,0.14142,0.37137-0.1518,0.26292-0.0653,0.42487,0.27704,0.51882,0.33756,0.0926,0.49036,0.36518,0.47484,0.84697-0.0126,0.39071,0.0563,0.75612,0.15315,0.81202,0.0968,0.0559,0.19176-0.26567,0.21098-0.71459,0.0192-0.44893,0.12732-0.9682,0.24022-1.1539,0.11289-0.18574,0.19425,0.062,0.18078,0.55059-0.0273,0.99097,0.13289,1.7595,0.39883,1.9131,0.0968,0.0559,0.12391-0.0927,0.0603-0.33017-0.13725-0.51224,0.13757-1.0763,0.43946-0.90204,0.11701,0.0675,0.15935,0.36587,0.0941,0.66293-0.0653,0.29706,0.027,0.77456,0.20494,1.0611,0.18088,0.29122,0.31958,0.38714,0.3145,0.21749-0.005-0.18043,0.56286-0.0262,1.4012,0.38018,1.2165,0.58971,1.5836,0.63992,2.6709,0.36523,0.69328-0.17515,1.3635-0.49425,1.4893-0.7091,0.14843-0.25339,0.32234-0.2751,0.49513-0.0618,0.19815,0.24464,0.36361,0.16248,0.64612-0.32084,0.26805-0.45859,0.38494-0.52341,0.39737-0.22037,0.0177,0.4309,0.60594,0.58172,0.82036,0.21033,0.063-0.10909,0.0467-0.45155-0.0362-0.76101s-0.0104-0.63816,0.1611-0.73046c0.2087-0.11228,0.35352,0.0963,0.43777,0.6306l0.1259,0.7984,0.39103-0.99083c0.36363-0.9214,0.39746-0.94575,0.48271-0.34752,0.0907,0.63682,0.0945,0.639,0.37358,0.21569,0.15505-0.23519,0.36737-0.6178,0.4718-0.85025,0.27378-0.60942,0.43221-0.40622,0.43126,0.55313-0.00081,0.81885,0.0127,0.80714,0.66211-0.57274,0.61475-1.3063,0.66734-1.3586,0.72327-0.72033,0.0332,0.37859-0.0423,0.90164-0.16771,1.1623-0.12542,0.26069-0.14723,0.52064-0.0485,0.57766,0.29025,0.16758,0.75579-0.86897,0.75931-1.6906,0.002-0.41717,0.12155-0.96392,0.26615-1.215,0.2468-0.42852,0.27135-0.40762,0.40062,0.34103,0.0757,0.43865,0.0208,1-0.12206,1.2475-0.151,0.26154-0.11607,0.47678,0.0834,0.514,0.37039,0.0691,0.40577,0.004,1.0232-1.8855,0.46423-1.4207,0.85839-1.8059,0.49143-0.48023-0.25163,0.90902,0.0525,1.627,0.41972,0.99094,0.11829-0.20488,0.23388-0.77816,0.25688-1.274,0.023-0.4958,0.13079-0.92531,0.23955-0.95445,0.34133-0.0915,0.57154,0.90544,0.31264,1.3539-0.136,0.23556-0.13297,0.49428,0.007,0.57494,0.24717,0.1427,0.5203-0.42352,0.91805-1.9032,0.15932-0.59268,0.18638-0.60134,0.27185-0.087,0.0888,0.53423,0.13646,0.55661,0.7357,0.34524,0.78931-0.27841,0.91909-0.48559,0.69069-1.1027-0.098-0.26484-0.11702-0.58751-0.0422-0.71706,0.0748-0.12954,0.24451,0.0879,0.37714,0.48309,0.23843,0.71055,0.24293,0.7124,0.39982,0.16446,0.12688-0.4431,0.23139-0.48232,0.52147-0.19571,0.42946,0.42431,0.78546-0.0168,0.39882-0.49416-0.33887-0.41837-0.13489-0.79616,0.29565-0.54759,0.46838,0.27042,0.20003,1.1869-0.85082,2.9057-0.90147,1.4745-0.90727,1.5076-0.35309,2.0134,0.96425,0.8801,1.6005,4.1302,0.70759,3.6146-0.12547-0.0724-0.17089-0.23081-0.10096-0.35195,0.0699-0.12113,0.003-0.70753-0.14984-1.3031-0.3953-1.5453-1.2457-1.9646-2.6053-1.2845-2.3887,1.1949-4.6281,2.0077-8.8123,3.1982-2.4261,0.6903-4.4559,1.3319-4.5106,1.4258-0.0548,0.094-0.20212,0.1114-0.32758,0.039-0.12547-0.072-0.16535-0.24047-0.0886-0.37327,0.0767-0.1329-0.002-0.2374-0.17508-0.2322-0.17301,0-0.31039,0.1485-0.3053,0.3184,0.005,0.16987-0.23892,0.24087-0.54225,0.15757-0.30334-0.083-0.62796-0.019-0.72138,0.1429-0.10502,0.1819-0.31772,0.1481-0.5572-0.089-0.28262-0.27927-0.45815-0.27007-0.64921,0.034-0.2428,0.3862-0.25696,0.375-0.19451-0.1529,0.0621-0.5248,0.0391-0.52618-0.29396-0.018-0.28228,0.4311-0.34589,0.4467-0.29077,0.071,0.0478-0.32566-0.0685-0.47616-0.36137-0.46736-0.23754,0.01-0.44166,0.1922-0.45358,0.41126-0.0629,1.156-0.00095,1.8169,0.17971,1.9172,0.16877,0.094-0.73951,1.6632-1.0035,1.7339-0.047,0.013-0.3315-0.073-0.63222-0.1905-0.30072-0.1174-0.73887-0.162-0.97366-0.099s-0.65693-0.018-0.93809-0.1808c-0.68448-0.3952-1.1981-0.09-0.54054,0.3209,0.28381,0.1775,0.78401,0.5049,1.1116,0.7276,0.33334,0.2266,0.72594,0.2992,0.89171,0.165,0.18411-0.1491,0.43708-0.086,0.66855,0.168,0.28606,0.3134,0.38839,0.3068,0.4415-0.028,0.0829-0.5229,0.43352-0.3758,0.60817,0.2552,0.10104,0.365,0.17013,0.302,0.35732-0.3259l0.23207-0.7785,0.23892,1.0082c0.1314,0.5545,0.35112,0.9781,0.48827,0.9414,0.13716-0.037,0.15591-0.2807,0.0417-0.5421-0.11424-0.2614-0.1929-0.8089-0.1748-1.2166l0.0329-0.7414,0.26259,0.836c0.2594,0.8258,0.7093,1.3113,0.90348,0.9749,0.055-0.095-0.039-0.4345-0.20891-0.7538-0.20913-0.3931-0.19087-0.6123,0.0566-0.6786,0.24741-0.066,0.45182,0.2563,0.63279,0.9986,0.14703,0.6031,0.39468,1.1701,0.55032,1.2599,0.15565,0.09,0.0874-0.588-0.15171-1.5063-0.29382-1.1286-0.32271-1.86-0.0892-2.2566l0.34554-0.5868,0.11813,0.8286c0.065,0.4557,0.0744,1.0428,0.0209,1.3047-0.0535,0.2618,0.0498,0.561,0.22952,0.6647,0.17974,0.1038,0.2379,0.3427,0.12924,0.5309-0.10865,0.1882-0.0436,0.431,0.14462,0.5397,0.18819,0.1086,0.43106,0.044,0.53972-0.1446,0.10865-0.1882,0.35152-0.2533,0.53971-0.1446,0.18819,0.1086,0.25327,0.3515,0.14462,0.5397-0.20503,0.3551,0.008,0.6084,0.41939,0.4982,0.13021-0.035,0.19869-0.2918,0.15218-0.5709-0.073-0.4381-0.009-0.4345,0.46809,0.026,0.49305,0.476,0.56571,0.4741,0.67358-0.017,0.0952-0.4326,0.22182-0.4921,0.59262-0.278,0.26712,0.1542,0.55725,0.1239,0.66915-0.07,0.10865-0.1882,0.3002-0.2829,0.42566-0.2105,0.12546,0.072,0.16534,0.2404,0.0886,0.3733-0.0767,0.1329-0.0133,0.2378,0.14098,0.2332,0.15425,0,0.3496-0.2604,0.43412-0.5684,0.11145-0.4062,0.2231-0.4774,0.40638-0.2594,0.13899,0.1654,0.16037,0.4014,0.0475,0.5244-0.11285,0.1231-0.0886,0.291,0.0539,0.3733,0.17561,0.1014,0.41808-0.2242,0.75241-1.0103,0.34996-0.8229,0.46762-0.9759,0.40495-0.5265-0.095,0.6809,0.2744,1.0925,0.55082,0.6138,0.0925-0.1603,0.14017-0.6118,0.10585-1.0034-0.049-0.5595,0.003-0.6743,0.24269-0.5359,0.1678,0.097,0.25552,0.5923,0.19493,1.101l-0.11016,0.9249,0.5357-0.7179c0.29464-0.3948,0.48917-0.8915,0.43227-1.1039-0.12628-0.4712,0.16135-1.0239,0.44704-0.8589,0.11444,0.066,0.0406,0.5701-0.16409,1.1202s-0.31188,1.1122-0.23821,1.2491c0.16993,0.3158,0.94863-1.0115,0.98227-1.6743,0.0139-0.2737,0.12859-0.8464,0.25487-1.2726l0.22961-0.7749,0.12133,0.8432c0.0667,0.4637,0.0276,1.2601-0.0869,1.7697-0.18628,0.8288-0.13486,0.7737,0.48721-0.5219,0.3825-0.7967,0.7473-1.681,0.81067-1.9652,0.0726-0.3255,0.12284-0.231,0.1358,0.2556,0.0113,0.4248-0.0795,0.954-0.2018,1.1762-0.46609,0.8464,0.25929,0.6231,0.75285-0.2318,0.28547-0.4944,0.45301-1.0217,0.37232-1.1716-0.18141-0.3372,0.0287-0.7438,0.30264-0.5857,0.11083,0.064,0.14702,0.3929,0.0804,0.7308-0.10931,0.5547-0.0694,0.5463,0.41058-0.087,0.29241-0.3858,0.49383-0.9229,0.4476-1.1936-0.0462-0.27075,0.0175-0.51945,0.1416-0.55265,0.12412-0.033,0.17317,0.3553,0.10902,0.86345-0.11112,0.8803-0.0958,0.9028,0.32462,0.4774,0.24269-0.2457,0.40981-0.6308,0.37137-0.8559-0.0471-0.27605,0.0364-0.41245,0.25683-0.41905,0.1797,0,0.29135,0.1495,0.24812,0.34425-0.23096,1.0404-0.21515,1.1212,0.11507,0.5873,0.45137-0.72965,0.7579-2.2691,0.4834-2.4276-0.11319-0.0653-0.14653-0.22146-0.0741-0.34692,0.0724-0.12546,0.23179-0.17033,0.35411-0.0997,0.28067,0.16204,0.0636,2.537-0.28744,3.145-0.14457,0.2504-0.19683,0.578-0.11614,0.728,0.22734,0.4225,0.0281,0.6011-1.2619,1.1305-0.65833,0.2702-1.4664,0.6031-1.7957,0.7397-0.32932,0.1367-0.66364,0.3543-0.74294,0.4835-0.0793,0.1293-0.68208,0.4622-1.3395,0.7397-1.501,0.6337-1.6187,0.8454-0.93425,1.681,0.33812,0.4128,0.43128,0.738,0.24078,0.8405-0.22375,0.1204-0.34005,0.058-0.41553-0.224-0.13887-0.5182-1.569-1.332-1.7599-1.0014-0.16703,0.2893-1.6306,0.6721-2.4668,0.6451-0.29919-0.01-1.2142,0.1012-2.0334,0.2463-0.81915,0.1451-2.0301,0.2073-2.6909,0.1383-0.66987-0.07-1.3924,0.049-1.6327,0.268-0.33917,0.3096-0.4349,0.3017-0.44879-0.037-0.014-0.3414-0.0661-0.3483-0.25162-0.033-0.27013,0.4586-0.66707,0.3267-0.62061-0.2062,0.0253-0.2896-0.028-0.3203-0.26613-0.1536-0.16373,0.1145-0.64841,0.01-1.0771-0.2417-0.71762-0.4143-0.81138-0.3946-1.1831,0.2493-0.22206,0.3847-0.41245,0.9933-0.42308,1.3526-0.0295,0.9971-1.1801,2.9457-1.8102,3.0656-0.46658,0.089-0.47041,0.113-0.0331,0.209,0.27195,0.06,0.59562,0.167,0.71928,0.2384,0.12365,0.071,0.27803-0.1124,0.34305-0.4083,0.0896-0.408,0.18358-0.4575,0.38839-0.2046,0.22794,0.2814,0.3047,0.195,0.49111-0.5528,0.28493-1.143,0.28834-1.1469,0.50187-0.5699,0.23667,0.6394,0.65193,0.5216,0.53684-0.1524-0.0491-0.2873,0.0281-0.5539,0.17139-0.5923,0.23744-0.064,0.41282,0.6269,0.41226,1.6232-0.00026,0.4538,1.4698,1.734,1.6443,1.4318,0.0647-0.1121-0.0542-0.4382-0.26421-0.7246-0.21005-0.2864-0.29343-0.7434-0.18528-1.0155,0.1798-0.4524,0.19813-0.4483,0.21402,0.048,0.01,0.2983,0.17881,0.6355,0.37613,0.7494,0.29304,0.1692,0.34293,0.1145,0.27234-0.2989-0.0704-0.4126-0.0215-0.4687,0.26466-0.3035,0.1931,0.1115,0.33689,0.3656,0.31953,0.5647-0.0252,0.2896,0.028,0.3203,0.26613,0.1537,0.16373-0.1146,0.39735-0.1508,0.51916-0.08,0.12181,0.07,0.72691,0.01,1.3447-0.1341,1.12-0.2611,1.1228-0.2602,0.97611,0.3355-0.13187,0.5355-0.10581,0.5313,0.25192-0.041,0.29103-0.4658,0.4698-0.5512,0.66066-0.3156,0.14392,0.1777,0.44842,0.2119,0.67666,0.076,0.27778-0.1653,0.59028-0.096,0.94513,0.2109,0.46983,0.4059,0.59702,0.38,1.118-0.2272,0.75002-0.8743,1.2415-0.9024,0.79374-0.045-0.18862,0.361-0.39954,0.7263-0.46872,0.8118-0.0692,0.086-0.0351,0.2079,0.0757,0.2718,0.22717,0.1312,0.85249-0.368,1.7688-1.4119l0.62009-0.7066-0.47091,0.8904c-0.41859,0.7915-0.41094,0.8744,0.0688,0.7458,0.33628-0.09,0.80991-0.5986,1.2566-1.3492,0.52402-0.8806,0.69861-1.0515,0.64903-0.6355-0.0831,0.6967-0.99893,1.857-1.9619,2.4853-0.56316,0.3675-0.72242,0.373-0.74581,0.026-0.0195-0.2899-0.14935-0.1162-0.37796,0.5056-0.28403,0.7726-0.55534,1.0506-1.4717,1.5075-1.0504,0.5238-2.0754,0.479-1.5528-0.068,0.12878-0.1347,0.14605-0.1923,0.0384-0.128-0.10766,0.064-0.25613,0-0.32993-0.1324-0.0738-0.1372-0.18954-0.1535-0.25719-0.036-0.0677,0.1172-0.50263,0.1001-0.9666-0.038-0.76179-0.2266-0.7968-0.2112-0.36112,0.1594,0.26536,0.2257,0.65811,0.3634,0.87275,0.3058,0.59478-0.1593,0.78378,0.057,0.49185,0.5624-0.14633,0.2535-0.41547,0.3684-0.60556,0.2587-0.18819-0.1087-0.43107-0.044-0.53972,0.1446-0.10865,0.1882-0.30626,0.2794-0.43912,0.2027-0.13287-0.077-0.11887-0.2055,0.0311-0.2862,0.14997-0.081,0.15284-0.2159,0.006-0.3005-0.16123-0.093-0.33374,0.077-0.43725,0.4319-0.21746,0.745-0.93341,1.0517-1.8444,0.7901-0.41929-0.1204-1.0196-0.01-1.4581,0.273-0.81439,0.522-1.2411,0.4457-1.1382-0.2035,0.0363-0.229-0.0587-0.4127-0.21108-0.4081-0.15239,0-0.14834-0.2334,0.009-0.5288,0.15735-0.2954,0.1699-0.4473,0.0279-0.3374-0.19158,0.1481-0.50511-0.045-1.2151-0.7499-0.57704-0.5726-1.0581-0.895-1.2119-0.8122-0.14027,0.076-0.36484,0.049-0.49904-0.059-0.13419-0.1079-0.56812-0.2274-0.96428-0.2656-0.64173-0.062-0.61446-0.029,0.25005,0.3015,0.69361,0.2652,0.8818,0.4187,0.6599,0.5381-0.1814,0.098-0.16261,0.2523,0.0452,0.3723,0.70028,0.4043-0.0154,0.8639-0.81726,0.5247-0.73696-0.3117-0.73009-0.295,0.0949,0.2308,0.6639,0.4231,0.77025,0.5728,0.41952,0.5904-0.40152,0.02-0.41208,0.058-0.0727,0.2575,0.21851,0.1286,0.33419,0.3431,0.2572,0.4764-0.077,0.1334-0.30906,0.1205-0.51572-0.029-0.70964-0.5119-1.2047-0.6791-1.3362-0.4513-0.0724,0.1254,0.19503,0.4326,0.59438,0.6826,0.42399,0.2653,0.52373,0.3981,0.23973,0.319-0.38766-0.108-0.5393,0.021-0.74727,0.6358-0.14351,0.4242-0.31092,0.8579-0.37203,0.9637-0.0611,0.1059,0.10359,0.2355,0.36599,0.288,0.2624,0.053-0.12658,0.2314-0.86437,0.3975-0.92656,0.2085-1.5859,0.5671-2.1316,1.1593-0.43459,0.4716-1.0491,0.9408-1.3656,1.0428-0.31649,0.1019-0.57128,0.3238-0.5662,0.493,0.008,0.2791-1.1839,0.9895-2.7442,1.6352-0.47908,0.1982-0.55794,0.1762-0.39284-0.1098,0.11362-0.1968,0.58742-0.5102,1.0529-0.6965,0.61371-0.2456,1.1276-0.7543,1.8698-1.8509,0.73062-1.0794,1.1127-1.4607,1.335-1.3323,0.2128,0.1229,0.49214-0.1255,0.88153-0.7837l0.57001-0.9635-0.0709,0.8715-0.0709,0.8715,0.3928-0.9898c0.21604-0.5444,0.3589-1.1394,0.31747-1.3223-0.10988-0.4849,0.12137-0.776,0.38252-0.4815,0.12385,0.1397,0.14419,0.5392,0.0452,0.8879-0.1473,0.5188-0.0626,0.4721,0.46631-0.2571,0.60801-0.8383,0.61141-0.9084,0.0574-1.1835-0.37146-0.1844-0.52639-0.4248-0.41961-0.6509,0.34213-0.7244,0.31849-0.7949-0.23709-0.7064-0.32285,0.051-0.43026,0.014-0.24962-0.086,0.1744-0.097,0.24261-0.3145,0.15158-0.4837-0.091-0.1692-0.32089-0.224-0.5108-0.1218-0.24086,0.1296-0.36956-0.2107-0.42536-1.1253-0.044-0.721-0.13005-1.2976-0.19112-1.2812-0.0611,0.016-0.20099,0.52-0.31092,1.1193-0.10994,0.5992-0.34674,1.3469-0.52624,1.6615-0.29397,0.5151-0.32939,0.4494-0.35688-0.6623-0.0483-1.9512-0.11771-2.3491-0.44285-2.5368-0.16757-0.097-0.41481-0.6766-0.54944-1.2885-0.23736-1.079-0.81523-1.5036-0.63862-0.4693,0.0725,0.4248,0.0234,0.4771-0.28228,0.3006-0.20766-0.1199-0.26344-0.3984-0.12711-0.6345,0.13365-0.2315,0.14496-0.7252,0.0251-1.0972-0.2562-0.7953-0.0815-1.2518,0.29927-0.7817,0.34834,0.43,0.3795,0.3401,0.20149-0.5812l-0.14801-0.7661-0.44876,0.9725c-0.41955,0.9093-0.46708,0.9381-0.73025,0.4435-0.32589-0.6125-0.24858-0.858,0.24817-0.788,0.21002,0.03,0.19503-0.05-0.0372-0.1989-0.48234-0.3083-0.3204-0.6249,0.42121-0.8236,0.5014-0.1344,0.52587-0.1744,0.21615-0.3532-0.22614-0.1305-0.22569-0.4251,0.001-0.8356,0.19281-0.3487,0.55494-1.0635,0.80472-1.5884s0.66872-1.3666,0.93099-1.8704c0.55357-1.0633,0.27713-1.1418-0.36268-0.103-0.23853,0.3873-0.56241,0.708-0.71975,0.7127-0.16542,0,0.0494-0.5149,0.50949-1.2329,0.43756-0.68277,0.76598-1.3518,0.72984-1.4867-0.0971-0.36234-2.0379,3.1671-2.6217,4.7676-0.27721,0.76-0.64259,1.7124-0.81195,2.1164-0.42063,1.0036-0.67825,2.6615-0.52942,3.4072,0.0828,0.4148-0.0236,0.7305-0.32524,0.9658-0.24653,0.1922-0.8509,1.0066-1.343,1.8098-1.502,2.4512-2.0656,2.6473-0.65748,0.2287,1.0942-1.8794,1.6967-3.4224,1.9382-4.9639,0.036-0.2301,0.11421-0.5271,0.17367-0.6601,0.0595-0.133,0.11501-0.5799,0.12343-0.9933,0.009-0.4382,0.53449-1.7515,1.2606-3.15,0.68493-1.3192,1.1681-2.4431,1.0737-2.4976-0.42404-0.2448-2.034,2.0924-2.0708,3.0064-0.0111,0.2753-0.2048,0.992-0.43044,1.5927-0.32489,0.8648-0.46243,1.0336-0.66108,0.8111-0.13795-0.1546-0.15119-0.5319-0.0294-0.8384,0.20401-0.5137,0.18076-0.5395-0.29587-0.3291-0.36177,0.1598-0.52048,0.1213-0.52795-0.128-0.006-0.196,0.098-0.2936,0.23087-0.2169,0.13287,0.077,0.37319-0.092,0.53406-0.376,0.2582-0.455,0.1816-0.458-0.65369-0.025-0.5204,0.2695-0.91574,0.3413-0.87855,0.1595,0.0372-0.1817,0.33745-0.4174,0.66724-0.5236,0.66404-0.2139,0.70716-0.5895,0.0791-0.6891-0.24819-0.039,0.23768-0.4533,1.2558-1.07,0.91335-0.5532,1.8266-1.3093,2.0294-1.6801,0.3568-0.65254,0.35113-0.66237-0.17513-0.30401-0.29912,0.20371-0.63082,0.32011-0.7371,0.25881-0.25318-0.14622-0.0689-0.45089,0.34767-0.5749,0.4796-0.14276,2.6788-3.279,2.2912-3.2674-0.17008,0.005-0.64612,0.43236-1.0579,0.94946-0.41174,0.5171-0.83417,0.8908-0.93873,0.83043-0.10456-0.0604,0.11514-0.44045,0.48825-0.84462,0.81848-0.88668,2.7234-3.9288,2.6445-4.2232-0.031-0.11557-0.57477,0.49604-1.2084,1.3591l-1.1522,1.5693,1.0841-2.2635c1.3528-2.8246,1.3684-2.8668,1.0548-2.8574-0.14187,0.004-0.63966,0.6689-1.1062,1.477-0.47772,0.82743-0.94792,1.4117-1.0764,1.3376-0.12546-0.0724,0.0599-0.63062,0.41201-1.2404,0.89607-1.552,1.6094-3.3713,1.375-3.5067-0.10841-0.0626-0.52306,0.45078-0.92145,1.1408-1.1256,1.9497-1.2494,1.2478-0.18001-1.0209,0.86396-1.8328,1.0246-2.6441,0.49551-2.5023-0.10243,0.0274-0.48288,0.43456-0.84546,0.90471-1.0788,1.3989-0.99415,0.51712,0.13875-1.4451,0.73315-1.2698,0.94998-1.8218,0.71292-1.8147-0.18738,0.006-0.44677,0.30875-0.57641,0.67364-0.12965,0.36488-0.57737,0.94521-0.99493,1.2896-0.73763,0.6084-0.73021,0.57378,0.26101-1.218,0.56111-1.0143,1.0505-2.1004,1.0876-2.4136,0.0768-0.64967-0.0723-0.51346-0.76384,0.69754-0.26887,0.47096-0.61642,0.86006-0.77222,0.86473-0.15579,0.005-0.43118,0.2647-0.61197,0.57783-0.4336,0.75103-2.3381,2.0978-2.8515,2.0165-0.22259-0.0353-0.47288,0.0539-0.5562,0.19825-0.19485,0.3375-2.72,0.39055-3.6225,0.0761-0.38079-0.13268-0.50138-0.21639-0.26799-0.18602,1.1493,0.14953,3.3309-0.0925,3.8142-0.42313,1.604-1.0972,2.6955-1.9774,3.2188-2.5958l0.58587-0.69227-0.73997,0.29915c-0.40699,0.16453-0.92664,0.46511-1.1548,0.66794-0.42619,0.37892-2.1475,1.0413-2.3709,0.91229-0.0688-0.0397-0.0361-0.22614,0.0725-0.41433,0.10865-0.18819,0.3002-0.2829,0.42566-0.21047,0.12546,0.0724,0.29304,0.0192,0.37241-0.11822,0.0794-0.13746,0.49343-0.41165,0.92016-0.6093,0.42674-0.19765,1.0016-0.57122,1.2774-0.83016l0.50156-0.47079-0.91789,0.20741c-0.50484,0.11407-0.85179,0.0929-0.77101-0.047,0.0808-0.13993,0.28844-0.25866,0.46144-0.26384,0.173-0.005,0.31064-0.14007,0.30585-0.29974-0.005-0.15967,0.18733-0.25923,0.42693-0.22126,0.2396,0.038,0.54782-0.12527,0.68494-0.36277,0.28555-0.49458,0.0779-0.6944-0.54744-0.52684-0.23747,0.0636-0.38639,0.0371-0.33092-0.059,0.12223-0.21171,1.1211-0.85461,1.4035-0.90335,0.11154-0.0192,0.62624-0.33798,1.1438-0.70829l0.94101-0.6733-0.88516,0.26196c-0.48683,0.14408-1.0168,0.37867-1.1776,0.52131-0.23674,0.20993-0.2791,0.17494-0.22226-0.18363,0.0398-0.25094,0.3788-0.53748,0.78201-0.66096,0.78918-0.24168,1.2052-0.76023,0.89261-1.1127-0.19075-0.21512,1.3423-1.3121,2.1757-1.5568,0.50579-0.14854,0.58308-0.43894,0.17892-0.67228-0.19994-0.11543-0.53574-0.0356-0.74622,0.17746-0.21049,0.21304-0.49987,0.3197-0.64306,0.23703-0.14319-0.0827-0.90919-0.17265-1.7022-0.19995-0.79302-0.0273-1.4588-0.1127-1.4794-0.18976-0.0206-0.0771,0.82268-0.2183,1.8741-0.31384,2.1646-0.1967,3.0925-0.59895,2.6478-1.1479-0.19459-0.24025-0.16181-0.38711,0.10875-0.48724,0.29216-0.10813,0.19387-0.22575-0.40012-0.47883l-0.78742-0.33548,0.83976-0.13751,0.83977-0.13751-0.51033-0.30139c-0.72107-0.42586-0.43188-0.72242,0.57518-0.58983,1.3276,0.17478,1.4588-0.10211,0.27541-0.58127-0.79034-0.32-0.94113-0.44331-0.58337-0.47705,0.26537-0.025,0.62534,0.0349,0.79992,0.13312,0.17453,0.0983,0.59269,0.0852,0.92913-0.0289,0.33645-0.11414,0.80525-0.18716,1.0418-0.16226s0.137-0.0397-0.22123-0.14362c-0.35822-0.10388-1.03-0.36264-1.4929-0.575-0.46287-0.21237-0.58088-0.30429-0.26224-0.20428,0.31864,0.10002,0.62757,0.0983,0.68652-0.004,0.0589-0.1021,0.34348-0.1208,0.63228-0.0416,0.28881,0.0793,0.62164-0.0231,0.73962-0.22745,0.17127-0.29665,0.0981-0.3753-0.36305-0.39015-0.70507-0.0227-1.3332-0.35939-1.1766-0.63063,0.0634-0.10977,0.45875-0.0834,0.87859,0.0586,0.98955,0.33475,1.4111-0.29272,0.54073-0.80487l-0.62431-0.36737,0.94828,0.0623c0.52156,0.0342,0.94423-0.0727,0.93929-0.23765-0.006-0.18825-0.15463-0.26089-0.40016-0.1951-0.21514,0.0576-0.52461,0.0278-0.6877-0.0664-0.53015-0.30608-0.0877-0.57202,0.83954-0.5046,0.52343,0.038,0.83862-0.0586,0.74688-0.22915-0.0873-0.16223-0.42139-0.30344-0.74245-0.31378-0.73449-0.0237-0.87735-0.1063-0.70369-0.40708,0.076-0.1316,0.69407-0.19466,1.3735-0.14014,0.85737,0.0688,1.0198,0.0293,0.53076-0.12912-0.81291-0.26332-0.71739-0.71673,0.17475-0.82947,0.53167-0.0672,0.53649-0.095,0.0651-0.37614-0.65174-0.38867-0.43539-0.79604,0.27349-0.51495,0.29561,0.11721,0.668,0.0966,0.82753-0.0458,0.22934-0.20469,0.10805-0.31679-0.57944-0.5355-1.3274-0.4223-1.3693-0.4459-1.3504-0.76065,0.01-0.16168,0.39355-0.11534,0.85299,0.10298,0.9467,0.44986,2.0999,0.57728,2.2873,0.25274,0.0773-0.13395-0.0338-0.19432-0.28944-0.15717-0.38933,0.0566-1.2616-0.31708-1.1582-0.49616,0.0259-0.0449,0.36011-0.0311,0.74261,0.0307,0.38251,0.0618,0.76253-0.004,0.84451-0.14573,0.082-0.14199-0.035-0.28733-0.26-0.32299-0.91864-0.14561-0.34458-0.62826,0.70004-0.58858l1.1261,0.0428-0.78838-0.47829c-0.83548-0.50685-0.84451-0.50022,0.87853-0.64539,0.52074-0.0439,0.49679-0.0892-0.21172-0.40105-0.43938-0.19337-0.80236-0.46764-0.80662-0.60949-0.004-0.14185,0.10097-0.19514,0.23384-0.11843,0.13286,0.0767,0.5654,0.0527,0.96119-0.0534,0.71962-0.19283,0.71962-0.19283-0.0788-0.65378-0.43912-0.25352-0.73913-0.56359-0.66669-0.68906,0.0724-0.12546,0.43965-0.0503,0.81603,0.16699,0.90949,0.5251,1.0793,0.14833,0.27081-0.60075-0.63581-0.58908-0.63546-0.59472,0.0279-0.44339,0.66219,0.15107,0.66253,0.14462,0.0237-0.44708-0.85076-0.78796-0.86906-1.3513-0.0216-0.66616,0.82947,0.67065,1.0873,0.26537,0.28165-0.44268-0.65766-0.57796-0.85267-1.2058-0.27005-0.86939,0.6332,0.36558,0.62903-0.21963-0.006-0.87994-0.55182-0.57354-0.55518-0.60991-0.0314-0.34066,0.5668,0.29137,0.57803,0.28173,0.33691-0.28914-0.13718-0.3248-0.50619-0.75244-0.82001-0.9503l-0.57057-0.35974,0.63146,0.16149c0.56349,0.14411,0.61114,0.10658,0.44269-0.34858-0.10383-0.28053-0.32159-0.50608-0.48392-0.50121-0.3726,0.0112-0.89873-0.62116-0.74229-0.89213,0.0647-0.11204,0.40499-0.0496,0.75624,0.13886l0.63862,0.34257-0.55202-0.62426c-0.30362-0.34335-0.72135-0.71928-0.92829-0.83542-0.25938-0.14557-0.26158-0.32723-0.007-0.58483,0.24615-0.24913,0.25263-0.44097,0.0194-0.57561-0.19236-0.11106-0.32874-0.31735-0.30306-0.45841,0.0272-0.14926-0.33065-0.37369-0.85595-0.53685-0.65369-0.20303-0.82669-0.17842-0.62724,0.0893,0.15148,0.20328,0.1725,0.86506,0.0467,1.4706-0.1258,0.60555-0.12241,1.2322,0.008,1.3927,0.17919,0.22123,0.12993,0.33102-0.20399,0.4546-0.3382,0.12517-0.3758,0.24249-0.16224,0.50616,0.22757,0.28096,0.18184,0.39483-0.2521,0.6277-0.42891,0.23016-0.48878,0.36373-0.31361,0.69967,0.19244,0.36908,0.17803,0.39404-0.1297,0.22465s-0.3237-0.14173-0.14374,0.24897c0.15235,0.33076,0.11536,0.42742-0.14948,0.3906-0.4101-0.057-0.82812,0.53791-0.50787,0.7228,0.11947,0.069-0.20782,0.2564-0.72731,0.4165-0.51948,0.1601-1.2402,0.48019-1.6015,0.71133-0.36134,0.23113-0.84971,0.38969-1.0853,0.35236-0.23556-0.0373-0.51904,0.0893-0.62996,0.28144-0.11093,0.19213-0.30434,0.29006-0.4298,0.21763-0.12546-0.0724-0.31701,0.0223-0.42566,0.21046-0.10865,0.18819-0.29248,0.28736-0.4085,0.22038-0.23534-0.13588-1.4483,2.085-1.3465,2.4652,0.14346,0.5354-0.42815,1.0725-0.86996,0.81738-0.29238-0.16881-0.61948-0.0879-0.92671,0.22928-0.57124,0.58969-0.49091,1.3836,0.17982,1.7773,0.26581,0.15603,0.57923,0.46649,0.69647,0.6899,0.34669,0.6606-0.69698,0.36766-1.1995-0.33668-0.53331-0.74754-0.58532-0.77163-0.81331-0.37674-0.11476,0.19879,0.0816,0.53231,0.49904,0.84774l0.68824,0.52003-0.73144-0.37362c-0.63246-0.32307-0.8583-0.27055-1.6687,0.38802-1.1024,0.8958-2.7194,3.5623-2.6891,4.4345,0.0115,0.33131-0.10323,0.63564-0.25492,0.67629-0.1517,0.0406-0.28412-0.13224-0.29428-0.38418-0.0134-0.3312-0.17397-0.21087-0.57984,0.43441-0.35675,0.56719-0.48553,0.67533-0.35332,0.2967l0.20803-0.59579-0.62572,0.29166c-0.46548,0.21698-0.60603,0.40702-0.54881,0.74208,0.059,0.34579-0.0416,0.4179-0.43315,0.31045-0.55601-0.15258-1.8509,1.2312-2.2643,2.4197-0.18001,0.51756-0.25031,0.55187-0.38503,0.18788-0.23009-0.62171-0.34427-0.54514-1.6237,1.0888-1.2653,1.616-1.8052,3.0005-1.8612,4.7732-0.0193,0.61037-0.0832,1.1931-0.14201,1.295-0.0588,0.10188,0.0845,0.92048,0.3184,1.8191,0.23394,0.89863,0.40234,1.6737,0.37422,1.7224-0.1434,0.24837-0.42675-0.22558-0.72657-1.2153-0.43574-1.4384-0.57676-1.4827-0.59211-0.18615-0.007,0.58272-0.0404,1.1108-0.0745,1.1736-0.0341,0.0627-0.15432,0.27414-0.26725,0.46974-0.11292,0.19559-0.0593,0.35124,0.11922,0.34589,0.22185-0.007,0.29881-0.16035,0.24324-0.48581-0.0952-0.55741,0.22317-0.43366,0.51516,0.20024,0.15235,0.33077,0.11536,0.42743-0.14948,0.39061-0.3769-0.0524-0.83641,0.52667-0.5582,0.70342,0.0918,0.0583,0.26884,0.34844,0.39343,0.64472,0.22935,0.5454-0.27438,1.2392-0.715,0.98483-0.12546-0.0724-0.0883-0.24494,0.0826-0.38336,0.17089-0.13841,0.21228-0.37319,0.092-0.52171-0.39289-0.48507-0.81563,0.75488-0.59567,1.7472,0.20955,0.94526,0.20802,0.94879-0.22926,0.52879-0.57895-0.55607-0.8973-0.025-0.49822,0.83117,0.16362,0.35102,0.18974,0.6671,0.058,0.70239-0.1317,0.0353-0.32224-0.15949-0.42341-0.43288-0.10118-0.27337-0.27721-0.47205-0.3912-0.4415-0.29571,0.0792-0.23796,0.68611,0.0832,0.87435,0.14889,0.0872,0.24166,0.48229,0.20622,0.87787-0.0614,0.68503-0.0892,0.69572-0.58596,0.22472l-0.52155-0.49451,0.18987,0.98814c0.10443,0.54347,0.2721,1.147,0.3726,1.3412s0.0596,0.41935-0.091,0.50034c-0.16626,0.0895-0.3552-0.10581-0.48138-0.49752-0.31299-0.97161-0.65365-0.66634-0.64192,0.57525,0.0129,1.3702-0.0335,1.451-0.44899,0.78205-0.18342-0.29531-0.33948-0.42444-0.34679-0.28696-0.007,0.13749-0.0742,0.65961-0.14872,1.1603-0.0745,0.50066-0.0428,0.96377,0.0704,1.0291,0.11318,0.0653,0.14019,0.23244,0.06,0.37132-0.0802,0.13889-0.26565,0.10454-0.41215-0.0763-0.33327-0.41146-0.71869,0.1761-0.44308,0.67547,0.10836,0.19633,0.15887,0.57763,0.11225,0.84732-0.0718,0.41548-0.13183,0.4146-0.39294-0.006-0.26147-0.42097-0.32028-0.42143-0.3882-0.003-0.044,0.2712,0.0274,0.96074,0.15865,1.5323,0.27065,1.1784,0.0362,1.4947-0.31042,0.41873-0.22726-0.70548-0.22776-0.70535-0.30346,0.0801-0.0417,0.43272,0.0104,0.83652,0.11568,0.89732,0.10532,0.0608,0.1026,0.26454-0.006,0.45273-0.10866,0.18819-0.0468,0.4292,0.13745,0.53558,0.20038,0.11569,0.20605,0.29787,0.0141,0.45333-0.25044,0.20286-0.39362,0.0208-0.65218-0.82935-0.18849-0.61977-0.43253-1-0.56619-0.88221-0.1292,0.11388-0.12458,0.39237,0.0103,0.61886,0.13484,0.22648,0.11822,0.51461-0.0369,0.64027-0.15514,0.12566-0.18231,0.53816-0.0604,0.91667,0.12193,0.37855,0.17155,0.77501,0.11026,0.88121-0.2991,0.518,0.91753,3.6858,2.2413,5.8356,0.63669,1.034,0.50831,1.6175-0.16729,0.7603-1.2629-1.6022-1.9402-2.7149-2.204-3.6202-0.62756-2.154-0.87172-2.7228-1.113-2.593-0.13866,0.075-0.18602,0.7313-0.10525,1.4593,0.0887,0.7993,0.0206,1.3275-0.17182,1.3333-0.17527,0-0.23547-0.1346-0.13376-0.3107,0.18386-0.3185-0.0742-1.4766-0.3666-1.6454-0.38789-0.224-0.36417,0.5062,0.08,2.462,0.26481,1.1661,0.33602,2.0362,0.15825,1.9336-0.17778-0.1027-0.48641-1.0417-0.68585-2.0866-0.19944-1.045-0.46629-1.8722-0.593-1.8383-0.12671,0.034-0.12667,0.2966,0.00008,0.5837,0.12675,0.287,0.1981,0.5779,0.15856,0.6464-0.13943,0.2415,0.82953,3.7435,1.075,3.8852,0.13681,0.079,0.18947,0.2463,0.11704,0.3718-0.0724,0.1254-0.20811,0.1826-0.30151,0.1271-0.23666-0.1408-1.2374-2.725-1.3256-3.4232-0.0471-0.373-0.13491-0.4727-0.25006-0.2841-0.25525,0.418,0.0902,2.012,0.91055,4.2009,0.23803,0.6351,0.219,0.7543-0.093,0.5822-0.21574-0.1189-0.39883-0.3945-0.40687-0.6122-0.008-0.2178-0.16938-0.7206-0.35851-1.1174-0.18913-0.3967-0.4971-1.0486-0.68437-1.4486s-0.10699,0.054,0.1784,1.008c0.84299,2.8191,0.87759,2.9635,0.72026,3.0057-0.19429,0.052-1.4923-2.9424-1.6928-3.9052-0.0845-0.4056-0.23143-0.7824-0.32658-0.8374-0.25599-0.1478,0.7235,3.5087,1.2412,4.6333,0.24544,0.5333,0.36329,0.9918,0.26188,1.0189-0.2346,0.063-1.5908-2.3033-1.455-2.5386,0.0558-0.097-0.0925-0.6102-0.32946-1.1414l-0.43084-0.9659,0.147,0.799c0.0808,0.4394,0.29255,1.2579,0.47043,1.8188,0.17789,0.5609,0.2004,1.0528,0.05,1.0931-0.15037,0.04-0.35259-0.2704-0.44937-0.6905-0.185-0.8031-0.31994-1.0002-0.4868-0.7112-0.0553,0.096,0.21144,0.9459,0.59271,1.8891,0.46022,1.1385,0.94892,1.8909,1.454,2.2385,0.84541,0.5818,1.033,0.9048,0.53417,0.9197-0.18156,0-0.26734-0.099-0.19063-0.2316,0.0767-0.1329,0.0368-0.3009-0.0886-0.3733-0.12546-0.072-0.31701,0.022-0.42566,0.2104-0.17865,0.3095,0.0635,0.6072,0.83082,1.0217,0.14932,0.081,0.13576,0.2565-0.0301,0.3909-0.17887,0.1449-0.15244,0.3304,0.065,0.4559,0.20161,0.1164,0.45154,0.5288,0.55539,0.9163,0.10385,0.3876,0.50091,1.1815,0.88236,1.7642,0.38144,0.5828,0.96297,1.6597,1.2923,2.3931,0.32931,0.7334,0.81047,1.5595,1.0692,1.8356,0.25877,0.2762,0.64594,0.8813,0.86038,1.3448,0.28971,0.6262,0.51919,0.8377,0.89301,0.8231,0.36409-0.014,0.70871,0.2551,1.2472,0.9749,0.90618,1.2115,0.96467,1.2494,1.0543,0.6838,0.0509-0.3213,0.1475-0.3548,0.33954-0.1177,0.1476,0.1822,0.32578,0.2319,0.39594,0.1104,0.0702-0.1215,0.001-0.2983-0.15339-0.3928-0.15452-0.095-0.39261-0.4526-0.52908-0.7957-0.23446-0.5895-0.20234-0.587,0.58252,0.045l0.83066,0.6684-0.52822-0.7339c-0.29053-0.4037-0.53326-0.9019-0.53941-1.1072-0.0155-0.5174,1.2646,0.6613,1.4436,1.3293,0.16513,0.6163,0.57101,0.8773,0.66326,0.4265,0.0378-0.1848-0.20291-0.6173-0.53495-0.9612-0.33203-0.3438-0.553-0.713-0.49104-0.8203,0.14265-0.2471,0.30098-0.1547,0.64059,0.3738,0.14841,0.231,0.6414,0.7246,1.0955,1.0969l0.82571,0.6771-0.52151-0.8015c-0.50546-0.7767-0.36222-1.2459,0.26911-0.8814,0.17034,0.098,0.40128,0.099,0.51322,0,0.12961-0.1126,0.28221-0.026,0.42021,0.238,0.18483,0.3538,0.15769,0.3814-0.1845,0.1878-0.22061-0.1249-0.46048-0.1243-0.53291,0.001-0.0724,0.1255,0.0139,0.3122,0.19181,0.4149,0.17793,0.1028,0.47632,0.3564,0.66308,0.5636,0.25423,0.2821,0.29388,0.2764,0.15775-0.023-0.13305-0.2925-0.0859-0.4026,0.17575-0.4105,0.26589-0.01,0.3346-0.1453,0.26797-0.5355-0.077-0.4511-0.0369-0.467,0.28583-0.1134,0.20649,0.2262,0.79478,0.5092,1.3073,0.6289,0.51254,0.1197,1.218,0.3147,1.5678,0.4333,0.61796,0.2095,0.61737,0.218-0.0211,0.2999-0.36133,0.046-0.77547,0.02-0.92031-0.058-0.14483-0.078-0.63666,0.1153-1.093,0.4303-0.45629,0.3149-0.96716,0.5767-1.1353,0.5818-0.78327,0.024-2.2681,1.316-3.0322,2.6396-0.74029,1.2822-0.83029,1.3559-1.2979,1.0628-0.27638-0.1732-1.0435-1.0374-1.7047-1.9203zm0.0713-1.4406c0.0747-0.1294-0.013-0.3923-0.19491-0.5843s-0.53921-0.672-0.79401-1.0667-0.56596-0.6855-0.69145-0.6461c-0.1255,0.039-0.14715,0.1681-0.0481,0.2863,0.099,0.1182,0.42818,0.6149,0.73142,1.1038,0.66543,1.0727,0.82013,1.2135,0.99706,0.907zm2.3042-0.9729c-0.032-0.1196-0.22411-0.2413-0.42683-0.2704-0.22401-0.032-0.20116,0.053,0.0582,0.2174,0.23475,0.1487,0.40061,0.1726,0.36857,0.053zm-13.095-19.847c0.0724-0.1255,0.029-0.2874-0.0964-0.3598-0.12546-0.072-0.28738-0.029-0.35981,0.096-0.0724,0.1254-0.029,0.2873,0.0964,0.3598,0.12546,0.072,0.28738,0.029,0.35981-0.096zm2.5716-1.5568c-0.0822-0.382-0.23521-0.7441-0.34-0.8046-0.10479-0.061-0.13327,0.1968-0.0633,0.5718,0.07,0.3749,0.22297,0.737,0.33999,0.8046,0.11703,0.068,0.14551-0.1898,0.0633-0.5718zm3.3838-3.7907c0.13298-0.072,0.16218-0.34519,0.0649-0.60809-0.0973-0.26284-0.0854-0.63645,0.0265-0.83019,0.11185-0.19374,0.12129-0.33026,0.021-0.30338-0.10032,0.0269-0.3048,0.41067-0.45439,0.85287-0.26782,0.79169-0.13222,1.144,0.34207,0.88879zm21.225,9.7294c0.0322-0.224-0.053-0.2011-0.21739,0.058-0.14873,0.2348-0.17261,0.4006-0.053,0.3686,0.11956-0.032,0.24125-0.2241,0.27042-0.4268zm9.6988,4.4401c0.0724-0.1255-0.0283-0.3205-0.22393-0.4334-0.1956-0.113-0.35146-0.066-0.34635,0.1042,0.005,0.1702,0.10587,0.3652,0.22393,0.4334,0.11805,0.068,0.27391,0.021,0.34635-0.1042zm-4.5143-4.2974c0.0405-0.07-0.12526-0.9628-0.36848-1.9834-0.24321-1.0207-0.38132-2.3295-0.3069-2.9086,0.0744-0.579,0.01-1.0491-0.14365-1.0445-0.15343,0-0.30725-0.3144-0.34183-0.7089l-0.0629-0.7174-0.36411,0.6307c-0.20026,0.3468-0.32645,0.8617-0.28042,1.1442,0.22602,1.387,1.0543,4.3758,1.2428,4.4847,0.1175,0.068,0.18383,0.3114,0.14739,0.5413-0.0623,0.3929,0.31772,0.8396,0.47803,0.5619zm10.519,5.7899c0.68473,0.153,2.149-0.6129,1.9344-1.0118-0.082-0.1523-0.20065-0.1876-0.26372-0.078-0.0631,0.1093-0.69243-0.1287-1.3986-0.5289-0.74672-0.4232-1.4219-0.6533-1.6138-0.5501-0.18145,0.098-0.48678,0.1173-0.67851,0.044-0.60267-0.2311-1.4958-0.1507-1.4873,0.1338,0.009,0.3047,2.6374,1.7971,3.5075,1.9916zm-11.926-7.0403c0.0724-0.1254,0.029-0.2873-0.0964-0.3598-0.12546-0.072-0.28738-0.029-0.35981,0.096-0.0724,0.1255-0.0291,0.2874,0.0964,0.3598,0.12546,0.072,0.28737,0.029,0.35981-0.096zm4.991,1.3689c-0.17583-0.335-0.1301-0.4346,0.24568-0.5353s0.46522-0.037,0.48041,0.3407c0.0145,0.3596,0.0877,0.3327,0.32442-0.1194,0.44806-0.8555,0.82016-2.2617,0.45381-1.7149-0.22653,0.3381-0.29792,0.3402-0.3115,0.01-0.01-0.2361-0.17246-0.4247-0.36172-0.419-0.18926,0.01-0.27464-0.1287-0.18973-0.2987,0.12482-0.2498,0.0992-0.2656-0.13395-0.083-0.21859,0.1716-0.3279,0.1196-0.4518-0.2152-0.12886-0.3482-0.44395-0.3576-1.4896-0.044-0.72939,0.2185-1.2414,0.4929-1.1378,0.6098,0.10363,0.1168,0.0468,0.3271-0.12627,0.4673-0.41898,0.3394,0.016,0.5657,0.72318,0.3762,0.51401-0.1378,0.5466-0.1189,0.35846,0.2069-0.11383,0.1972-0.10431,0.4178,0.0211,0.4902,0.12546,0.072,0.3101-0.01,0.4103-0.1839,0.1002-0.1735,0.41848-0.2507,0.70729-0.1714,0.3765,0.1033,0.46027,0.2564,0.29598,0.5409-0.26286,0.4553-0.2102,0.8154,0.14857,1.0158,0.13697,0.077,0.15191-0.046,0.0331-0.2724zm8.1164,2.7952c0.1731-0.2998-0.45374-0.4114-0.76427-0.136-0.15181,0.1346-0.0769,0.2458,0.19443,0.2888,0.24269,0.038,0.49912-0.03,0.56984-0.1528zm-8.0083-7.3791c0.0273-0.1934-0.0986-0.095-0.27968,0.2187-0.18109,0.3137-0.20339,0.4719-0.0496,0.3516,0.15383-0.1203,0.30199-0.3769,0.32925-0.5703zm1.0334,0.4952c0.41258-0.7146-0.16829-0.9456-0.69738-0.2774-0.23835,0.3011-0.23864,0.5227-0.00087,0.66,0.2329,0.1345,0.47693,0.0008,0.69825-0.3826zm-4.876-3.322c0.0273-0.1934-0.0986-0.095-0.27968,0.2187-0.18109,0.3137-0.2034,0.4719-0.0496,0.3516,0.15382-0.1203,0.30198-0.377,0.32925-0.5703zm5.4747,3.1608c0.0273-0.1934-0.0986-0.095-0.27968,0.2187-0.18109,0.3136-0.2034,0.4719-0.0496,0.3516,0.15382-0.1203,0.30199-0.377,0.32925-0.5703zm0.8907,0.7423c0.20487-0.3548,0.19999-0.6449-0.0129-0.7678-0.34215-0.1975-0.88208,0.4261-0.76079,0.8787,0.13108,0.4892,0.45395,0.443,0.7737-0.1109zm-3.9377-6.0459c0.23032-0.2014,0.31087-0.122,0.37193,0.3668,0.0446,0.3568,0.15153,0.5037,0.24983,0.343,0.0945-0.1545,0.48074-0.3637,0.85823-0.4648,0.67527-0.181,0.68395-0.1747,0.53735,0.3862-0.12531,0.4795-0.0813,0.5367,0.27665,0.3597,0.37837-0.187,0.42868-0.158,0.45274,0.2614,0.0217,0.3777,0.0967,0.3603,0.37584-0.087,0.31835-0.5102,0.34227-0.5097,0.27417,0.01-0.052,0.3939-0.23303,0.5881-0.59713,0.6406-0.28738,0.041-0.49521,0.1773-0.46184,0.3018,0.0334,0.1246,0.32283,0.1563,0.64323,0.07,0.32041-0.086,0.68024-0.1,0.79963-0.031s0.20629-0.1888,0.19311-0.5728c-0.0132-0.384,0.0776-1.0325,0.20167-1.441,0.21157-0.6966,0.12252-1.6414-0.17066-1.8107-0.0717-0.0414-0.24364,0.12096-0.3821,0.36078-0.27684,0.4795-0.90393,0.16587-0.92274-0.4615-0.0144-0.48098-0.88153-0.6278-1.1332-0.19188-0.1113,0.19278-0.26222,0.1993-0.36106,0.0156-0.11635-0.21624-0.21874-0.13742-0.32512,0.25026-0.21559,0.78562-0.74237,0.72922-0.62836-0.0673,0.0838-0.58578,0.0652-0.60598-0.18791-0.20406-0.15454,0.24533-0.48968,0.65493-0.74476,0.91019-0.3103,0.31049-0.3523,0.46079-0.12692,0.45399,0.18528-0.01,0.34158,0.14712,0.34734,0.33912,0.006,0.192-0.16589,0.3544-0.38143,0.3609-0.31214,0.01-0.36781,0.1189-0.27353,0.538,0.10425,0.4635,0.16026,0.4724,0.46972,0.075,0.19323-0.2481,0.48364-0.5668,0.64533-0.7082zm0.83726,1.791c-0.032-0.1195-0.22411-0.2412-0.42682-0.2704-0.22402-0.032-0.20117,0.053,0.0582,0.2174,0.23475,0.1487,0.4006,0.1726,0.36856,0.053zm-5.1675-4.2386c0.0703-0.25533-0.0538-0.15849-0.27572,0.21521-0.22196,0.3737-0.27948,0.58261-0.12783,0.46425s0.33325-0.42412,0.40356-0.67945zm5.9834,4.2851c0.14998-0.081,0.16398-0.2094,0.0311-0.2861-0.13286-0.077-0.30084-0.037-0.37327,0.089-0.0724,0.1254-0.0864,0.2542-0.0311,0.2861,0.0553,0.032,0.2233-0.01,0.37327-0.089zm-0.0207-0.7543c0.0319-0.055-0.008-0.2233-0.0886-0.3733-0.0807-0.15-0.20948-0.164-0.28619-0.031-0.0767,0.1329-0.0368,0.3008,0.0886,0.3733,0.12546,0.072,0.25424,0.086,0.28619,0.031zm-4.3692-3.6621c0.0322-0.22401-0.053-0.20117-0.21739,0.0583-0.14873,0.23475-0.17261,0.4006-0.053,0.36857,0.11957-0.032,0.24126-0.22411,0.27043-0.42682zm-18.853-14.236c0.0322-0.22401-0.053-0.20117-0.21739,0.0583-0.14873,0.23475-0.17261,0.4006-0.0531,0.36857,0.11957-0.032,0.24126-0.22411,0.27044-0.42682zm28.29,15.174c-0.005-0.17023-0.10587-0.36527-0.22393-0.43343-0.11806-0.0682-0.27391-0.0213-0.34635,0.10418-0.0724,0.12546,0.0283,0.32051,0.22393,0.43343,0.1956,0.11293,0.35146,0.0661,0.34635-0.10418zm-4.3457-3.122c0.13656-0.49764-0.0162-1.176-0.19507-0.86621-0.11199,0.19397-0.14022,1.2857-0.0348,1.3465,0.0466,0.0269,0.15002-0.18925,0.22989-0.4803zm-2.2337-2.6112c0.22013-0.37411,0.2643-0.33121,0.38616,0.37503l0.1376,0.79747,0.22354-0.85942c0.13618-0.52355,0.30647-0.81154,0.43574-0.73691,0.1167,0.0674,0.15678,0.21847,0.0891,0.33577-0.0677,0.11729-0.17785,0.55173-0.24472,0.96541-0.21409,1.3243,0.24757,0.70307,0.62732-0.8441,0.35102-1.4302,0.3341-1.5126-0.3969-1.9346-0.41995-0.24246-0.88994-0.59689-1.0444-0.78762-0.21375-0.26391-0.37624-0.19417-0.67988,0.2918-0.39355,0.62986-0.39668,0.62957-0.22917-0.0207,0.1219-0.47316,0.0695-0.60528-0.18545-0.46808-0.21269,0.11444-0.30232,0.43727-0.22331,0.80439,0.0726,0.33728,0.0294,0.79085-0.0959,1.0079-0.12533,0.21708-0.0886,0.39052,0.0816,0.38541,0.17023-0.005,0.24675,0.0994,0.17004,0.23229-0.19429,0.33651,0.22582,0.53464,0.54925,0.25903,0.14628-0.12465,0.0502,0.0594-0.21343,0.40903-0.35719,0.47364-0.37186,0.58146-0.0575,0.423,0.23201-0.11696,0.5337-0.40276,0.6704-0.63511zm3.4678-6.1762c0.0273-0.19336-0.0986-0.0949-0.27968,0.21871-0.18109,0.31365-0.20339,0.47186-0.0496,0.35157,0.15383-0.1203,0.30199-0.37692,0.32925-0.57028zm1.8337,1.743c0.0724-0.12546,0.0351-0.28387-0.0829-0.35203-0.11805-0.0682-0.33735-0.0579-0.48733,0.0228-0.14997,0.0807-0.11265,0.23911,0.083,0.35204,0.1956,0.11293,0.4149,0.10268,0.48733-0.0228zm-6.6276-8.5216c0.53237-0.22449,0.54293-0.2565,0.10846-0.32889-0.78769-0.13124-0.60343-1.1264,0.26408-1.4262,0.44528-0.15389,0.76874-0.45966,0.86769-0.82023,0.0906-0.33033,0.0442-0.47416-0.10926-0.3381-0.20407,0.18095-0.31316,0.0935-0.46275-0.37087-0.12023-0.37323-0.30151-0.55072-0.46993-0.46011-0.1508,0.0811-0.17109,0.48419-0.0451,0.89567,0.17952,0.58622,0.13214,0.78403-0.21894,0.91396-0.34334,0.12708-0.4799,0.41375-0.58439,1.2268-0.075,0.58352-0.0921,1.0375-0.038,1.0088s0.36374-0.16405,0.68812-0.30083zm26.359,12.803c0.0998-0.17283,0.0896-0.55511-0.0227-0.84951-0.17969-0.4712-0.21424-0.47442-0.28861-0.0269-0.0465,0.2796-0.1389,0.60261-0.20541,0.71781-0.0665,0.1152-0.0183,0.26872,0.10718,0.34116,0.12546,0.0724,0.30975-0.01,0.40954-0.18254zm-23.67-41.113c0.28791-0.31565,0.96422-1.346,1.5029-2.2896l0.97942-1.7156-1.2118,1.7335c-1.2336,1.7646-1.8756,2.4148-2.1996,2.2278-0.27398-0.15818,0.81881-2.3612,1.2635-2.5471,0.28803-0.12043,0.27026-0.18142-0.0685-0.23511-0.52751-0.0836-0.36662-0.56437,0.16419-0.49058,0.25719,0.0358,0.31175-0.0419,0.20265-0.28853-0.17459-0.39466,0.48424-1.6445,0.77758-1.4751,0.10978,0.0634,0.26236,0.007,0.33907-0.12633,0.0767-0.13287,0.01-0.23769-0.14865-0.23294-0.15846,0.005-0.29207-0.12328-0.29691-0.28453-0.005-0.16124,0.14763-0.29786,0.33881-0.30359,0.24628-0.007,0.29039-0.11966,0.15133-0.38521-0.14335-0.27374-0.0573-0.29584,0.31899-0.082,0.2834,0.16106,0.57453,0.19018,0.64697,0.0647,0.17439-0.30205-0.13754-0.46316-1.0708-0.5531-0.75241-0.0725-0.78532-0.0385-1.6446,1.6979-0.48224,0.97454-0.78855,1.8714-0.68068,1.993,0.11582,0.13061-0.0416,0.5124-0.38442,0.93251-0.37486,0.45933-0.48914,0.76411-0.32257,0.86028,0.14188,0.0819,0.19978,0.21799,0.12867,0.3024-0.0711,0.0844-0.24535,0.53598-0.38719,1.0035-0.24188,0.79722-0.21639,0.84748,0.41014,0.80879,0.36742-0.0227,0.9036-0.29952,1.1915-0.61517zm2.9911-5.2501c0.11293-0.1956,0.0638-0.35139-0.10923-0.3462-0.173,0.005-0.31066,0.13909-0.30591,0.29755,0.0129,0.4293,0.18381,0.44933,0.41514,0.0486zm-28.975,76.79c-0.38129-0.8029-0.37648-0.8307,0.0649-0.3758,0.64067,0.6604,1.1347,1.7025,0.68194,1.4384-0.18422-0.1076-0.52034-0.5857-0.74683-1.0626zm-1.4936-0.8372c0.0724-0.1255,0.22829-0.1723,0.34635-0.1042,0.11805,0.068,0.21882,0.2632,0.22393,0.4334,0.005,0.1703-0.15075,0.2172-0.34635,0.1042-0.1956-0.1129-0.29637-0.3079-0.22393-0.4334zm0.64313-0.4555c-0.12434-0.1467-0.16826-0.367-0.0976-0.4894,0.0707-0.1224,0.19452-0.1,0.27521,0.05,0.0807,0.1499,0.21061,0.162,0.2887,0.027,0.089-0.1541-0.12598-0.3229-0.57553-0.4519-0.63678-0.1827-0.65974-0.2275-0.20413-0.3981,0.59525-0.2228,1.0376,0.2095,1.0125,0.9896-0.0188,0.5836-0.33234,0.706-0.69915,0.273zm1.2508,0.731c-0.18644-0.1841-0.28405-0.4299-0.21693-0.5462,0.18607-0.3222,0.51209-0.041,0.60883,0.5259,0.0475,0.2784,0.0551,0.4722,0.0167,0.4306-0.0383-0.042-0.22221-0.2261-0.40864-0.4103zm1.6865-0.9457c-0.005-0.1702,0.0994-0.2467,0.23229-0.17,0.13287,0.077,0.18231,0.2421,0.10988,0.3676-0.0724,0.1255-0.17697,0.202-0.23229,0.17-0.0553-0.032-0.10477-0.1973-0.10988-0.3676zm1.6144,0.628c-0.11636-0.2163-0.0921-0.4252,0.0539-0.4644,0.14599-0.039,0.31605,0.1178,0.37792,0.3487,0.14566,0.5436-0.15777,0.6249-0.43178,0.1157zm7.7034,2.1979c0.80007-0.1067,1.3717,0.163,1.0174,0.4799-0.14204,0.1271-0.57736,0.091-0.96737-0.081-0.68309-0.3001-0.68493-0.3148-0.0501-0.3994zm-1.3839-1.2305c-0.014-0.4654,2.8297-1.1778,3.1454-0.788,0.20144,0.2487,0.29696,0.2196,0.34863-0.1064,0.0391-0.247,0.17625-0.3884,0.30467-0.3142,0.12843,0.074,0.20526,0.2896,0.17072,0.4787-0.0345,0.1892,0.0715,0.3126,0.23565,0.2743,0.16415-0.038,0.28851-0.3562,0.27637-0.7064-0.0121-0.3503,0.0789-0.6639,0.20233-0.697,0.12342-0.033,0.23015,0.1326,0.23723,0.368,0.0109,0.3632,0.0905,0.4073,0.52453,0.291,0.28142-0.075,0.74683-0.3798,1.0342-0.6765,0.73818-0.7621,1.8349-1.0258,1.995-0.4798,0.0958,0.3265,0.19303,0.2221,0.43315-0.4647,0.30087-0.8606,0.30921-0.8645,0.29417-0.1343-0.0229,1.1125-1.8854,2.7866-3.1522,2.8334-0.21777,0.01-0.49107,0.1794-0.60736,0.3808-0.18488,0.3202-0.12399,0.3474,0.48531,0.2163,0.3832-0.082,0.71989-0.063,0.74819,0.042,0.0873,0.3259-2.6938,1.032-3.4021,0.8637-0.60136-0.1429-0.54815-0.1832,0.52881-0.4002,0.6586-0.1327,1.1626-0.3714,1.1199-0.5306-0.0426-0.1591-0.27852-0.1696-0.52421-0.023-0.60706,0.3614-3.1142,0.3544-3.3099-0.01-0.0866-0.161-0.36511-0.2573-0.61883-0.214-0.26412,0.045-0.46491-0.042-0.46976-0.2036zm-5.16-4.5561c-0.11637-0.2162-0.0921-0.4252,0.0539-0.4643,0.14599-0.039,0.31605,0.1178,0.37791,0.3486,0.14567,0.5437-0.15777,0.625-0.43177,0.1157zm-12.392-7.7679c0.15242-0.082,0.33859-0.035,0.41371,0.1047,0.2035,0.3782,0.0655,0.481-0.33521,0.2497-0.19559-0.1129-0.23092-0.2724-0.0785-0.3544zm12.013,6.1042c-0.13419-0.4576-0.26347-0.5782-0.45217-0.4221-0.42101,0.3485-0.60033-0.5917-0.19174-1.0052,0.35512-0.3594,0.0303-0.7598-0.34582-0.4262-0.12683,0.1124-0.3136-0.068-0.45566-0.44-0.20026-0.5246-0.1858-0.5707,0.086-0.2746,0.1797,0.1958,0.37853,0.2663,0.44186,0.1566,0.0633-0.1097-0.3337-0.8353-0.88228-1.6124s-0.88338-1.4743-0.74401-1.5492c0.14986-0.081,0.29624,0.024,0.35822,0.2548,0.0577,0.2151,0.32939,0.5208,0.60387,0.6793,0.86807,0.5011,2.5824,4.6048,2.2187,5.3109-0.15443,0.2998-0.44048,0-0.63696-0.6719zm-12.877-7.5105c0.0724-0.1255,0.2283-0.1724,0.34635-0.1042,0.11806,0.068,0.21883,0.2632,0.22393,0.4334,0.005,0.1703-0.15075,0.2171-0.34635,0.1042-0.19559-0.1129-0.29636-0.308-0.22393-0.4334zm9.3396,5.2147c0.043-0.2714,0.1542-0.3462,0.28881-0.1944,0.27537,0.3105,0.16379,0.9374-0.13603,0.7643-0.1225-0.071-0.19125-0.3272-0.15278-0.5699zm0.97879-0.168c-0.0825-0.3832-0.0439-0.6355,0.0856-0.5607,0.28702,0.1657,0.47951,1.1462,0.23774,1.211-0.0954,0.026-0.24088-0.2671-0.32334-0.6503zm-0.23371-1.1117c0.15272-0.082,0.18789-0.3207,0.0783-0.53-0.15205-0.2902-0.0911-0.318,0.25682-0.1172,0.80851,0.4668,0.85668,0.9184,0.0912,0.855-0.42294-0.035-0.59309-0.118-0.42626-0.2078zm3.0206-0.4536c-0.17302-0.4111-0.13911-0.5361,0.13476-0.4968,0.20129,0.029-0.14168-0.2535-0.76215-0.6275-0.62049-0.374-1.219-0.8782-1.3301-1.1204-0.15069-0.3285,0.0356-0.2643,0.73342,0.2529,1.0564,0.7828,3.9521,1.5546,5.3411,1.4235,0.46961-0.044,1.0415,0.032,1.2708,0.1694,0.38579,0.2313,0.37167,0.2497-0.18858,0.2453-0.33307,0-0.69298,0.028-0.79979,0.068-0.36925,0.1388-2.0856,0.1843-2.6254,0.07-0.53326-0.1132-0.53463-0.1104-0.0864,0.1783,0.2505,0.1613,1.114,0.2658,1.9188,0.2324,1.071-0.044,1.4116,0.029,1.2704,0.2734-0.25567,0.4428-2.521,0.5186-3.232,0.1081-0.30874-0.1783-0.68405-0.2581-0.83403-0.1774-0.35841,0.1928-0.53113,0.065-0.81077-0.5991zm22.162,5.0446c0.43482-0.069,0.80675-0.066,0.82652,0.01,0.0588,0.2163-1.0553,0.4436-1.3474,0.2749-0.14832-0.086,0.0861-0.2123,0.52091-0.2814zm-10.088-6.817c0.53578-0.9124,0.58197-0.9368,0.65565-0.3455,0.0998,0.8006-0.018,1.0018-0.69232,1.1824-0.47975,0.1286-0.47568,0.036,0.0367-0.8369zm-18.472-11.219c0.0724-0.1255,0.28568-0.1392,0.47387-0.031,0.18819,0.1087,0.2829,0.3002,0.21046,0.4257-0.0724,0.1254-0.28567,0.1392-0.47386,0.031-0.18819-0.1087-0.2829-0.3002-0.21047-0.4257zm30.423,17.37c0.14309-0.2479,0.52588-0.5629,0.85064-0.7001,0.54048-0.2284,0.53462-0.1946-0.0692,0.3994-0.7965,0.7836-1.1356,0.9141-0.78147,0.3007zm-29.818-19.471c0.0767-0.13286,0.2055-0.11887,0.28619,0.0311,0.0807,0.14997,0.12058,0.31795,0.0886,0.37327-0.0319,0.0553-0.16073,0.0413-0.28619-0.0311s-0.16535-0.2404-0.0886-0.37327zm0.47298-0.95091c-0.0807-0.36723-0.0717-0.61998,0.0201-0.56166,0.23306,0.14806,0.63329,1.142,0.53112,1.319-0.15257,0.26424-0.40202-0.0785-0.55124-0.75732zm19.55,11.334c-0.0103-0.3421,0.50676-0.4066,0.59578-0.074,0.0917,0.3421-0.12725,0.6279-0.37249,0.4864-0.11806-0.068-0.21854-0.2536-0.22329-0.4121zm-19.188-12.62c-0.005-0.17023,0.0994-0.24675,0.23229-0.17004,0.13287,0.0767,0.18231,0.24212,0.10988,0.36759-0.0724,0.12546-0.17697,0.20197-0.23229,0.17003-0.0553-0.0319-0.10477-0.19736-0.10988-0.36758zm15.162,8.7715c0.0682-0.1181,0.26162-0.2188,0.42989-0.2239,0.17545,0,0.16082,0.1084-0.0343,0.2665-0.37981,0.3076-0.58506,0.2855-0.39562-0.043zm4.0631-9.103c0.16438-0.25942,0.24963-0.28227,0.21739-0.0583-0.0292,0.20271-0.15087,0.39477-0.27043,0.42682-0.11956,0.032-0.0957-0.13382,0.053-0.36857zm24.326,12.777c0.0486-0.2647,0.0909-0.5961,0.0939-0.7365s0.15592-0.013,0.33977,0.2829c0.18386,0.296,0.24747,0.6885,0.14137,0.8723-0.26881,0.4656-0.68221,0.1646-0.57506-0.4187zm-15.519-14.376c0.11293-0.19559,0.27242-0.23092,0.35443-0.0785,0.082,0.15242,0.0349,0.33859-0.10473,0.41371-0.37822,0.2035-0.48103,0.0655-0.2497-0.33521zm-0.3158-1.7358c-0.0354-0.13193-0.003-0.34595,0.0718-0.47559,0.0825-0.14294,0.181-0.0681,0.25018,0.19006,0.0627,0.23418,0.0304,0.44819-0.0718,0.47559-0.10224,0.0274-0.21482-0.0581-0.25017-0.19006zm22.351,8.8744c0.21126-0.366,0.28227-0.7853,0.15778-0.9318-0.12449-0.1466-0.099-0.3052,0.0566-0.3526,0.41006-0.1249,0.47779,0.448,0.16581,1.4025-0.17416,0.5328-0.36027,0.7804-0.51804,0.6893-0.13543-0.078-0.0734-0.4415,0.13789-0.8074zm-33.687-20.673c0.0682-0.11805,0.26161-0.21877,0.42988-0.22382,0.17545-0.005,0.16082,0.10839-0.0343,0.26641-0.37981,0.30763-0.58506,0.28554-0.39561-0.0426zm34.156,18.807c0.0682-0.11805,0.26321-0.21882,0.43344-0.22393,0.17023-0.005,0.21711,0.15075,0.10418,0.34635-0.11293,0.19564-0.30797,0.29634-0.43343,0.22394-0.12546-0.072-0.17235-0.2283-0.10419-0.34636zm-40.682-29.772c-0.0387-0.1443,0.0206-0.41976,0.13164-0.61213,0.14824-0.25676,0.23046-0.24333,0.30919,0.0505,0.059,0.22016-0.00024,0.49562-0.13164,0.61213-0.13139,0.11651-0.27053,0.0938-0.30919-0.0505zm38.538,21.369c-0.0482-0.28233,0.0144-0.44789,0.14169-0.37442,0.12546,0.0724,0.267,0.35945,0.31454,0.63782,0.0482,0.28232-0.0144,0.44788-0.14169,0.37442-0.12546-0.0724-0.267-0.35946-0.31454-0.63782zm-36.819-23.108c0.16437-0.25942,0.24963-0.28226,0.21739-0.0583-0.0292,0.20271-0.15087,0.39478-0.27044,0.42682-0.11956,0.032-0.0957-0.13382,0.053-0.36857zm15.766,7.2652c-0.0752-0.28079,0.51175-0.73105,0.76353-0.58569,0.26064,0.15048-0.0906,0.77246-0.44218,0.78301-0.14649,0.004-0.29109-0.0844-0.32135-0.19731zm9.1286,4.8876c0.064-0.11082,0.38304-0.13005,0.709-0.0427,0.9226,0.24717,1.0331,0.36798,0.51276,0.56056-0.51889,0.19205-1.4128-0.18685-1.2218-0.51784zm-4.8635-4.2263c0.16827-0.65737,0.40138-1.2208,0.518-1.252,0.11663-0.0312,0.1046,0.27368-0.0267,0.67762-0.13133,0.40394-0.2454,0.96378-0.25349,1.2441-0.008,0.28032-0.13374,0.51323-0.27922,0.5176-0.14549,0.004-0.12684-0.52992,0.0414-1.1873zm1.972-0.67208c0.22196-0.3737,0.34603-0.47054,0.27573-0.2152-0.0703,0.25533-0.2519,0.56109-0.40356,0.67944-0.15165,0.11836-0.0941-0.0906,0.12782-0.46425zm1.9529-0.24118c0.18109-0.31365,0.30695-0.41207,0.27968-0.21871-0.0273,0.19336-0.17542,0.44999-0.32924,0.57028-0.15383,0.12029-0.13152-0.0379,0.0496-0.35157zm-15.089-16.619c0.0724-0.12546,0.22829-0.17234,0.34635-0.10418,0.11806,0.0682,0.21883,0.26321,0.22393,0.43343,0.005,0.17023-0.15075,0.21712-0.34635,0.10419-0.19559-0.11293-0.29636-0.30797-0.22393-0.43344z"/>
</svg>
