<?xml version="1.0" encoding="UTF-8" standalone="no"?>
<svg xmlns:rdf="http://www.w3.org/1999/02/22-rdf-syntax-ns#" xmlns="http://www.w3.org/2000/svg" height="81" width="52" version="1.1" xmlns:cc="http://creativecommons.org/ns#" xmlns:dc="http://purl.org/dc/elements/1.1/">
 <path fill="#434343" d="m27.698,0.91762c-0.71782,0.0473-1.6871,0.18464-2.1889,0.3101-0.1368,0.0342-0.49354,0.0787-0.79275,0.0988-0.90165,0.0607-1.0849,0.0887-3.4903,0.53318-1.3595,0.25124-2.2811,0.30845-3.4608,0.21484-0.76683-0.0608-1.161-0.0522-1.5339,0.0337-0.19558,0.0451-0.51443,0.18653-0.64984,0.28832-0.0528,0.0397-0.10659,0.0358-0.3928-0.0286-0.42361-0.0952-1.152-0.15652-1.5358-0.12925-1.2561,0.0892-2.3243,0.39509-3.6482,1.0446-1.2346,0.60568-2.3416,1.3299-3.7476,2.4517-1.0257,0.81833-1.4779,1.3277-1.8854,2.1235-0.2701,0.52752-0.41567,0.92108-0.56528,1.5282-0.1964,0.79709-0.27821,1.4728-0.38541,3.1838-0.16473,2.6291-0.22169,2.9357-0.94574,5.0908-0.66326,1.9741-0.80084,2.6318-0.7694,3.6781,0.0145,0.48185,0.04,0.69398,0.17011,1.4127,0.20303,1.1217,0.25209,1.5133,0.25209,2.0122,0,0.73797-0.1382,1.4177-0.50119,2.465-0.4487,1.2946-0.52329,1.5238-0.60682,1.8643-0.37677,1.5358-0.25076,2.9364,0.37031,4.1162,0.18317,0.3479,0.39739,0.6779,1.0694,1.6474,0.74917,1.0808,1.0322,1.588,1.2728,2.2806,0.24299,0.6996,0.28011,1.2552,0.16779,2.5116-0.0803,0.8981-0.0808,1.9468-0.001,2.3879,0.12498,0.6928,0.46705,1.507,0.97985,2.3323,0.48523,0.781,0.9269,1.2655,1.8724,2.0544,1.1761,0.9812,1.9179,1.5022,2.6729,1.8773,0.87336,0.434,1.3973,0.5679,2.222,0.5679,0.83747,0,1.272-0.1105,2.222-0.5651,1.2078-0.578,2.3134-0.8169,3.0573-0.6609,0.33767,0.071,0.80205,0.2134,1.2707,0.39,1.8835,0.7097,1.6888,0.6663,2.9516,0.6573,1.2487-0.01,1.9356,0.053,2.2594,0.2019,0.1168,0.054,0.15917,0.1048,0.28885,0.3473l0.15197,0.2842-0.20241,0.5162c-0.24416,0.6227-0.71605,1.5736-1.1059,2.2284-0.31607,0.5309-1.1898,1.8432-1.9101,2.8688-1.8847,2.6834-2.6841,4.1681-3.1787,5.9032-0.052,0.1825-0.13169,0.4146-0.1771,0.5159-0.14861,0.3315-0.31894,0.873-0.40165,1.2767-0.0754,0.3679-0.15622,0.7085-0.66374,2.7962-0.19591,0.8058-0.33278,1.55-0.45769,2.4884-0.065,0.4884-0.0733,0.6988-0.0737,1.8607-0.00041,1.3682,0.0318,1.8792,0.18371,2.9185,0.39964,2.7332,1.4811,4.8217,3.1016,5.9896,0.81087,0.5844,2.0824,1.0294,3.3591,1.1757,0.46708,0.053,1.6188,0.024,1.9936-0.05,1.4923-0.2974,2.3473-0.9252,2.7121-1.9917,0.18005-0.5264,0.18674-0.6196,0.19145-2.6693,0.006-2.5662,0.0313-2.9662,0.28098-4.4301,0.0744-0.4363,0.17811-1.047,0.23041-1.3571s0.12027-0.6235,0.15106-0.6965c0.10723-0.2541,0.48199-0.9824,0.89993-1.7489,0.2314-0.4244,0.47824-0.894,0.54855-1.0437,0.2662-0.5666,0.43738-1.2113,0.63734-2.4004,0.10981-0.6529,0.12061-0.6913,0.30271-1.0751,0.10387-0.2189,0.32754-0.7337,0.49706-1.1442,0.6154-1.4898,0.77775-1.8171,1.2588-2.537,0.8355-1.2505,1.8539-2.277,3.8309-3.8614,1.2241-0.9811,1.6323-1.3339,2.2077-1.9081,0.54641-0.5453,0.79142-0.8339,1.1235-1.3238,0.36172-0.5335,0.6655-1.2415,0.73449-1.7119,0.0139-0.095,0.0856-0.2522,0.19635-0.4312,0.096-0.155,0.32685-0.5505,0.51312-0.8788,0.59791-1.054,0.91001-1.4746,1.4481-1.9518,0.48747-0.4322,0.94007-0.8888,1.0899-1.0994,0.0779-0.1094,0.23474-0.3545,0.34862-0.5447,0.28304-0.4726,0.52952-0.814,1.0761-1.4904,0.77116-0.9545,1.0347-1.2962,1.3078-1.6959,0.89541-1.3103,1.7149-2.9219,2.5634-5.041,0.68284-1.7053,1.0998-3.2133,1.2564-4.5435l0.041-0.3482,0.22043-0.2338c0.31294-0.3319,0.50498-0.6141,0.71252-1.0473,0.35724-0.7456,0.48998-1.4024,0.49507-2.4499,0.008-1.6256-0.30903-2.7183-1.6786-5.7873-0.30933-0.69314-0.60714-1.3871-0.66181-1.5422-0.21328-0.60496-0.48081-1.8116-0.67279-3.0346-0.16802-1.0704-0.29551-1.4654-1.0552-3.2701-0.17199-0.40855-0.37325-0.90699-0.44724-1.1076-0.074-0.20065-0.26363-0.70061-0.42141-1.111-0.35299-0.91814-0.6442-1.779-0.77977-2.3049-0.0564-0.21889-0.19182-0.91945-0.30089-1.5568-0.3331-1.9463-0.52083-2.6344-0.94731-3.4721-0.2944-0.57826-0.74069-1.1129-1.1829-1.4172-0.20204-0.13901-0.62747-0.34726-0.8521-0.41713-0.10032-0.0312-0.25309-0.0937-0.33948-0.13888-0.506-0.26468-1.0274-0.34811-2.1068-0.33713l-0.78731,0.008-0.43114-0.13798c-1.7444-0.55831-4.1261-1.0081-6.8108-1.2863-0.41688-0.0432-0.60705-0.0822-1.0456-0.21446-0.89191-0.26898-1.1448-0.3085-2.0266-0.31672-0.41953-0.004-0.84486-0.002-0.94519,0.005zm1.3132,1.8424c0.5336,0.57971,0.86899,1.5246,0.9631,2.7134l0.0249,0.31506,0.0243-0.19899c0.0864-0.70887,0.0645-1.4748-0.0573-2.0001-0.0611-0.26344-0.22198-0.70778-0.31073-0.8582-0.11973-0.20293-0.0715-0.19531,0.14981,0.0237,0.56165,0.55574,0.94918,1.3804,1.1291,2.4029,0.0257,0.14624,0.0473,0.31813,0.0479,0.38197,0.00093,0.1017,0.006,0.10817,0.0381,0.0522,0.0426-0.0734,0.0169-0.94858-0.0391-1.3291-0.0496-0.33721-0.1588-0.75526-0.26623-1.0192-0.0834-0.20502-0.0864-0.22364-0.0265-0.16949,0.2343,0.21203,0.645,0.99075,0.82055,1.5558,0.28764,0.92584,0.35852,1.916,0.21823,3.0489-0.0315,0.25426,0.0452-0.037,0.13205-0.50171,0.25146-1.3451,0.14026-2.7028-0.29927-3.6541-0.0633-0.13694-0.10896-0.25507-0.10153-0.26249,0.007-0.007,0.11638,0.14044,0.24212,0.32861,0.70402,1.0535,1.0446,2.2961,1.0437,3.8078-0.00053,0.87031-0.0776,1.516-0.27114,2.2718-0.0514,0.20064-0.0882,0.37004-0.0818,0.37644,0.0167,0.0167,0.23067-0.68179,0.33026-1.078,0.0466-0.18524,0.12453-0.55834,0.17329-0.82911,0.082-0.45507,0.0888-0.56257,0.09-1.4209,0.001-0.75184-0.01-0.98857-0.0574-1.2437-0.0892-0.47894-0.23817-1.0135-0.3817-1.3702-0.0711-0.17665-0.12352-0.32119-0.11652-0.32119,0.0336,0,0.39535,0.59583,0.50866,0.83774,0.13019,0.27796,0.26536,0.70825,0.26536,0.8447,0,0.0414,0.0157,0.0753,0.0349,0.0753,0.0743,0-0.0392-0.91038-0.15413-1.236-0.0669-0.18976-0.0548-0.22774,0.0247-0.0771,0.21313,0.40419,0.44328,1.1375,0.5226,1.6651,0.0832,0.55361,0.0752,1.4249-0.0164,1.7872-0.0131,0.0517-0.01,0.0554,0.0145,0.0166,0.0886-0.14067,0.23641-1.1474,0.23688-1.6133,0.0008-0.78664-0.21572-1.8094-0.50422-2.3819l-0.0675-0.13383,0.0901,0.0829c0.11598,0.10673,0.4277,0.57425,0.51606,0.77401,0.0376,0.085,0.0732,0.15459,0.0791,0.15459,0.0202,0-0.0468-0.31469-0.11645-0.54721-0.0383-0.12768-0.12095-0.34408-0.18377-0.48089l-0.11422-0.24873,0.30202,0.29848c0.1661,0.16416,0.37043,0.38802,0.45406,0.49747,0.18935,0.24781,0.42083,0.73184,0.4758,0.99493,0.0704,0.33692,0.10251,0.32447,0.0856-0.0332-0.0234-0.49482-0.26258-1.1548-0.59274-1.6357-0.0541-0.0788-0.0925-0.14913-0.0854-0.15628,0.0175-0.0175,0.35268,0.24451,0.64857,0.50697,0.52237,0.46335,0.92887,1.1102,1.0786,1.7161,0.0669,0.27102,0.0747,0.28628,0.0846,0.16582,0.0392-0.47983-0.25221-1.364-0.63827-1.9365-0.0663-0.0983-0.11511-0.18419-0.10847-0.19083,0.0257-0.0257,0.50548,0.33743,0.73983,0.56004,0.54213,0.51498,0.87255,1.0768,1.0583,1.7994,0.0859,0.33417,0.10189,0.26371,0.0452-0.19899-0.0748-0.61019-0.33516-1.2678-0.70745-1.7866-0.10303-0.1436-0.18227-0.26615-0.17608-0.27233,0.0232-0.0232,0.54598,0.39117,0.77842,0.61695,0.61569,0.59804,1.0398,1.2578,1.2877,2.0033,0.12391,0.37259,0.13977,0.3593,0.0618-0.0518-0.14182-0.74806-0.50557-1.5611-0.96704-2.1614-0.0815-0.106-0.13942-0.20145-0.12874-0.21213,0.055-0.055,0.6682,0.46271,1.0356,0.87418,0.56572,0.63362,0.97227,1.2862,1.278,2.0512,0.051,0.12768,0.0933,0.2069,0.0939,0.17604,0.002-0.0749-0.21423-0.78431-0.32083-1.0549-0.21739-0.55188-0.67592-1.3486-1.0293-1.7885-0.12404-0.15441-0.0432-0.10294,0.35195,0.2241,0.71927,0.59527,1.3426,1.358,1.9289,2.3605,0.2345,0.4009,0.23065,0.36137-0.0218-0.22404-0.30987-0.71855-0.76469-1.4895-1.2074-2.0466-0.10928-0.13751-0.1858-0.25002-0.17006-0.25002,0.05,0,0.44214,0.31128,0.80187,0.63644,0.52576,0.47524,1.1045,1.1324,1.6375,1.8592,0.14378,0.19609,0.26788,0.35652,0.27578,0.35652,0.0231,0-0.24564-0.47791-0.54157-0.96312-0.31868-0.5225-0.67541-1.033-0.98388-1.4081-0.46154-0.56119,0.0313-0.23099,0.78955,0.52904,0.46322,0.46428,0.78424,0.84693,1.1983,1.4284,0.14317,0.20103,0.28726,0.4025,0.3202,0.44772,0.0843,0.11573-0.38203-0.78572-0.54587-1.0552-0.20645-0.33955-0.51493-0.79073-0.73856-1.0802-0.32629-0.42241-0.31063-0.39352-0.1986-0.36638,0.12172,0.0295,0.54478,0.38501,0.91135,0.76588,0.4495,0.46704,1.0262,1.217,1.2911,1.6788,0.13383,0.23334,0.125,0.17099-0.0219-0.155-0.24597-0.5457-0.62705-1.1898-1.0401-1.758-0.16266-0.22378-0.13848-0.21594,0.22998,0.0745,0.84081,0.66278,1.3404,1.5106,1.4586,2.4753,0.16599,1.3545-0.25149,3.059-1.0499,4.2865-0.0267,0.041-0.041,0.0746-0.0317,0.0746,0.009,0,0.12296-0.16282,0.25272-0.36181,0.46795-0.71766,0.8853-1.7272,1.0226-2.4736,0.0319-0.17338,0.0673-0.31523,0.0787-0.31523,0.0663,0,0.0884,1.5368,0.0297,2.0594-0.15227,1.3552-0.53963,2.4396-1.2486,3.4957-0.14474,0.21559-0.15569,0.24046-0.0585,0.13266,0.76832-0.85187,1.4007-2.219,1.6568-3.5818l0.0249-0.13266,0.0462,0.14924c0.0778,0.25131,0.13989,0.84466,0.16479,1.5753l0.0237,0.69645,0.0589-0.51405c0.0324-0.28273,0.0692-0.71197,0.0819-0.95387,0.0126-0.24191,0.028-0.43471,0.0343-0.42846,0.006,0.006,0.0555,0.21977,0.10954,0.47447,0.17728,0.83633,3.1163,9.5657,4.1635,12.366,0.62556,1.673,0.77745,2.277,0.8456,3.3628,0.0206,0.32802,0.0806,0.82892,0.14067,1.1748,0.0766,0.4408,0.10525,0.71,0.10653,1.0009,0.002,0.3757-0.003,0.4067-0.0892,0.5526-0.05,0.085-0.14375,0.1873-0.20834,0.2273-0.14148,0.087-0.5198,0.2065-0.54893,0.1728-0.0114-0.013-0.0823-0.2057-0.15736-0.4277-0.0751-0.2219-0.21781-0.595-0.31712-0.8291-0.17545-0.4134-0.18117-0.4367-0.2018-0.8222-0.0852-1.5916-0.56416-3.7352-1.3602-6.087-0.17087-0.50485-0.30938-0.82943-0.63144-1.4798-0.3995-0.80668-0.41418-0.84395-0.46373-1.1773-0.27412-1.8443-0.54638-2.8564-1.0294-3.8266-0.25216-0.50652-0.52384-0.91793-0.8357-1.2656-0.17305-0.1929-0.17274-0.19214,0.0784,0.18771,0.49464,0.74828,0.90676,1.7016,1.1599,2.6831,0.1563,0.60595,0.37522,1.998,0.30302,1.9268-0.009-0.009-0.13949-0.20061-0.28943-0.42553-0.81844-1.2278-1.7072-2.0844-2.7281-2.6294-0.29872-0.15947-0.35813-0.17468-0.19898-0.0509,0.36707,0.28541,1.08,0.9773,1.5599,1.514,1.9991,2.2352,3.3843,5.4523,3.884,9.0208,0.0932,0.66516,0.14649,1.1613,0.12694,1.1808-0.009,0.01-0.0647-0.063-0.12379-0.1593-0.0591-0.097-0.21644-0.32606-0.34975-0.50965-0.21761-0.29968-0.27159-0.40801-0.52823-1.0601-0.69392-1.7632-1.316-3.0974-1.8937-4.0616-0.78692-1.3134-1.6773-2.3311-2.5842-2.9539-0.41802-0.28705-0.62045-0.39309-0.27365-0.14334,0.82815,0.59637,1.6062,1.4811,2.2132,2.5168,0.44436,0.75813,0.82942,1.5956,1.5326,3.333,0.25468,0.6293,0.47202,1.1657,0.48299,1.192,0.011,0.0263-0.1208-0.072-0.29282-0.21845-0.58099-0.49461-1.2361-0.96324-1.8583-1.3293-0.36246-0.21325-1.1039-0.60603-1.1437-0.60586-0.0166,0,0.14136,0.1014,0.35113,0.22519,1.4565,0.85949,2.916,2.1464,3.6,3.174,0.67228,1.0101,1.1954,2.3263,1.4685,3.6944,0.0944,0.4731,0.0527,0.4976-0.11447,0.067-0.32438-0.835-0.80944-1.6955-1.31-2.3239-0.52165-0.6549-1.2866-1.2784-1.9642-1.6009-0.42123-0.20049-0.52616-0.22029-0.18756-0.0354,1.562,0.85291,2.6707,2.5716,3.1839,4.9351,0.10884,0.5014,0.14964,0.7974,0.11713,0.85-0.0124,0.02-0.16749-0.2511-0.3446-0.6027-0.89207-1.7711-1.9429-3.0507-3.1718-3.8623-0.27938-0.1845-0.79499-0.4795-0.61371-0.3511,0.0455,0.032,0.2246,0.1656,0.39798,0.2964,1.3827,1.0429,2.4125,2.6196,3.1838,4.8745l0.19702,0.576-0.0869,0.2003c-0.0478,0.1102-0.0967,0.1884-0.10864,0.1738-0.012-0.015-0.0944-0.2123-0.18312-0.4394-0.2893-0.7404-0.70582-1.4709-1.1449-2.008-0.44274-0.5416-1.1254-1.1075-1.664-1.3794-0.23277-0.1175-0.2542-0.1018-0.0355,0.026,0.23953,0.14,0.66129,0.4907,0.92032,0.7653,0.82655,0.8762,1.3926,2.0661,1.6931,3.5585,0.048,0.2387,0.081,0.4403,0.0732,0.4481-0.008,0.01-0.0934-0.1836-0.19015-0.4253-0.24257-0.6058-0.65717-1.4496-0.86292-1.7562-0.17768-0.2647-0.56881-0.6597-0.76156-0.7691-0.12932-0.073-0.12142-0.056,0.10384,0.2319,0.36019,0.4601,0.72227,1.1227,0.9192,1.6821,0.10943,0.3109,0.24714,0.8183,0.22742,0.838-0.006,0.01-0.0931-0.1034-0.19238-0.2441-0.36517-0.5177-1.0102-1.0921-1.5735-1.4014-0.22542-0.1238-0.21511-0.1072,0.0636,0.1022,0.45411,0.3413,0.95589,0.9157,1.2335,1.4121,0.25135,0.4495,0.46287,1.0629,0.52455,1.5212,0.0216,0.1605,0.0161,0.1536-0.17004-0.2162-0.23657-0.4699-0.45461-0.7965-0.73133-1.0954-0.22114-0.2388-0.55267-0.5044-0.78423-0.6282l-0.13604-0.073,0.14079,0.1217c0.41328,0.3574,0.71199,0.7394,0.93391,1.1944,0.27657,0.567,0.40573,1.0645,0.46991,1.8102l0.0388,0.4505-0.12718,0.2211c-0.0699,0.1216-0.13518,0.221-0.14498,0.2209-0.01,0-0.0747-0.1829-0.14419-0.4062-0.17515-0.5629-0.49348-1.199-0.7753-1.5492-0.2188-0.2719-0.64611-0.6655-0.72018-0.6634-0.02,0.0006,0.004,0.031,0.054,0.068,0.13229,0.099,0.47622,0.568,0.60783,0.8294,0.22869,0.4541,0.37742,1.015,0.46292,1.746,0.0784,0.6698,0.0729,0.7299-0.0909,0.991l-0.14029,0.2237-0.0304-0.114c-0.0167-0.063-0.10079-0.3305-0.18679-0.5949-0.17391-0.5349-0.32621-0.8742-0.53353-1.1888-0.14333-0.2174-0.4923-0.6151-0.51759-0.5898-0.008,0.01,0.0401,0.086,0.10654,0.1727,0.2493,0.3266,0.45392,0.8395,0.56179,1.4081,0.029,0.1531,0.0823,0.5655,0.11841,0.9166l0.0656,0.6383-0.15747,0.2483c-0.0866,0.1365-0.16706,0.249-0.17878,0.25-0.0117,0.001-0.0475-0.1064-0.0795-0.2387-0.0819-0.3384-0.29785-0.9567-0.41829-1.1976-0.17423-0.3487-0.44466-0.7247-0.69499-0.9664-0.24308-0.2346-0.24632-0.2242-0.0217,0.07,0.178,0.2331,0.40704,0.7116,0.5061,1.0574,0.11781,0.4113,0.17599,0.8023,0.21454,1.4418,0.0303,0.5037,0.0282,0.5531-0.0277,0.6464-0.12728,0.2122-0.22071,0.347-0.24145,0.3484-0.0118,0.0008-0.0473-0.1143-0.0787-0.2556-0.20627-0.928-0.70038-1.8292-1.27-2.3164-0.16605-0.142-0.17759-0.1475-0.0969-0.046,0.43462,0.5475,0.70084,1.1102,0.83449,1.7638,0.0856,0.4186,0.12795,0.9157,0.11022,1.2937l-0.0167,0.3553-0.17816,0.263c-0.098,0.1447-0.18245,0.2591-0.18769,0.2543-0.005,0-0.0467-0.1488-0.0921-0.3199-0.1503-0.5659-0.41111-1.1619-0.68504-1.5655-0.15399-0.2268-0.49698-0.5973-0.73581-0.7947l-0.16886-0.1396,0.17364,0.2029c0.37973,0.4437,0.68761,1.0439,0.8336,1.6251,0.10827,0.431,0.14728,0.7653,0.15048,1.2894l0.003,0.4974-0.11393,0.1642-0.11394,0.1641-0.0707-0.2304c-0.30925-1.0079-1.1885-1.9396-2.2053-2.3371-0.22109-0.086-0.21712-0.082,0.11645,0.1344,0.53983,0.3499,1.1004,1.019,1.3301,1.5876,0.19182,0.4749,0.2852,1.1011,0.23004,1.5427l-0.0239,0.1908-0.15099-0.2579c-0.18227-0.3114-0.624-0.766-0.95452-0.9825-0.29834-0.1953-0.82365-0.4573-1.2507-0.6237-0.33525-0.1307-0.46337-0.1542-0.25309-0.046,0.48876,0.2503,1.3118,0.9473,1.6067,1.3606,0.25793,0.3615,0.44431,0.8474,0.44431,1.1584v0.136l-0.17411-0.1618c-0.49054-0.4559-1.1105-0.7416-1.9562-0.9015-0.40657-0.077-1.5106-0.2026-1.5381-0.1751-0.007,0.01,0.10348,0.039,0.24461,0.071,0.40903,0.095,1.1122,0.3351,1.4522,0.4962,0.61496,0.2913,1.0923,0.6626,1.3569,1.0556l0.11741,0.1744-0.15765,0.069c-0.11954,0.053-0.18603,0.063-0.27506,0.043-0.29235-0.065-1.2335-0.1674-2.2373-0.2436-0.60194-0.046-1.1541-0.092-1.2271-0.1038-0.31475-0.049-0.0207,0.034,1.1759,0.3352,1.1132,0.2796,1.7817,0.4628,1.8205,0.4987,0.006,0.01-0.036,0.07-0.0941,0.1424-0.0856,0.1065-0.16402,0.1539-0.41128,0.2486-0.8263,0.3162-1.8194,0.4518-2.8227,0.3852-0.27361-0.018-0.52732-0.041-0.5638-0.05-0.051-0.013-0.0548-0.01-0.0166,0.013,0.0612,0.038,0.79959,0.2143,1.2271,0.2935,0.24148,0.045,0.49496,0.059,1.0854,0.059h0.77039l-0.27885,0.1401c-0.66058,0.332-1.4363,0.4893-2.4144,0.4897-0.36025,0.0002-0.655,0-0.655,0s0.10074,0.028,0.22386,0.058c0.87212,0.2098,1.5124,0.2791,2.0688,0.2239,0.2074-0.021,0.4144-0.046,0.46-0.056l0.0829-0.019-0.0829,0.074c-0.13817,0.1226-0.65894,0.3576-1.0281,0.4638-0.52105,0.15-0.91444,0.205-1.5001,0.2097-0.56095,0-0.55576,0.015,0.0574,0.1216,0.49239,0.085,1.1787,0.1173,1.5079,0.071,0.13623-0.019,0.25286-0.03,0.25918-0.024,0.0205,0.02-0.43212,0.2485-0.7556,0.3806-0.84464,0.3449-1.8627,0.5274-3.026,0.5425-0.30536,0-0.55534,0.019-0.5555,0.034-0.00053,0.046,0.23885,0.129,0.51375,0.1778,0.7484,0.1328,2.879-0.029,3.5627-0.2698,0.08-0.028,0.15242-0.044,0.16093-0.036,0.0286,0.029-0.37204,0.597-0.53972,0.7658-0.1066,0.1073-0.27866,0.2247-0.48103,0.3282-0.17329,0.089-0.47177,0.2511-0.66329,0.3611-0.19153,0.11-0.43777,0.2418-0.54722,0.293-0.19518,0.091-0.19645,0.093-0.0663,0.076,0.27256-0.035,0.73004-0.074,0.74154-0.063,0.0215,0.021-0.36782,0.2554-0.60826,0.3665-0.47311,0.2186-1.2765,0.4226-2.0618,0.5237l-0.32663,0.042,0.48088,0.024c0.48204,0.024,1.2502-0.014,1.5892-0.078,0.0976-0.018,0.19285-0.034,0.21155-0.034,0.0772,0-0.37318,0.3755-0.55711,0.4644-0.43884,0.2123-1.186,0.3671-2.1132,0.4377-0.28672,0.022-0.51804,0.043-0.51405,0.047,0.0308,0.031,1.2,0.1159,1.5952,0.1163l0.49355,0.0004-0.11216,0.1183c-0.14911,0.1573-0.49827,0.3158-0.92468,0.4197-0.42578,0.1037-0.83111,0.1488-1.4488,0.1612-0.25877,0-0.46025,0.019-0.44772,0.03,0.0675,0.062,1.3917,0.2597,1.7543,0.2621,0.14067,0.0009,0.15207,0.01,0.0997,0.046-0.0957,0.073-0.64515,0.2424-0.98552,0.3046-0.2232,0.041-0.50044,0.058-0.95085,0.06-0.34968,0-0.61831,0.012-0.59696,0.023,0.17281,0.09,1.286,0.2942,1.6086,0.2946,0.22177,0.0002,0.21626,0.058-0.0138,0.1444-0.54818,0.2062-1.4028,0.32-1.9705,0.2625-0.17328-0.018-0.32014-0.028-0.32636-0.023-0.022,0.018,0.612,0.208,0.87358,0.2623,0.14592,0.03,0.3959,0.064,0.55551,0.074,0.1596,0.011,0.29018,0.032,0.29018,0.047,0,0.106-0.73581,0.3103-1.2942,0.3593-0.32133,0.028-0.75436,0.01-1.0546-0.049-0.16296-0.031,0.26584,0.1515,0.54971,0.2338,0.15377,0.045,0.41627,0.097,0.58334,0.1169,0.16707,0.02,0.35269,0.043,0.41249,0.052l0.10873,0.016-0.0922,0.1314c-0.0829,0.1182-0.12358,0.141-0.40721,0.2284-0.43689,0.1347-0.79665,0.2009-1.3412,0.247l-0.4663,0.039,0.29848,0.057c0.42094,0.08,0.81558,0.1227,1.135,0.1227,0.21261,0,0.27448,0.01,0.27448,0.046,0,0.2253-0.80737,0.5441-1.9149,0.7559l-0.39003,0.075,0.21557,0.025c0.28358,0.033,1.4195,0.043,1.5256,0.013l0.0829-0.024-0.0829,0.069c-0.18581,0.155-1.0939,0.5666-1.6914,0.7665-0.33745,0.113-0.6194,0.2105-0.62656,0.2167-0.0458,0.04,1.3144-0.1111,1.7002-0.189,0.18009-0.036,0.33235-0.061,0.33837-0.055,0.006,0.01-0.0406,0.1407-0.10357,0.2993-0.063,0.1586-0.1145,0.3034-0.1145,0.3217,0,0.053-0.29641,0.3279-0.50923,0.4729-0.20157,0.1374-0.82603,0.456-1.1569,0.5904-0.10466,0.043-0.18563,0.082-0.17993,0.088,0.0225,0.023,0.95143-0.157,1.2286-0.2375,0.16203-0.047,0.29874-0.081,0.3038-0.076,0.005,0-0.041,0.1855-0.10231,0.4007-0.0785,0.2755-0.14211,0.4298-0.21494,0.5217-0.17536,0.2215-0.49635,0.4706-1.0491,0.8143-0.10657,0.066-0.17138,0.1134-0.14402,0.1046,0.0274-0.01,0.21994-0.064,0.42795-0.123s0.4443-0.1354,0.52509-0.1701c0.0808-0.035,0.16029-0.063,0.17667-0.063,0.0164,0,0.0204,0.071,0.009,0.1576-0.0243,0.1825-0.008,0.162-0.77245,0.9866-0.59926,0.6466-0.80883,0.8833-0.73092,0.8253,0.0274-0.02,0.27361-0.2112,0.54722-0.4242,0.7344-0.5714,0.97906-0.7352,1.0146-0.6791,0.0437,0.069,0.0366,0.1591-0.0342,0.4357-0.16874,0.6598-0.47111,1.2449-0.94535,1.8291-0.13461,0.1659-0.31225,0.4112-0.39475,0.5452l-0.15,0.2437-0.0815-0.1608c-0.16577-0.3267-0.71897-1.0332-0.90404-1.1545-0.0803-0.053-0.0796-0.048,0.0309,0.1714,0.21849,0.4345,0.38651,1.1321,0.38651,1.6049v0.2235l-0.15753,0.061c-0.12388,0.048-0.2461,0.06-0.57209,0.059-0.3637,0-0.44304-0.013-0.64671-0.089l-0.23215-0.087,0.11608,0.1c0.29907,0.2565,0.76147,0.438,1.2167,0.4777l0.26573,0.023-0.0276,0.1477c-0.0152,0.081-0.0355,0.1603-0.0451,0.1759-0.0197,0.032-0.33758,0.138-0.61378,0.2049-0.11669,0.028-0.39364,0.044-0.76873,0.044-0.32248,0-0.56645,0.011-0.54216,0.025,0.0999,0.056,0.74772,0.2562,0.97925,0.3027,0.1368,0.027,0.37987,0.055,0.54016,0.06l0.29143,0.01-0.01,0.096c-0.008,0.08-0.0441,0.1158-0.20852,0.2075-0.46777,0.2611-1.1462,0.3858-1.7288,0.3176-0.17873-0.021-0.32971-0.033-0.3355-0.028-0.0299,0.03,0.6675,0.2273,0.96199,0.2724,0.3423,0.052,0.78999,0.045,1.0608-0.018,0.15171-0.035,0.15744,0,0.0201,0.1123-0.3054,0.257-0.68272,0.3498-1.5374,0.3781l-0.63013,0.021,0.44773,0.1078c0.62715,0.151,0.76892,0.1741,1.0658,0.1741,0.14343,0,0.26036,0.011,0.25985,0.025-0.001,0.04-0.3273,0.2256-0.56286,0.3214-0.27173,0.1105-0.65883,0.2132-0.89544,0.2375-0.457,0.047-0.19889,0.1053,0.48626,0.1098,0.42033,0,0.80557-0.046,1.0211-0.1287l0.0979-0.038-0.0636,0.07c-0.2054,0.227-0.78672,0.5256-1.4569,0.7484-0.41577,0.1382-0.42643,0.144-0.26723,0.1452,0.46157,0,1.239-0.1093,1.5947-0.2317,0.17875-0.062,0.17956-0.062,0.17956,0.01,0,0.098-0.50036,0.5789-0.8341,0.801-0.39758,0.2645-0.81365,0.4433-1.4175,0.6091-0.11425,0.031,0.008,0.034,0.33943,0.01,0.60211-0.048,1.1471-0.2028,1.6704-0.4745,0.24748-0.1285,0.27493-0.1362,0.27493-0.077,0,0.036-0.095,0.2092-0.211,0.385-0.42896,0.6497-0.99608,1.097-1.6934,1.3357-0.31351,0.1073-0.2315,0.1247,0.21698,0.046,0.50345-0.088,1.059-0.3185,1.4164-0.5873,0.0972-0.073,0.18255-0.1269,0.18977-0.1197,0.0255,0.026-0.18914,0.4393-0.33127,0.6385-0.18972,0.2659-0.70661,0.7553-1.0157,0.9616-0.34589,0.231-0.34612,0.2323-0.0217,0.1179,0.43397-0.153,0.73811-0.3008,1.0488-0.5097,0.15328-0.103,0.28386-0.1873,0.29019-0.1873,0.0408,0-0.003,0.1807-0.0879,0.3591-0.24199,0.5115-0.79532,1.1254-1.3058,1.4488-0.139,0.088-0.24727,0.1656-0.24061,0.1722,0.0183,0.018,0.32741-0.1088,0.6219-0.2557,0.28961-0.1445,0.55664-0.3185,0.80654-0.5254,0.0902-0.075,0.17068-0.1292,0.1788-0.1211,0.0322,0.032-0.0738,0.5452-0.16752,0.8106-0.18148,0.5142-0.51239,1.0152-0.94895,1.4366-0.12729,0.1229-0.22336,0.2235-0.21348,0.2235,0.0711,0,0.63939-0.4306,0.90606-0.6866l0.32469-0.3116-0.0593,0.1958c-0.0826,0.2727-0.25676,0.5873-0.39,0.7043-0.22775,0.1999-0.88496,0.4632-1.436,0.5752-1.576,0.3205-3.5727-0.063-4.8948-0.9391-0.31979-0.212-0.67877-0.5059-0.75984-0.6222-0.0454-0.065-0.0188-0.059,0.25689,0.056,0.37616,0.1572,0.79164,0.2797,1.1772,0.3471,0.4375,0.077,0.45775,0.062,0.0862-0.064-0.33821-0.1141-0.83207-0.3456-1.0858-0.509-0.59164-0.381-1.1964-0.957-1.3884-1.3224-0.0681-0.1297-0.12385-0.2438-0.12385-0.2536,0-0.01,0.14494,0.073,0.3221,0.1846,0.61938,0.3893,1.4153,0.7099,2.114,0.8514,0.18158,0.037,0.33464,0.062,0.34014,0.057,0.005,0-0.11322-0.051-0.26381-0.1001-0.82995-0.2732-1.691-0.8193-2.3828-1.511-0.46405-0.464-0.50154-0.5397-0.1531-0.3088,0.56897,0.3769,1.5218,0.7944,2.2202,0.9727,0.3348,0.085,0.41053,0.065,0.11927-0.032-0.55571-0.185-1.443-0.6972-2.0348-1.1746-0.27307-0.2203-1.0471-0.9993-1.1104-1.1177-0.0539-0.1007-0.005-0.082,0.30853,0.1168,0.27236,0.1727,0.84225,0.4721,1.1342,0.5957,0.31514,0.1334,1.1798,0.4153,1.2739,0.4153,0.008,0-0.20851-0.1104-0.48065-0.2454-0.72654-0.3602-1.2166-0.694-1.8431-1.2554-0.26597-0.2383-0.67589-0.6814-0.65227-0.705,0.008-0.01,0.1409,0.052,0.29628,0.1329,0.3929,0.2039,0.96936,0.4471,1.4868,0.6271,0.24094,0.084,0.44758,0.1524,0.45921,0.1524,0.0116,0-0.17784-0.1208-0.42103-0.2684-0.24319-0.1477-0.57096-0.3594-0.72837-0.4707-0.30936-0.2185-0.86859-0.6629-0.85341-0.6781,0.005-0.01,0.1647,0.063,0.35459,0.1523,0.5774,0.2704,1.1554,0.4377,1.6718,0.484l0.23215,0.021-0.33164-0.1127c-0.43436-0.1476-0.63407-0.2393-0.99588-0.4574-0.5514-0.3325-1.3754-1.0069-1.3754-1.1258,0-0.054,0.0321-0.043,0.22387,0.081,0.57073,0.3678,1.2244,0.5845,2.0479,0.6789,0.78059,0.09,0.91275,0.086,0.43018-0.012-0.60647-0.1232-1.3941-0.4434-1.8562-0.7545-0.42733-0.2877-0.87886-0.7618-0.87886-0.9228,0-0.055,0.0223-0.048,0.18105,0.053,0.43732,0.2797,1.0402,0.5383,1.7259,0.74,0.34734,0.1022,1.4791,0.3715,1.5505,0.369,0.0228-0.0009-0.20485-0.095-0.50582-0.2101-0.96045-0.3662-1.5579-0.6527-2.0564-0.9861-0.40806-0.2729-0.93826-0.7603-0.88504-0.8135,0.0105-0.011,0.10574,0.033,0.2117,0.097,0.5364,0.3231,1.3215,0.6541,1.9835,0.8361,0.42348,0.1164,1.2436,0.2932,1.2643,0.2725,0.006-0.01-0.1196-0.052-0.27866-0.1037-1.1369-0.366-2.3217-1.023-2.9956-1.6611-0.14953-0.1416-0.16367-0.1672-0.14363-0.2609,0.0296-0.1383,0.0291-0.1381,0.14324-0.057,0.18429,0.1313,0.97927,0.4957,1.3802,0.6328,0.21889,0.075,0.56961,0.1809,0.77937,0.2358,0.38845,0.1015,1.6939,0.3698,1.7119,0.3518,0.005,0-0.18723-0.074-0.42816-0.153-1.477-0.4827-2.5179-0.999-3.2488-1.6116-0.18256-0.153-0.22386-0.2055-0.22386-0.2846,0-0.053,0.01-0.097,0.0216-0.097,0.0118,0,0.12005,0.056,0.24044,0.125,0.53916,0.308,1.1672,0.5468,1.9334,0.735,0.34806,0.086,1.4548,0.3069,1.917,0.3836,0.0639,0.011-0.25702-0.1062-0.71303-0.2594-1.6319-0.5484-2.3554-0.8969-3.0236-1.4569l-0.24733-0.2072,0.0218-0.1492c0.012-0.082,0.0268-0.1545,0.033-0.1608,0.006-0.01,0.2025,0.063,0.43632,0.154,0.45026,0.1753,1.1432,0.3816,2.017,0.6006,0.29185,0.073,0.68652,0.1779,0.87705,0.2329s0.35113,0.095,0.3569,0.09c0.006-0.01-0.4859-0.224-1.0926-0.4849-1.2012-0.5167-1.747-0.7779-2.1613-1.0343-0.14763-0.091-0.2724-0.17-0.27727-0.1746-0.0241-0.023,0.0748-0.35,0.10575-0.3498,0.0197,0.0001,0.36409,0.074,0.76538,0.1635,0.84009,0.1882,1.3612,0.3404,1.8824,0.5499,0.20242,0.081,0.37236,0.1436,0.37764,0.1383,0.005-0.01-0.14288-0.1051-0.32926-0.2219-0.44758-0.2805-1.1556-0.6276-1.9308-0.9466-0.34657-0.1427-0.63349-0.2612-0.6376-0.2635-0.004,0,0.0197-0.1003,0.0529-0.2178,0.0699-0.2473,0.003-0.2344,0.65104-0.1268,1.1396,0.1892,2.1979,0.5157,2.9931,0.9232,0.16872,0.086,0.30677,0.1528,0.30677,0.1474,0-0.01-0.0933-0.076-0.20728-0.1575-0.79134-0.5637-1.8909-1.0875-3.0428-1.4495-0.24624-0.077-0.45351-0.1455-0.46058-0.1514-0.0204-0.017,0.0686-0.3108,0.1-0.3302,0.0418-0.026,0.77898,0.074,1.2726,0.1726,1.0662,0.2127,2.1018,0.5883,3.0014,1.0884,0.29566,0.1644,0.13719,0.031-0.34823-0.2943-0.95218-0.637-2.1261-1.154-3.2833-1.4461-0.23712-0.06-0.44204-0.1181-0.45537-0.1295-0.0133-0.011,0.009-0.1222,0.0491-0.2463l0.0734-0.2257,0.38202,0.022c0.86011,0.05,1.9183,0.2233,2.8528,0.4669,0.53309,0.139,1.442,0.4142,1.7467,0.5289,0.11984,0.045,0.22732,0.081,0.23883,0.08,0.0694,0-1.3572-0.679-2.0353-0.9611-0.8944-0.3722-1.9703-0.7021-2.6075-0.7997-0.18716-0.029-0.25253-0.051-0.22717-0.076,0.0591-0.059,0.58769-0.038,0.9443,0.038,0.18241,0.039,0.46553,0.096,0.62916,0.126,0.93671,0.1746,3.7604,1.1136,5.9477,1.978,0.27929,0.1104,0.51518,0.1933,0.52421,0.1842,0.009-0.01-0.0926-0.1044-0.22589-0.212-0.6992-0.5644-1.5425-1.1021-2.3317-1.4867-0.76131-0.3711-1.1769-0.5031-2.6697-0.848-1.1467-0.265-1.7408-0.4185-1.8693-0.4832-0.18108-0.091-0.41903-0.3541-0.41903-0.4629,0-0.034,0.73852,0.011,1.1274,0.07,0.5724,0.086,1.7674,0.3766,1.9394,0.4718,0.0228,0.013,0.0231,0.01,0.00092-0.016-0.0499-0.053-1.1865-0.6165-1.509-0.7487-0.38008-0.1558-0.85905-0.3089-1.1971-0.3826-0.32151-0.07-0.32302-0.073-0.19454-0.4154l0.0734-0.1956,0.38549,0.021c0.78428,0.043,1.7483,0.3304,2.7059,0.808,0.26893,0.1341,0.25917,0.1187-0.0818-0.129-0.39348-0.2859-0.88125-0.5817-1.2779-0.7748-0.3793-0.1847-1.0552-0.4265-1.3007-0.4653-0.0775-0.012-0.14052-0.032-0.14-0.043,0.00053-0.011,0.0736-0.1475,0.16233-0.3026l0.16138-0.2819h0.24394c0.43894,0.01,1.1572,0.231,1.8031,0.5627,0.31299,0.1608,0.90892,0.5366,1.0358,0.6532,0.041,0.038,0.0821,0.061,0.0914,0.052,0.0193-0.019-0.5637-0.5647-0.86237-0.8067-0.49563-0.4016-1.2021-0.7973-1.6997-0.9521-0.13225-0.041-0.24045-0.088-0.24045-0.1046,0-0.056,0.34488-0.5923,0.39248-0.6106,0.0807-0.031,0.63394,0.083,1.017,0.2097,0.62353,0.206,1.2793,0.5432,2.0538,1.0561,0.18112,0.1199,0.33202,0.2145,0.33533,0.2102,0.0107-0.014-0.85539-0.8097-1.1289-1.0372-0.53652-0.4461-1.2452-0.8784-1.6582-1.0115-0.22433-0.072-0.0756-0.072,0.28222,0,0.86184,0.1756,1.8026,0.5787,2.6777,1.1472,0.15048,0.098,0.2736,0.1719,0.2736,0.1648,0-0.034-1.0827-0.983-1.3651-1.1963-0.41758-0.3153-0.87887-0.5888-1.2621-0.7484-0.16929-0.071-0.28232-0.1286-0.25119-0.1292,0.1241,0,0.95879,0.2331,1.2866,0.3628,0.4826,0.1908,1.1595,0.5355,1.7624,0.8974,0.54188,0.3252,0.60685,0.3614,0.52202,0.2913-0.0295-0.024-0.28028-0.2449-0.55731-0.49-0.64718-0.5726-1.0362-0.8841-1.4287-1.1438-0.31844-0.2108-0.81613-0.478-1.05-0.5638-0.17904-0.066-0.0793-0.062,0.35755,0.014,0.77792,0.1352,1.4985,0.3715,2.1974,0.7208,0.30904,0.1544,0.49093,0.2608,1.0156,0.5939,0.13559,0.086-0.32427-0.3398-0.64916-0.6012-0.74432-0.5987-1.6329-1.0959-2.4255-1.3572l-0.2723-0.09,0.13964-0.2126c0.16317-0.2484,0.1233-0.2404,0.74629-0.1488,1.256,0.1848,2.2464,0.5816,3.0912,1.2383l0.21557,0.1676-0.13266-0.1468c-0.64663-0.7158-1.634-1.3165-2.7743-1.6878-0.29819-0.097-0.56123-0.1816-0.58453-0.1877-0.0296-0.01-0.0158-0.051,0.0459-0.1445l0.0882-0.1333h0.59086c0.93924,0,1.654,0.1191,2.5344,0.4225,0.23713,0.082,0.59904,0.228,0.80424,0.325,0.20521,0.097,0.3731,0.1716,0.3731,0.1656,0-0.01-0.1455-0.1054-0.32335-0.2208-0.65301-0.424-1.4616-0.7869-2.244-1.0071-0.4082-0.1149-1.0828-0.249-1.2524-0.249-0.0515,0-0.0937-0.01-0.0937-0.017,0-0.068,0.18642-0.2804,0.26014-0.296,0.8231-0.1749,2.0036-0.1562,3.0525,0.048,0.38928,0.076,1.0681,0.2417,1.3077,0.3193,0.0878,0.029,0.16656,0.045,0.17498,0.037,0.0219-0.022-0.92983-0.3959-1.3666-0.5371-0.83313-0.2693-1.4976-0.3999-2.3259-0.457-0.31465-0.022-0.57209-0.051-0.57209-0.066,0-0.1226,0.58398-0.3395,1.2312-0.4574,0.76842-0.1399,1.8783-0.1413,2.6816,0,0.20944,0.036,0.3859,0.06,0.39214,0.054,0.0307-0.031-1.0132-0.2982-1.5026-0.3851-0.56019-0.1-1.5276-0.1238-2.0235-0.051-0.47648,0.07-0.45407,0.072-0.40678-0.032,0.0912-0.2001,1.0417-0.5442,1.9328-0.6997,0.48229-0.084,1.8791-0.084,2.3826,0.0006,0.19774,0.033,0.36609,0.054,0.37411,0.046,0.0251-0.025-0.74901-0.2181-1.1482-0.2863-1.0017-0.1709-1.9138-0.1605-2.8494,0.032-0.17174,0.035-0.31734,0.059-0.32355,0.053-0.0959-0.096,1.1108-0.4805,1.9458-0.6202,0.53841-0.09,1.5574-0.1222,2.1424-0.067,0.77061,0.072,1.7027,0.2735,2.5918,0.5601,0.22344,0.072,0.40626,0.1192,0.40626,0.1048,0-0.043-0.30807-0.2875-0.53444-0.4239-0.97066-0.5851-2.8941-0.8261-4.9211-0.6167-0.25537,0.026-0.52358,0.062-0.59603,0.079-0.0725,0.017-0.13669,0.026-0.14274,0.02-0.0238-0.024,0.46784-0.3264,0.72846-0.4484,0.58989-0.2762,1.1722-0.4214,1.8178-0.4534,0.50768-0.025,0.96492,0.015,2.1674,0.1895,0.50804,0.074,0.93053,0.1274,0.93887,0.1191,0.0252-0.025-1.601-0.4117-2.0368-0.4841-1.4678-0.2437-2.6045-0.1196-3.5817,0.3911-0.16872,0.088-0.30677,0.1468-0.30677,0.1302,0-0.017,0.15364-0.1823,0.34142-0.3682,0.64622-0.6397,1.447-1.0164,2.3615-1.1107l0.26531-0.027-0.35064-0.026c-0.78611-0.059-1.7381,0.1605-2.274,0.5247-0.0698,0.047-0.13833,0.086-0.15233,0.086-0.0496,0-0.0246-0.3334,0.0373-0.4961,0.22177-0.5837,0.9734-1.0903,1.971-1.3286,0.29027-0.069,0.37385-0.1111,0.17039-0.085-0.0723,0.01-0.24147,0.025-0.37599,0.035-0.58023,0.044-1.2027,0.2448-1.6165,0.5216-0.13677,0.091-0.25251,0.1609-0.25721,0.1544-0.005-0.01-0.0293-0.077-0.0547-0.1576-0.10146-0.32-0.31334-0.543-0.63447-0.668l-0.17738-0.069,0.12171,0.1016c0.0688,0.058,0.14646,0.1664,0.17866,0.2507,0.0887,0.2323,0.0499,0.7984-0.0977,1.4258-0.0644,0.2736-0.15832,0.6877-0.20881,0.9203-0.0505,0.2326-0.10122,0.4229-0.11274,0.4229-0.0115,0-0.10637-0.3381-0.21077-0.7512-0.10439-0.4132-0.23474-0.8796-0.28967-1.0364-0.11319-0.3233-0.38938-0.8719-0.51207-1.0173l-0.0819-0.097,0.0632,0.1327c0.16666,0.35,0.30811,0.9235,0.35577,1.4426l0.0228,0.2488-0.17475-0.2488c-0.46549-0.6625-0.97151-1.166-1.5411-1.5332-0.25169-0.1623-0.64589-0.369-0.66574-0.3492-0.007,0.01,0.088,0.078,0.21063,0.1575,0.32142,0.2093,0.98123,0.8824,1.2253,1.2501,0.21723,0.3271,0.48426,0.805,0.52423,0.938,0.0176,0.059-0.073-0.01-0.31988-0.2432-0.38166-0.3601-0.70887-0.6199-1.0034-0.7967-0.21147-0.1269-0.6816-0.3324-0.70559-0.3084-0.008,0.01,0.0658,0.06,0.16441,0.116,0.26477,0.1494,0.58739,0.4363,0.85247,0.7579,0.129,0.1565,0.22961,0.2895,0.22358,0.2956-0.006,0.01-0.14852-0.032-0.31663-0.085s-0.45937-0.127-0.64723-0.165c-0.35927-0.073-1.1201-0.1756-1.1414-0.1544-0.007,0.01,0.0964,0.039,0.22955,0.071,0.67211,0.1628,1.6011,0.5619,2.1251,0.913,0.14193,0.095,0.25247,0.1785,0.24564,0.1854-0.007,0.01-0.18813-0.018-0.4029-0.054-0.31251-0.053-0.5238-0.066-1.0582-0.062-1.0488,0.01-1.2397-0.032-2.4174-0.4996-1.4777-0.5867-1.7385-0.6346-2.7182-0.4985-0.17726,0.025-0.33203,0.035-0.34391,0.023-0.0458-0.046,0.0259-0.1954,0.1217-0.2536,0.0552-0.034,0.27496-0.1022,0.48829-0.1526,0.87-0.2051,1.8506-0.6247,2.6584-1.1376,0.11789-0.075,0.21732-0.133,0.22096-0.1293,0.004,0-0.0301,0.1411-0.0749,0.3053-0.0554,0.2029-0.0867,0.4206-0.0976,0.6798l-0.0161,0.3814,0.10123-0.2958c0.0815-0.2381,0.34408-0.782,0.37755-0.782,0.004,0,0.007,0.1903,0.006,0.4228-0.002,0.4147,0.0618,0.9211,0.12036,0.9573,0.0163,0.01,0.0203-0.019,0.009-0.064-0.0332-0.1322,0.0461-0.8045,0.14145-1.2001l0.088-0.3648,0.0281,0.1658c0.0238,0.1406,0.15223,0.5804,0.16945,0.5804,0.003,0,0.007-0.153,0.009-0.34,0.002-0.2904,0.0184-0.3858,0.1094-0.655,0.17919-0.5302,0.37915-0.841,0.80808-1.2563,0.20517-0.1987,0.49988-0.4684,0.65493-0.5995,0.27662-0.2339,0.66268-0.5105,0.68349-0.4897,0.006,0.01-0.0475,0.1516-0.11839,0.3241-0.24685,0.6001-0.34382,1.1535-0.28225,1.6109l0.0263,0.195,0.028-0.1493c0.0775-0.4139,0.10954-0.5312,0.19904-0.7296,0.0535-0.1186,0.15994-0.3119,0.23658-0.4297l0.13935-0.2142,0.0231,0.2142c0.0886,0.8207,0.47937,1.497,0.94695,1.6387,0.0687,0.021,0.0628-0.0009-0.0757-0.2754-0.38154-0.7565-0.46503-1.3603-0.26662-1.9282,0.0428-0.1224,0.0878-0.282,0.10008-0.3547,0.0296-0.1754,0.12608-0.3279,0.25849-0.4086,0.1452-0.089,0.17925-0.083,0.20197,0.03,0.0271,0.1355,0.19628,0.4827,0.34475,0.7075,0.16157,0.2446,0.50183,0.5916,0.75529,0.7702,0.30636,0.216,0.31628,0.2117,0.0728-0.031-0.38621-0.3853-0.6253-0.7958-0.75195-1.2911-0.0794-0.3103-0.0872-0.7189-0.0187-0.9813,0.0398-0.1526,0.079-0.2113,0.24005-0.3595,0.73497-0.6759,1.7931-1.0759,2.8291-1.0692,0.24624,0,0.55218,0.024,0.67987,0.049,0.12768,0.025,0.23728,0.041,0.24354,0.035,0.006-0.01-0.11079-0.049-0.26014-0.097-0.87801-0.2774-2.0155-0.2343-2.902,0.1099-0.18921,0.074-0.26906,0.091-0.28635,0.063-0.0881-0.1425,0.54276-0.6924,1.0749-0.9368,0.58052-0.2667,1.173-0.3879,1.9243-0.3939,0.54514,0,0.52081-0.025-0.12417-0.1079-0.79667-0.1018-1.6346-0.01-2.2649,0.2504-0.16886,0.069-0.30703,0.1202-0.30703,0.1127,0-0.01,0.0358-0.084,0.0795-0.1702,0.24781-0.4878,0.81959-0.8546,1.6962-1.0879,0.31996-0.085,1.0786-0.2083,1.3418-0.2177,0.24728-0.01-0.25833-0.052-0.66329-0.057-0.91122-0.01-1.4926,0.1095-2.2017,0.4543-0.0786,0.038,0.15227-0.2969,0.32788-0.476,0.44377-0.4526,1.1795-0.8208,2.0198-1.0107l0.26852-0.061h-0.20558c-0.29225,0-0.9012,0.082-1.2702,0.1793-0.17328,0.046-0.46057,0.1547-0.63841,0.2422-0.17785,0.087-0.32288,0.151-0.32229,0.141,0.003-0.043,0.30265-0.4519,0.47486-0.6468,0.36339-0.4114,1.031-0.8644,1.4913-1.0121,0.19654-0.063,0.12474-0.073-0.14926-0.02-0.66631,0.1275-1.3321,0.4571-1.883,0.9321-0.10372,0.089-0.1867,0.1396-0.19411,0.1174-0.0256-0.077,0.24179-0.4234,0.60345-0.7819,0.82523-0.818,1.9351-1.356,3.2541-1.5774l0.36481-0.061-0.39797,0.018c-1.3763,0.062-2.5189,0.4359-3.4122,1.1156-0.28982,0.2205-0.29125,0.2108-0.0185-0.1243,0.25013-0.3074,0.779-0.8155,1.111-1.0674,1.2407-0.9413,2.6572-1.4825,4.1105-1.5704,0.36756-0.022,0.32355-0.024-0.29848-0.015-0.80342,0.012-1.0659,0.046-1.7959,0.2329-1.317,0.3375-2.5306,1.046-3.436,2.0057-0.1721,0.1824-0.32268,0.3317-0.33462,0.3317-0.0119,0-0.0217-0.059-0.0217-0.1302,0-0.122,0.0275-0.1587,0.43728-0.583,1.3785-1.4274,2.9452-2.2261,4.8174-2.4557l0.36671-0.045-0.52268,0.014c-1.1634,0.032-2.2054,0.3009-3.2678,0.8426-0.57911,0.2952-1.3117,0.791-1.806,1.222-0.0533,0.047-0.058,0.044-0.058-0.034,0-0.066,0.0387-0.1093,0.17404-0.1958,0.2898-0.1853,0.72113-0.5615,1.0353-0.9031,0.37006-0.4024,0.62517-0.6123,1.1122-0.915,0.7487-0.4653,1.472-0.7717,2.0823-0.8821,0.48861-0.088,0.52384-0.1145,0.12859-0.096-1.1755,0.056-2.2704,0.5405-3.9997,1.7683l-0.21349,0.1516,0.0642-0.1126c0.0961-0.1684,0.65308-0.7393,0.86077-0.8824,0.10002-0.069,0.17633-0.1307,0.16958-0.1375-0.0198-0.02-0.34936,0.1176-0.61429,0.2562l-0.24515,0.1282,0.11249-0.1172c0.25732-0.2682,0.9158-0.7508,1.3674-1.0023,0.62627-0.3486,1.472-0.6251,2.2439-0.7336,0.16984-0.024,0.11004-0.027-0.2819-0.016-1.3002,0.036-2.6816,0.5761-3.872,1.5136-0.1596,0.1257-0.29019,0.2196-0.29019,0.2086,0-0.067,0.27145-0.4082,0.49001-0.6168,0.3128-0.2985,0.63258-0.515,1.1311-0.7659,0.20841-0.1049,0.35679-0.1907,0.32973-0.1907-0.082,0-0.86169,0.2218-1.0388,0.2956l-0.16583,0.069,0.11608-0.1014c0.15309-0.1338,0.60489-0.4066,0.88618-0.5351,0.65269-0.2982,1.7778-0.5732,2.4303-0.594h0.14924l-0.14746-0.024c-0.0811-0.013-0.31989-0.019-0.53063-0.012-1.0532,0.031-1.9594,0.231-2.702,0.5952l-0.30122,0.1478,0.21557-0.2001c0.83687-0.777,2.2284-1.2898,3.8471-1.4179l0.31507-0.025-0.34823-0.022c-0.19153-0.012-0.59447-0.01-0.89544,0.01-1.0268,0.054-1.8186,0.2412-2.562,0.6043-0.34706,0.1696-0.42285,0.1962-0.42285,0.1484,0-0.1993,1.1075-0.8536,1.9235-1.1364,0.6925-0.24,1.5358-0.4055,2.452-0.4813,0.22679-0.019,0.41772-0.04,0.42428-0.046,0.007-0.01-0.24615-0.022-0.56159-0.035-1.3739-0.0553-2.7645,0.1707-3.7165,0.6039-0.14171,0.064-0.26569,0.1092-0.2755,0.099-0.01-0.01-0.005-0.066,0.01-0.1252,0.0238-0.092,0.0829-0.1407,0.40816-0.337,1.1357-0.68574,2.2425-1.0942,3.3981-1.254l0.43132-0.0597-0.50406-0.004c-1.0138-0.007-2.1215,0.22006-3.2359,0.6635-0.17821,0.0709-0.33209,0.12894-0.34194,0.12894-0.01,0-0.0133-0.0554-0.008-0.1231,0.0102-0.12213,0.0152-0.12597,0.62384-0.48454,1.4508-0.85465,2.0181-1.1042,2.8024-1.2325l0.29848-0.0488-0.4643,0.0125c-0.71681,0.0192-1.2515,0.16187-2.5126,0.67028-0.37869,0.15267-0.69876,0.27759-0.71125,0.27759-0.0451,0,0.21158-0.24349,0.47118-0.44691,1.0541-0.82595,2.508-1.3943,4.6341-1.8113,0.30515-0.0599,0.54978-0.11389,0.5436-0.12007-0.0218-0.0218-1.5696,0.16135-2.0602,0.2438-0.61781,0.10383-1.5183,0.33015-1.9568,0.49179-0.18238,0.0672-0.53308,0.2212-0.77932,0.34215-0.24625,0.12094-0.46265,0.22604-0.48089,0.23355-0.0705,0.029,0.38015-0.41123,0.67987-0.66415,1.4984-1.2644,3.7757-2.1222,6.1354-2.311l0.34823-0.0279-0.41456-0.004c-1.367-0.0147-3.1508,0.31866-4.3943,0.82119l-0.33164,0.13402,0.12943-0.1069c1.0132-0.83679,2.2321-1.6252,3.1626-2.0457,1.1906-0.538,2.2017-0.76976,3.374-0.77332,0.47555-0.001,0.56323-0.008,0.43114-0.0334-0.0912-0.0174-0.50162-0.033-0.91203-0.0348-0.78714-0.003-1.2082,0.0446-1.8718,0.21364-1.2934,0.32943-2.8483,1.0808-4.2117,2.0353-0.19762,0.13835-0.36378,0.24708-0.36925,0.24161-0.0201-0.0201,0.60032-0.71753,0.9917-1.1146,0.77137-0.78269,1.5051-1.3341,2.4565-1.8461,1.4898-0.80178,3.4653-1.1042,5.8236-0.89167,0.4751,0.0428,0.20981-0.0171-0.39911-0.0902-0.82127-0.0985-2.3105-0.10713-2.9671-0.0171-1.3821,0.18945-2.3967,0.54986-3.5154,1.2488-0.90415,0.56489-1.6175,1.1344-2.2892,1.8275-0.42741,0.44103-1.4724,1.6506-1.6679,1.9306-0.12668,0.18141-0.42234,0.5194-0.45436,0.5194-0.008,0-0.006-0.0485,0.005-0.10778,0.18879-1.071,0.90606-2.0906,1.9173-2.7255,0.16181-0.10159,0.28074-0.18449,0.26427-0.18423-0.0652,0.001-0.71581,0.33269-0.9139,0.46591-0.56439,0.37954-1.0348,0.8629-1.3698,1.4074-0.11265,0.18312-0.12064,0.18973-0.10028,0.0829,0.0317-0.16636,0.22158-0.62617,0.36294-0.87895,0.37428-0.66927,1.1058-1.4023,1.795-1.7987,0.11589-0.0666,0.20469-0.12721,0.19733-0.13457-0.007-0.007-0.18228,0.0688-0.38871,0.16923-0.9158,0.44559-1.6645,1.1004-2.138,1.87-0.14452,0.23488-0.13063,0.13431,0.0393-0.28464,0.3726-0.91854,1.1599-1.7976,2.1844-2.4388,0.16239-0.10163,0.28634-0.1848,0.27544-0.1848s-0.1349,0.0524-0.27557,0.11656c-0.64875,0.29565-1.3138,0.75197-1.79,1.2282-0.30324,0.30324-0.30953,0.26377-0.0236-0.1481,0.47859-0.6894,1.2833-1.3302,2.1319-1.6978,0.29581-0.12812,0.2038-0.11902-0.24087,0.0238-0.87345,0.2806-1.7041,0.77957-2.2227,1.3352-0.0874,0.0936-0.16372,0.1702-0.16966,0.1702-0.006,0,0.001-0.0634,0.0165-0.14095,0.015-0.0775,0.0279-0.21557,0.0286-0.30678,0.001-0.16235,0.006-0.1707,0.2462-0.39918,0.54472-0.51919,1.3101-0.91969,2.3422-1.2256,0.41357-0.12259,0.39969-0.1348-0.0925-0.0814-0.77931,0.0846-1.5432,0.28856-2.1247,0.56723-0.18891,0.0905-0.34919,0.15887-0.35618,0.15188-0.007-0.007-0.0218-0.0583-0.033-0.11408l-0.0203-0.10136,0.4637-0.23188c0.52495-0.26252,1.1721-0.4846,1.9143-0.65692l0.49747-0.11551-0.56418,0.0164c-0.85767,0.025-1.6535,0.14554-2.2095,0.33465-0.13163,0.0448-0.25048,0.0814-0.26412,0.0814-0.0273,0-0.11041-0.22905-0.0904-0.24906,0.007-0.007,0.22011-0.0732,0.47389-0.14739,0.54487-0.15933,1.4148-0.33903,2.0408-0.42154l0.44772-0.059-0.23215-0.0288c-0.38814-0.0481-2.1413-0.0378-2.56,0.0151l-0.37114,0.0469-0.0344-0.0755c-0.0189-0.0416-0.0235-0.0756-0.0102-0.0756,0.0133-0.00003,0.44949-0.0291,0.96935-0.0646,0.51985-0.0355,1.1507-0.075,1.4019-0.0877,0.25117-0.0128,0.45109-0.0288,0.44425-0.0356-0.0141-0.0141-1.848-0.27435-2.5666-0.36429-0.33565-0.042-0.47703-0.0727-0.48991-0.10623-0.0148-0.0386,0.0107-0.043,0.14015-0.0243,1.0495,0.1521,1.3886,0.18769,1.9326,0.20284,0.64756,0.018,0.68997-0.003,0.19589-0.096-0.15675-0.0296-0.4403-0.0983-0.63012-0.15274-0.37375-0.10719-1.8614-0.63496-1.8426-0.65371,0.006-0.006,0.24881,0.0342,0.53891,0.0901,0.58633,0.11288,1.3694,0.23054,1.5224,0.22876,0.0691-0.0008-0.007-0.04-0.24874-0.12826-0.48609-0.17742-1.9012-0.79837-1.8763-0.82331,0.0115-0.0115,1.3428,0.32338,1.4987,0.37691,0.11563,0.0397-0.23178-0.17164-0.84961-0.5169-0.33739-0.18854-0.67596-0.37786-0.75238-0.4207-0.12274-0.0688-0.14159-0.0955-0.16153-0.22844-0.0124-0.0828-0.017-0.15612-0.0102-0.16293,0.007-0.007,0.30336,0.076,0.659,0.18389,0.53011,0.16091,1.0105,0.29139,1.7742,0.48189,0.0365,0.009-0.23265-0.13808-0.59806-0.32706s-0.93626-0.4972-1.2685-0.68493l-0.60416-0.34133v-0.13294c0-0.0939,0.0122-0.12763,0.0415-0.11486,0.65985,0.28778,1.4909,0.55803,2.363,0.76841,0.87489,0.21105,0.88141,0.20942,0.25397-0.0634-0.86575-0.37646-1.9972-0.97782-2.3119-1.2288l-0.0941-0.075,0.13882-0.41086c0.27572-0.816,0.39885-1.5027,0.42793-2.3866,0.019-0.57751-0.0129-1.0605-0.10045-1.5231-0.0386-0.2037-0.0409-0.18089-0.0421,0.41456-0.002,0.91234-0.11506,1.5681-0.43239,2.5039-0.16591,0.48928-0.21077,0.57334-0.21149,0.39632-0.00027-0.0629-0.03-0.57706-0.0661-1.1425-0.0361-0.56546-0.0657-1.187-0.0659-1.3811-0.00079-1.3727-0.39876-2.6549-1.3419-4.3232-0.11342-0.20064-0.28385-0.50659-0.37872-0.67987-0.25651-0.4685-0.57633-0.89712-0.94879-1.2716-0.31769-0.31937-0.32496-0.32981-0.16639-0.23879,0.5882,0.33765,1.221,0.90952,1.5677,1.4166,0.33809,0.49462,0.62863,1.1678,0.74897,1.7354l0.0492,0.23216,0.003-0.16977c0.001-0.0934-0.0201-0.30232-0.0481-0.46431-0.17811-1.0331-0.66724-1.981-1.4134-2.7391-0.15776-0.16031-0.27573-0.29146-0.26214-0.29146,0.0566,0,0.73213,0.47225,0.94411,0.66005,0.67371,0.59683,1.0695,1.2556,1.2474,2.076l0.0647,0.29848-0.016-0.34823c-0.0344-0.74725-0.33919-1.5311-0.84631-2.1764-0.0938-0.11934-0.16481-0.22269-0.15783-0.22966,0.0102-0.0102,0.30767,0.20147,0.55505,0.39509,0.0265,0.0207-0.008-0.066-0.0776-0.19266-0.14355-0.26297-0.0914-0.23633,0.16409,0.0838,0.6179,0.77423,1.0974,1.7861,1.3066,2.7573l0.0663,0.30782-0.0176-0.2819c-0.0629-1.0061-0.3862-2.0639-0.90454-2.9599-0.0923-0.15961-0.15561-0.29019-0.14062-0.29019,0.0466,0,0.51547,0.50827,0.66695,0.72308,0.0793,0.11239,0.14925,0.19922,0.15553,0.19294,0.0214-0.0214-0.16436-0.50084-0.29511-0.76166-0.1787-0.35648-0.1082-0.29264,0.13184,0.11936,0.52923,0.9084,0.88258,1.8149,1.2184,3.1256,0.0981,0.38305,0.17911,0.67363,0.17996,0.64572,0.003-0.10161-0.10173-0.88998-0.18158-1.3659-0.0938-0.55893-0.32797-1.5029-0.47522-1.9157-0.0552-0.15466-0.0946-0.2869-0.0876-0.29386,0.007-0.007,0.11795,0.14712,0.24666,0.34241,0.12871,0.19528,0.2339,0.34244,0.23375,0.32702-0.00013-0.0154-0.0445-0.20633-0.0985-0.42423s-0.0921-0.4023-0.0847-0.40978c0.0217-0.0217,0.40396,0.75886,0.54511,1.1132,0.22601,0.56729,0.3522,1.0313,0.49817,1.8319,0.0564,0.30913,0.0113-0.8945-0.0484-1.2934-0.0581-0.3879-0.21222-1.0474-0.31385-1.3428-0.0366-0.10622-0.0661-0.20945-0.0657-0.22939,0.001-0.0535,0.23385,0.32078,0.39625,0.637,0.0777,0.15141,0.14647,0.2702,0.15269,0.26397,0.006-0.006-0.0104-0.16619-0.037-0.35547s-0.0429-0.34951-0.0364-0.35605c0.0182-0.0182,0.31336,0.65618,0.40576,0.92712,0.0987,0.28929,0.1779,0.72203,0.1829,0.99891l0.004,0.20294,0.0457-0.18241c0.11503-0.45889,0.0923-1.029-0.0724-1.8117-0.13504-0.64199-0.13537-0.61755,0.005-0.3937,0.18729,0.29802,0.37076,0.74361,0.47896,1.1632,0.10885,0.42218,0.18159,1.0417,0.15155,1.2908-0.0356,0.29519,0.0372,0.085,0.0932-0.26911,0.069-0.43641,0.0689-1.169-0.00024-1.5716-0.045-0.26201-0.12807-0.58222-0.22791-0.87859-0.0466-0.13843,0.18444,0.16865,0.31091,0.41319,0.28582,0.55263,0.4355,1.2684,0.4438,2.1224,0.006,0.59732,0.0156,0.58463,0.12655-0.16408,0.0595-0.40131,0.0683-0.57374,0.0534-1.0447-0.0199-0.63157-0.0775-0.91231-0.27495-1.3398-0.0623-0.13482-0.1132-0.251-0.1132-0.2582,0-0.0367,0.13552,0.0679,0.25195,0.19438zm7.293,12.478c2.2301,0.59722,4.0511,1.2961,5.41,2.0763,0.44679,0.25653,1.3227,0.82905,1.6827,1.0999,0.40091,0.30161,0.40115,0.297,0.004-0.0901-1.5828-1.5446-3.5203-2.5041-6.0857-3.0136-0.44229-0.0879-1.343-0.22111-1.4673-0.21707-0.0412,0.001,0.16391,0.0664,0.45576,0.14455zm-7.5118,0.9573c0,0.0162,0.17317,0.14358,0.58038,0.42681,0.44552,0.30987,1.2499,0.73447,1.9272,1.0173,1.2214,0.51001,2.4043,0.77486,4.1916,0.93855,0.58449,0.0535,2.335,0.0531,2.9682-0.00073,0.47491-0.0404,1.4415-0.15752,1.461-0.17706,0.005-0.005-0.62005-0.01-1.3892-0.0103-1.424-0.001-1.9957-0.0291-3.0898-0.15127-1.7699-0.19769-2.8495-0.42219-4.0619-0.84461-0.89457-0.31169-1.9665-0.80818-2.4964-1.1562-0.0502-0.033-0.0912-0.052-0.0912-0.0424zm9.1292,2.8653c0.0323,0.008,0.077,0.008,0.0995-0.001s-0.004-0.016-0.0587-0.0153c-0.0547,0.00066-0.0731,0.008-0.0408,0.0165zm-0.43177,0.9611c-0.15049,0.007-0.27361,0.0256-0.27361,0.0403s0.17156,0.0366,0.38124,0.0485c1.4179,0.081,3.1161,0.51786,4.1617,1.0706,0.94366,0.49886,1.8221,1.2139,2.6084,2.1232,0.21647,0.25033,0.44283,0.5083,0.50303,0.57328l0.10945,0.11813-0.12327-0.19899c-0.74156-1.197-1.5008-2.0053-2.4893-2.6503-0.82448-0.53792-1.893-0.90401-3.0989-1.0617-0.40261-0.0526-1.3272-0.0854-1.7788-0.0631zm-1.5732,0.46464c0.0239,0.01,0.0525,0.008,0.0636-0.003,0.011-0.011-0.009-0.0189-0.0435-0.0174-0.0386,0.002-0.0465,0.009-0.02,0.02zm-18.102-17.236c0.65923,0.22231,1.4077,0.96569,1.8434,1.8308,0.12565,0.2495,0.13832,0.3305,0.0616,0.39413-0.043,0.0357-0.0779,0.0302-0.20728-0.0326-0.74529-0.36146-2.0265-1.4553-2.2555-1.9257-0.0716-0.14718-0.0982-0.24056-0.0837-0.29433,0.0201-0.0745,0.0322-0.0779,0.22358-0.0619,0.11128,0.009,0.29933,0.0496,0.41789,0.0896zm2.4638,0.47602c0.78323,0.57923,1.3117,1.4189,1.4643,2.3264l0.0448,0.26658,0.003-0.20293c0.0126-0.75844-0.40645-1.7577-1.0032-2.3922-0.0901-0.0958-0.15252-0.17412-0.13878-0.17412,0.0566,0,0.45859,0.34994,0.73928,0.64355,0.59351,0.62082,1.0085,1.387,1.1834,2.1851,0.0368,0.16799,0.0457,0.18455,0.0484,0.0899,0.01-0.36067-0.2386-1.2497-0.48845-1.7466-0.19266-0.38317-0.51671-0.85264-0.77951-1.1293-0.12619-0.13284-0.2192-0.24153-0.20668-0.24153,0.0638,0,0.56955,0.42691,0.83541,0.70513,0.48899,0.51172,0.8997,1.1895,1.1874,1.9596,0.10522,0.2816,0.12242,0.36713,0.12481,0.62073,0.003,0.32312-0.0498,0.46216-0.17571,0.46216-0.0376,0-0.1604-0.0441-0.27285-0.0981-0.11244-0.0539-0.45068-0.1975-0.75165-0.31902-0.88918-0.35905-1.5287-0.68135-1.6614-0.83725-0.12593-0.14803-0.76592-1.1529-0.88753-1.3935-0.16502-0.32651-0.35138-0.61912-0.55482-0.8711-0.11626-0.14401-0.20503-0.26183-0.19726-0.26183,0.0371,0,0.45283,0.25894,0.61705,0.38434,0.25231,0.19266,0.6442,0.61542,0.83686,0.90278,0.21048,0.31395,0.46366,0.8502,0.56665,1.2002,0.1019,0.34633,0.11086,0.24406,0.0167-0.19057-0.17207-0.79421-0.53603-1.5047-1.067-2.0828l-0.23955-0.26083,0.25668,0.13795c0.14118,0.0759,0.3658,0.21864,0.49917,0.31727zm-6.5231,1.2933c-0.21913,0.13748-0.55126,0.37035-0.65007,0.4558l-0.11607,0.10038,0.13265-0.0544c0.24718-0.10142,0.6942-0.24741,0.72558-0.23695,0.0172,0.006-0.0421,0.0379-0.13161,0.0716-0.0896,0.0336-0.28018,0.11969-0.42361,0.19119-0.14342,0.0715-0.38967,0.17545-0.54721,0.23099-0.57267,0.20186-1.1137,0.51246-1.4595,0.83788-0.6739,0.63417-1.2743,1.5972-1.5932,2.5555-0.12153,0.36516-0.30299,1.1494-0.30024,1.2976,0.00063,0.0342,0.0749-0.13931,0.1651-0.38556,0.34883-0.9526,0.89087-1.8945,1.4982-2.6034,0.49099-0.57311,0.8996-0.90188,1.4834-1.1935,0.66523-0.33232,1.6238-0.52427,2.3162-0.4638l0.29004,0.0253-0.26532,0.0448c-0.58545,0.0989-1.2392,0.37384-1.6765,0.70498-0.27511,0.20832-0.67566,0.62642-0.85956,0.89723-0.30382,0.4474-0.54838,1.0984-0.61101,1.6266l-0.0216,0.18241,0.16531-0.34121c0.48618-1.0035,1.2282-1.8496,2.1577-2.4602,0.39913-0.26221,1.131-0.63108,1.2522-0.63108,0.0508,0,0.19633,0.0288,0.32335,0.064,0.12703,0.0352,0.2372,0.0578,0.24483,0.0502,0.0248-0.0248-0.36465-0.18241-0.65957-0.267-0.15817-0.0454-0.43556-0.10127-0.61641-0.12421-0.38131-0.0484-0.34068-0.0775,0.15205-0.10903,0.56465-0.0361,1.1093,0.12374,1.5118,0.44379,0.4656,0.3702,0.83266,1.143,0.93665,1.972l0.0303,0.24198,0.004-0.35068c0.007-0.58376-0.14556-1.2668-0.41383-1.8511-0.0619-0.13481-0.1122-0.25421-0.11181-0.26532,0.002-0.0581,0.32929,0.49238,0.48086,0.80891,0.2661,0.55573,0.46893,1.2715,0.484,1.708,0.004,0.10281,0.007,0.0971,0.0339-0.0498,0.0981-0.54514-0.17637-1.867-0.53282-2.5657-0.11263-0.22078-0.0771-0.20195,0.0854,0.0452,0.21384,0.32531,0.45302,0.83309,0.59138,1.2555,0.12682,0.38715,0.28271,1.1601,0.28271,1.4019,0,0.0909,0.0129,0.141,0.0332,0.1285,0.0498-0.0308,0.0394-1.0044-0.0151-1.414-0.0258-0.19401-0.078-0.48354-0.11599-0.64339-0.038-0.15985-0.0635-0.2961-0.0569-0.3028,0.0238-0.0238,0.28176,0.57792,0.38227,0.8917,0.0562,0.17543,0.12659,0.45076,0.15643,0.61184,0.091,0.49105,0.10812,0.49164,0.11092,0.004,0.003-0.45984-0.0578-1.0195-0.14586-1.351-0.0264-0.0995-0.0421-0.18688-0.0347-0.19422,0.007-0.007,0.0871,0.1412,0.17727,0.3301,0.15457,0.32386,0.26918,0.63799,0.38546,1.0565,0.05,0.17979,0.0505,0.17466,0.0389-0.35773-0.007-0.29708-0.007-0.53504-0.0005-0.52882,0.0361,0.0361,0.1999,0.52434,0.28069,0.8368,0.0519,0.20065,0.0968,0.34242,0.0999,0.31506,0.003-0.0274,0.0152-0.25868,0.0269-0.51405l0.0213-0.4643,0.0919,0.2819c0.0505,0.15504,0.1188,0.41494,0.15167,0.57755,0.0329,0.16261,0.0678,0.282,0.0776,0.26532,0.0195-0.0333,0.0893-0.6053,0.10277-0.84287l0.008-0.14924,0.073,0.15299c0.151,0.31644,0.24695,0.87944,0.29327,1.7208,0.0168,0.30554,0.0317,0.41086,0.047,0.33165,0.10957-0.56945,0.17508-1.0469,0.19338-1.4095l0.0218-0.43114,0.0783,0.2819c0.17118,0.61603,0.18427,0.74765,0.18537,1.8628,0.00057,0.57762,0.003,1.0477,0.006,1.0447,0.0142-0.0144,0.21426-1.0788,0.25728-1.3691,0.0267-0.18033,0.0594-0.51441,0.0726-0.74241l0.024-0.41456,0.0782,0.2819c0.18818,0.67809,0.22096,0.97368,0.2225,2.0064,0.001,0.82199-0.01,1.0429-0.0743,1.5197-0.0416,0.30688-0.0834,0.58297-0.0928,0.61355-0.0143,0.0465-0.0119,0.0474,0.0144,0.006,0.0452-0.0715,0.25866-0.97758,0.33591-1.4261,0.11353-0.65914,0.14596-1.0252,0.14885-1.6803,0.002-0.3496,0.005-0.63311,0.008-0.63001,0.0113,0.0113,0.17794,0.68656,0.22739,0.92164,0.22888,1.0881,0.2586,2.3285,0.0807,3.3699-0.18016,1.0549-0.44,1.6568-0.94471,2.1884l-0.18182,0.1915,0.0647-0.15624c0.10854-0.2621,0.19654-0.57629,0.24663-0.88058,0.084-0.5104,0.0906-0.57791,0.0545-0.55556-0.0187,0.0115-0.0342,0.0462-0.0344,0.0771-0.00074,0.0878-0.31255,0.71448-0.47882,0.9623-0.0826,0.12315-0.20736,0.2797-0.27719,0.34789l-0.12695,0.12397,0.0922-0.27568c0.0969-0.2897,0.19434-0.81133,0.19354-1.0361-0.00046-0.12694-0.005-0.12063-0.11544,0.14646-0.0632,0.15352-0.17339,0.37738-0.24481,0.49747-0.13427,0.22578-0.40089,0.57853-0.42161,0.55782-0.006-0.006,0.0168-0.087,0.0518-0.17899,0.0813-0.21386,0.16065-0.6282,0.17532-0.91497,0.012-0.2346-0.0181-0.29933-0.0545-0.11729-0.0375,0.18749-0.27597,0.6373-0.46793,0.88265-0.10237,0.13083-0.19935,0.23786-0.21553,0.23786-0.0162,0-0.002-0.0634,0.0324-0.14095,0.0879-0.20031,0.16658-0.61399,0.16658-0.8758,0-0.24227-0.0308-0.24585-0.0977-0.0113-0.0721,0.25325-0.2235,0.51554-0.41984,0.72762-0.10339,0.11166-0.19305,0.19794-0.19925,0.19174-0.006-0.006,0.0178-0.0877,0.0533-0.18115,0.0917-0.24133,0.13541-0.55934,0.10375-0.75479-0.0284-0.17554-0.0307-0.17315-0.11727,0.12341-0.058,0.19882-0.26509,0.48914-0.47965,0.67254-0.0918,0.0784-0.11046,0.0855-0.0883,0.0332,0.14406-0.34065,0.18835-0.67851,0.11954-0.91202-0.021-0.0712-0.0302-0.0559-0.0653,0.10749-0.0547,0.25492-0.20828,0.46972-0.48622,0.68016-0.12647,0.0958-0.23842,0.17411-0.24876,0.17411-0.0104,0.00001,0.0305-0.10073,0.0908-0.22385,0.18723-0.38246,0.25499-0.81675,0.17981-1.1525-0.0203-0.0904-0.026-0.0813-0.0625,0.0995-0.0798,0.39529-0.3022,0.74632-0.6447,1.0176-0.0704,0.0558-0.13505,0.0944-0.1436,0.0859-0.009-0.009,0.0209-0.0812,0.0653-0.16153,0.19387-0.35001,0.31226-0.94837,0.26737-1.3513-0.0135-0.1214-0.0285-0.20581-0.0334-0.18757-0.005,0.0182-0.0339,0.14509-0.0647,0.28189-0.0902,0.40159-0.28834,0.77543-0.54923,1.0364-0.12309,0.12312-0.23921,0.22386-0.25806,0.22386-0.0188,0,0.002-0.065,0.0464-0.14436,0.0898-0.16072,0.19821-0.45768,0.24991-0.68476,0.0517-0.22716,0.0914-0.82702,0.0657-0.99493l-0.0228-0.14924-0.0262,0.16349c-0.0396,0.2469-0.20566,0.72938-0.33734,0.97997-0.12114,0.23053-0.40005,0.57086-0.52079,0.63548-0.0644,0.0344-0.0634,0.0274,0.0156-0.10827,0.21691-0.37268,0.33987-0.92482,0.37207-1.6707,0.0207-0.48006-0.002-0.47681-0.11436,0.0166-0.14903,0.65243-0.46089,1.2766-0.77005,1.5412-0.0752,0.0644-0.20957,0.15333-0.2986,0.1977-0.16032,0.0799-0.1632,0.0801-0.30078,0.0215l-0.1389-0.0592-0.00049-0.21222c-0.00094-0.40787-0.0163-0.59362-0.0493-0.59362-0.0182,0-0.0332,0.0195-0.0332,0.0432,0,0.0565-0.25025,0.57369-0.28922,0.59778-0.0228,0.0141-0.29169-0.0583-0.36873-0.0992-0.006-0.003,0.0125-0.12066,0.0415-0.26083,0.0553-0.26728,0.0721-0.77839,0.0256-0.77839-0.0149,0-0.0523,0.0799-0.0831,0.17749-0.0531,0.16832-0.23638,0.47608-0.38544,0.64709-0.0603,0.0692-0.0863,0.0757-0.22174,0.0554-0.2464-0.037-0.24594-0.0362-0.14292-0.22687,0.1344-0.24875,0.23014-0.62709,0.23014-0.90943,0-0.13262-0.0112-0.24109-0.0249-0.24107-0.0137,0.00003-0.0501,0.0859-0.0809,0.19074-0.0711,0.24186-0.27227,0.5545-0.46095,0.71624-0.14727,0.12624-0.48866,0.33737-0.50988,0.31533-0.006-0.007,0.0243-0.23571,0.0679-0.50932,0.0436-0.2736,0.0889-0.61686,0.10058-0.76278l0.0213-0.26532-0.24264,0.46431c-0.13345,0.25536-0.31028,0.5962-0.39296,0.75741-0.14955,0.29158-0.15063,0.29273-0.20894,0.22072-0.0322-0.0398-0.0775-0.1344-0.10051-0.2102-0.0584-0.19208-0.0498-1.0051,0.0136-1.2915,0.0274-0.1238,0.0387-0.21335,0.0251-0.19898-0.0529,0.0558-0.36517,0.6998-0.43079,0.88839-0.0381,0.10944-0.0778,0.31521-0.0882,0.45726l-0.019,0.25827-0.075-0.0705c-0.19823-0.18623-0.40478-0.74691-0.43618-1.184-0.0108-0.15049-0.0305-0.27361-0.0438-0.27361s-0.052,0.13805-0.086,0.30677c-0.063,0.31207-0.0824,0.84717-0.0381,1.0462l0.0244,0.10936-0.10276-0.0596c-0.27506-0.15955-0.63551-0.6756-0.81507-1.1669l-0.0802-0.21931,0.0165,0.34823c0.0184,0.38984,0.10224,0.72956,0.25425,1.0307,0.0545,0.10801,0.0897,0.19638,0.0782,0.19638-0.0583,0-0.36549-0.26195-0.49807-0.4247-0.2269-0.27854-0.47692-0.81492-0.47692-1.0232,0-0.0427-0.0172-0.0777-0.0382-0.0777-0.0596,0-0.009,0.66833,0.073,0.96177,0.0382,0.1368,0.12031,0.34476,0.18256,0.46212,0.0622,0.11736,0.10805,0.21852,0.10177,0.2248-0.0266,0.0266-0.37438-0.26655-0.50833-0.42835-0.19792-0.23908-0.39833-0.65476-0.46009-0.95428-0.0281-0.13639-0.0577-0.25454-0.0657-0.26255-0.0158-0.0158-0.0227,0.25517-0.0149,0.58587,0.006,0.27367,0.10787,0.63045,0.26368,0.92789,0.0693,0.13225,0.11529,0.24045,0.10226,0.24045-0.0827,0-0.45571-0.29574-0.61371-0.48662-0.20323-0.24552-0.45146-0.71487-0.53192-1.0058l-0.0505-0.1824,0.0164,0.31506c0.0265,0.50811,0.20482,1.0322,0.46905,1.3783,0.10709,0.14028,0.11041,0.15106,0.0402,0.13011-0.14884-0.0444-0.49441-0.29222-0.65979-0.47317-0.28476-0.31157-0.52097-0.69674-0.66542-1.085l-0.0617-0.16582,0.0191,0.16582c0.0491,0.42615,0.29646,1.107,0.51231,1.4102,0.0387,0.0544,0.0598,0.0988,0.0469,0.0988-0.0616,0-0.5969-0.39113-0.89298-0.65251l-0.33152-0.29268,0.19587,0.2819c0.23861,0.34342,0.40909,0.55733,0.63057,0.79121,0.11253,0.11883,0.14628,0.17158,0.10192,0.15928-0.0365-0.0101-0.15587-0.0412-0.26531-0.0691-0.10945-0.0279-0.42229-0.12565-0.69522-0.21731-0.27292-0.0917-0.5117-0.16664-0.53063-0.16662-0.0527,0,0.8181,0.51962,1.1965,0.71392l0.3355,0.17226-0.34842,0.16028c-1.2241,0.56313-2.1294,1.5728-2.5646,2.8604-0.0528,0.15632-0.0959,0.29262-0.0956,0.30288,0.00027,0.0103,0.0726-0.13059,0.16079-0.31299,0.1951-0.40362,0.4655-0.77157,0.83642-1.1382,0.23911-0.23633,0.85289-0.73562,0.9043-0.73562,0.009,0-0.0781,0.13907-0.19413,0.30905-0.66173,0.96912-1.0942,2.1639-1.2927,3.5712-0.0732,0.51868-0.0561,0.63742,0.0309,0.21557,0.31257-1.5147,0.95943-2.8853,1.7765-3.7642,0.13865-0.14915,0.13245-0.13043-0.061,0.18412-0.15734,0.25588-0.453,0.89197-0.56955,1.2254-0.11574,0.33112-0.27342,0.9453-0.32779,1.2768-0.0699,0.42624-0.10973,1.1408-0.0832,1.4924l0.0263,0.34823,0.0238-0.4025c0.0688-1.163,0.43367-2.3685,0.99396-3.2839,0.13007-0.2125,0.54711-0.79088,0.52237-0.72445-0.007,0.0182-0.0894,0.18987-0.18352,0.3814-0.29143,0.5929-0.47448,1.1678-0.59657,1.8738-0.0877,0.50703-0.0793,1.6082,0.0158,2.0691,0.0391,0.1895,0.0807,0.35367,0.0925,0.36481,0.0118,0.0112,0.01-0.032-0.004-0.0958-0.0465-0.21256-0.0248-1.3539,0.0331-1.7411,0.1055-0.70531,0.3183-1.4193,0.57369-1.9248,0.14678-0.29056,0.4473-0.67882,0.83325-1.0765,0.33511-0.34532,0.33708-0.3467,0.2355-0.16582-0.49953,0.88954-0.79948,1.6897-0.96976,2.5868-0.0584,0.30776-0.0724,0.50305-0.0726,1.0115-0.0002,0.63622,0.0358,0.93518,0.16965,1.4095,0.0618,0.21901,0.24506,0.70531,0.2601,0.69027,0.006-0.006-0.024-0.1305-0.0664-0.27694-0.1466-0.50617-0.19235-0.9297-0.17343-1.6056,0.0127-0.45188,0.0361-0.70214,0.0883-0.94254,0.21554-0.99335,0.7488-2.078,1.4466-2.9424,0.3226-0.39963,0.51187-0.60945,0.51187-0.56743,0,0.0197-0.0128,0.0438-0.0285,0.0535-0.0475,0.0294-0.38316,0.60988-0.57689,0.9978-0.36476,0.73039-0.61482,1.4642-0.7628,2.2386-0.0613,0.32099-0.0729,0.49696-0.0728,1.111,0.00013,0.68432,0.006,0.75433,0.0938,1.1276,0.0515,0.21888,0.14605,0.53229,0.21008,0.69645,0.11157,0.28608,0.37615,0.82176,0.39604,0.80187,0.005-0.005-0.0515-0.15051-0.12605-0.32279-0.41112-0.9498-0.5007-2.1306-0.24516-3.2316,0.25443-1.0962,0.92495-2.374,1.7838-3.3995,0.51272-0.61216,0.60002-0.67822,0.30397-0.23001-0.45053,0.68206-0.79225,1.4738-0.94888,2.1984-0.10512,0.48635-0.10525,1.3379-0.00026,1.7575,0.0404,0.16135,0.0894,0.31806,0.10894,0.34822,0.0319,0.0493,0.0336,0.0488,0.017-0.005-0.0525-0.1678-0.091-0.70314-0.0709-0.98526,0.0738-1.0373,0.52099-2.0456,1.3384-3.018,0.14566-0.17328,0.32077-0.36729,0.38912-0.43114l0.12427-0.11607-0.13291,0.19899c-0.0731,0.10944-0.20074,0.32584-0.28365,0.48088-0.15958,0.29845-0.46995,1.0576-0.44328,1.0843,0.009,0.009,0.0339-0.0191,0.0559-0.0617,0.10805-0.2084,0.53319-0.76083,0.80501-1.046,0.2705-0.28382,0.80697-0.72874,0.83949-0.69622,0.007,0.007-0.0184,0.10054-0.0558,0.20841-0.11383,0.32798-0.29159,1.0356-0.36585,1.4564-0.0936,0.53013-0.12133,1.4308-0.0605,1.9612l0.0451,0.39347,0.0213-0.43114c0.0362-0.73495,0.15748-1.3365,0.42635-2.1149,0.13101-0.37926,0.46435-1.1643,0.48544-1.1432,0.006,0.006-0.004,0.10692-0.0215,0.2248-0.0176,0.11788-0.0469,0.65459-0.0652,1.1927-0.0183,0.5381-0.0425,1.2054-0.0539,1.483-0.0313,0.7637,0.0513,1.5914,0.22369,2.2406,0.0761,0.28664,0.29377,0.86564,0.31678,0.84264,0.007-0.007-0.003-0.0563-0.0227-0.10858-0.15945-0.4194-0.26775-1.254-0.26857-2.0698-0.001-1.1472,0.12838-2.0567,0.5078-3.5652,0.16523-0.65688,0.17973-0.70425,0.2072-0.67679,0.0342,0.0342,0.19254,1.4546,0.28504,2.5573,0.0555,0.66211,0.11614,1.3456,0.13467,1.5189,0.0544,0.50856,0.20071,1.4995,0.23235,1.5735,0.022,0.0515,0.0256,0.0398,0.0146-0.0479-0.0478-0.38031-0.0541-0.98689-0.0323-3.1087l0.0244-2.3663,0.11428,0.15896c0.15442,0.21481,0.47959,0.89408,0.58411,1.2202,0.26757,0.83492,0.35278,1.4248,0.37847,2.62,0.0211,0.98195,0.0338,0.99931,0.11964,0.16345,0.13479-1.3126,0.0893-2.3225-0.14398-3.1999-0.0859-0.32316-0.0814-0.35247,0.0202-0.13074,0.29982,0.65406,0.47885,1.3766,0.59162,2.3878,0.0275,0.24624,0.0524,0.4701,0.0555,0.49746,0.003,0.0274,0.0166-0.0846,0.03-0.24873,0.0369-0.45148,0.0356-1.294-0.003-1.6796-0.0347-0.35071-0.14753-0.97315-0.20257-1.1179-0.0168-0.0442-0.0228-0.0882-0.0133-0.0977,0.026-0.0259,0.36094,0.69707,0.48092,1.038,0.0578,0.16416,0.1556,0.46264,0.21738,0.66329,0.10385,0.33724,0.11246,0.3533,0.11386,0.2126,0.005-0.50284-0.1521-1.596-0.2957-2.0574-0.0357-0.11471-0.0602-0.21329-0.0544-0.21906,0.0803-0.0803,0.4437,0.55511,0.64694,1.1314,0.0571,0.16202,0.14954,0.47532,0.2053,0.69621,0.0558,0.22089,0.10957,0.40919,0.11957,0.41844,0.0388,0.0359-0.0223-1.4529-0.07-1.7065-0.0273-0.14526-0.0459-0.26782-0.0414-0.27238,0.005-0.005,0.0573,0.0215,0.11711,0.0579,0.17767,0.10805,0.36487,0.58399,0.51924,1.3201,0.0435,0.20748,0.085,0.38318,0.0923,0.39045,0.0309,0.0309,0.0891-0.68986,0.0896-1.1088,0.00034-0.30893,0.0109-0.43887,0.033-0.40507,0.0179,0.0274,0.0923,0.20167,0.16539,0.38736,0.13871,0.35245,0.24258,0.75019,0.28423,1.0885l0.0245,0.19898,0.0501-0.21556c0.0342-0.14716,0.051-0.40783,0.053-0.82138l0.003-0.6058,0.10785,0.23716c0.22989,0.50552,0.36926,1.0041,0.37632,1.3462l0.003,0.15893,0.047-0.14924c0.086-0.27338,0.12086-0.72512,0.0859-1.114-0.0179-0.19901-0.0275-0.36722-0.0215-0.37381,0.0257-0.0279,0.19496,0.1925,0.28595,0.37239,0.14702,0.29063,0.34911,0.92865,0.39533,1.2481,0.037,0.25589,0.0438,0.27271,0.0736,0.1824,0.0382-0.11596,0.0506-1.3419,0.0152-1.5007-0.0439-0.19684,0.0651-0.12334,0.19263,0.12985,0.18273,0.36285,0.33884,0.79428,0.46555,1.2866,0.0632,0.2455,0.1234,0.45444,0.13379,0.4643,0.024,0.0228-0.0123-1.5674-0.0393-1.7232l-0.0201-0.11608,0.0695,0.0829c0.1171,0.13974,0.32531,0.59754,0.41478,0.91203,0.0467,0.16416,0.11947,0.50741,0.16172,0.76278,0.0763,0.46108,0.077,0.46304,0.10008,0.2819,0.0611-0.47853,0.0827-1.0617,0.051-1.3742-0.0184-0.18125-0.041-0.34168-0.0501-0.35652-0.009-0.0148-0.005-0.027,0.0102-0.0269,0.0593,0,0.25344,0.34068,0.3441,0.60371,0.10595,0.30741,0.21262,0.877,0.24905,1.33,0.0129,0.16066,0.0338,0.28005,0.0463,0.26532,0.0248-0.029,0.0906-0.53657,0.13409-1.0345,0.015-0.17119,0.0149-0.43236-0.0001-0.58038-0.015-0.14801-0.0219-0.2747-0.0153-0.28153,0.0188-0.0194,0.17321,0.34513,0.24586,0.58034,0.12646,0.40943,0.17675,0.80629,0.19698,1.5546l0.0197,0.72962,0.091-0.4643c0.1345-0.68594,0.16908-1.0608,0.14661-1.5895-0.0109-0.2567-0.029-0.5115-0.0401-0.56623-0.0402-0.19705,0.0493-0.006,0.16859,0.35983,0.18709,0.57383,0.25656,1.0571,0.26058,1.8124,0.002,0.35569-0.007,0.78849-0.0194,0.96177l-0.0228,0.31507,0.0642-0.23216c0.25078-0.90724,0.35619-2.1482,0.24226-2.8522-0.0348-0.21524,0.0194-0.11178,0.10687,0.20398,0.12854,0.46387,0.18118,0.84641,0.20241,1.4709,0.0172,0.50627-0.0266,1.532-0.0744,1.7411-0.0152,0.0663-0.0152,0.0663,0.0172,0,0.0515-0.10565,0.25816-1.0899,0.32029-1.5256,0.0589-0.41298,0.0809-1.3588,0.0401-1.7246l-0.0222-0.19899,0.066,0.19899c0.24227,0.73057,0.28912,1.8727,0.14422,3.5154l-0.0146,0.16582,0.0485-0.18241c0.0896-0.33668,0.27606-1.2732,0.33021-1.6582,0.0295-0.20977,0.063-0.59033,0.0744-0.8457,0.0206-0.46089,0.0211-0.46308,0.064-0.29848,0.0893,0.34233,0.14417,0.89115,0.14354,1.4355-0.00056,0.47904-0.0225,0.7493-0.1128,1.3893-0.026,0.18415,0.13124-0.29762,0.22918-0.70224,0.13196-0.54519,0.18898-1.0213,0.19264-1.6085,0.003-0.51106,0.006-0.53735,0.0476-0.39797,0.25529,0.86319,0.28928,1.7578,0.0959,2.5247-0.0409,0.16215-0.0634,0.28351-0.05,0.26967,0.0555-0.0574,0.2381-0.57486,0.31238-0.88542,0.0766-0.32013,0.16384-1.127,0.12814-1.1847-0.0297-0.048,0.0791-0.0302,0.13074,0.0214,0.0506,0.0506,0.14021,0.30151,0.24291,0.68037,0.044,0.16233,0.0584,0.34253,0.0585,0.72962,0.00007,0.57666-0.0476,0.8304-0.26598,1.4172-0.11825,0.31771-0.61126,1.379-0.63129,1.359-0.009-0.009,0.0901-0.68537,0.13717-0.93463,0.0104-0.0552-0.0761,0.11602-0.19241,0.3805-0.2957,0.67272-0.54887,1.1544-0.5531,1.0524-0.00058-0.014,0.0812-0.22608,0.18166-0.47136,0.15579-0.38024,0.3671-1.0454,0.33211-1.0454-0.006,0-0.0565,0.0805-0.11199,0.17889-0.10532,0.18662-0.43589,0.61153-0.71475,0.91874-0.14896,0.1641-0.16064,0.17094-0.1386,0.0812,0.0349-0.14222,0.15511-0.98778,0.14223-1.0007-0.006-0.006-0.0607,0.11192-0.12148,0.26201-0.14662,0.3618-0.34753,0.76273-0.49074,0.97929l-0.11624,0.17577-0.26117-0.0153c-0.14364-0.008-0.26373-0.0203-0.26686-0.0265-0.003-0.006,0.0262-0.13064,0.0651-0.27656,0.0674-0.25248,0.14058-0.73119,0.13928-0.91116-0.00039-0.0535-0.0409,0.014-0.11198,0.18657-0.15851,0.38477-0.34586,0.71974-0.50141,0.89652l-0.13421,0.15252-0.33967,0.0163-0.33967,0.0164,0.0671-0.15643c0.0369-0.086,0.0961-0.27087,0.13164-0.41074,0.0652-0.25691,0.14504-0.80194,0.12093-0.82605-0.007-0.007-0.0316,0.0439-0.0541,0.11352-0.11325,0.34906-0.43141,0.88591-0.70577,1.1909-0.15011,0.16685-0.15518,0.16931-0.42717,0.20732-0.42505,0.0594-0.4053,0.0774-0.25873-0.23541,0.16782-0.35813,0.2988-0.81286,0.31757-1.1025l0.015-0.23215-0.062,0.16582c-0.16822,0.44967-0.42065,0.83098-0.82879,1.252-0.2397,0.24723-0.25497,0.257-0.40097,0.25652-0.24397-0.00083-0.26043-0.0279-0.1539-0.25285,0.20205-0.42675,0.35548-1.036,0.3481-1.3824-0.002-0.1039-0.003-0.10422-0.0355-0.0225-0.11301,0.28199-0.31588,0.64355-0.46701,0.83231-0.52859,0.66023-0.79913,0.86474-1.1535,0.87195-0.22316,0.005-0.22403-0.003-0.0468-0.42743,0.10363-0.24795,0.1268-0.3462,0.13686-0.58038l0.0121-0.28189-0.06,0.16582c-0.0853,0.23551-0.219,0.41446-0.61092,0.81734-0.3111,0.31979-0.36372,0.35992-0.55891,0.42617-0.11851,0.0402-0.3214,0.0809-0.45087,0.0904-0.22531,0.0165-0.24013,0.0131-0.34559-0.0812l-0.11019-0.0984,0.2003-0.27869c0.11017-0.15328,0.23889-0.346,0.28605-0.42828,0.23862-0.41629,0.33471-0.90383,0.25159-1.2765l-0.0444-0.19898-0.0215,0.29848c-0.0431,0.59831-0.2481,0.90934-1.0919,1.6564-0.60542,0.53602-0.79697,0.67104-0.98951,0.69752-0.16095,0.0221-0.29014-0.0124-0.34164-0.0914-0.0116-0.0178,0.0331-0.10418,0.0995-0.19187,0.54554-0.7209,0.85156-1.6846,0.884-2.7837l0.0142-0.48088-0.0443,0.28189c-0.0697,0.44398-0.11897,0.65478-0.23876,1.0217-0.33578,1.0285-0.98936,1.881-1.7314,2.2584l-0.14243,0.0724-0.50428-0.0562c-0.45135-0.0503-0.52766-0.0682-0.72698-0.17075-0.57822-0.29755-1.1417-0.99568-1.5056-1.8653-0.0995-0.23788-0.0984-0.17087,0.004,0.23317,0.15674,0.61831,0.41165,1.2051,0.67113,1.545l0.11864,0.15538-0.29552-0.0237c-0.36997-0.0296-0.49625-0.0977-0.86085-0.46426-0.29619-0.29774-0.44849-0.51387-0.66384-0.94203-0.0797-0.15839-0.14536-0.27092-0.146-0.25007-0.00064,0.0209,0.0419,0.20853,0.0946,0.41706,0.10048,0.39783,0.24374,0.75898,0.40514,1.0213,0.0528,0.0859,0.0961,0.16681,0.0961,0.17984,0,0.0389-0.6063-0.0193-0.70073-0.0672-0.24846-0.12612-0.64657-0.58036-0.86246-0.98407l-0.12833-0.23998,0.0188,0.14925c0.0383,0.30373,0.11899,0.67348,0.18189,0.83308,0.0356,0.0904,0.0648,0.17299,0.0648,0.1836,0,0.0292-0.23018-0.14686-0.39272-0.30034-0.17559-0.16581-0.41205-0.48958-0.50145-0.68662l-0.0661-0.1458-0.00073,0.12577c-0.001,0.18367,0.0927,0.60691,0.18463,0.83306,0.0439,0.10808,0.0749,0.20143,0.0689,0.20745-0.006,0.006-0.0796-0.0345-0.16346-0.0901-0.24918-0.16505-0.53542-0.49807-0.68802-0.80046l-0.13915-0.27573,0.0155,0.41456c0.0144,0.38665,0.0538,0.5835,0.17567,0.87731,0.0236,0.0569,0.007,0.0534-0.13681-0.0293-0.38509-0.22136-0.71718-0.52341-0.88783-0.80754l-0.094-0.15656,0.0199,0.26532c0.0244,0.326,0.0872,0.56979,0.21134,0.82023,0.0521,0.10521,0.0895,0.19128,0.0831,0.19128-0.0468,0-0.52824-0.26648-0.68997-0.38189-0.22213-0.1585-0.33357-0.26975-0.46093-0.46014-0.10244-0.15315-0.11191-0.10072-0.0355,0.19665,0.0664,0.25857,0.24025,0.62225,0.39165,0.8195,0.1378,0.17953,0.0981,0.20553-0.0975,0.0638-0.18267-0.13232-0.4235-0.40877-0.57966-0.6654l-0.13342-0.21924,0.0171,0.14924c0.009,0.0821,0.0259,0.24631,0.0366,0.36497,0.0107,0.11864,0.0543,0.30146,0.0969,0.40626,0.0426,0.10479,0.0679,0.19048,0.0563,0.19041-0.0362-0.00033-0.3218-0.37212-0.43282-0.56367l-0.10572-0.1824,0.0107,0.44772c0.008,0.33636,0.0242,0.47247,0.065,0.54721l0.0543,0.0995-0.32189,0.33165c-0.8103,0.83487-1.2982,1.9264-1.5782,3.5312-0.10969,0.6285-0.1034,0.6652,0.0314,0.1833,0.29174-1.0427,0.73166-2.0011,1.195-2.6035,0.17372-0.22584,0.45211-0.53705,0.46705-0.52211,0.006,0.006-0.0336,0.15965-0.0883,0.34123-0.13303,0.4417-0.25002,1.0386-0.2986,1.5238-0.0482,0.4809-0.023,1.3621,0.0515,1.8078,0.0592,0.3537,0.20837,0.9523,0.25625,1.0281,0.0257,0.041,0.0282,0.039,0.0135-0.01-0.0712-0.2295-0.13181-0.8711-0.13237-1.4017-0.00091-0.8574,0.10958-1.5117,0.39529-2.3407,0.11635-0.33758,0.56876-1.3122,0.59633-1.2846,0.008,0.008-0.0309,0.12931-0.0857,0.2704-0.36498,0.93994-0.53885,2.0647-0.46436,3.0039,0.0329,0.4141,0.14963,1.0723,0.23295,1.3128,0.0377,0.1088,0.0374,0.105-0.0326-0.4311-0.14136-1.0829,0.12197-2.4851,0.68006-3.6213,0.25755-0.52434,0.35206-0.65247,0.20057-0.27193-0.13834,0.34753-0.29466,0.92622-0.3708,1.3727-0.11805,0.6922-0.0662,1.9338,0.10529,2.5206,0.0267,0.091,0.041,0.121,0.0319,0.066-0.0432-0.259-0.0546-1.0242-0.0199-1.34,0.13906-1.2675,0.66584-2.5861,1.4113-3.5326,0.20566-0.26112,0.26164-0.30001,0.16621-0.11547-0.0969,0.18737-0.21403,0.56577-0.2647,0.85506-0.0742,0.42375-0.0575,1.6622,0.0225,1.6622,0.0156,0,0.0284-0.0727,0.0284-0.16149,0-0.39598,0.18622-1.1358,0.40156-1.5953,0.13048-0.27842,0.32637-0.61063,0.34757-0.58943,0.006,0.006-0.0172,0.10158-0.0517,0.21231-0.0847,0.27231-0.13984,0.79905-0.1117,1.068l0.0231,0.22023,0.0776-0.33165c0.0883-0.37778,0.31138-0.85749,0.49339-1.0613,0.10476-0.11729,0.11635-0.12306,0.1-0.0498-0.0402,0.18025-0.0602,0.6971-0.0354,0.9145,0.0262,0.22956,0.0262,0.22961,0.0549,0.097,0.0512-0.23716,0.22727-0.72523,0.32895-0.91202l0.0993-0.18241-0.0167,0.36481c-0.009,0.20065-0.0566,0.63344-0.10535,0.96177-0.123,0.82787-0.13084,1.6353-0.0196,2.0216,0.0811,0.2815,0.2523,0.6345,0.38686,0.7974,0.0698,0.085,0.0649,0.065-0.0333-0.1326-0.1773-0.3566-0.22945-0.6012-0.22621-1.0613,0.003-0.4365,0.0372-0.6161,0.33884-1.7804,0.093-0.35904,0.18749-0.78783,0.20997-0.95286,0.0225-0.16504,0.0509-0.28916,0.0631-0.27581,0.0327,0.0357,0.12635,0.37762,0.18751,0.68468,0.0453,0.22735,0.0537,0.56359,0.0555,2.2083,0.002,1.897,0.004,1.9478,0.0782,2.2842,0.16775,0.7585,0.39157,1.2165,0.84897,1.737,0.0921,0.1049,0.18054,0.1907,0.19641,0.1907,0.0159,0-0.0375-0.074-0.11859-0.164-0.37121-0.4129-0.63073-1.0197-0.72214-1.6886-0.0579-0.4235-0.0223-1.4173,0.082-2.2929,0.17371-1.458,0.17262-2.4018-0.004-3.0346-0.0382-0.13733,0.0484,0.003,0.11674,0.18974,0.11152,0.30402,0.19664,0.78804,0.26992,1.5348,0.0796,0.81123,0.14181,1.2293,0.23434,1.5753,0.0869,0.3248,0.35961,0.8727,0.52831,1.0612l0.1335,0.1493-0.11536-0.1803c-0.16125-0.2519-0.31088-0.6865-0.37141-1.0787-0.0415-0.269-0.0475-0.5101-0.0311-1.2547,0.0216-0.98326-0.0112-1.5645-0.11038-1.9552-0.0312-0.12313-0.0457-0.22386-0.0321-0.22386,0.0381,0,0.30669,0.32692,0.43595,0.53063,0.14271,0.2249,0.36437,0.67003,0.55669,1.118,0.08,0.18623,0.14944,0.33454,0.1544,0.32958,0.0358-0.0358-0.25277-1.4744-0.3389-1.6897-0.0208-0.052-0.0115-0.0566,0.0715-0.036,0.11913,0.0297,0.11602,0.0255,0.46147,0.62632,0.33281,0.57889,0.65281,1.2215,0.84223,1.6914,0.0735,0.18236,0.13396,0.31276,0.13428,0.28956,0.001-0.074-0.15746-0.77482-0.26426-1.1684-0.0569-0.20977-0.19087-0.63905-0.29766-0.95395-0.18824-0.55508-0.19215-0.57364-0.12806-0.60794,0.0364-0.0195,0.07-0.0304,0.0748-0.0244,0.005,0.006,0.0857,0.17354,0.17979,0.37223,0.0941,0.1987,0.37993,0.7526,0.63512,1.2309,0.46015,0.86244,0.68342,1.3281,0.8665,1.8072,0.0733,0.1919,0.0904,0.2184,0.0745,0.1161-0.0465-0.3005-0.22662-0.9357-0.44666-1.5753-0.12863-0.37393-0.32311-0.93879-0.43218-1.2552-0.10906-0.31646-0.19382-0.58847-0.18834-0.60448,0.005-0.016,0.0797,0.0581,0.16495,0.16478,0.58849,0.73617,1.1543,1.8468,1.4043,2.7562,0.0841,0.3061,0.10425,0.2455,0.0475-0.1429-0.13215-0.90421-0.35473-1.6465-0.73172-2.4404-0.10736-0.22606-0.1952-0.41706-0.1952-0.42444,0-0.0384,0.30385,0.2042,0.44954,0.35894,0.44636,0.47407,0.84875,1.3055,0.99237,2.0504,0.1072,0.55603,0.11495,0.56953,0.0957,0.16723-0.0451-0.9438-0.30986-1.905-0.69003-2.5051l-0.12529-0.19779,0.12268,0.11607c0.17575,0.16628,0.52272,0.69904,0.69277,1.0637,0.18069,0.38749,0.3419,0.88586,0.39457,1.2198l0.04,0.25359,0.0229-0.14924c0.0939-0.61205-0.0432-1.6028-0.30031-2.1698-0.0544-0.1199-0.093-0.21801-0.0858-0.21801,0.0334,0,0.42595,0.74196,0.51763,0.97835,0.12514,0.32268,0.26071,0.84382,0.26209,1.0075,0.00086,0.10313,0.006,0.11128,0.0373,0.0577,0.0589-0.10137,0.0134-1.1063-0.0663-1.4631-0.0553-0.24791-0.18167-0.68524-0.26279-0.90966-0.0341-0.0943,0.25804,0.27457,0.41307,0.52161,0.0836,0.13314,0.21086,0.37877,0.28289,0.54585,0.14265,0.33087,0.3573,1.038,0.35811,1.1797,0.00041,0.0709,0.007,0.0787,0.0347,0.0388,0.0483-0.0702,0.006-0.86001-0.0694-1.31-0.0338-0.20065-0.11349-0.51391-0.17703-0.69614-0.0635-0.18223-0.11101-0.33584-0.10548-0.34137,0.006-0.006,0.0951,0.0839,0.19896,0.19867,0.30777,0.34003,0.53913,0.87366,0.90137,2.079,0.0293,0.0975,0.0304-0.002,0.008-0.69291-0.0246-0.75012-0.0643-1.0188-0.20912-1.4133l-0.0838-0.22832,0.11905,0.13266c0.39156,0.43632,0.73394,1.1569,0.8735,1.8384,0.0546,0.26673,0.0582,0.27364,0.0779,0.14924,0.10706-0.6788,0.0902-1.451-0.041-1.8723-0.0363-0.11659-0.0604-0.21759-0.0535-0.22444,0.007-0.007,0.0895,0.097,0.18372,0.23073,0.33066,0.46949,0.56064,1.0624,0.61537,1.5863l0.026,0.24873,0.045-0.19898c0.0248-0.10945,0.0467-0.393,0.0487-0.63013,0.003-0.40538-0.027-0.62995-0.15522-1.1442-0.0176-0.0704,0.00014-0.0605,0.11753,0.0659,0.31448,0.3386,0.59529,0.98004,0.67036,1.5313,0.0352,0.25856,0.0444,0.28513,0.0652,0.18921,0.0979-0.44998,0.0449-1.1841-0.11973-1.6575l-0.0811-0.23317,0.0721,0.0471c0.13597,0.0888,0.39142,0.43868,0.53806,0.73707,0.15273,0.31076,0.31343,0.81531,0.31343,0.98402,0,0.0646,0.0128,0.0898,0.0377,0.0744,0.0269-0.0167,0.0322-0.17125,0.0184-0.54088-0.0204-0.54508-0.0685-0.79203-0.23162-1.1892-0.0468-0.11401-0.0726-0.20728-0.0573-0.20728s0.11982,0.10031,0.23217,0.22292c0.50611,0.55234,0.79102,1.5035,0.80028,2.6718l0.004,0.4715,0.0598-0.29852c0.22045-1.0998,0.15207-2.0625-0.19847-2.7941-0.0721-0.15049-0.1178-0.27361-0.10154-0.27361,0.0513,0,0.39079,0.4229,0.52799,0.65782,0.23839,0.40818,0.41755,0.95003,0.53913,1.6305,0.0686,0.38413,0.0587,1.786-0.0154,2.1853-0.0318,0.1713-0.052,0.3173-0.0448,0.3245,0.0231,0.023,0.27964-1.0539,0.35694-1.4983,0.0979-0.56301,0.10688-1.4735,0.0188-1.916-0.0745-0.37456-0.22561-0.80528-0.39096-1.1147-0.072-0.13471-0.12651-0.24932-0.12114-0.25468,0.005-0.005,0.0881,0.0825,0.18377,0.19518,0.2273,0.2677,0.50852,0.84074,0.63532,1.2946,0.16003,0.5728,0.21211,1.0137,0.1935,1.6381-0.009,0.2964-0.012,0.5389-0.007,0.5389,0.0193,0,0.21536-0.86413,0.26713-1.1773,0.065-0.39315,0.0732-1.1669,0.0156-1.4712-0.0534-0.28238-0.2096-0.73475-0.31992-0.92667l-0.0896-0.15583,0.12492,0.11608c0.27171,0.25248,0.54222,0.77019,0.70182,1.3432,0.0645,0.23159,0.0874,0.40997,0.10234,0.79595,0.0137,0.35488,0.0272,0.46895,0.0473,0.39797,0.0644-0.22805,0.16034-0.8384,0.16127-1.0256,0.002-0.32861,0.0535-0.14883,0.11169,0.38737,0.0597,0.5494,0.0693,1.5138,0.0198,1.9649-0.11216,1.0203-0.39978,1.8758-0.86157,2.5626-0.20588,0.3061-0.68203,0.8091-0.58765,0.6207,0.19945-0.3981,0.40971-1.2318,0.5017-1.9894,0.0288-0.2371,0.0612-0.4983,0.072-0.5804,0.0305-0.2315-0.001-0.1538-0.135,0.3317-0.2261,0.82-0.54159,1.5738-0.84701,2.0237-0.14273,0.2102-0.46657,0.6045-0.48301,0.5881-0.006-0.01,0.0262-0.1299,0.0716-0.2751,0.0762-0.2432,0.24878-1.1415,0.24397-1.2698-0.001-0.03-0.039,0.057-0.0841,0.1933-0.1265,0.3836-0.41756,0.9529-0.64157,1.2551-0.11144,0.1503-0.22088,0.2786-0.24319,0.2852-0.0223,0.01-0.21966,0.052-0.43855,0.1016-0.3748,0.085-1.0198,0.289-2.4873,0.7891-0.64479,0.2197-1.433,0.4291-2.6366,0.7008-0.37393,0.084-0.91866,0.2192-1.2105,0.2997-0.29185,0.081-0.68929,0.1849-0.8832,0.232-0.3849,0.093-0.64913,0.1806-1.4052,0.4633-0.35489,0.1327-0.61393,0.2057-0.90379,0.2548l-0.40631,0.069-0.24039-0.073c-0.13222-0.04-0.35979-0.1342-0.50571-0.2095-0.35138-0.1812-0.80946-0.6281-1.0092-0.9845-0.1448-0.2584-0.1476-0.2366-0.0183,0.1428,0.10723,0.3146,0.31545,0.651,0.57018,0.921,0.11913,0.1263,0.20083,0.2296,0.18157,0.2296-0.0782,0-0.49884-0.1003-0.67022-0.1598-0.22286-0.077-0.51155-0.2199-0.64596-0.3189-0.21327-0.157-0.18741-0.1121,0.0929,0.1612l0.29184,0.2847-0.16912-0.067c-0.53358-0.2103-0.98262-0.5465-1.3452-1.0072-0.10767-0.1368-0.20084-0.2436-0.20704-0.2374-0.0184,0.018,0.25113,0.5419,0.37384,0.7261,0.16895,0.2538,0.42458,0.5278,0.65154,0.6984,0.111,0.083,0.19149,0.1517,0.17886,0.1517-0.10693,0-0.82478-0.4297-1.2439-0.7447-0.10032-0.075-0.20211-0.1491-0.22619-0.1639-0.0589-0.036,0.42755,0.6442,0.63186,0.8837,0.0895,0.1049,0.1536,0.1907,0.1425,0.1907s-0.0766-0.029-0.14559-0.064c-0.22777-0.1162-0.49428-0.3626-0.91792-0.8488-0.23005-0.2641-0.42371-0.4801-0.43036-0.4801-0.012,0,0.15521,0.326,0.43893,0.8559,0.0811,0.1516,0.2203,0.3717,0.30924,0.4892,0.0889,0.1175,0.1541,0.2136,0.14481,0.2136-0.0482,0-0.22326-0.1132-0.3742-0.242-0.22911-0.1956-0.44254-0.4671-0.87196-1.1094-0.35745-0.5347-0.45244-0.6538-0.33044-0.4146,0.0349,0.068,0.14869,0.3333,0.25291,0.5887,0.24753,0.6065,0.44467,0.9854,0.62975,1.2105,0.0825,0.1002,0.13467,0.1874,0.11594,0.1937-0.0805,0.027-0.62111-0.072-0.86217-0.1568-0.14427-0.051-0.25468-0.081-0.24534-0.065,0.0846,0.1368,0.82805,0.5442,1.1506,0.6305,0.16044,0.043,0.19235,0.074,0.10956,0.1054-0.0944,0.036-0.4818,0.5303-0.61194,0.7804-0.0735,0.1414-0.16307,0.3681-0.19895,0.5039-0.0796,0.3013-0.1251,0.7448-0.0731,0.7126,0.0195-0.012,0.0355-0.051,0.0355-0.086,0-0.2129,0.28542-0.7436,0.55484-1.0316,0.14303-0.1529,0.43987-0.3932,0.48569-0.3932,0.0111,0-0.0242,0.072-0.0783,0.1599-0.31016,0.5041-0.55976,1.1915-0.68249,1.8797-0.11111,0.623-0.0969,1.6705,0.0318,2.3381,0.0388,0.2015,0.0405,0.182,0.0263-0.3012-0.0467-1.5803,0.4063-3.0071,1.2411-3.9088,0.19795-0.2138,0.24997-0.2378,0.16681-0.077-0.18566,0.359-0.4312,1.2847-0.52135,1.9654-0.0586,0.4424-0.0503,1.5124,0.016,2.0593,0.0564,0.4651,0.26474,1.5477,0.305,1.5846,0.0125,0.011,0.0139-0.016,0.003-0.062s-0.042-0.2546-0.0691-0.4643c-0.22113-1.7074,0.0297-3.4383,0.69322-4.7839,0.15833-0.3211,0.56995-0.9567,0.63266-0.977,0.07-0.023,0.55933,0.3316,0.8134,0.5888,0.25432,0.2574,0.51537,0.61,0.65567,0.8856,0.0395,0.077,0.0781,0.1409,0.0859,0.1409,0.0529,0-0.21524-0.7121-0.39635-1.0526-0.0802-0.1507-0.13904-0.274-0.13082-0.274,0.008,0,0.1518,0.085,0.31908,0.1882,0.76465,0.473,1.437,1.1414,1.8383,1.8273,0.0669,0.1144,0.12725,0.2024,0.13407,0.1956,0.019-0.019-0.18091-0.4771-0.3137-0.7187-0.26727-0.4862-0.59889-0.9251-1.0478-1.3867l-0.23586-0.2425,0.21557,0.081c0.5059,0.1888,1.0871,0.5285,1.569,0.9173,0.57907,0.4671,1.115,1.2329,1.3671,1.9535,0.0424,0.1211,0.0781,0.2002,0.0795,0.1759,0.004-0.079-0.13163-0.5794-0.23609-0.8678-0.40174-1.1088-1.2793-2.1055-2.3317-2.6481-0.073-0.038-0.11704-0.069-0.0979-0.07,0.0681,0,0.93208,0.4507,1.209,0.6347,0.40885,0.2717,0.89359,0.6845,1.1163,0.9508,0.10653,0.1273,0.19694,0.2283,0.20091,0.2243,0.018-0.018-0.5253-1.0292-0.67149-1.2498-0.0898-0.1355-0.29053-0.3791-0.44598-0.5412-0.30952-0.3228-0.28309-0.3269,0.18167-0.028,0.95982,0.6178,1.5708,1.4556,1.7427,2.3896,0.0194,0.1056,0.0245-0.01,0.0161-0.3592-0.009-0.3748-0.0309-0.588-0.0807-0.787-0.15024-0.6001-0.39763-1.0928-0.76854-1.5308l-0.20754-0.2451,0.14645,0.083c0.0805,0.046,0.25837,0.1473,0.39517,0.2252,0.61645,0.3511,1.102,0.7739,1.339,1.166l0.12659,0.2093-0.022-0.1326c-0.0365-0.2199-0.2452-0.813-0.35527-1.0096-0.12861-0.2297-0.3313-0.5105-0.48615-0.6735-0.065-0.068-0.10355-0.1244-0.0857-0.1244,0.0569,0,0.53593,0.2856,0.7682,0.458,0.29604,0.2197,0.69584,0.6343,0.86656,0.8986,0.0754,0.1169,0.13717,0.1949,0.13717,0.1735,0-0.021-0.0541-0.2065-0.12014-0.4114-0.17805-0.552-0.38958-0.9485-0.67392-1.2632l-0.11795-0.1306,0.13265,0.068c0.55787,0.2873,1.1807,0.909,1.5112,1.5084,0.0528,0.096,0.0963,0.165,0.0966,0.1537,0.00033-0.011-0.0439-0.1705-0.0984-0.3538-0.18035-0.6071-0.44938-1.1322-0.75243-1.4687-0.1494-0.1659-0.10051-0.1474,0.27112,0.1025,0.45925,0.3088,0.91109,0.7858,1.2277,1.296,0.17203,0.2772,0.17074,0.235-0.009-0.2845-0.2047-0.5925-0.43835-1.0258-0.72289-1.3408-0.0674-0.075-0.10776-0.1356-0.0897-0.1356,0.0747,0,0.5512,0.3437,0.7867,0.5674,0.33151,0.3149,0.54508,0.6013,0.75154,1.0079,0.15342,0.3022,0.16624,0.3184,0.14418,0.1824-0.11752-0.7244-0.45903-1.4581-0.89149-1.9152-0.0733-0.077-0.12165-0.141-0.10736-0.141,0.0518,0,0.47293,0.2918,0.64235,0.4451,0.50597,0.4579,0.91726,1.246,1.0399,1.9925,0.0186,0.1129,0.0231,0.023,0.0142-0.2819-0.01-0.3372-0.0336-0.5277-0.0964-0.772-0.13764-0.5355-0.455-1.133-0.78454-1.4769-0.0579-0.06-0.0992-0.1157-0.0919-0.123,0.007-0.01,0.11162,0.046,0.23181,0.1175,0.5068,0.3036,0.99751,0.895,1.2226,1.4736,0.0605,0.1554,0.11364,0.2789,0.11819,0.2743,0.005,0-0.0137-0.1349-0.0404-0.2898-0.0992-0.5731-0.34306-1.1106-0.70063-1.5441-0.0967-0.1173-0.16889-0.2133-0.16035-0.2133,0.009,0,0.10824,0.054,0.22154,0.1208,0.42762,0.2506,0.89324,0.7803,1.1236,1.2781,0.1189,0.2569,0.12275,0.2247,0.0211-0.1762-0.12488-0.4923-0.35286-0.9402-0.64066-1.2588-0.11593-0.1283-0.11935-0.1374-0.0431-0.1148,0.46111,0.1367,1.1197,0.8381,1.379,1.4688,0.16719,0.4066,0.0563-0.1952-0.12037-0.6534-0.10572-0.2741-0.33702-0.6562-0.53103-0.8772-0.10695-0.1218-0.10846-0.1269-0.0304-0.1032,0.29038,0.088,0.75535,0.4694,1.01,0.8284,0.14305,0.2017,0.35457,0.5983,0.43415,0.8141,0.0737,0.1999,0.0546,0-0.0335-0.3437-0.12988-0.512-0.36864-0.9818-0.66655-1.3116-0.0674-0.075-0.10819-0.1356-0.0907-0.1356,0.0175,0,0.1349,0.073,0.26088,0.1614,0.65872,0.4642,1.107,1.2415,1.3604,2.3591l0.079,0.3483-0.0172-0.3507c-0.0532-1.0878-0.37908-2.0002-0.9353-2.6189-0.0826-0.092-0.14382-0.1735-0.13595-0.1814,0.0327-0.033,0.44982,0.2761,0.66127,0.4897,0.67639,0.6831,1.0988,1.7619,1.2304,3.1422l0.0427,0.4477,0.0211-0.3814c0.0425-0.7692-0.0604-1.6998-0.25486-2.305-0.12093-0.3763-0.38297-0.9021-0.57798-1.1597-0.0916-0.1211-0.16658-0.2275-0.16658-0.2365,0-0.046,0.29166,0.2274,0.44507,0.417,0.41487,0.5126,0.68021,1.1427,0.85219,2.0239l0.0615,0.3151-0.0146-0.5472c-0.0248-0.9281-0.23703-1.672-0.63716-2.2336-0.21-0.2947-0.0604-0.2359,0.25722,0.1012,0.2569,0.2726,0.45685,0.5956,0.61412,0.9919,0.177,0.4461,0.17737,0.4467,0.15881,0.2616-0.0548-0.5467-0.17182-1.0006-0.34809-1.3505-0.0526-0.1044-0.0956-0.1995-0.0956-0.2115s0.0753-0.014,0.16738-0.01c0.35952,0.034,0.45571,0.226,1.0212,2.032,0.24688,0.7885,0.40166,1.4966,0.42501,1.9444,0.031,0.595-0.0753,2.4073-0.18925,3.2268-0.0354,0.2545-0.24176,0.8959-0.40103,1.2466l-0.0781,0.1719-0.006-0.5754c-0.004-0.3857-0.0323-0.7775-0.0861-1.1889l-0.0802-0.6135-0.0208,0.2819c-0.0114,0.155-0.0294,0.446-0.04,0.6467-0.0587,1.1141-0.3261,2.0222-0.70728,2.4021-0.20078,0.2001-0.59858,0.4618-1.2155,0.7996-0.58251,0.3191-0.71472,0.4066-1.0318,0.683-0.60191,0.5246-1.2957,1.0144-1.9661,1.3879-0.3924,0.2187-1.0989,0.5578-1.1193,0.5374-0.007-0.01,0.001-0.052,0.0189-0.099,0.0885-0.2328,0.16831-0.8081,0.1679-1.2105-0.00056-0.538-0.0776-0.9223-0.26625-1.3284-0.0778-0.1673-0.1466-0.299-0.153-0.2926-0.006,0.01,0.0168,0.094,0.0516,0.1954,0.19373,0.5631,0.16961,1.2681-0.0663,1.9372-0.11836,0.3358-0.27964,0.6618-0.24407,0.4933,0.0724-0.3429,0.0917-0.5541,0.0924-1.0115,0.00082-0.5549-0.0474-0.889-0.1982-1.3721-0.0864-0.277-0.36177-0.87-0.42093-0.9066-0.021-0.013-0.0233,0-0.006,0.043,0.40843,0.9649,0.4403,2.0937,0.0865,3.0632-0.0883,0.2419-0.20792,0.4909-0.15224,0.3168,0.11249-0.3516,0.15897-1.407,0.0854-1.9402-0.0886-0.6428-0.30038-1.2886-0.60344-1.8406-0.21389-0.3896-0.33443-0.5393-0.17784-0.2209,0.65717,1.3364,0.66037,2.9747,0.009,4.3576-0.15779,0.3347-0.17459,0.3572-0.28218,0.3774-0.28747,0.054-0.98214-0.067-1.7496-0.3034-0.21889-0.068-0.42782-0.1298-0.46431-0.1384-0.16645-0.039,1.0894,0.6279,1.4592,0.775l0.19899,0.079-0.4643-0.013c-0.56254-0.016-0.91966-0.098-1.3384-0.3083l-0.28668-0.144,0.13265,0.1185c0.31229,0.2789,0.75061,0.517,1.2215,0.6636l0.19337,0.06-0.12704,0.044c-0.44646,0.1552-1.467,0.2025-2.0636,0.096-0.17132-0.031-0.31672-0.051-0.32313-0.044-0.0189,0.019,0.74723,0.253,0.99943,0.3053,0.32271,0.067,0.90259,0.1252,1.1065,0.1111,0.0937-0.01,0.17038,0,0.17037,0.01-0.00004,0.042-1.0914,0.5639-1.2934,0.6187-0.17081,0.046-0.33954,0.058-0.81253,0.056-0.54156,0-0.62744-0.011-0.92534-0.092-0.96533-0.2641-2.1793-0.943-3.3529-1.8752-0.29493-0.2342-0.89463-0.8696-1.4897-1.5784-1.1628-1.3849-1.5675-2.3157-1.6343-3.7581-0.0112-0.2429-0.002-0.9294,0.0216-1.5256,0.0618-1.5926-0.007-2.4839-0.24779-3.2114-0.19212-0.5806-0.44234-1.0156-1.0951-1.9038-0.83745-1.1395-1.201-1.8748-1.4148-2.8615-0.0622-0.2872-0.073-0.44-0.0731-1.0335-0.00008-1.0945,0.0689-1.3983,0.77546-3.4163,0.29371-0.83884,0.39565-1.4048,0.42116-2.3381,0.0226-0.82658-0.0112-1.3018-0.16377-2.3046-0.0983-0.64577-0.10596-0.75801-0.10583-1.5422,0.00013-0.73706,0.01-0.90108,0.0769-1.2768,0.14726-0.82769,0.3714-1.5836,0.81615-2.7526,0.46897-1.2327,0.56793-1.8132,0.66291-3.889,0.10051-2.1966,0.19364-3.2598,0.33396-3.813,0.15361-0.60556,0.50579-1.2456,0.98385-1.788,0.11491-0.13039,0.36921-0.42141,0.5651-0.64671,0.36824-0.42354,0.4997-0.54384,0.55615-0.50895,0.0577,0.0357,0.0356,0.0923-0.16808,0.43095-0.17384,0.28902-0.8651,1.6201-0.8181,1.5753,0.01-0.009,0.1405-0.18821,0.29096-0.39798,0.34528-0.4814,0.81602-1.0671,1.1311-1.4073,0.24365-0.2631,0.82606-0.7906,0.84833-0.76834,0.006,0.006-0.0672,0.11705-0.16376,0.24569-0.26151,0.34845-0.5666,0.85152-0.80397,1.3257-0.18996,0.37946-0.4826,1.0445-0.4826,1.0968,0,0.0112,0.0939-0.13735,0.20858-0.3302,0.46193-0.77654,1.1658-1.6321,1.8312-2.2261,0.19965-0.1782,0.37481-0.324,0.38924-0.324,0.0144,0-0.0463,0.0933-0.13505,0.20728-0.5898,0.75793-1.0718,1.6216-1.3482,2.4154-0.11811,0.33933-0.14184,0.49001-0.035,0.2225,0.15819-0.39621,0.64311-1.1478,1.0547-1.6347,0.24951-0.29518,0.94201-0.99944,1.2017-1.2222,0.21315-0.18277,0.20208-0.15917-0.0832,0.17747-0.62719,0.74017-1.1334,1.5781-1.4422,2.3874-0.15853,0.41541-0.14595,0.43418,0.0428,0.0638,0.29716-0.58311,0.69539-1.115,1.2982-1.7338,0.36358-0.37327,1.0633-1.01,1.0633-0.96758,0,0.0109-0.1841,0.25443-0.40912,0.54125-0.86036,1.0967-1.1213,1.4839-1.3121,1.9473-0.16448,0.3994-0.15862,0.50051,0.01,0.16612,0.22541-0.44798,0.42616-0.69223,1.2285-1.4947,0.58116-0.58127,1.4953-1.4072,1.5576-1.4072,0.006,0-0.17809,0.19029-0.40946,0.42285-0.53906,0.54184-1.0067,1.165-1.3628,1.8158-0.1205,0.22023-0.11068,0.21546,0.10243-0.0498,0.46081-0.57345,0.98141-1.0678,1.6121-1.5308,0.1948-0.14302,0.36143-0.26004,0.3703-0.26004,0.009,0-0.19137,0.21267-0.44497,0.47259-0.2536,0.25993-0.52816,0.55468-0.61013,0.655l-0.14904,0.18241,0.23195-0.20243c0.60928-0.53172,1.3331-1.0344,1.9274-1.3385,0.43203-0.22105,1.2584-0.53395,1.0274-0.389zm1.7892,1.387c-0.01,0.0432-0.0564,0.26508-0.10327,0.49309-0.0468,0.22801-0.16478,0.72796-0.26211,1.111-0.17224,0.67787-0.33654,1.5308-0.31013,1.61,0.0172,0.0516,0.31944-0.59232,0.47479-1.0116,0.26234-0.70807,0.34505-1.2586,0.28273-1.882-0.0205-0.2048-0.0432-0.37837-0.0506-0.3857-0.007-0.007-0.0215,0.022-0.0314,0.0652zm-9.9969,20.509c-0.35593,0.95134-0.51027,2.0394-0.4366,3.0778,0.0783,1.1032,0.3228,1.8445,0.85007,2.5768,0.15869,0.2204,0.69919,0.7923,0.57619,0.6097-0.0261-0.039-0.11187-0.1625-0.19063-0.2751-0.32661-0.4668-0.62913-1.207-0.76696-1.8765-0.10731-0.5213-0.17828-1.5843-0.15498-2.3215,0.0213-0.6758,0.0571-1.0565,0.1511-1.6085,0.0326-0.19152,0.0553-0.35299,0.0505-0.3588-0.005-0.006-0.0402,0.0734-0.0787,0.1761zm1.3003,0.82114c-0.15243,0.16-0.35589,0.4922-0.47133,0.7695-0.17785,0.4272-0.21458,0.6404-0.21452,1.2453,0.00007,0.6276,0.0484,0.8644,0.27298,1.336,0.12844,0.2697,0.27158,0.4901,0.22005,0.3388-0.0124-0.037-0.0542-0.2081-0.0928-0.3814-0.0602-0.27-0.07-0.4194-0.0688-1.0447,0.001-0.5346,0.0165-0.8139,0.0577-1.0447,0.0727-0.4073,0.20022-0.852,0.32018-1.1166,0.0524-0.1155,0.0916-0.21,0.0872-0.21-0.004,0-0.0542,0.0485-0.11067,0.1078zm4.6801,11.251c0.009,0.055,0.0768,0.3557,0.15022,0.669,0.20168,0.8608,0.31653,1.5595,0.48417,2.9454,0.0838,0.6929,0.15749,1.2649,0.16374,1.2712,0.0383,0.038,0.0668-0.5723,0.0654-1.4033-0.001-0.7788-0.0129-1.0249-0.0615-1.2935-0.12015-0.6641-0.40462-1.5024-0.69981-2.0625-0.084-0.1593-0.11409-0.1965-0.10224-0.1263zm2.7271,2.833c0.1858,0.4574,0.32653,1.0092,0.37281,1.4618,0.0196,0.1915,0.0538,0.7416,0.076,1.2224,0.0363,0.7842,0.0448,0.8615,0.0831,0.751,0.16106-0.4652,0.25105-1.48,0.17902-2.0187-0.0746-0.5577-0.29115-1.091-0.61288-1.5091-0.23904-0.3107-0.25552-0.2951-0.098,0.093zm-7.0952,0.4088c0.0438,0.727,0.28084,1.4986,0.65384,2.1285,0.47674,0.8051,1.3205,1.5958,2.1452,2.0105,0.50751,0.2552,1.1916,0.4503,1.7875,0.5098,0.20895,0.021,0.18621,0.011-0.33165-0.145-0.68044-0.2049-1.5362-0.6862-2.1451-1.2064-0.37162-0.3175-0.93023-0.9432-1.1904-1.3334-0.40084-0.6011-0.736-1.3847-0.85055-1.9886-0.0225-0.1187-0.0505-0.2158-0.0621-0.2158s-0.0146,0.1082-0.007,0.2404zm6.0279,0.1078c0.011,0.1459,0.0338,0.4966,0.0507,0.7794,0.0302,0.5074,0.12241,0.9515,0.24677,1.1889,0.0444,0.085,0.0459,0.083,0.0685-0.098,0.0127-0.1018,0.0246-0.4075,0.0263-0.6793,0.004-0.564-0.0368-0.7697-0.22282-1.1315-0.18338-0.3567-0.19221-0.3598-0.16949-0.059zm9.7889-32.816c0.0882,0.54019,0.0897,2.0974,0.002,2.6487-0.0328,0.20731-0.0529,0.38364-0.0447,0.39186,0.0216,0.0216,0.27282-1.0442,0.33365-1.4155,0.0681-0.41576,0.11766-0.86495,0.12253-1.111l0.004-0.19899,0.0448,0.1824c0.0765,0.31103,0.12313,0.98309,0.099,1.4261-0.0189,0.34705-0.0839,0.83054-0.16844,1.2528-0.0408,0.20394,0.13062-0.27032,0.23464-0.64907,0.12192-0.44397,0.19724-0.89936,0.23422-1.4163,0.0267-0.37385,0.0408-0.3547,0.1334,0.18201,0.076,0.44016,0.0462,1.409-0.0663,2.1561-0.0453,0.30097-0.0988,0.58452-0.1189,0.63012-0.0351,0.0796-0.0357,0.0789-0.0159-0.0166,0.0216-0.10394,0.0748-1.4495,0.0583-1.4723-0.0156-0.0214-0.0316,0.0575-0.10638,0.52709-0.1171,0.73492-0.27053,1.2791-0.50141,1.7782-0.10841,0.23441-0.37807,0.67594-0.41282,0.67594-0.007,0,0.0304-0.10136,0.0825-0.22523,0.0521-0.12388,0.13958-0.38878,0.19451-0.58867,0.10038-0.36523,0.20944-0.8961,0.17754-0.8642-0.009,0.009-0.0661,0.13686-0.12604,0.28324-0.21647,0.52881-0.6535,1.2311-0.93086,1.4959l-0.11998,0.11454,0.0828-0.16583c0.14159-0.28353,0.28742-0.73871,0.3746-1.1693,0.0926-0.45721,0.0923-0.56775-0.00077-0.32012-0.0982,0.26116-0.36316,0.77483-0.52156,1.011-0.15737,0.23463-0.42758,0.56125-0.46435,0.56128-0.0124,0.00001,0.0122-0.0634,0.0546-0.14093,0.30436-0.55653,0.53939-1.5162,0.71275-2.9102,0.13327-1.0715,0.16391-2.1941,0.0797-2.9185-0.0383-0.32926,0.018-0.15433,0.087,0.27072,0.0935,0.57523,0.13093,1.3441,0.0969,1.9903-0.027,0.51285-0.12679,1.3465-0.1958,1.6358-0.0763,0.31979-0.0175,0.22985,0.0867-0.13266,0.1375-0.47835,0.28821-1.2085,0.36622-1.7743,0.0606-0.43918,0.084-1.769,0.0362-2.0562-0.0146-0.0878-0.0129-0.12875,0.004-0.0995,0.0159,0.0274,0.0569,0.22137,0.0911,0.43114zm0.74143,15.862c0.13403,0.29558,0.25139,0.72111,0.33382,1.2104,0.0391,0.23189,0.0756,0.42634,0.0812,0.4321,0.0275,0.0284,0.0566-0.75171,0.0434-1.1658-0.0176-0.55336,0.004-0.53165,0.18939,0.19266,0.29165,1.138,0.29173,2.2826,0.00026,3.7129-0.135,0.6625-0.26413,1.0287-0.42386,1.2019-0.0754,0.082-0.17762,0.1697-0.22714,0.1954-0.24475,0.1265-0.33107-0.2695-0.19561-0.8974,0.0394-0.1824,0.0999-0.466,0.13454-0.6301,0.0999-0.4733,0.15272-1.83,0.10387-2.6657-0.0334-0.57088-0.0965-1.2669-0.1531-1.6871-0.008-0.0593-0.007-0.10779,0.002-0.10779s0.0592,0.0939,0.11118,0.20865z"/>
</svg>
