<?xml version="1.0" encoding="UTF-8" standalone="no"?>
<svg xmlns:rdf="http://www.w3.org/1999/02/22-rdf-syntax-ns#" xmlns="http://www.w3.org/2000/svg" height="42" width="49" version="1.1" xmlns:cc="http://creativecommons.org/ns#" xmlns:dc="http://purl.org/dc/elements/1.1/">
 <path fill="#434343" d="m6.8711,40.227c-1.605-0.49095-3.5801-1.6972-4.3419-2.6518-1.2689-1.59-1.6391-3.8429-0.95174-5.7931,0.48796-1.3845,1.3193-2.0686,3.1766-2.6139,1.9464-0.5715,2.7128-0.72829,3.582-0.7328,0.4695-0.0025,0.77723-0.08374,0.85711-0.22643,0.06859-0.12244,0.11197,0.49118,0.09652,1.3636-0.01541,0.87241,0.01284,2.6206,0.06288,3.8848l0.09104,2.2986h0.43213c0.2805,0,0.45713-0.09569,0.50339-0.27272,0.06783-0.25973,0.07211-0.25973,0.08933,0,0.01,0.14999,0.13065,0.27272,0.26824,0.27272,0.22383,0,0.23833-0.25836,0.13772-2.4545-0.06184-1.35-0.06307-2.4074-0.0029-2.3499,0.06032,0.05751,0.16263,1.0949,0.22734,2.3053,0.10792,2.0188,0.28002,2.7495,0.57751,2.452,0.2077-0.000242,0.53211-0.03006,0.80691-0.03855,0.145-0.16932-0.14455-4.2631-0.32069-4.5342-0.06403-0.09849-0.02055-0.21508,0.09689-0.26016,0.23632-0.09068,0.32372,0.43692,0.50505,3.0489,0.06869,0.98912,0.18035,1.5816,0.32,1.6975,0.11799,0.09792,0.25265,0.13991,0.29926,0.0933,0.18335-0.50128,0.32819-0.42289,0.46228-0.28063,0.11947,0.12346,0.25882,0.18287,0.30968,0.13201,0.0509-0.05086-0.02283-1.0454-0.1638-2.2102-0.14095-1.1647-0.22791-2.241-0.19326-2.3917,0.03463-0.1507,0.11461,0.2169,0.17767,0.81688,0.20061,1.9087,0.4279,3.5715,0.50529,3.6968,0.04119,0.0667,0.17919,0.12128,0.30658,0.12128,0.17587,0,0.20999-0.12193,0.14174-0.50648,0.21519,0.012,0.25069-0.08525,0.4823,0.35064,0.11927,0,0.225-0.15779,0.23494-0.35064,0.0136-0.26386,0.03567-0.28315,0.08933-0.07791,0.12591,0.48183,0.51405,0.31359,0.53928-0.23376,0.02236-0.48456,0.02616-0.48753,0.08914-0.06872,0.05917,0.39338,0.41642,0.72157,0.59315,0.54484,0.11358-0.11359-0.50676-4.1173-0.69141-4.4623-0.12093-0.22595-0.12218-0.34952-0.0048-0.42237,0.09161-0.05664,0.19917-0.07044,0.23895-0.03066,0.03977,0.03977,0.20601,1.0743,0.36943,2.2989,0.19838,1.4867,0.37804,2.3075,0.54067,2.4701,0.22085,0.22085,0.24344,0.20776,0.2423-0.14047,0.25302-0.11126,0.40704,0.10773,0.56361,0.1614,0.11928,0,0.21687-0.06037,0.21687-0.13415,0-0.19605-0.60516-3.9208-0.71878-4.4241-0.06003-0.26597-0.03187-0.42856,0.0743-0.42856,0.20813,0,0.24828,0.18422,0.57736,2.6493,0.27859,2.0869,0.36404,2.3851,0.63421,2.2136,0.0041-1.225,0.50515-0.47734,0.81042-0.1176,0.15348-0.17373-0.43237-4.0195-0.62395-4.096-0.21652-0.08639-0.15317-0.83867,0.0646-0.76733,0.11167,0.03658,0.28195,0.62406,0.39901,1.3766,0.3772,2.4247,0.58088,3.3147,0.77332,3.3788,0.11878,0.03959,0.19126-0.09147,0.19126-0.34587,0-0.84118-0.50144-3.6062-0.73149-4.0336-0.22332-0.41487-0.22022-0.43982,0.04823-0.38811,0.21191,0.04081,0.3182,0.25856,0.40656,0.83296,0.42884,2.7875,0.62837,3.6607,0.83653,3.6607,0.12064,0,0.21906-0.01753,0.21869-0.03896-0.000305-0.02142-0.17568-1.0171-0.38959-2.2127-0.2139-1.1955-0.38892-2.2291-0.38892-2.2968,0-0.29273,0.71645-0.01637,0.88342,0.34076,0.17948,0.38392,0.18239,0.38165,0.19953-0.15584,0.0234-0.73466,0.24714-0.32798,0.38576,0.70128,0.19409,1.4411,0.5989,3.3505,0.71033,3.3505,0.06079,0-0.05318-0.96426-0.25329-2.1428-0.20008-1.1785-0.36458-2.2214-0.36557-2.3175-0.000932-0.0961,0.33131-0.22428,0.73844-0.28485s0.84542-0.13103,0.97399-0.15659c1.6485-0.3277,2.1986-0.44534,2.7272-0.58328,0.60149-0.15696,0.60978-0.16777,0.23654-0.30813-0.25696-0.09663-0.40519-0.09034-0.44154,0.01873-0.03006,0.09031-0.14663,0.1642-0.25895,0.1642-0.15954,0-0.17181-0.14418-0.05613-0.65913,0.08143-0.36252,0.11561-0.78338,0.07592-0.93525-0.03967-0.15187-0.0086-0.23682,0.06907-0.18879,0.07773,0.04803,0.14131-0.02613,0.14131-0.16482,0-0.13868-0.07011-0.20881-0.15584-0.15584-0.08572,0.05297-0.15584-0.01302-0.15584-0.14664,0-0.13363,0.0743-0.24296,0.16503-0.24296,0.09076,0,0.12099-0.07127,0.06716-0.15838-0.05385-0.08711-0.15629-0.12228-0.22768-0.07816-0.14847,0.09176-0.39777-1.7597-0.25603-1.9015,0.05109-0.05113,0.02911-0.16988-0.0488-0.26387-0.22068-0.26591-0.98426-5.4257-0.8186-5.5316,0.07934-0.05072,0.10567-0.33765,0.05851-0.63764-0.0822-0.52315-0.09076-0.52952-0.21143-0.15584-0.08752,0.27109-0.1017,0.18464-0.04662-0.28419,0.05147-0.43798,0.02331-0.63928-0.08039-0.5752-0.09104,0.05628-0.16024-0.05583-0.16122-0.26125-0.000942-0.19791-0.04519-0.62281-0.09831-0.94423-0.10963-0.66326,0.16447-0.81599,0.4195-0.23376,0.18961,0.4329,0.04994-1.6207-0.15732-2.3137l-0.13537-0.45248-0.01341,0.53245c-0.02017,0.79989-0.11691,0.52772-0.21706-0.61037-0.06231-0.70828-0.04585-0.89577,0.0548-0.62336,0.10765,0.2913,0.12778,0.16355,0.07972-0.50633-0.03815-0.53221-0.16369-0.99541-0.30925-1.141-0.13477-0.13477-0.25202-0.32768-0.26056-0.4287-0.0086-0.10102-0.07173-0.0084-0.1403,0.20593-0.11821,0.36913-0.12559,0.36299-0.1403-0.11688-0.01084-0.35321,0.05518-0.50648,0.21822-0.50648,0.13696,0,0.23376,0.14199,0.23376,0.34285,0,0.20132,0.05499,0.28173,0.13322,0.1948,0.1428-0.15869-0.22644-3.3659-0.44764-3.8882-0.1258-0.29701-0.1325-0.29518-0.14255,0.03896-0.0057,0.19285-0.09821,0.35171-0.20535,0.35302-0.13952,0.0017-0.13321,0.04139,0.02226,0.13985,0.21858,0.13841,0.45768,1.2216,0.47491,2.1515,0.0067,0.35428-0.05118,0.47837-0.19675,0.42252-0.13966-0.05359-0.29018-0.8059-0.46725-2.3352-0.27562-2.3805-0.2099-2.8745,0.38242-2.8745,0.14164,0,0.29385-0.094687,0.33826-0.21041,0.04614-0.12019,0.43247-0.25207,0.90101-0.30756,0.45114-0.053427,0.8606-0.15861,0.90992-0.23374,0.04928-0.075128,0.30004-0.2117,0.55718-0.30349l0.469-0.1666-0.545-0.0111c-0.72319-0.014832-9.2807,1.1337-9.787,1.3135-0.11158,0.039633-0.1661,0.012539-0.12114-0.06022,0.045-0.072759,0.38172-0.17497,0.74834-0.22713,0.367-0.0523,1.789-0.2698,3.16-0.4835,4.305-0.6709,8.768-1.0774,15.545-1.4159l1.987-0.0992v4.5815c0,3.0163,0.08362,5.4213,0.24472,7.0396,0.1346,1.3519,0.20553,2.5602,0.15762,2.685-0.04871,0.12696-0.01922,0.18503,0.06697,0.13177,0.08743-0.05404,0.15476,0.0941,0.1557,0.34254,0.000932,0.24076,0.17951,1.2793,0.39691,2.3078,0.21741,1.0285,0.54228,2.5889,0.72194,3.4674,0.27742,1.3566,0.37168,1.5974,0.62529,1.5974,0.17725,0-0.22772,0.35948-0.99628,0.88437-1.2507,0.85414-3.8539,2.7984-5.8383,4.3605-3.1114,2.4491-3.4694,2.6986-3.7446,2.6094-0.21173-0.06859-0.23001-0.05376-0.07249,0.05883,0.15854,0.11332-0.28462,0.51046-1.7921,1.606-4.8907,3.5543-7.8011,4.9642-12.172,5.8969-0.87904,0.18756-1.668,0.29793-1.7532,0.24527-0.08524-0.05266-0.15492-0.0286-0.15492,0.05347s-0.49937,0.19937-1.1097,0.26066c-0.86118,0.08649-1.1398,0.06385-1.2443-0.10106-0.11279-0.17803-0.13502-0.17718-0.13702,0.0052-0.0019,0.17907-0.33554,0.20238-1.8785,0.13129-1.7342-0.07991-1.964-0.12813-3.0358-0.63714-1.5115-0.71782-2.5634-1.7081-3.1113-2.929-0.3894-0.8677-0.42145-1.0793-0.35966-2.3741,0.07708-1.6151,0.47565-2.7398,1.2256-3.4583,0.54078-0.51809,0.56836-0.64662,0.13187-0.61446-0.51152,0.03768-1.9516,2.0443-1.8747,2.6122,0.02296,0.16964-0.06988,0.27737-0.2456,0.28502-0.16359,0.0071-0.20052,0.04539-0.08771,0.0909,0.28074,0.11328,0.2401,0.52015-0.05194,0.52015-0.13571,0-0.2146,0.08766-0.17532,0.1948s0.16785,0.17625,0.2857,0.15358c0.12035-0.02316,0.08168,0.06224-0.08823,0.1948-0.2644,0.20629-0.26931,0.23602-0.03896,0.23602,0.3047,0,0.35795,0.40324,0.06874,0.52059-0.15189,0.06163-0.14862,0.11144,0.01484,0.22615,0.1153,0.08091,0.21686,0.40182,0.22568,0.71314,0.0088,0.31132,0.07978,0.56603,0.15767,0.56603,0.0779,0,0.10126,0.10519,0.05192,0.23376-0.05465,0.14239-0.000245,0.23376,0.13917,0.23376,0.12588,0,0.22887,0.06757,0.22887,0.15014,0,0.08258,0.42983,0.60963,0.95518,1.1712,0.73369,0.78432,1.2639,1.1741,2.2867,1.681l1.3315,0.65988,2.4759,0.05549c5.5671,0.12478,10.311-1.295,15.314-4.5829,1.0285-0.67604,2.0804-1.3335,2.3376-1.4611,0.25713-0.12755,0.5108-0.29408,0.56371-0.37008,0.05289-0.07599,0.31589-0.02456,0.5844,0.11429,0.41816,0.21624,0.4882,0.21967,0.4882,0.02389,0-0.12571-0.07011-0.2719-0.15584-0.32488-0.08572-0.05297-0.15584-0.17037-0.15584-0.26088,0-0.09197,0.16945-0.05353,0.38412,0.08711,0.47241,0.30954,0.55091,0.31319,0.55091,0.02567,0-0.12431-0.12213-0.29437-0.27142-0.37791-0.39393-0.22045-0.13067-0.39046,0.27142-0.17527,0.43028,0.23028,0.59032,0.07657,0.3391-0.32568-0.18942-0.30332-0.1821-0.30507,0.27862-0.06683,0.48226,0.24938,0.58127,0.18136,0.32522-0.2234-0.20902-0.33041-0.03615-0.50104,0.31646-0.31234,0.44988,0.24077,0.68622,0.02332,0.36292-0.33394-0.3309-0.36563-0.10615-0.38636,0.39363-0.0363l0.37106,0.2599-0.10202-0.5101c-0.07506-0.37549-0.0508-0.48914,0.09219-0.43069,0.80541,0.32935,0.79286,0.32971,0.70135-0.02024-0.06783-0.25945-0.01941-0.33796,0.2087-0.33796,0.17035,0,0.29709-0.10804,0.29709-0.25324,0-0.19826,0.1015-0.23294,0.46752-0.15974,0.4877,0.09754,0.6359-0.13551,0.29986-0.47154-0.11965-0.11965-0.05565-0.14625,0.2234-0.0929,0.34558,0.06606,0.38,0.03244,0.29591-0.28911-0.09513-0.36371-0.09494-0.36374,0.33555-0.08165,0.50916,0.33361,0.65427,0.25804,0.40367-0.21021-0.2222-0.41517-0.09361-0.58334,0.2366-0.30932,0.16972,0.14086,0.29375,0.15299,0.40694,0.03979,0.11319-0.11319,0.11117-0.19473-0.0067-0.26752-0.3348-0.20692-0.15993-0.38198,0.32079-0.32114,0.36834,0.04662,0.44583,0.01766,0.31168-0.11649-0.30106-0.30106-0.19923-0.46686,0.22182-0.36118,0.35056,0.08798,0.39417,0.05616,0.35065-0.25582-0.04024-0.28859,0.01693-0.34925,0.30092-0.31918,0.19389,0.02053,0.3517-0.04914,0.35302-0.15584,0.000951-0.10613,0.06612-0.29364,0.14396-0.4167,0.11901-0.18808,0.18178-0.19037,0.39382-0.0144,0.35391,0.29372,0.6899-0.02973,0.39722-0.38238-0.30503-0.36754-0.09123-0.44638,0.45068-0.16617,0.37883,0.1959,0.482,0.20503,0.482,0.04266,0-0.11362-0.08762-0.29925-0.1948-0.4125-0.16033-0.16948-0.09142-0.18753,0.38959-0.10203,0.55424,0.09852,0.79617-0.07264,0.42602-0.30141-0.26015-0.16078-0.02198-0.36525,0.32101-0.27556,0.21528,0.0563,0.30341,0.01496,0.27256-0.12781-0.0255-0.11798,0.109-0.2346,0.30504-0.26451,0.23201-0.0354,0.35065-0.16143,0.35065-0.37251,0-0.24882,0.07306-0.29991,0.33207-0.23218,0.37049,0.09689,0.98643-0.36421,0.64053-0.47951-0.10637-0.03546-0.1934-0.12875-0.1934-0.20732s0.68754-0.14285,1.5279-0.14285c1.4195,0,1.5786,0.03218,2.243,0.45352,0.55442,0.3516,0.82758,0.68194,1.2155,1.47,0.88842,1.8046,0.58325,3.6864-0.89144,5.4967-1.3459,1.6522-3.4125,2.6391-7.1444,3.4118-2.2586,0.46766-5.5608,0.70333-5.7422,0.40982-0.06964-0.11268-0.20685-0.12856-0.37336-0.04321-0.1448,0.07422-1.0892,0.18001-2.0986,0.23511l-1.8354,0.10018-1.8802,0.94253c-1.0341,0.51839-1.8351,0.86955-1.78,0.78036,0.06678-0.10808-0.01931-0.11793-0.25832-0.02953-0.19719,0.07295-0.32347,0.18386-0.28062,0.24647,0.1261,0.18423-0.98602,0.6998-1.3052,0.60508-0.17799-0.05283-0.2535-0.02405-0.19313,0.07361,0.1962,0.31745-4.7842,2.0832-7.9888,2.8324-1.7788,0.41584-2.4764,0.49799-4.7531,0.55971-2.4753,0.06711-2.7551,0.04579-3.8683-0.29471zm5.7972-1.1984c0.31754-0.10169,0.25269-0.12764-0.35064-0.1403-0.40714-0.0086-0.74024,0.0546-0.74024,0.1403,0,0.18035,0.52773,0.18035,1.0909,0zm2.1038-0.31168c0.05299-0.08571,0.02207-0.15584-0.06869-0.15584s-0.16503,0.07012-0.16503,0.15584,0.03092,0.15584,0.06869,0.15584,0.11206-0.07012,0.16503-0.15584zm-5.292-0.168c0.07287-0.11784-0.39708-0.1349-1.5882-0.05768-0.93037,0.06032-1.7208,0.13563-1.7565,0.16735-0.03571,0.03173,0.67896,0.05768,1.5882,0.05768,1.0098,0,1.6933-0.06513,1.7565-0.16735zm1.3175,0.01151c0-0.19795-0.47289-0.19795-0.77919,0-0.17739,0.11464-0.11162,0.15164,0.27271,0.15345,0.27856,0.0013,0.50648-0.06775,0.50648-0.15345zm2.1818-0.15584c0-0.08571-0.10106-0.15584-0.22456-0.15584-0.12351,0-0.26791,0.07012-0.32088,0.15584-0.05299,0.08571,0.04804,0.15584,0.22456,0.15584,0.17648,0,0.32088-0.07012,0.32088-0.15584zm3.8181,0c0.05442-0.08802-0.07325-0.15584-0.29329-0.15584-0.21428,0-0.43294,0.07012-0.48591,0.15584-0.05442,0.08802,0.07325,0.15584,0.29328,0.15584,0.21428,0,0.43294-0.07012,0.48592-0.15584zm-6.0777-0.35009c0.10495-0.10612-0.16965-0.12557-0.84102-0.05957-0.54827,0.05389-1.7755,0.09906-2.7272,0.10037-1.2116,0.0017-1.6603,0.04936-1.4966,0.15908,0.29812,0.19984,4.847,0.02032,5.0648-0.19989zm3.7401,0.19425c0.05299-0.08572-0.04395-0.15584-0.21536-0.15584-0.17142,0-0.35502,0.07012-0.40799,0.15584-0.05299,0.08571,0.04395,0.15584,0.21536,0.15584,0.17142,0,0.35501-0.07012,0.40798-0.15584zm1.935-0.25582c0.03567-0.03072,0.03206-0.08876-0.0086-0.12898-0.11631-0.11632-1.2255,0.1005-1.2255,0.23955,0,0.11523,1.0842,0.01807,1.2337-0.11057zm1.8051,0.09998c0.05299-0.08571,0.02207-0.15584-0.06869-0.15584s-0.16504,0.07012-0.16504,0.15584c0,0.08571,0.03092,0.15584,0.06869,0.15584s0.11207-0.07012,0.16504-0.15584zm-3.9574-0.3089c0.27665-0.11837,0.07097-0.1349-0.79568-0.06394-1.9158,0.15688-2.6621,0.3773-0.99648,0.2943,0.78046-0.03889,1.5869-0.14255,1.7922-0.23036zm-1.7852-0.17626c0.67279-0.09691,1.2934-0.24705,1.3791-0.33364,0.10477-0.10586-0.0057-0.12733-0.33696-0.06555-0.27104,0.05054-1.1476,0.12805-1.948,0.17224l-1.4552,0.08035,1.8561-0.23578c1.953-0.24809,2.8044-0.50659,1.8061-0.54835-0.33585-0.01406-0.42568-0.05162-0.23376-0.09779,0.4055-0.09754,0.68384-0.3567,0.3818-0.35549-0.12428,0.000467-0.64343,0.06927-1.1537,0.15282-0.70239,0.11502-0.9573,0.10534-1.0495-0.03986-0.09567-0.15061-0.12233-0.1508-0.12421-0.000935-0.0019,0.12703-0.17184,0.16514-0.50886,0.1139-0.40061-0.0609-0.44133-0.04609-0.1948,0.07086,0.26842,0.12735,0.23599,0.15291-0.23376,0.18422-0.43698,0.02913-0.37501,0.05724,0.31168,0.14139l0.85711,0.10504-0.98319,0.0254c-0.6217,0.01613-0.94779-0.03183-0.88688-0.13038,0.05299-0.08571-0.01303-0.15584-0.14664-0.15584-0.13362,0-0.24295-0.07074-0.24295-0.1572,0-0.09698-0.34326-0.12581-0.89608-0.07527-0.62746,0.05738-0.80264,0.0377-0.58439-0.0656,0.31168-0.14754,0.31168-0.14754,0-0.17693-0.22174-0.02091-0.17678-0.06372,0.15584-0.14835l0.46752-0.11896-0.46752-0.03397c-0.46274-0.03362-0.46354-0.03525-0.07791-0.15874,0.27501-0.08808,0.000003-0.13817-0.93504-0.17033-1.2584-0.04329-1.2752-0.04835-0.33695-0.10124,0.78469-0.04424,0.96986-0.10212,0.90096-0.28165-0.05338-0.1391,0.01625-0.23655,0.18112-0.25349,0.1473-0.01514-0.22307-0.07288-0.82305-0.12832l-1.0909-0.1008,0.97399-0.02752c0.60434-0.01708,0.97399-0.0944,0.97399-0.20375,0-0.11692-0.19667-0.14372-0.5844-0.07964-0.32142,0.05312-1.0052,0.0996-1.5194,0.10327-0.85626,0.0061-0.90955,0.02594-0.63253,0.23547,0.27786,0.21017,0.22709,0.23131-0.62336,0.25961-0.60713,0.0202-0.33573,0.06325,0.78837,0.12503l1.7142,0.09423-1.5882,0.0308c-0.87348,0.01694-1.6315,0.10093-1.6845,0.18664-0.05305,0.08584,0.06532,0.16076,0.26352,0.16679,0.33994,0.01035,0.3426,0.01836,0.04816,0.14488-0.24332,0.10456-0.15788,0.14191,0.3896,0.17029l0.70128,0.03635-0.85712,0.10504-0.85711,0.10504,1.1688,0.05423c1.1053,0.05128,1.1224,0.05741,0.31508,0.1127-0.77015,0.05274-1.085,0.21026-1.0919,0.54619-0.0013,0.06428,0.17293,0.11688,0.38721,0.11688,0.38599,0,0.47039,0.273,0.15584,0.50409-0.08572,0.06297,0.47531,0.12767,1.2467,0.14378l1.4026,0.02928-1.013,0.11504c-0.58475,0.0664,0.28156,0.08855,2.0494,0.05238,1.6843-0.03446,3.6128-0.14195,4.2856-0.23886zm-4.1928-0.095c0.27856-0.03457,0.73439-0.03457,1.013,0,0.27856,0.03457,0.05061,0.06286-0.50648,0.06286-0.55713,0-0.78504-0.02828-0.50648-0.06286zm-1.6623-0.25641c0.03571-0.0316,0.76621-0.09511,1.6233-0.14111,1.0794-0.05794,1.3189-0.04447,0.7792,0.04381-0.79898,0.1307-2.519,0.20036-2.4025,0.0973zm-0.36181-0.36443c0.19385-0.03727,0.47436-0.03586,0.62336,0.0031,0.149,0.03901-0.0096,0.0695-0.35246,0.06777-0.34285-0.0017-0.46475-0.03364-0.2709-0.07092zm2.1817-0.15584c0.19386-0.03727,0.47436-0.03586,0.62336,0.0031,0.14899,0.03901-0.0096,0.0695-0.35245,0.06777-0.34284-0.0017-0.46475-0.03364-0.2709-0.07092zm3.9721,0.0028c0.15-0.03919,0.39544-0.03919,0.54543,0,0.15,0.03919,0.0273,0.07126-0.27271,0.07126-0.3,0-0.42272-0.03207-0.27272-0.07126zm-6.9332-0.162c0.2801-0.03469,0.70086-0.03397,0.93504,0.0016,0.23417,0.03556,0.005,0.06394-0.50927,0.06306-0.51427-0.000935-0.70586-0.02997-0.42577-0.06465zm12.581,1.048c0.05299-0.08572,0.02207-0.15584-0.06869-0.15584s-0.16504,0.07012-0.16504,0.15584c0,0.08571,0.03092,0.15584,0.06869,0.15584s0.11207-0.07012,0.16504-0.15584zm0.896-0.634c0.33892-0.09126,0.57949-0.20263,0.53463-0.2475-0.09663-0.09663-2.4601,0.37453-2.5886,0.51604-0.11408,0.12564,1.2547-0.05331,2.054-0.26854zm-2.3061-0.16605c0.1782-0.16277,0.000542-0.17274-0.67401-0.03784-0.26785,0.05357-0.48699,0.15701-0.48699,0.22986,0,0.15822,0.94949,0.001,1.161-0.19202zm-2.0181-0.13523c0.05299-0.08571,0.02207-0.15584-0.06869-0.15584s-0.16503,0.07012-0.16503,0.15584,0.03092,0.15584,0.06869,0.15584,0.11206-0.07012,0.16503-0.15584zm1.4026-0.15584c0.26759-0.11499,0.24556-0.13514-0.15584-0.1425-0.25714-0.0047-0.57271,0.05941-0.70127,0.1425-0.18424,0.11906-0.15123,0.14925,0.15584,0.1425,0.21427-0.0047,0.52985-0.06884,0.70127-0.1425zm2.1458,0.05362c-0.10551-0.04269-0.31589-0.04528-0.46752-0.0058-0.15162,0.03951-0.06526,0.07444,0.19183,0.07761,0.25714,0.0031,0.38119-0.02915,0.27569-0.07184zm1.2827-0.20946c0.05299-0.08572-0.01712-0.15584-0.15584-0.15584-0.13869,0-0.20882,0.07012-0.15584,0.15584,0.05299,0.08572,0.1231,0.15584,0.15584,0.15584,0.03273,0,0.10286-0.07012,0.15584-0.15584zm1.6363,0.0049c0-0.08302-0.10519-0.11058-0.23375-0.06125-0.12856,0.04934-0.23376,0.11726-0.23376,0.15095s0.10519,0.06125,0.23376,0.06125c0.12856,0,0.23375-0.06793,0.23375-0.15095zm-4.87-0.26418c0.19285-0.04736,0.35064-0.15335,0.35064-0.23555s-0.12272-0.11478-0.27271-0.07241c-0.15,0.04237-0.5883,0.12512-0.974,0.18389-1.0756,0.16389-1.3375,0.42122-0.31168,0.30624,0.47141-0.05284,1.0149-0.13482,1.2078-0.18217zm6.1946,0.01841,0.46752-0.2269-0.62336,0.09233c-0.34285,0.05078-0.72854,0.15391-0.85711,0.22919-0.41165,0.24102,0.4961,0.15624,1.013-0.09462zm-3.9739-0.07072c0-0.08571-0.06602-0.15584-0.14664-0.15584-0.08067,0-0.18998,0.07012-0.24295,0.15584-0.05299,0.08571,0.01303,0.15584,0.14664,0.15584,0.13363,0,0.24295-0.07012,0.24295-0.15584zm2.4155,0c0.12263-0.19841-0.23842-0.19841-0.54543,0-0.19005,0.12281-0.16991,0.15151,0.10768,0.15345,0.18779,0.0012,0.38478-0.06775,0.43775-0.15345zm-3.7401-0.15584c0.05299-0.08572-0.01712-0.15584-0.15584-0.15584-0.13868,0-0.20881,0.07012-0.15583,0.15584,0.05299,0.08572,0.1231,0.15584,0.15583,0.15584s0.10287-0.07012,0.15584-0.15584zm4.5973,0c0.19004-0.12282,0.1699-0.15151-0.10768-0.15345-0.18779-0.0012-0.38478,0.06775-0.43775,0.15345-0.12263,0.19841,0.23842,0.19841,0.54543,0zm0.03025-0.39657c0.94709-0.21811,1.7523-0.36627,1.7893-0.32924,0.03701,0.03703-0.29088,0.15326-0.72869,0.25829-1.1099,0.26626-0.84073,0.4004,0.31238,0.15569,0.87391-0.18546,1.3794-0.45279,0.90457-0.47835-0.1122-0.0061,0.06098-0.10827,0.38495-0.22718,0.32391-0.11891,0.70902-0.33627,0.85578-0.48303,0.31379-0.31379,0.35821-0.31904-2.7384,0.32345-1.0543,0.21876-2.0495,0.39774-2.2115,0.39774-0.16198,0-0.34446,0.08081-0.4055,0.17957-0.0801,0.12959,0.05832,0.15243,0.49728,0.08206,1.4562-0.23344,1.6405-0.23946,0.7641-0.02496-0.51427,0.12586-1.1454,0.29226-1.4025,0.36978-1.05,0.3165,0.29067,0.16482,1.9782-0.22382zm0.55414-0.48584c0.10714-0.04323,0.28245-0.04323,0.3896,0,0.10714,0.04323,0.0195,0.0786-0.1948,0.0786-0.21428,0-0.30194-0.03537-0.1948-0.0786zm-2.696,0.394c0.1782-0.16277,0.000618-0.17274-0.67401-0.03784-0.26785,0.05357-0.48699,0.15701-0.48699,0.22986,0,0.15822,0.94949,0.001,1.161-0.19202zm-11.135-0.135c0-0.08572-0.10519-0.15584-0.23375-0.15584-0.12857,0-0.23376,0.07012-0.23376,0.15584,0,0.08571,0.10519,0.15584,0.23376,0.15584,0.12856,0,0.23375-0.07012,0.23375-0.15584zm-3.6622-0.62336c-0.05297-0.08571-0.1623-0.15584-0.24296-0.15584s-0.14664,0.07012-0.14664,0.15584,0.10933,0.15584,0.24296,0.15584,0.19962-0.07012,0.14664-0.15584zm17.091-0.793c-0.07725-0.20681-0.18907-0.70749-0.24856-1.1126-0.05946-0.40513-0.18528-0.78426-0.27952-0.84251-0.12059-0.07454-0.14096,0.11581-0.06878,0.64261,0.16669,1.2161,0.41904,2.0067,0.58694,1.8388,0.09247-0.09251,0.09631-0.29485,0.0099-0.5263zm-16.234,0.325c0-0.08571-0.14025-0.15584-0.31168-0.15584-0.17142,0-0.31168,0.07012-0.31168,0.15584,0,0.08571,0.14025,0.15584,0.31168,0.15584,0.17142,0,0.31168-0.07012,0.31168-0.15584zm16.756-0.273c-0.05974-0.23571-0.17354-0.8283-0.25281-1.3169-0.21681-1.3363-0.48042-1.8349-0.37637-0.71195,0.11989,1.294,0.39354,2.4574,0.57804,2.4574,0.0968,0,0.11697-0.16898,0.05118-0.42856zm-15.468,0.163c-0.19167-0.03699-0.54231-0.03795-0.7792-0.0021-0.23688,0.03582-0.08006,0.06608,0.3485,0.06726,0.42856,0.001,0.62237-0.02814,0.4307-0.06513zm0.89393,0.04098c0-0.0378-0.07012-0.11206-0.15584-0.16504-0.08572-0.05297-0.15584-0.02205-0.15584,0.06873,0,0.09077,0.07012,0.16504,0.15584,0.16504,0.08571,0,0.15584-0.03093,0.15584-0.06873zm15.456-0.432c-0.11183-0.11182-0.18441-0.12102-0.18441-0.02338,0,0.08857,0.04671,0.20779,0.10389,0.26493s0.14012,0.06766,0.18441,0.02337c0.04424-0.04429-0.0029-0.1635-0.10389-0.26492zm0.59478-0.04415c0-0.12857-0.06793-0.23376-0.15095-0.23376-0.08305,0-0.11058,0.10519-0.06127,0.23376,0.04938,0.12857,0.11726,0.23376,0.15095,0.23376,0.03368,0,0.06127-0.10519,0.06127-0.23376zm0.3249-0.56177c-0.13729-0.34321-0.1501-0.34712-0.15918-0.0486-0.0057,0.17857,0.03691,0.37142,0.09399,0.42856,0.18613,0.18613,0.21778,0.0016,0.06517-0.37996zm0.66649,0.25009c-0.04938-0.12857-0.11726-0.23376-0.15095-0.23376-0.03368,0-0.06127,0.10519-0.06127,0.23376s0.06793,0.23376,0.15095,0.23376c0.08305,0,0.11058-0.10519,0.06127-0.23376zm-1.857-1.504c-0.145-0.80127-0.32297-1.5621-0.39548-1.6906-0.18915-0.33535-0.17176-0.06275,0.09562,1.499,0.2622,1.5315,0.3527,1.8593,0.47863,1.7333,0.04671-0.04668-0.03377-0.74046-0.17877-1.5417zm0.63665,0.53009c-0.06003-0.49284-0.18151-0.9662-0.26992-1.0519-0.1555-0.15074-0.06659,1.0053,0.1288,1.6753,0.16803,0.57608,0.24554,0.23372,0.14112-0.62336zm11.738-0.10018c0.70347-0.22223,1.5751-0.45059,1.9369-0.50748,0.36181-0.05689,0.80369-0.19789,0.98195-0.31335s0.37492-0.15911,0.43703-0.09701c0.06212,0.0621,0.1617,0.04147,0.22132-0.04584,0.05965-0.08731,0.52801-0.27332,1.0409-0.41333,0.70469-0.19239,0.96105-0.20961,1.0495-0.0705,0.08733,0.13728,0.11768,0.13357,0.11946-0.01457,0.0019-0.19692,0.41888-0.40565,1.2013-0.60202,0.28493-0.07151,0.37307-0.04865,0.29561,0.07668-0.0607,0.09821-0.03606,0.17857,0.0547,0.17857s0.16504-0.09595,0.16504-0.21322c0-0.12743,0.37416-0.31821,0.92994-0.47415,0.51146-0.14351,0.97143-0.32807,1.0221-0.41013,0.12896-0.20867-0.09266-0.1866-0.86592,0.08622-0.367,0.12948-0.69306,0.20962-0.7246,0.17808-0.03158-0.03154,0.3709-0.21349,0.89432-0.40434,1.4075-0.5132,0.99903-0.57807-0.50576-0.08032-1.7528,0.57979-1.821,0.59574-1.3735,0.3212,0.56808-0.3485,0.20898-0.30256-1.0909,0.13955-1.4899,0.50675-1.8079,0.4904-0.3896-0.02003,2.2199-0.79892,2.4616-0.89965,2.2933-0.95574-0.09456-0.03153-1.3387,0.34752-2.7648,0.84231-1.5033,0.5216-2.4863,0.93701-2.3392,0.98859,0.15288,0.05363-0.29077,0.26576-1.1171,0.53412-0.75387,0.24484-1.5379,0.5759-1.7423,0.73571-0.20441,0.1598-0.44985,0.29288-0.54543,0.29573-0.20464,0.0061-0.87506,0.54148-0.87506,0.69878,0,0.05972,0.09266,0.07301,0.20592,0.02956,0.11325-0.04346,0.78148-0.26084,1.485-0.48306zm-10.73-0.241c0-0.16636-0.07011-0.34582-0.15584-0.3988-0.08838-0.05463-0.15584,0.0763-0.15584,0.30248,0,0.21934,0.07011,0.3988,0.15584,0.3988,0.08572,0,0.15584-0.13612,0.15584-0.30248zm-0.62336-0.09631c0-0.13363-0.07126-0.19891-0.15838-0.14507-0.08714,0.05384-0.11803,0.16317-0.06869,0.24296,0.13359,0.21616,0.2271,0.17585,0.2271-0.09789zm-2.7134-0.80817c-0.17024-0.17024-0.28697,0.10049-0.16475,0.38209,0.11589,0.26701,0.1243,0.26677,0.18887-0.0054,0.0372-0.1567,0.02635-0.32618-0.02416-0.37661zm3.8043,0.42777c0-0.08571-0.0743-0.15584-0.16504-0.15584-0.09076,0-0.1217,0.07012-0.06869,0.15584,0.05299,0.08571,0.12724,0.15584,0.16504,0.15584,0.03777,0,0.06869-0.07012,0.06869-0.15584zm19.558-0.62336c0.05299-0.08571,0.02616-0.15584-0.05955-0.15584-0.08572,0-0.19918,0.07012-0.25215,0.15584-0.05299,0.08571-0.02616,0.15584,0.05955,0.15584,0.08572,0,0.19917-0.07012,0.25215-0.15584zm-23.425-0.34555c-0.11182-0.11182-0.18441-0.12102-0.18441-0.02337,0,0.08857,0.04671,0.20779,0.1039,0.26493,0.05718,0.05714,0.14012,0.06766,0.18441,0.02337,0.04424-0.04429-0.0029-0.1635-0.1039-0.26493zm3.0882-0.27791c0-0.08571-0.0743-0.15584-0.16504-0.15584-0.09076,0-0.1217,0.07012-0.06869,0.15584,0.05299,0.08572,0.12724,0.15584,0.16504,0.15584,0.03777,0,0.06869-0.07012,0.06869-0.15584zm-0.76458-0.67108c-0.12338-0.12338-0.17046-0.08294-0.17046,0.14642,0,0.412,0.21793,0.63069,0.28733,0.28833,0.02949-0.14536-0.02312-0.341-0.11687-0.43475zm1.2321,0.42812c0-0.13362-0.07126-0.19891-0.15838-0.14507-0.08714,0.05384-0.11803,0.16317-0.06869,0.24296,0.13359,0.21616,0.2271,0.17585,0.2271-0.09789zm1.5584-0.31168c0-0.21934-0.06355-0.35952-0.14121-0.31152-0.07763,0.048-0.10454,0.22746-0.05974,0.3988,0.11214,0.4288,0.20095,0.39022,0.20095-0.08727zm-0.46751,0.09632c0-0.08066-0.07011-0.18998-0.15584-0.24296-0.08572-0.05297-0.15584,0.01301-0.15584,0.14664s0.07011,0.24296,0.15584,0.24296c0.08572,0,0.15584-0.06598,0.15584-0.14664zm6.5457-1.6422c-0.05879-0.38752-0.04795-0.70459,0.02416-0.70459s0.13113,0.17118,0.13113,0.3804,0.08105,0.43051,0.18016,0.49175c0.12965,0.08012,0.15403-0.04972,0.08695-0.46308-0.06488-0.40002-0.03682-0.56539,0.09257-0.54468,0.10217,0.01636,0.38319-0.05162,0.62448-0.15108,0.24128-0.09946,0.56122-0.18083,0.71096-0.18083,0.33059,0,1.6381-0.61475,1.5323-0.72048-0.07773-0.0777-1.552,0.23268-3.4612,0.72866-1.1768,0.30572-1.4986,0.21492-1.1255-0.31766,0.1697-0.24229,0.25805-0.27848,0.31741-0.13001,0.05432,0.13599,0.08638,0.11328,0.09456-0.06698,0.0067-0.15,0.0938-0.25519,0.1933-0.23376,0.09956,0.02142,0.22624-0.13636,0.28152-0.35064l0.10052-0.3896,0.1019,0.38279c0.05603,0.21054,0.14374,0.34095,0.19488,0.28981,0.16551-0.16552-0.1833-1.142-0.39085-1.0941-0.1487,0.03429-0.17597-0.12413-0.10729-0.62336,0.06212-0.45168,0.04719-0.56798-0.04595-0.35765-0.13382,0.30223-0.13834,0.30143-0.14896-0.02621-0.0057-0.18584-0.05794-0.46032-0.11535-0.60996-0.07611-0.19839-0.04937-0.23805,0.09885-0.14645,0.15476,0.09564,0.18469,0.01807,0.12544-0.32507-0.04281-0.24788-0.24372-1.45-0.4465-2.6714-0.20277-1.2214-0.42504-2.2207-0.49393-2.2207-0.06888,0-0.07087,0.36817-0.0048,0.81816,0.0664,0.44998,0.12146,1.0744,0.12225,1.3877,0.00078,0.31323,0.05404,0.53701,0.11832,0.49728,0.06431-0.03973,0.11688,0.08074,0.11688,0.26772,0,0.29184-0.03482,0.3111-0.24567,0.13607-0.17854-0.14817-0.21841-0.34922-0.14591-0.7357,0.06717-0.35792,0.04557-0.49831-0.06602-0.42936-0.09361,0.05785-0.16682-0.02029-0.16816-0.17946-0.0019-0.23903-0.0254-0.24635-0.15345-0.04816-0.13066,0.20218-0.15139,0.19867-0.15345-0.02597-0.000951-0.14285,0.07173-0.28444,0.16237-0.31465,0.09057-0.0302,0.11834-0.1759,0.06155-0.32377-0.0567-0.14787-0.16594-0.23005-0.24267-0.18263-0.07677,0.04743-0.13951-0.05067-0.13951-0.21798s0.10519-0.34457,0.23376-0.3939c0.12856-0.04934,0.23376-0.26722,0.23376-0.48419s0.07011-0.39449,0.15584-0.39449c0.08572,0,0.15584-0.10519,0.15584-0.23376,0-0.44912-0.28211-0.22894-0.44926,0.35064l-0.16854,0.5844,0.07344-0.62336c0.04043-0.34285,0.08115-0.83374,0.09066-1.0909,0.01693-0.45914,0.0195-0.46054,0.14202-0.07791,0.15856,0.49511,0.18524,0.10221,0.0567-0.83536-0.06279-0.45834-0.17692-0.72303-0.31168-0.72303-0.13066,0-0.20835-0.16514-0.20162-0.42856,0.0097-0.37976,0.02616-0.39306,0.14488-0.11688,0.11224,0.26119,0.13571,0.22963,0.14489-0.1948,0.0076-0.35118-0.0607-0.50648-0.2228-0.50648-0.14217,0-0.23376-0.14502-0.23376-0.37012,0-0.20356-0.041-0.6068-0.09104-0.89608-0.07221-0.41711-0.05385-0.47758,0.08866-0.2922,0.13881,0.18055,0.1569,0.02094,0.07944-0.70128-0.05508-0.51427-0.14327-1.1104-0.19589-1.3246l-0.09569-0.3896-0.12297,0.3896c-0.08391,0.26575-0.1062,0.12533-0.07021-0.44175,0.0313-0.49337-0.00078-0.74679-0.07906-0.62336-0.08809,0.13897-0.13264,0.04414-0.13422-0.28574-0.0029-0.61759-0.14782-1.0116-0.3304-0.89873-0.07668,0.04742-0.1395-0.06231-0.1395-0.24385s0.06479-0.29001,0.14404-0.24105c0.27118,0.1676,0.24953-0.45626-0.0254-0.73116-0.31092-0.31092-0.36702-1.2105-0.09257-1.4849,0.13864-0.13864,0.12011-0.20561-0.07791-0.2816-0.1429-0.05484-0.26089-0.21492-0.2622-0.35575-0.0019-0.22225-0.02236-0.22519-0.15345-0.02229-0.11237,0.17388-0.15168,0.08406-0.15346-0.35064-0.000952-0.32142-0.06431-0.5844-0.14005-0.5844-0.1576,0-0.32459,0.53599-0.32773,1.0519-0.000951,0.19285-0.06897,0.35064-0.15062,0.35064-0.08162,0-0.12583,0.33311-0.09813,0.74024,0.02768,0.40713,0.02017,0.51232-0.01674,0.23376s-0.12428-0.50648-0.19414-0.50648c-0.06983,0-0.11263,0.96426-0.09504,2.1428,0.01884,1.2629-0.01979,1.9828-0.09418,1.7532-0.07601-0.23463-0.0918,0.01162-0.03977,0.61907,0.08866,1.0348,0.34194,1.7994,0.38852,1.1731,0.01589-0.21419,0.06041-0.16545,0.14214,0.15584,0.11598,0.45578,0.11942,0.4522,0.1374-0.14285,0.02416-0.79937,0.10692-0.67733,0.23826,0.35128,0.07202,0.56392,0.05375,0.79934-0.05679,0.73104-0.08962-0.05542-0.17,0.02611-0.17855,0.18117-0.01103,0.19971-0.05194,0.16831-0.1403-0.10768-0.11343-0.35418-0.12519-0.34001-0.12934,0.15584-0.0029,0.29999,0.05565,0.68569,0.12934,0.85711,0.1237,0.28787,0.13596,0.28192,0.16042-0.07791l0.02645-0.3896,0.12477,0.3896c0.06859,0.21428,0.12221,0.59998,0.11908,0.85711-0.0048,0.34829-0.02293,0.3781-0.07325,0.11688-0.09778-0.50768-0.36396-0.43228-0.2751,0.07793,0.041,0.23571,0.2147,1.3052,0.38588,2.3765,0.17118,1.0714,0.3494,2.1759,0.39604,2.4545,0.05033,0.30044,0.17702,0.50648,0.31149,0.50648,0.14718,0,0.22125,0.15032,0.21116,0.42856l-0.01551,0.42856-0.12476-0.3896c-0.11343-0.35418-0.12519-0.34001-0.12935,0.15584-0.0029,0.29999,0.05565,0.68569,0.12935,0.85712,0.11646,0.27102,0.13735,0.2507,0.16015-0.15584,0.01789-0.31815,0.09295-0.14388,0.23511,0.54544,0.24197,1.1734,0.27015,1.6293,0.0723,1.1688-0.1328-0.30903-0.13402-0.30898-0.14489,0.0066-0.0138,0.4019,0.72898,4.2917,0.84094,4.4036,0.2086,0.2086,0.18697-0.14299-0.08438-1.3714-0.16093-0.72855-0.28708-1.4649-0.28033-1.6363,0.0067-0.17142,0.15034,0.35453,0.31908,1.1688,0.17397,0.83951,0.41143,1.5614,0.54847,1.6674,0.2165,0.16746,0.21248,0.21614-0.03853,0.46752-0.15412,0.15433-0.39058,0.29389-0.52549,0.31013-0.1349,0.01624-0.6465,0.12929-1.1369,0.25122-0.49038,0.12193-0.92698,0.1863-0.97023,0.14306-0.04329-0.04325-0.17444,0.000936-0.29153,0.09807-0.1171,0.09718-0.25905,0.13055-0.31545,0.07416-0.05641-0.0564-0.10254-0.01277-0.10254,0.09697,0,0.24359,0.73496,0.14959,2.8743-0.3676,1.643-0.3972,1.5042-0.45239,1.7296,0.68756,0.1483,0.74983,0.24381,0.86857,0.46041,0.57236,0.121-0.16549,0.14848-0.49969,0.07887-0.95864zm-2.781-4.9122c0-0.21428,0.03539-0.30194,0.07858-0.1948s0.04319,0.28246,0,0.3896-0.07858,0.01948-0.07858-0.1948zm0.29938-0.09091c0.0076-0.18154,0.04443-0.21847,0.09418-0.09415,0.045,0.1125,0.03948,0.24691-0.01227,0.29869s-0.08866-0.04026-0.08182-0.20454zm1.3222-0.82466c0.07049-0.36594,0.0489-0.49354-0.07116-0.41936-0.09936,0.06141-0.1725-0.0019-0.1725-0.14933,0-0.36926,0.38034-0.19043,0.43881,0.20631,0.02702,0.18367-0.02854,0.45869-0.12366,0.61115-0.13894,0.22279-0.15298,0.17396-0.07154-0.24877zm-1.4781,0.04547c0.0076-0.18154,0.04443-0.21847,0.09418-0.09416,0.045,0.1125,0.03948,0.24691-0.01227,0.29869s-0.08857-0.04026-0.08181-0.20454zm-0.31168-1.7142c0.0076-0.18154,0.04443-0.21847,0.09418-0.09415,0.045,0.1125,0.03948,0.24691-0.01227,0.29869s-0.08857-0.04026-0.08182-0.20454zm0.16814-0.84413c0-0.21428,0.03539-0.30194,0.07858-0.1948s0.04319,0.28246,0,0.3896-0.07858,0.01948-0.07858-0.1948zm-0.32398-0.09091c0.0076-0.18154,0.04443-0.21847,0.09418-0.09415,0.045,0.1125,0.03948,0.24691-0.01227,0.29869s-0.08866-0.04026-0.08181-0.20454zm-0.448-0.922c0.0029-0.25714,0.03805-0.34346,0.07763-0.19183,0.03948,0.15163,0.03691,0.36201-0.0057,0.46752-0.04272,0.10551-0.07506-0.01855-0.07183-0.27568zm0.2936-0.16882c0.0076-0.18154,0.04443-0.21847,0.09418-0.09416,0.045,0.1125,0.03948,0.24691-0.01227,0.29869s-0.08867-0.04026-0.08182-0.20454zm-0.45522-0.84413c0-0.21428,0.03539-0.30194,0.07858-0.1948s0.04319,0.28246,0,0.3896-0.07858,0.01948-0.07858-0.1948zm-0.15-1.013c0.0029-0.25714,0.03805-0.34346,0.07763-0.19183,0.03948,0.15163,0.03691,0.36201-0.0057,0.46752-0.04272,0.10551-0.07506-0.01855-0.07183-0.27568zm-0.15584-0.93504c0.0029-0.25713,0.03815-0.34346,0.07763-0.19183s0.03691,0.36201-0.0057,0.46752c-0.04271,0.10551-0.07506-0.01855-0.07183-0.27568zm2.0259-0.31168c0.0029-0.25713,0.03815-0.34346,0.07763-0.19183s0.03691,0.36201-0.0057,0.46752c-0.04272,0.10551-0.07506-0.01855-0.07183-0.27568zm-2.182-0.623c0.0029-0.25714,0.03815-0.34346,0.07763-0.19183s0.03691,0.36201-0.0057,0.46752c-0.04272,0.10551-0.07497-0.01855-0.07183-0.27568zm0.2936-0.16883c0.0076-0.18154,0.04443-0.21847,0.09418-0.09415,0.045,0.1125,0.03948,0.24691-0.01227,0.29869s-0.08857-0.04026-0.08182-0.20454zm1.4025-0.31168c0.0076-0.18154,0.04443-0.21847,0.09418-0.09415,0.045,0.1125,0.03948,0.24691-0.01227,0.29869s-0.08866-0.04026-0.08182-0.20454zm-1.5584-0.62336c0.0076-0.18154,0.04443-0.21847,0.09418-0.09415,0.045,0.1125,0.03948,0.24691-0.01227,0.29869s-0.08866-0.04026-0.08182-0.20454zm1.4025-0.46752c0.0076-0.18154,0.04443-0.21847,0.09418-0.09415,0.045,0.1125,0.03948,0.24691-0.01227,0.29869s-0.08857-0.04026-0.08181-0.20454zm-1.5584-0.46752c0.0076-0.18154,0.04443-0.21847,0.09418-0.09415,0.045,0.1125,0.03948,0.24691-0.01227,0.29869s-0.08866-0.04026-0.08181-0.20454zm1.4025-0.62336c0.0076-0.18154,0.04443-0.21847,0.09418-0.09415,0.045,0.1125,0.03948,0.24691-0.01227,0.29869s-0.08857-0.04026-0.08182-0.20454zm0.16814-1.1558c0-0.21428,0.03539-0.30194,0.07858-0.1948s0.04319,0.28246,0,0.3896-0.07858,0.01948-0.07858-0.1948zm-1.5707-0.40258c0.0076-0.18154,0.04443-0.21847,0.09418-0.09415,0.045,0.1125,0.03948,0.24691-0.01227,0.29869s-0.08866-0.04026-0.08181-0.20454zm-0.76-0.609c0.0029-0.25714,0.03805-0.34346,0.07763-0.19183,0.03948,0.15163,0.03691,0.36201-0.0057,0.46752-0.04272,0.10551-0.07497-0.01855-0.07183-0.27568zm0.2936-0.16883c0.0076-0.18154,0.04443-0.21847,0.09418-0.09416,0.045,0.1125,0.03948,0.24691-0.01227,0.29869s-0.08857-0.04026-0.08181-0.20454zm0.31168-0.31168c0.0076-0.18154,0.04443-0.21847,0.09418-0.09415,0.045,0.1125,0.03948,0.24691-0.01227,0.29869s-0.08867-0.04026-0.08182-0.20454zm-0.46752-0.62336c0.0076-0.18154,0.04443-0.21847,0.09418-0.09416,0.045,0.1125,0.03948,0.24691-0.01227,0.29869s-0.08857-0.04026-0.08182-0.20454zm1.5584-0.15584c0.0076-0.18154,0.04443-0.21847,0.09418-0.09415,0.045,0.1125,0.03948,0.24691-0.01227,0.29869s-0.08867-0.04026-0.08182-0.20454zm-1.2467-0.31168c0.0076-0.18154,0.04443-0.21847,0.09418-0.09416,0.045,0.1125,0.03948,0.24691-0.01227,0.29869s-0.08857-0.04026-0.08182-0.20454zm-0.45522-0.68829c0-0.21428,0.03539-0.30194,0.07858-0.1948s0.04319,0.28246,0,0.3896-0.07858,0.01948-0.07858-0.1948zm0.31745-0.54544c0.0029-0.25713,0.03805-0.34346,0.07763-0.19183,0.03948,0.15163,0.03691,0.36201-0.0057,0.46752-0.04271,0.10551-0.07506-0.01855-0.07183-0.27568zm0.3059-2.883c0-0.21428,0.03539-0.30194,0.07858-0.1948s0.04319,0.28246,0,0.3896-0.07858,0.01948-0.07858-0.1948zm15.637,24.475c0.34284-0.16224,0.51817-0.29545,0.38959-0.29603-0.31444-0.0014-1.5439,0.57404-1.2467,0.58354,0.12856,0.0041,0.51427-0.12527,0.85711-0.28751zm-3.4285-0.16437c0.1219-0.19723-0.08438-0.19723-0.3896,0-0.20145,0.13019-0.19734,0.1514,0.02978,0.15345,0.14494,0.0012,0.30686-0.06775,0.35984-0.15345zm2.4827-0.33451c0.48077-0.18398,0.84219-0.36644,0.80316-0.40547-0.10124-0.10124-1.6281,0.42336-1.7348,0.59606-0.12437,0.20123-0.05527,0.1871,0.93167-0.19059zm-0.69055-0.28885c0-0.08572-0.06602-0.15584-0.14664-0.15584-0.08067,0-0.18998,0.07012-0.24296,0.15584-0.05299,0.08571,0.01303,0.15584,0.14664,0.15584,0.13362,0,0.24295-0.07012,0.24295-0.15584zm-1.7482-0.25115c0.31866-0.13813,0.49649-0.28265,0.39515-0.32114-0.17978-0.0683-1.1404,0.35152-1.1404,0.49838,0,0.1198,0.13295,0.08818,0.74524-0.17724zm1.3678-0.14651c0.29072-0.23241,0.28732-0.2378-0.08714-0.13832-0.48082,0.12774-0.77997,0.38015-0.45055,0.38015,0.12933,0,0.37126-0.10882,0.53764-0.24183zm1.2375,0.08599c0.12263-0.19841-0.23842-0.19841-0.54543,0-0.19004,0.12281-0.1699,0.15151,0.10768,0.15345,0.1878,0.0012,0.38478-0.06775,0.43775-0.15345zm-15.974-0.31168c0-0.08571-0.07011-0.15584-0.15584-0.15584-0.08572,0-0.15584,0.07012-0.15584,0.15584s0.07011,0.15584,0.15584,0.15584c0.08572,0,0.15584-0.07012,0.15584-0.15584zm16.753,0c0.05299-0.08571,0.02616-0.15584-0.05955-0.15584-0.08572,0-0.19918,0.07012-0.25215,0.15584-0.05299,0.08572-0.02616,0.15584,0.05955,0.15584,0.08572,0,0.19918-0.07012,0.25215-0.15584zm-16.008-1.049c-0.14432-0.69649-0.43267-1.2691-0.43267-0.85918,0,0.46746,0.35222,1.7464,0.46224,1.6784,0.06831-0.04224,0.05508-0.4109-0.02959-0.81923zm14.723,0.55102c0.2357-0.08533,0.42856-0.21841,0.42856-0.29574,0-0.20004-0.09152-0.17973-0.7854,0.17425-0.61243,0.31244-0.86751,0.59917-0.34443,0.38716,0.15-0.06079,0.46557-0.18035,0.70127-0.26568zm0.90883,0.18702c0.07868,0,0.14309-0.07012,0.14309-0.15584,0-0.22565-0.20819-0.19162-0.55461,0.09064-0.27681,0.22555-0.27826,0.23878-0.01703,0.15584,0.157-0.04985,0.34986-0.09064,0.42855-0.09064zm-16.673-0.79255-0.15041-0.37624-0.0099,0.40258c-0.0057,0.22142,0.04129,0.45372,0.10375,0.51622,0.18506,0.18506,0.21862-0.1371,0.05651-0.54256zm0.5218,0.10966c-0.05632-0.22439-0.16273-0.40799-0.23646-0.40799s-0.10118,0.10519-0.06098,0.23376c0.04015,0.12857,0.10975,0.34899,0.15462,0.48982,0.13057,0.40981,0.25561,0.13362,0.14286-0.31559zm18.009,0.37121c0.20145-0.13019,0.19734-0.1514-0.02978-0.15345-0.14494-0.0012-0.30687,0.06774-0.35984,0.15345-0.1219,0.19723,0.08438,0.19723,0.3896,0zm-17.142-1.1652c-0.09827-0.47338-0.21781-0.8607-0.26563-0.8607-0.1014,0,0.07297,1.4389,0.22119,1.8251,0.19507,0.50836,0.22325-0.10311,0.04443-0.96443zm1.4018,1.0965c0-0.0378-0.07011-0.11206-0.15584-0.16504-0.08572-0.05297-0.15584-0.02205-0.15584,0.06872s0.07011,0.16504,0.15584,0.16504c0.08572,0,0.15584-0.03093,0.15584-0.06873zm12.463-0.08103c0.12608-0.07974,0.17701-0.19721,0.11317-0.26106-0.06384-0.06384-0.23463,0.0025-0.37952,0.14736-0.28166,0.28166-0.11306,0.35363,0.26635,0.11369zm2.7317-0.16193c0.05299-0.08571,0.02207-0.15584-0.06869-0.15584s-0.16504,0.07012-0.16504,0.15584c0,0.08571,0.03092,0.15584,0.06869,0.15584s0.11206-0.07012,0.16504-0.15584zm-15.352-0.467c0-0.08572-0.0743-0.15584-0.16504-0.15584-0.09076,0-0.12169,0.07012-0.06869,0.15584,0.05299,0.08571,0.12724,0.15584,0.16504,0.15584,0.03777,0,0.06869-0.07012,0.06869-0.15584zm0.36218-0.50648c-0.05366-0.27856-0.15264-0.64673-0.21999-0.81816-0.11898-0.3029-0.1227-0.30235-0.1323,0.01948-0.01579,0.52898,0.17296,1.3052,0.31738,1.3052,0.07287,0,0.08857-0.22792,0.03491-0.50648zm11.949,0.10768c0-0.13363-0.07011-0.19961-0.15584-0.14664-0.08572,0.05297-0.15584,0.1623-0.15584,0.24296s0.07011,0.14664,0.15584,0.14664c0.08572,0,0.15584-0.10933,0.15584-0.24296zm3.7356,0.0932c0.12609-0.07974,0.1911-0.18313,0.14447-0.22976-0.04662-0.04663-0.21992,0.01746-0.38508,0.14241-0.32856,0.24858-0.12892,0.32105,0.24061,0.08735zm-16.343-0.898c-0.14705-0.25262-0.16178-0.24724-0.1661,0.06069-0.0029,0.18584,0.04719,0.46635,0.11074,0.62336,0.10397,0.25703,0.12052,0.25099,0.1661-0.06069,0.02787-0.19039-0.02198-0.4709-0.11074-0.62336zm-2.5578,0.39486c-0.04976-0.12432-0.08667-0.08739-0.09418,0.09415-0.0067,0.16428,0.03006,0.25632,0.08181,0.20454s0.05727-0.1862,0.01227-0.29869zm0.46752,0c-0.04976-0.12432-0.08667-0.08739-0.09418,0.09415-0.0067,0.16428,0.03006,0.25632,0.08182,0.20454,0.05175-0.05178,0.05727-0.1862,0.01227-0.29869zm5.8976-0.08734c-0.11526-0.45919-0.19981-0.59738-0.30215-0.49381-0.12089,0.12234,0.10033,0.92205,0.25506,0.92205,0.09076,0,0.1102-0.17675,0.04709-0.42824zm12.073,0.10478c0-0.07385-0.10519-0.09391-0.23375-0.04458-0.12858,0.04934-0.23376,0.15013-0.23376,0.22398s0.10519,0.09391,0.23376,0.04457c0.12856-0.04934,0.23375-0.15013,0.23375-0.22397zm-17.595-0.72356c-0.14176-0.24356-0.16217-0.22823-0.16632,0.12497-0.0029,0.22142,0.04785,0.45563,0.11214,0.52046,0.18722,0.18881,0.23165-0.34052,0.05423-0.64543zm-0.84956,0.15094c-0.04186-0.15-0.16356-0.88946-0.27039-1.6433-0.10683-0.7538-0.26207-1.4125-0.34498-1.4637-0.09466-0.05849-0.11062,0.19059-0.043,0.66926,0.26567,1.8794,0.44476,2.7104,0.58413,2.7104,0.08267,0,0.11608-0.12272,0.0742-0.27272zm0.31419-0.3896c-0.04319-0.10714-0.07858-0.01948-0.07858,0.1948s0.03539,0.30194,0.07858,0.1948,0.04319-0.28246,0-0.3896zm1.1435,0.12608c0-0.0378-0.07011-0.11206-0.15584-0.16504-0.08572-0.05297-0.15584-0.02205-0.15584,0.06873,0,0.09077,0.07011,0.16504,0.15584,0.16504,0.08572,0,0.15584-0.03093,0.15584-0.06873zm1.4738-0.23219c0.04928-0.07979,0.01836-0.18912-0.06869-0.24296-0.08714-0.05384-0.15838,0.01143-0.15838,0.14507,0,0.27374,0.09352,0.31404,0.2271,0.09789zm-2.0972-0.32245c0-0.08572-0.07011-0.15584-0.15584-0.15584-0.08572,0-0.15584,0.07012-0.15584,0.15584,0,0.08571,0.07011,0.15584,0.15584,0.15584,0.08572,0,0.15584-0.07012,0.15584-0.15584zm0.32921-0.35648c-0.12727-0.12727-0.17337-0.10983-0.17337,0.06559,0,0.13142,0.05109,0.29009,0.11363,0.35259,0.0625,0.06249,0.14051,0.03298,0.17337-0.06559,0.03282-0.09857-0.01827-0.25723-0.11363-0.35259zm-1.0188-0.54085c-0.18362-0.18362-0.25667,0.09586-0.13809,0.52831l0.12256,0.44695,0.05261-0.4428c0.02892-0.24354,0.01227-0.48314-0.03701-0.53245zm5.8322,0.49854c0-0.13363-0.07126-0.19891-0.15838-0.14507-0.08714,0.05384-0.11803,0.16317-0.06869,0.24296,0.13359,0.21616,0.2271,0.17585,0.2271-0.09789zm-5.2985-0.14664c0-0.12857-0.06793-0.23376-0.15095-0.23376-0.08305,0-0.11058,0.10519-0.06127,0.23376,0.04937,0.12857,0.11726,0.23376,0.15095,0.23376,0.03368,0,0.06127-0.10519,0.06127-0.23376zm1.9765-0.26298c-0.04975-0.12432-0.08667-0.08739-0.09418,0.09416-0.0067,0.16428,0.03006,0.25632,0.08182,0.20454,0.05175-0.05178,0.05727-0.1862,0.01227-0.29869zm-0.15584-0.7792c-0.04976-0.12432-0.08667-0.08739-0.09418,0.09415-0.0067,0.16428,0.03006,0.25632,0.08181,0.20454s0.05727-0.1862,0.01227-0.29869zm-2.497-0.244c-0.04119-0.15-0.12052-0.54286-0.17639-0.87304-0.05584-0.33018-0.13932-0.56258-0.18545-0.51646-0.13934,0.13934,0.12171,1.6622,0.28493,1.6622,0.08343,0,0.11805-0.12272,0.07687-0.27272zm5.6114-0.23376c-0.04319-0.10714-0.07858-0.01948-0.07858,0.1948s0.03539,0.30194,0.07858,0.1948,0.04319-0.28246,0-0.3896zm-2.8051-0.15584c-0.04319-0.10714-0.07858-0.01948-0.07858,0.1948s0.03539,0.30194,0.07858,0.1948,0.04319-0.28246,0-0.3896zm3.3253-0.03896c0-0.21428-0.07011-0.3896-0.15584-0.3896-0.1741,0-0.2136,0.51364-0.05194,0.6753,0.17178,0.17179,0.20778,0.12229,0.20778-0.2857zm-3.8746-1.0909-0.14589-0.62336-0.0157,0.64957c-0.0086,0.35726,0.03634,0.77803,0.09982,0.93504,0.10812,0.2673,0.1184,0.26564,0.16154-0.02621,0.02531-0.17142-0.0196-0.59219-0.09982-0.93503zm3.1423-0.5844c-0.12086-0.79283-0.28049-1.6168-0.35475-1.8311l-0.135-0.3896-0.01227,0.39994c-0.0067,0.21996,0.05898,0.81605,0.14607,1.3246,0.08714,0.50858,0.19548,1.1526,0.24082,1.4312,0.04538,0.27856,0.13925,0.50648,0.20868,0.50648,0.06945,0,0.0273-0.64868-0.09352-1.4415zm-5.1895,0.73104c0-0.21934-0.06355-0.35952-0.14121-0.31152-0.07763,0.048-0.10455,0.22746-0.05974,0.3988,0.11213,0.4288,0.20095,0.39023,0.20095-0.08727zm5.7505,0.04816c-0.0086-0.10714-0.07173-0.37012-0.1403-0.5844-0.11136-0.3477-0.12644-0.32675-0.1403,0.1948-0.0086,0.32142,0.05461,0.5844,0.1403,0.5844,0.08572,0,0.14885-0.08766,0.1403-0.1948zm1.6689-1.2157c-0.25244-1.3384-0.40662-1.7322-0.40662-1.0386,0,0.78253,0.41357,2.5551,0.56161,2.407,0.04776-0.04771-0.02207-0.66348-0.15498-1.3684zm-0.69536,0.45362-0.15067-0.52357-0.01408,0.4805c-0.0076,0.26428,0.03273,0.52726,0.08981,0.5844,0.19587,0.19587,0.22547-0.01809,0.07487-0.54133zm-7.4473-1.1663c-0.11496-0.83066-0.25449-1.5518-0.31007-1.6026-0.05556-0.05076-0.06545,0.46873-0.02207,1.1544,0.04348,0.68569,0.04728,1.0714,0.0086,0.85712-0.03872-0.21428-0.14317-0.45972-0.23202-0.54544-0.11114-0.10721-0.12692,0.03829-0.05061,0.46633,0.13917,0.78028,0.24116,0.94888,0.41145,0.68014,0.09333-0.14723,0.1347-0.0785,0.13636,0.22632,0.000952,0.24076,0.06203,0.4009,0.13488,0.35587,0.07287-0.04504,0.03843-0.76152-0.07649-1.5922zm1.1908,1.4998c0-0.08572-0.07011-0.15584-0.15584-0.15584-0.08572,0-0.15584,0.07012-0.15584,0.15584,0,0.08571,0.07011,0.15584,0.15584,0.15584,0.08572,0,0.15584-0.07012,0.15584-0.15584zm5.1427-1.0038c0-0.0378-0.07011-0.11206-0.15584-0.16504-0.08572-0.05297-0.15584-0.02205-0.15584,0.06873,0,0.09077,0.07011,0.16504,0.15584,0.16504,0.08572,0,0.15584-0.03093,0.15584-0.06873zm1.0909-0.07793c0-0.08066-0.07011-0.18998-0.15584-0.24296-0.08572-0.05297-0.15584,0.01301-0.15584,0.14664s0.07011,0.24296,0.15584,0.24296c0.08572,0,0.15584-0.06599,0.15584-0.14664zm-0.84761-0.74188c-0.15592-0.40634-0.26766-0.11842-0.14112,0.36366,0.08648,0.32951,0.13289,0.3729,0.17661,0.16512,0.03263-0.155,0.01665-0.39295-0.03548-0.52878zm-5.7503-0.08547c-0.04319-0.10714-0.07858-0.01948-0.07858,0.1948s0.03539,0.30194,0.07858,0.1948,0.04319-0.28246,0-0.3896zm-0.52561-0.58455c-0.11214-0.4288-0.20096-0.39023-0.20096,0.08728,0,0.21934,0.06355,0.35952,0.14122,0.31152,0.07763-0.048,0.10454-0.22746,0.05974-0.3988zm0.37301-0.1849c-0.04976-0.12432-0.08667-0.08739-0.09418,0.09416-0.0067,0.16428,0.03006,0.25632,0.08181,0.20454s0.05737-0.1862,0.01227-0.29869zm5.6718-0.64429c-0.20123-0.20123-0.22237,0.08311-0.05004,0.67351l0.1137,0.3896,0.05223-0.44754c0.02873-0.24615-0.0234-0.52315-0.11583-0.61556zm-6.8691,0.60479c0-0.0378-0.07011-0.11206-0.15584-0.16504-0.08572-0.05297-0.15584-0.02205-0.15584,0.06873,0,0.09077,0.07011,0.16504,0.15584,0.16504,0.08572,0,0.15584-0.03093,0.15584-0.06873zm2.6214-1.139c-0.16925-1.1107-0.25598-1.3487-0.26976-0.74024-0.01494,0.65801,0.16115,1.6363,0.29446,1.6363,0.06155,0,0.05042-0.40323-0.02473-0.89608zm6.6511,0.5844c-0.05299-0.08572-0.16645-0.15584-0.25215-0.15584-0.08572,0-0.1125,0.07012-0.05955,0.15584,0.05299,0.08572,0.16644,0.15584,0.25215,0.15584,0.08572,0,0.1125-0.07012,0.05955-0.15584zm-3.4898-0.94233c-0.14321-0.35863-0.15326-0.34773-0.16253,0.17612-0.0057,0.30713,0.04272,0.61183,0.107,0.67711,0.18418,0.18702,0.22436-0.43042,0.05556-0.85324zm-5.9408,0.43586c-0.000951-0.10714-0.0704-0.29999-0.15345-0.42856-0.11772-0.18216-0.1516-0.13915-0.15345,0.1948-0.000951,0.23571,0.06774,0.42856,0.15345,0.42856,0.08572,0,0.15476-0.08766,0.15345-0.1948zm0.48053-1.8828c-0.19833-0.19832-0.22614,0.38008-0.04747,0.98674,0.10199,0.34628,0.12027,0.32234,0.16434-0.21533,0.0273-0.33271-0.02531-0.67984-0.11688-0.7714zm5.4437,0.68426c0-0.08066-0.07011-0.18998-0.15583-0.24296-0.08572-0.05297-0.15584,0.01301-0.15584,0.14664,0,0.13362,0.07011,0.24296,0.15584,0.24296,0.08572,0,0.15583-0.06599,0.15583-0.14664zm0.46513-0.12608c-0.000951-0.06428-0.0704-0.22207-0.15345-0.35064-0.12215-0.18903-0.15152-0.16666-0.15345,0.11688-0.000952,0.19285,0.06774,0.35064,0.15345,0.35064,0.08572,0,0.15476-0.0526,0.15345-0.11688zm-3.8936-0.80896c0-0.08066-0.07011-0.18998-0.15584-0.24296-0.08572-0.05297-0.15584,0.01301-0.15584,0.14664,0,0.13362,0.07011,0.24296,0.15584,0.24296,0.08572,0,0.15584-0.06599,0.15584-0.14664zm-2.025-0.39c0-0.12351-0.07011-0.2679-0.15584-0.32088-0.08572-0.05297-0.15584,0.04808-0.15584,0.22456s0.07011,0.32088,0.15584,0.32088c0.08572,0,0.15584-0.10105,0.15584-0.22456zm5.2985-0.24296c0-0.08571-0.07011-0.15584-0.15584-0.15584-0.08572,0-0.15584,0.07012-0.15584,0.15584s0.07011,0.15584,0.15584,0.15584c0.08572,0,0.15584-0.07012,0.15584-0.15584zm-4.9869-0.88131c0-0.19085-0.07011-0.39035-0.15583-0.44332s-0.15584,0.04808-0.15584,0.22456-0.05261,0.31257-0.11688,0.30242c-0.24077-0.03802-0.36658,0.02241-0.29336,0.1409,0.04167,0.06734,0.22107,0.12244,0.39879,0.12244,0.23019,0,0.32311-0.0998,0.32311-0.34701zm4.6752-0.44332c0-0.21428-0.06041-0.3896-0.13424-0.3896-0.07382,0-0.10071,0.17532-0.05974,0.3896,0.041,0.21428,0.10137,0.3896,0.13423,0.3896,0.03282,0,0.05975-0.17532,0.05974-0.3896zm-4.9722-1.3372c-0.14161-0.35429-0.1513-0.3446-0.16059,0.16059-0.0067,0.36903,0.04053,0.48728,0.15071,0.37706,0.10634-0.10634,0.10967-0.28797,0.0099-0.53764zm1.3879-0.5329c0-0.12857-0.06793-0.23376-0.15095-0.23376-0.08305,0-0.11058,0.10519-0.06127,0.23376,0.04937,0.12857,0.11726,0.23376,0.15095,0.23376,0.03368,0,0.06127-0.10519,0.06127-0.23376zm-1.999-0.5469c-0.03273-0.34338-0.12227-0.6631-0.19892-0.71047-0.16368-0.10116-0.1772,0.17176-0.04195,0.84781,0.13976,0.69885,0.31131,0.60105,0.24089-0.13734zm5.2066-0.27214c-0.16977-0.16976-0.2342,0.05222-0.12649,0.43576l0.1075,0.38279,0.0548-0.36402c0.03006-0.20021,0.01398-0.40475-0.03577-0.45453zm-5.7501,0.24389c-0.04975-0.12432-0.08667-0.08739-0.09418,0.09415-0.0067,0.16428,0.03006,0.25632,0.08182,0.20454,0.05175-0.05178,0.05737-0.1862,0.01227-0.29869zm6.1903-0.72917c-0.0567-0.35429-0.17197-0.64416-0.25627-0.64416-0.09266,0-0.10999,0.23066-0.04386,0.58321,0.19974,1.0646,0.46938,1.1194,0.30013,0.06095zm-6.2423-0.57123c-0.12362-0.32214-0.21028-0.28418-0.21028,0.09211,0,0.17648,0.06707,0.27943,0.14904,0.22877,0.082-0.05066,0.10953-0.19505,0.06127-0.32088zm11.633,0.16083c-0.10669-0.12857-0.26412-0.23376-0.34984-0.23376-0.08695,0-0.07002,0.10336,0.03815,0.23376,0.1067,0.12857,0.26413,0.23376,0.34984,0.23376,0.08695,0,0.07002-0.10336-0.03815-0.23376zm-11.282-0.5033c-0.15842-0.15841-0.28912,0.08008-0.15915,0.29039,0.09819,0.15886,0.13489,0.15899,0.18768,0.000623,0.03606-0.10827,0.02321-0.23923-0.02853-0.29101zm-0.48375-0.35388c0.05299-0.08571,0.02207-0.15584-0.06869-0.15584s-0.16504,0.07012-0.16504,0.15584c0,0.08571,0.03092,0.15584,0.06869,0.15584s0.11206-0.07012,0.16504-0.15584zm6.1556-0.16504c0-0.08066-0.07011-0.14664-0.15584-0.14664-0.08572,0-0.15584,0.10933-0.15584,0.24296,0,0.13362,0.07011,0.19961,0.15584,0.14664,0.08572-0.05297,0.15584-0.1623,0.15584-0.24296zm-6.2998-1.1998c-0.18362-0.18362-0.25667,0.09586-0.13809,0.52831l0.12256,0.44695,0.05261-0.4428c0.02892-0.24354,0.01227-0.48315-0.03701-0.53245zm-0.14227-0.70002c-0.04319-0.10714-0.07858-0.01948-0.07858,0.1948s0.03539,0.30194,0.07858,0.1948,0.04319-0.28246,0-0.3896zm4.9901-0.30194c-0.04975-0.12432-0.08667-0.08739-0.09418,0.09415-0.0067,0.16428,0.03006,0.25632,0.08182,0.20454,0.05175-0.05178,0.05727-0.1862,0.01227-0.29869zm7.9972-2.3084c0-0.33273-0.07011-0.6483-0.15584-0.70128-0.09613-0.059421-0.15584,0.20923-0.15584,0.70128,0,0.49204,0.05965,0.76069,0.15584,0.70128,0.08572-0.052971,0.15584-0.36855,0.15584-0.70128zm-2.3376,0.46752c0-0.085716-0.03092-0.15584-0.06869-0.15584s-0.11206,0.070123-0.16504,0.15584c-0.05299,0.085706-0.02207,0.15584,0.06869,0.15584s0.16504-0.070123,0.16504-0.15584zm2.6053-1.5173c-0.03577-0.23689-0.06612-0.080065-0.06726,0.3485-0.000951,0.42856,0.02816,0.62237,0.06517,0.4307s0.03796-0.54231,0.0019-0.7792zm-22.006,31.126c-0.06136-0.61082-0.20704-1.4726-0.32377-1.9151-0.12014-0.45548-0.15348-0.8633-0.07677-0.93996,0.07668-0.07667,0.17332,0.0572,0.22278,0.30854,0.18144,0.92212,0.44835,3.4981,0.37051,3.576-0.04462,0.04465-0.13136-0.41859-0.1927-1.0294zm-5.2131-2.932c-0.3797-0.028-0.6105-0.1-0.5112-0.162,0.09931-0.06138,0.22848-0.68619,0.28706-1.3885,0.09199-1.1027,0.07154-1.2903-0.14938-1.3751-0.27455-0.10536-0.35926-0.6882-0.10002-0.6882,0.24774,0,0.18051-0.62367-0.07791-0.72284-0.12856-0.04934-0.23376-0.22245-0.23376-0.38471,0-0.16225-0.06793-0.295-0.15094-0.295-0.08305,0-0.12401,0.08766-0.09104,0.1948,0.13745,0.44725,0.2275,2.1428,0.1138,2.1428-0.11672,0-0.72122-5.6687-0.63981-5.9998,0.02103-0.08572-0.000951-0.26103-0.04995-0.3896-0.04852-0.12857-0.24454-1.1104-0.43553-2.1817-0.47232-2.6496-1.8277-7.7032-2.8011-10.444-0.44092-1.2414-0.83839-2.3766-0.88326-2.5228-0.05768-0.18782,0.02592-0.28678,0.28538-0.33776,0.64399-0.12654,2.7684-0.57273,6.095-1.2801,3.1663-0.6733,4.1448-0.82347,3.4665-0.53198-0.28942,0.12436-0.28478,0.13472,0.06498,0.14489,0.51981,0.01512,0.36567,0.10445-0.37662,0.21824-0.4245,0.06507-0.54878,0.04801-0.3896-0.05347,0.18653-0.11892,0.15954-0.14952-0.13355-0.15142-0.27138-0.0018-0.34261,0.062-0.27272,0.24412,0.05204,0.13558,0.09456,0.27997,0.09456,0.32088s0.07316,0.02913,0.16266-0.02616c0.08943-0.05529,0.2566-0.02258,0.3714,0.0727,0.1575,0.13072,0.23112,0.11489,0.29996-0.0645,0.05613-0.14627,0.28797-0.23772,0.60259-0.2377l0.51138,0.000041,0.0076,1.3636c0.0095,1.5357,0.36687,3.8655,0.5252,3.4202,0.05784-0.16259,0.22226,0.46108,0.39036,1.4805,0.15975,0.96878,0.32194,1.8666,0.36042,1.9952,0.06222,0.20778,0.05128,0.20778-0.09819,0-0.14946-0.20778-0.1684-0.20778-0.17038,0-0.000952,0.12857,0.21396,1.4259,0.47818,2.883,0.9961,5.4931,2.2921,13.562,2.1933,13.655-0.05651,0.05337-1.7156,0.28376-3.687,0.51198s-3.7596,0.46506-3.9739,0.52632c-0.21427,0.06126-0.70167,0.08913-1.0831,0.06194zm4.1473-1.6258c-0.04319-0.10714-0.07858-0.01948-0.07858,0.1948s0.03539,0.30194,0.07858,0.1948,0.04319-0.28246,0-0.3896zm-3.8433,0.03896c0-0.08572-0.03092-0.15584-0.06869-0.15584s-0.11207,0.07012-0.16504,0.15584c-0.05299,0.08571-0.02207,0.15584,0.06869,0.15584s0.16504-0.07012,0.16504-0.15584zm5.7636,0.03896c-0.000951-0.06428-0.0704-0.22207-0.15345-0.35064-0.12215-0.18903-0.15152-0.16666-0.15345,0.11688-0.000951,0.19285,0.06774,0.35064,0.15345,0.35064,0.08572,0,0.15476-0.0526,0.15345-0.11688zm-4.4105-0.37985c-0.04975-0.12432-0.08667-0.08739-0.09418,0.09415-0.0067,0.16428,0.03006,0.25632,0.08181,0.20454s0.05727-0.1862,0.01227-0.29869zm3.322,0.18506c0-0.08571-0.0743-0.15584-0.16504-0.15584-0.09076,0-0.1217,0.07012-0.06869,0.15584,0.05299,0.08571,0.12724,0.15584,0.16504,0.15584,0.03777,0,0.06869-0.07012,0.06869-0.15584zm-1.3797-1.2691-0.15054-0.52306-0.01408,0.64957c-0.0076,0.35726,0.03853,0.77803,0.10282,0.93504,0.18997,0.46398,0.24225-0.43446,0.06174-1.0616zm0.48346,0.45094c-0.04005-0.32142-0.13665-0.5844-0.21461-0.5844-0.12663,0-0.07658,0.46875,0.11462,1.0742,0.12054,0.38161,0.17523,0.11369,0.1-0.48982zm4.4271,0.3896c-0.041-0.14999-0.15967-0.85255-0.26375-1.5612-0.10409-0.70869-0.26164-1.3333-0.35013-1.388-0.10293-0.06362-0.12483,0.03567-0.06079,0.27557,0.05508,0.20625,0.18193,0.95356,0.28192,1.6607,0.1,0.70712,0.24604,1.2857,0.32453,1.2857s0.1092-0.12272,0.06821-0.27272zm-5.3067-0.30843c-0.15841-0.15841-0.28911,0.08008-0.15914,0.29039,0.09818,0.15886,0.13489,0.15899,0.18767,0.000623,0.03606-0.10828,0.02321-0.23923-0.02853-0.29101zm1.7759,0.35659c0-0.0378-0.07011-0.11206-0.15584-0.16504-0.08572-0.05297-0.15584-0.02205-0.15584,0.06872s0.07011,0.16504,0.15584,0.16504c0.08572,0,0.15584-0.03093,0.15584-0.06873zm1.509-0.42802c-0.04976-0.12432-0.08667-0.08739-0.09418,0.09415-0.0067,0.16428,0.03006,0.25632,0.08182,0.20454,0.05175-0.05178,0.05727-0.1862,0.01227-0.29869zm-0.38098-0.15723c-0.08591-0.32832-0.09494-0.32991-0.22136-0.03896-0.08182,0.18813-0.09912-0.0094-0.04566-0.52011,0.04738-0.4529,0.03444-1.084-0.02883-1.4026-0.11023-0.55489-0.11863-0.56136-0.20087-0.15485-0.06184,0.30558-0.1442,0.3878-0.29448,0.29391-0.15662-0.09783-0.18134-0.34899-0.09915-1.0069,0.06022-0.4821,0.17166-0.83814,0.24762-0.79119,0.07592,0.04694,0.13917-0.0065,0.14048-0.11864,0.0019-0.14823,0.04367-0.1401,0.15345,0.02976,0.12216,0.18903,0.15152,0.16666,0.15345-0.11688,0.000951-0.19285-0.08971-0.35064-0.20218-0.35064-0.22529,0-1.1407-5.3247-0.96439-5.6099,0.05309-0.08586,0.02217-0.1561-0.06859-0.1561s-0.16396-0.15779-0.16265-0.35064c0.0019-0.28354,0.0313-0.30591,0.15345-0.11688,0.13063,0.20213,0.15139,0.19858,0.15345-0.02621,0.000951-0.14298-0.04243-0.37678-0.09722-0.51954-0.07982-0.20804-0.12697-0.2183-0.23742-0.0517-0.08239,0.12429-0.09565-0.13077-0.03292-0.63433,0.08096-0.65036,0.0528-0.88109-0.12382-1.013-0.27328-0.20409-0.9586-3.6776-0.80471-4.0786,0.07126-0.18561,0.04671-0.23716-0.07649-0.16099-0.1188,0.07343-0.17682-0.01177-0.16833-0.24715,0.0076-0.19756-0.09725-0.7449-0.23194-1.2163-0.13468-0.47141-0.20658-0.97921-0.15977-1.1284,0.04681-0.14923,0.02968-0.35961-0.03815-0.46752-0.06774-0.10791-0.13838-0.4231-0.15691-0.70044-0.03901-0.58416-0.35026-1.2623-0.35861-0.78142-0.0029,0.15-0.07487,0.27272-0.16058,0.27272-0.08572,0-0.16283-0.12272-0.17138-0.27272-0.01037-0.18181-0.05708-0.14285-0.1403,0.11688l-0.12477,0.3896-0.02645-0.3896c-0.02445-0.35984-0.03672-0.36579-0.16042-0.07792-0.13393,0.31168-0.13393,0.31168-0.15718,0-0.01284-0.17142-0.05794-0.22603-0.10038-0.12135-0.04243,0.10468,0.06831,0.90338,0.24606,1.7749,0.3743,1.8352,0.3636,1.7404,0.18367,1.6292-0.07677-0.04742-0.1794,0.01772-0.22815,0.14477-0.0488,0.12705-0.03853,0.22353,0.02264,0.21441,0.42052-0.06268,0.53172,0.05108,0.46883,0.47961-0.0371,0.25261-0.0235,0.43214,0.03016,0.39896,0.1679-0.10377,0.64344,2.5183,0.54126,2.9844-0.06526,0.29762-0.04909,0.37489,0.04938,0.2355,0.1054-0.14926,0.17432-0.03352,0.24566,0.41262,0.11381,0.71177-0.02502,1.6116-0.27458,1.7794-0.11803,0.07935-0.11201,0.11522,0.0196,0.11688,0.11605,0.0014,0.14974,0.10844,0.08667,0.2751-0.09038,0.23866-0.06545,0.23518,0.19969-0.02784,0.2957-0.29334,0.30432-0.29348,0.3597-0.0059,0.0312,0.16204-0.01865,0.31975-0.11078,0.35047-0.09941,0.03314-0.12913,0.24794-0.07306,0.52818,0.05546,0.27734,0.02331,0.51628-0.07782,0.57879-0.11076,0.06846-0.05613,0.17896,0.15294,0.30955,0.31655,0.19769,0.32282,0.18303,0.23544-0.55079-0.06117-0.51371-0.04757-0.62976,0.04262-0.36429l0.13241,0.3896,0.03292-0.3896c0.02083-0.24624,0.08676-0.10804,0.17917,0.37558,0.1099,0.57517,0.09775,0.79513-0.04899,0.88579-0.10733,0.06634-0.25024,0.08655-0.31759,0.04494-0.06736-0.04162-0.07715,0.25448-0.02188,0.65799,0.07354,0.53642,0.05204,0.7037-0.07982,0.62219-0.21911-0.13542-0.23485,0.20483-0.02454,0.53028,0.12566,0.19445,0.15331,0.18135,0.1644-0.07792,0.01332-0.31168,0.01332-0.31168,0.14728,0,0.12383,0.28818,0.13612,0.2823,0.16296-0.07791,0.02293-0.30779,0.0449-0.32758,0.10465-0.09426,0.06155,0.24025,0.10345,0.25478,0.22477,0.07792,0.09904-0.14439,0.12012,0.07048,0.06269,0.6397-0.06336,0.6285-0.0449,0.77398,0.06916,0.54544,0.12731-0.25506,0.14728-0.2075,0.1099,0.26179-0.02512,0.3154,0.0098,0.53918,0.07763,0.49728,0.06783-0.04191,0.1282,0.05068,0.13422,0.20573,0.0098,0.25164,0.02531,0.24845,0.14489-0.02976,0.10279-0.2392,0.13648-0.25279,0.14489-0.05844,0.02122,0.48982-0.18437,1.2212-0.3197,1.1376-0.07525-0.04652-0.13687-0.01032-0.13687,0.08045s0.07763,0.16504,0.17252,0.16504c0.09485,0,0.13214,0.10519,0.08286,0.23376-0.04937,0.12857-0.02178,0.23376,0.06127,0.23376s0.14986,0.15779,0.14856,0.35064c-0.0019,0.25084-0.03977,0.29162-0.13385,0.14327-0.14621-0.23065-0.32315,0.43048-0.34224,1.2788-0.0095,0.4133-0.0312,0.43983-0.14488,0.17532-0.11342-0.26394-0.13279-0.24007-0.12645,0.15584,0.0038,0.25714,0.06098,0.6779,0.12645,0.93503,0.11584,0.45526,0.11973,0.45118,0.14835-0.15584,0.02435-0.51724,0.05442-0.5703,0.17615-0.31168,0.10274,0.21821,0.12741,0.0079,0.0822-0.70128-0.03549-0.55712-0.03073-0.84955,0.01056-0.64984,0.08809,0.42563,0.59698,0.98192,0.76085,0.83166,0.06231-0.05714,0.0704,0.1213,0.01808,0.39654s-0.0274,0.54236,0.05556,0.59359c0.08286,0.05124,0.15073,0.22928,0.15073,0.39564,0,0.19364,0.1069,0.30248,0.2971,0.30248,0.22922,0,0.27664-0.07819,0.20757-0.34229zm-0.48006-1.0603c0-0.21428,0.03539-0.30194,0.07858-0.1948s0.04319,0.28246,0,0.3896-0.07858,0.01948-0.07858-0.1948zm-0.7792-1.2467c0-0.21428,0.03539-0.30194,0.07858-0.1948s0.04319,0.28246,0,0.3896-0.07858,0.01948-0.07858-0.1948zm0.14354-0.8701c0.0076-0.18154,0.04443-0.21847,0.09418-0.09416,0.045,0.1125,0.03948,0.24691-0.01227,0.29869s-0.08857-0.04026-0.08181-0.20454zm0.15584-0.93503c0.0076-0.18154,0.04443-0.21847,0.09418-0.09416,0.045,0.1125,0.03948,0.24691-0.01227,0.29869s-0.08857-0.04026-0.08182-0.20454zm-0.31168-0.15584c0.0076-0.18154,0.04443-0.21847,0.09418-0.09415,0.045,0.1125,0.03948,0.24691-0.01227,0.29869s-0.08866-0.04026-0.08182-0.20454zm0.15584-0.93503c0.0076-0.18154,0.04443-0.21847,0.09418-0.09415,0.045,0.1125,0.03948,0.24691-0.01227,0.29869s-0.08857-0.04026-0.08181-0.20454zm-0.15584-0.93503c0.0076-0.18154,0.04443-0.21847,0.09418-0.09415,0.045,0.1125,0.03948,0.24691-0.01227,0.29869s-0.08866-0.04026-0.08182-0.20454zm-1.235-2.092c0-0.21428,0.03539-0.30194,0.07858-0.1948s0.04319,0.28246,0,0.3896-0.07858,0.01948-0.07858-0.1948zm0.31168,0c0-0.21428,0.03539-0.30194,0.07858-0.1948s0.04319,0.28246,0,0.3896-0.07858,0.01948-0.07858-0.1948zm-0.01227-1.961c0.0076-0.18154,0.04443-0.21847,0.09418-0.09415,0.045,0.1125,0.03948,0.24691-0.01227,0.29869s-0.08866-0.04026-0.08181-0.20454zm-0.936-1.87c0.0076-0.18154,0.04443-0.21847,0.09418-0.09415,0.045,0.1125,0.03948,0.24691-0.01227,0.29869s-0.08857-0.04026-0.08181-0.20454zm0.31168,0c0.0076-0.18154,0.04443-0.21847,0.09418-0.09415,0.045,0.1125,0.03948,0.24691-0.01227,0.29869s-0.08857-0.04026-0.08182-0.20454zm0.93503,0c0.0076-0.18154,0.04443-0.21847,0.09418-0.09415,0.045,0.1125,0.03948,0.24691-0.01227,0.29869s-0.08857-0.04026-0.08182-0.20454zm-1.0909-0.7792c0.0076-0.18154,0.04443-0.21847,0.09418-0.09415,0.045,0.1125,0.03948,0.24691-0.01227,0.29869s-0.08857-0.04026-0.08182-0.20454zm-0.156-0.935c0.0076-0.18154,0.04443-0.21847,0.09418-0.09415,0.045,0.1125,0.03948,0.24691-0.01227,0.29869s-0.08857-0.04026-0.08181-0.20454zm-0.15584-0.7792c0.0076-0.18154,0.04443-0.21847,0.09418-0.09416,0.045,0.1125,0.03948,0.24691-0.01227,0.29869s-0.08867-0.04026-0.08182-0.20454zm-0.46752-2.3376c0.0076-0.18154,0.04443-0.21847,0.09418-0.09416,0.045,0.1125,0.03948,0.24691-0.01227,0.29869s-0.08857-0.04026-0.08182-0.20454zm-0.15584-0.77919c0.0076-0.18154,0.04443-0.21847,0.09418-0.09416,0.045,0.1125,0.03948,0.24691-0.01227,0.29869s-0.08857-0.04026-0.08181-0.20454zm-0.46752-2.1817c0.0076-0.18154,0.04443-0.21847,0.09418-0.09415,0.045,0.1125,0.03948,0.24691-0.01227,0.29869s-0.08866-0.04026-0.08181-0.20454zm-0.15584-0.7792c0.0076-0.18154,0.04443-0.21847,0.09418-0.09415,0.045,0.1125,0.03948,0.24691-0.01227,0.29869s-0.08867-0.04026-0.08182-0.20454zm5.2859,19.413c-0.11122-0.7759-0.26631-1.4503-0.34464-1.4988-0.08172-0.05052-0.10499,0.15093-0.05461,0.47275,0.04833,0.30843,0.12532,0.82376,0.17111,1.1452,0.14653,1.0286,0.25583,1.4661,0.3442,1.3777,0.04738-0.04736-0.0048-0.72094-0.11609-1.4968zm-5.1424,1.3361c0-0.0378-0.07011-0.11206-0.15584-0.16504-0.08572-0.05297-0.15584-0.02205-0.15584,0.06873,0,0.09077,0.07011,0.16504,0.15584,0.16504,0.08572,0,0.15584-0.03093,0.15584-0.06873zm5.766-0.78839c0-0.21428-0.07011-0.3896-0.15584-0.3896-0.1741,0-0.21361,0.51364-0.05194,0.6753,0.17178,0.17179,0.20778,0.12229,0.20778-0.2857zm-4.9693-0.4344c-0.12727-0.12727-0.17337-0.10983-0.17337,0.06558,0,0.30979,0.20955,0.51934,0.287,0.287,0.03282-0.09857-0.01827-0.25723-0.11363-0.35258zm3.7127-0.90793c-0.09632-0.6331-0.24415-1.2212-0.32852-1.3069-0.1008-0.1024-0.11892,0.0579-0.0528,0.46752,0.28527,1.7686,0.37978,2.1672,0.48808,2.0589,0.03767-0.03763-0.01037-0.58639-0.10672-1.2195zm-2.3771,0.76767c-0.04976-0.12432-0.08667-0.08739-0.09418,0.09415-0.0067,0.16428,0.03006,0.25632,0.08181,0.20454s0.05727-0.1862,0.01227-0.29869zm3.8812-0.24271c-0.1676-0.1676-0.25658,0.06713-0.13892,0.3665,0.11037,0.28083,0.1187,0.28132,0.17328,0.01011,0.03149-0.1567,0.01608-0.32618-0.03434-0.37661zm-4.611,0.12529c0-0.08065-0.07011-0.18998-0.15584-0.24296-0.08572-0.05297-0.15583,0.01301-0.15583,0.14664s0.07011,0.24296,0.15583,0.24296,0.15584-0.06599,0.15584-0.14664zm4.0668-0.74495c-0.14705-0.25262-0.16178-0.24724-0.1661,0.0607-0.0029,0.18584,0.04719,0.46635,0.11074,0.62336,0.10396,0.25703,0.12051,0.25099,0.16609-0.0607,0.02787-0.19039-0.02198-0.4709-0.11073-0.62336zm-5.8452-0.15953c-0.17024-0.17024-0.28697,0.10049-0.16475,0.38209,0.11589,0.26701,0.12429,0.26677,0.18887-0.0054,0.0372-0.1567,0.02635-0.32618-0.02416-0.37661zm0.6875,0.43697c0-0.08065-0.07011-0.18998-0.15584-0.24296-0.08572-0.05297-0.15584,0.01301-0.15584,0.14664s0.07011,0.24296,0.15584,0.24296c0.08572,0,0.15584-0.06599,0.15584-0.14664zm5.469-0.68027c-0.20352-0.20352-0.23182,0.02203-0.05813,0.46353,0.10829,0.27533,0.11434,0.2752,0.17045-0.0038,0.03196-0.1591-0.01855-0.36598-0.11228-0.45972zm-2.0932,0.0088c-0.04319-0.10714-0.07858-0.01948-0.07858,0.1948s0.03539,0.30194,0.07858,0.1948,0.04319-0.28246,0-0.3896zm-6.2182-0.347c-0.04043-0.21168-0.0136-0.3478,0.05974-0.30248,0.07335,0.04532,0.13333,0.0082,0.13333-0.08263,0-0.09077-0.07763-0.16504-0.17251-0.16504-0.09485,0-0.13412-0.10006-0.08714-0.22237,0.0469-0.1223-0.02749-0.31515-0.16545-0.42856-0.22434-0.18444-0.2398-0.15072-0.14658,0.31976,0.05727,0.28928,0.1042,0.69251,0.1042,0.89607s0.0783,0.37012,0.17401,0.37012c0.101,0,0.14314-0.16147,0.10043-0.38488zm2.0105-0.1216c-0.04319-0.10714-0.07858-0.01948-0.07858,0.1948s0.03539,0.30194,0.07858,0.1948,0.04319-0.28246,0-0.3896zm2.8083,0.16558c-0.04975-0.12432-0.08667-0.08739-0.09418,0.09415-0.0067,0.16428,0.03006,0.25632,0.08182,0.20454,0.05175-0.05178,0.05727-0.1862,0.01227-0.29869zm1.6641-0.20454c-0.04937-0.12857-0.11726-0.23376-0.15095-0.23376-0.03368,0-0.06127,0.10519-0.06127,0.23376s0.06793,0.23376,0.15095,0.23376c0.08305,0,0.11058-0.10519,0.06127-0.23376zm0.73941-0.86442c-0.14321-0.35863-0.15326-0.34773-0.16253,0.17612-0.0057,0.30713,0.04272,0.61183,0.107,0.67711,0.18417,0.18702,0.22436-0.43042,0.05556-0.85324zm-4.067,0.631c0-0.08572-0.07011-0.15584-0.15584-0.15584-0.08572,0-0.15584,0.07012-0.15584,0.15584,0,0.08571,0.07011,0.15584,0.15584,0.15584,0.08572,0,0.15584-0.07012,0.15584-0.15584zm1.4086-0.62336c0.10926,0.35852,0.12121,0.34608,0.1498-0.15584,0.02883-0.50691,0.03986-0.51792,0.15584-0.15584l0.12477,0.3896,0.01551-0.41038c0.01085-0.28707-0.07811-0.43487-0.29614-0.49189-0.17142-0.04483-0.31168-0.0138-0.31168,0.06894,0,0.08275-0.07011,0.1071-0.15584,0.05413-0.18502-0.11435-0.2008,0.30412-0.03891,1.0324l0.11688,0.52596,0.0605-0.62336c0.05413-0.55707,0.07316-0.58193,0.17926-0.23376zm4.1237,0.62336c0.05299-0.08572,0.02207-0.15584-0.06869-0.15584s-0.16504,0.07012-0.16504,0.15584c0,0.08571,0.03092,0.15584,0.06869,0.15584s0.11207-0.07012,0.16504-0.15584zm-0.95852-0.70627c-0.12361-0.32214-0.21028-0.28418-0.21028,0.09211,0,0.17648,0.06707,0.27943,0.14904,0.22877,0.08201-0.05066,0.10953-0.19505,0.06127-0.32088zm0.3637,0.05369c-0.04975-0.12432-0.08667-0.08739-0.09418,0.09415-0.0067,0.16428,0.03006,0.25632,0.08182,0.20454,0.05175-0.05178,0.05727-0.1862,0.01227-0.29869zm0.28979-1.3872c-0.22877-1.2059-0.39778-1.7278-0.39506-1.2199,0.0019,0.31417,0.29407,2.1726,0.41479,2.6363,0.22904,0.87979,0.21423-0.18305-0.01969-1.4164zm-6.474,0.94887c0-0.08572-0.0743-0.15584-0.16503-0.15584-0.09076,0-0.1217,0.07012-0.06869,0.15584,0.05299,0.08571,0.12723,0.15584,0.16503,0.15584,0.03777,0,0.06869-0.07012,0.06869-0.15584zm1.8858-0.42269c-0.14969-0.25723-0.16249-0.2537-0.16686,0.04607-0.0048,0.36074,0.1925,0.64202,0.27576,0.39222,0.0293-0.08784-0.01969-0.28507-0.10889-0.43829zm2.7399,0.08179c-0.04976-0.12432-0.08667-0.08739-0.09418,0.09415-0.0067,0.16428,0.03006,0.25632,0.08182,0.20454,0.05175-0.05178,0.05727-0.1862,0.01227-0.29869zm0.46752-0.15584c-0.04976-0.12432-0.08667-0.08739-0.09418,0.09415-0.0067,0.16428,0.03006,0.25632,0.08181,0.20454s0.05727-0.1862,0.01227-0.29869zm-2.0947-0.51851c-0.09114-0.47693-0.28495-0.62414-0.40608-0.30848-0.04918,0.12808-0.02141,0.23286,0.06155,0.23286,0.08305,0,0.15095,0.10519,0.15095,0.23376s0.06041,0.23376,0.13422,0.23376c0.07382,0,0.10052-0.17636,0.05936-0.3919zm2.9053-0.83379c-0.10098-0.61154-0.2482-1.1119-0.32713-1.1119-0.07896,0-0.10983,0.12272-0.06869,0.27272,0.04119,0.14999,0.11975,0.55323,0.17466,0.89607,0.12894,0.80504,0.25001,1.2098,0.33615,1.1236,0.03777-0.03775-0.01398-0.56899-0.11499-1.1805zm-0.8627,0.51942c-0.12362-0.32214-0.21028-0.28418-0.21028,0.09211,0,0.17648,0.06707,0.27943,0.14904,0.22877,0.08201-0.05066,0.10953-0.19505,0.06127-0.32088zm-3.795-0.228c0-0.08571-0.0743-0.15584-0.16504-0.15584-0.09076,0-0.1217,0.07012-0.06869,0.15584,0.05299,0.08572,0.12724,0.15584,0.16504,0.15584,0.03777,0,0.06869-0.07012,0.06869-0.15584zm4.0661-0.63671-0.15041-0.37624-0.0099,0.40258c-0.0057,0.22142,0.04129,0.45372,0.10375,0.51622,0.18506,0.18506,0.21863-0.1371,0.05651-0.54256zm-2.6013-0.02322c0.09854-0.06581,0.02236-0.11551-0.17921-0.11688-0.38849-0.0027-0.39598,0.0098-0.24412,0.40555,0.08429,0.21958,0.12171,0.23038,0.1792,0.05171,0.03996-0.12423,0.14984-0.2774,0.24412-0.34038zm2.1194-0.11927c0-0.17142-0.06355-0.31168-0.14125-0.31168-0.07772,0-0.10457,0.14026-0.05974,0.31168,0.04481,0.17142,0.10839,0.31168,0.14125,0.31168,0.03282,0,0.05974-0.14026,0.05974-0.31168zm0.46752-0.46752c0-0.08571-0.07011-0.15584-0.15584-0.15584-0.08572,0-0.15584,0.07012-0.15584,0.15584s0.07011,0.15584,0.15584,0.15584c0.08572,0,0.15584-0.07012,0.15584-0.15584zm0.70922-0.84753c-0.05927-0.47398-0.18312-0.90841-0.27534-0.9654-0.11031-0.06817-0.13578,0.02427-0.07449,0.27026,0.05128,0.20563,0.14096,0.67427,0.19932,1.0414,0.15313,0.9632,0.27814,0.67551,0.15047-0.34628zm-4.4494,0.69169c0-0.08572-0.0743-0.15584-0.16504-0.15584-0.09076,0-0.1217,0.07012-0.06869,0.15584,0.05299,0.08571,0.12724,0.15584,0.16504,0.15584,0.03777,0,0.06869-0.07012,0.06869-0.15584zm2.5999-0.3409c-0.04975-0.12432-0.08667-0.08739-0.09418,0.09415-0.0067,0.16428,0.03006,0.25632,0.08182,0.20454,0.05175-0.05178,0.05727-0.1862,0.01227-0.29869zm0.28452-1.4838c-0.25743-1.4468-0.53049-2.3332-0.54205-1.7596-0.0048,0.22459,0.36791,2.332,0.54718,3.0962,0.04757,0.20296,0.12702,0.32857,0.17646,0.27914,0.04947-0.04944-0.03225-0.77652-0.1816-1.6157zm0.65051,1.328c-0.04976-0.12432-0.08667-0.08739-0.09418,0.09416-0.0067,0.16428,0.03006,0.25632,0.08181,0.20454s0.05727-0.1862,0.01227-0.29869zm0.44036-0.58416c-0.05974-0.43404-0.17034-0.78917-0.24586-0.78917-0.12544,0-0.09516,0.39289,0.10649,1.382,0.13836,0.67866,0.24932,0.2067,0.13936-0.59281zm-4.132-0.165c0-0.08572-0.07011-0.15584-0.15584-0.15584-0.08572,0-0.15584,0.07012-0.15584,0.15584,0,0.08571,0.07011,0.15584,0.15584,0.15584,0.08572,0,0.15584-0.07012,0.15584-0.15584zm1.1973-0.96425c-0.04975-0.12432-0.08667-0.08739-0.09418,0.09416-0.0067,0.16428,0.03006,0.25632,0.08182,0.20454,0.05175-0.05178,0.05727-0.1862,0.01227-0.29869zm2.1649-0.55644c-0.16927-0.16928-0.21784,0.04077-0.1174,0.50774l0.10057,0.46752,0.05327-0.4428c0.0293-0.24354,0.01294-0.48314-0.03644-0.53245zm-3.596,0.58566c0.05299-0.08571,0.02207-0.15584-0.06869-0.15584s-0.16503,0.07012-0.16503,0.15584,0.03092,0.15584,0.06869,0.15584,0.11206-0.07012,0.16503-0.15584zm0.24838-0.67108c-0.20352-0.20352-0.23182,0.02203-0.05813,0.46353,0.10829,0.27533,0.11434,0.2752,0.17045-0.0038,0.03196-0.1591-0.01855-0.36598-0.11228-0.45972zm3.8197,0.08993c-0.15841-0.15841-0.28912,0.08008-0.15914,0.29039,0.09818,0.15886,0.13488,0.15899,0.18767,0.000624,0.03606-0.10828,0.02321-0.23923-0.02853-0.29101zm0.32074-0.237c-0.04319-0.10714-0.07858-0.01948-0.07858,0.1948s0.03539,0.30194,0.07858,0.1948,0.04319-0.28246,0-0.3896zm-0.588-1.325c-0.10729-0.49336-0.2226-0.77472-0.25624-0.62525-0.03368,0.14948,0.02664,0.67543,0.13393,1.1688,0.1073,0.49336,0.22262,0.77472,0.25625,0.62525,0.03368-0.14948-0.02664-0.67543-0.13394-1.1688zm-0.29492,0.97305c0-0.12857-0.07011-0.23376-0.15584-0.23376-0.08572,0-0.15583,0.10519-0.15583,0.23376s0.07011,0.23376,0.15583,0.23376,0.15584-0.10519,0.15584-0.23376zm-3.275-0.27272c-0.000951-0.10714-0.0704-0.29999-0.15345-0.42856-0.11772-0.18216-0.1516-0.13915-0.15345,0.1948-0.000951,0.23571,0.06774,0.42856,0.15345,0.42856,0.08572,0,0.15476-0.08766,0.15345-0.1948zm4.0048-0.1461c-0.04975-0.12432-0.08667-0.08739-0.09418,0.09416-0.0067,0.16428,0.03006,0.25632,0.08181,0.20454s0.05727-0.1862,0.01227-0.29869zm-4.9375-0.28246c0-0.08572-0.07011-0.15584-0.15584-0.15584-0.08572,0-0.15584,0.07012-0.15584,0.15584,0,0.08571,0.07011,0.15584,0.15584,0.15584,0.08572,0,0.15584-0.07012,0.15584-0.15584zm3.9901-0.42531c-0.15841-0.15841-0.28911,0.08008-0.15914,0.29039,0.09818,0.15886,0.13489,0.15899,0.18767,0.000624,0.03606-0.10828,0.02321-0.23923-0.02853-0.29101zm-0.578-0.666c-0.05927-0.04286-0.14028-0.25324-0.1801-0.46752-0.05689-0.30615-0.07649-0.27277-0.09152,0.15584-0.01046,0.29999,0.02987,0.72076,0.08971,0.93503,0.10864,0.38916,0.10887,0.38907,0.19919-0.07792,0.04975-0.25713,0.04195-0.50258-0.01732-0.54544zm-3.2393-0.31898c-0.14321-0.35863-0.15327-0.34773-0.16254,0.17613-0.0057,0.30713,0.04272,0.61183,0.10701,0.67711,0.18417,0.18702,0.22436-0.43042,0.05556-0.85324zm-3.3386,0.4456c-0.04976-0.12432-0.08667-0.08739-0.09418,0.09416-0.0067,0.16428,0.03006,0.25632,0.08181,0.20454s0.05727-0.1862,0.01227-0.29869zm7.0128,0c-0.04975-0.12432-0.08667-0.08739-0.09418,0.09416-0.0067,0.16428,0.03006,0.25632,0.08182,0.20454,0.05175-0.05178,0.05737-0.1862,0.01227-0.29869zm0.98441,0.02923c0-0.08571-0.0743-0.15584-0.16504-0.15584-0.09076,0-0.12169,0.07012-0.06869,0.15584,0.05299,0.08572,0.12724,0.15584,0.16504,0.15584,0.03777,0,0.06869-0.07012,0.06869-0.15584zm-8.7905-0.584c-0.1676-0.1676-0.25658,0.06713-0.13893,0.3665,0.11037,0.28083,0.1187,0.28132,0.17328,0.0101,0.03154-0.1567,0.01608-0.32618-0.03436-0.3766zm3.507-0.93246c-0.14131-0.24273-0.16104-0.22902-0.16334,0.11352-0.000951,0.21428,0.04899,0.56492,0.11214,0.7792,0.10995,0.37329,0.11678,0.36853,0.16333-0.11352,0.02673-0.27671-0.02378-0.62735-0.11214-0.77919zm4.5115-0.37778c-0.10496-0.58734-0.24721-1.0331-0.31609-0.99049-0.06888,0.04257-0.06983,0.3408-0.0019,0.66272,0.06774,0.32192,0.17452,0.86582,0.23737,1.2087,0.06288,0.34284,0.14968,0.52518,0.19299,0.40518,0.04329-0.12-0.0067-0.69873-0.11212-1.2861zm0.6168,0.95882c0-0.08572-0.07011-0.15584-0.15584-0.15584-0.08572,0-0.15584,0.07012-0.15584,0.15584,0,0.08571,0.07011,0.15584,0.15584,0.15584,0.08572,0,0.15584-0.07012,0.15584-0.15584zm-3.8639-0.77096c0.0371-0.25261,0.01-0.42379-0.06022-0.3804-0.07021,0.04339-0.12764-0.04213-0.12764-0.19004s-0.04348-0.22545-0.09663-0.1723c-0.0938,0.09382,0.05727,1.202,0.16393,1.202,0.02921,0,0.08353-0.20668,0.12057-0.45929zm-0.641-0.954c-0.144-0.36047-0.15225-0.36262-0.16163-0.04198-0.0057,0.18584,0.04062,0.46635,0.1024,0.62336,0.09237,0.23484,0.12103,0.24229,0.16163,0.04198,0.02711-0.13391-0.01893-0.41442-0.1024-0.62336zm-0.54487-0.72727c-0.15841-0.15841-0.28912,0.08008-0.15914,0.29039,0.09818,0.15887,0.13488,0.15899,0.18767,0.000624,0.03606-0.10828,0.02321-0.23923-0.02853-0.29101zm-0.406-2.2237c0-0.08571-0.07011-0.15584-0.15584-0.15584-0.08572,0-0.15584,0.07012-0.15584,0.15584s0.07011,0.15584,0.15584,0.15584c0.08572,0,0.15584-0.07012,0.15584-0.15584zm4.0518-0.62336c0-0.08572-0.07011-0.15584-0.15584-0.15584-0.08572,0-0.15584,0.07012-0.15584,0.15584,0,0.08571,0.07011,0.15584,0.15584,0.15584,0.08572,0,0.15584-0.07012,0.15584-0.15584zm-4.6752-0.06777c0-0.20936-0.33325-0.89764-0.40154-0.82934-0.12293,0.12293,0.10368,0.89712,0.26259,0.89712,0.07639,0,0.13895-0.0305,0.13895-0.06777zm0.93503-0.000951c0-0.0378-0.07011-0.11206-0.15584-0.16503-0.08572-0.05297-0.15584-0.02205-0.15584,0.06872s0.07011,0.16504,0.15584,0.16504c0.08572,0,0.15584-0.03093,0.15584-0.06872zm3.1168-0.24295c0-0.08571-0.0743-0.15584-0.16504-0.15584-0.09076,0-0.1217,0.07012-0.06869,0.15584,0.05299,0.08571,0.12724,0.15584,0.16504,0.15584,0.03777,0,0.06869-0.07012,0.06869-0.15584zm-5.2985-0.15584c0-0.08571-0.0743-0.15584-0.16504-0.15584-0.09076,0-0.1217,0.07012-0.06869,0.15584,0.05299,0.08571,0.12724,0.15584,0.16504,0.15584,0.03777,0,0.06869-0.07012,0.06869-0.15584zm1.4026-0.70128c0-0.12857-0.06793-0.23376-0.15095-0.23376-0.08305,0-0.11058,0.10519-0.06127,0.23376,0.04937,0.12857,0.11726,0.23376,0.15095,0.23376,0.03368,0,0.06127-0.10519,0.06127-0.23376zm3.7401-0.14664c0-0.0378-0.07011-0.11206-0.15584-0.16504-0.08572-0.05297-0.15584-0.02204-0.15584,0.06873s0.07011,0.16504,0.15584,0.16504c0.08572,0,0.15584-0.03093,0.15584-0.06873zm-2.9609-0.24296c0-0.08571-0.0743-0.15584-0.16503-0.15584-0.09076,0-0.1217,0.07012-0.06869,0.15584,0.05299,0.08571,0.12723,0.15584,0.16503,0.15584,0.03777,0,0.06869-0.07012,0.06869-0.15584zm3.7378-0.89608c-0.000951-0.06428-0.0704-0.22207-0.15345-0.35064-0.12216-0.18903-0.15152-0.16666-0.15345,0.11688-0.000951,0.19285,0.06774,0.35064,0.15345,0.35064,0.08572,0,0.15476-0.0526,0.15345-0.11688zm-4.3611-0.1856c0-0.08066-0.07011-0.18998-0.15583-0.24296-0.08572-0.05297-0.15584,0.01301-0.15584,0.14664,0,0.13362,0.07011,0.24296,0.15584,0.24296,0.08572,0,0.15583-0.06599,0.15583-0.14664zm-0.6236-0.3208c0-0.08571-0.0743-0.15584-0.16504-0.15584-0.09076,0-0.1217,0.07012-0.06869,0.15584,0.05299,0.08572,0.12724,0.15584,0.16504,0.15584,0.03777,0,0.06869-0.07012,0.06869-0.15584zm0.46752-0.30248c0-0.08066-0.07012-0.18998-0.15584-0.24296-0.08572-0.05297-0.15584,0.01301-0.15584,0.14664s0.07011,0.24296,0.15584,0.24296c0.08572,0,0.15584-0.06598,0.15584-0.14664zm9.6805,22.99c0.01018-0.26424,0.07192-0.69082,0.1374-0.94795l0.11896-0.46752,0.01846,0.50648c0.01018,0.27856,0.08419,0.50648,0.16449,0.50648,0.08029,0,0.11633-0.26298,0.08001-0.5844-0.04919-0.43543-0.0029-0.35817,0.18033,0.30308,0.15228,0.54858,0.34489,0.91361,0.50437,0.95592,0.1654,0.04388,0.11818,0.07959-0.13158,0.0995-0.21427,0.01709-0.54738,0.04857-0.74023,0.06995-0.29948,0.03321-0.34794-0.0312-0.3322-0.44154zm-0.94117,0.12994c0.0076-0.18154,0.04443-0.21847,0.09418-0.09415,0.045,0.1125,0.03948,0.24691-0.01227,0.29869s-0.08866-0.04026-0.08181-0.20454zm0.31168-0.02597c0.0076-0.16453,0.04357-0.19505,0.09123-0.07694,0.04338,0.10767,0.14306,0.15613,0.22145,0.10768,0.07839-0.04844,0.14253-0.01382,0.14253,0.07695s-0.10519,0.16504-0.23376,0.16504c-0.12856,0-0.22823-0.12272-0.22146-0.27273zm3.1438-0.42856c0.0019-0.34285,0.03368-0.46475,0.07097-0.2709s0.03587,0.47436-0.0029,0.62336c-0.03901,0.149-0.06954-0.0096-0.06774-0.35246zm-12.949,0.07792c0-0.21428,0.03539-0.30194,0.07858-0.1948s0.04319,0.28246,0,0.3896-0.07858,0.01948-0.07858-0.1948zm13.845,0.25043c0-0.03369,0.10883-0.10301,0.24186-0.15405,0.13868-0.05322,0.20124-0.0271,0.14664,0.06125-0.09152,0.14808-0.3885,0.21902-0.3885,0.0928zm0.74024-0.1978c0.10714-0.04323,0.28245-0.04323,0.38959,0s0.0195,0.0786-0.1948,0.0786c-0.21428,0-0.30194-0.03537-0.1948-0.0786zm-0.87147-0.36431c0-0.21428,0.03539-0.30194,0.07858-0.1948s0.04319,0.28246,0,0.3896-0.07858,0.01948-0.07858-0.1948zm-4.3758-0.24674c0.0076-0.18154,0.04443-0.21847,0.09418-0.09415,0.045,0.1125,0.03948,0.24691-0.01227,0.29869s-0.08867-0.04026-0.08182-0.20454zm3.896-0.15584c0.0076-0.18154,0.04443-0.21847,0.09418-0.09416,0.045,0.1125,0.03948,0.24691-0.01227,0.29869s-0.08857-0.04026-0.08182-0.20454zm0.31168-0.46752c0.0076-0.18154,0.04443-0.21847,0.09418-0.09416,0.045,0.1125,0.03948,0.24691-0.01227,0.29869s-0.08866-0.04026-0.08181-0.20454zm-0.7792-0.15584c0.0076-0.18154,0.04443-0.21847,0.09418-0.09416,0.045,0.1125,0.03948,0.24691-0.01227,0.29869s-0.08857-0.04026-0.08181-0.20454zm-3.572-0.22077c0-0.21428,0.03539-0.30194,0.07858-0.1948s0.04319,0.28246,0,0.3896-0.07858,0.01948-0.07858-0.1948zm1.2525-0.07791c0.0029-0.25714,0.03815-0.34346,0.07763-0.19183s0.03691,0.36201-0.0057,0.46752c-0.04272,0.10551-0.07497-0.01855-0.07183-0.27568zm0.21774-0.41283c-0.0801-0.50106-0.14454-0.61324-0.25332-0.44121-0.11735,0.18557-0.14634,0.16592-0.14826-0.10047-0.000952-0.18214-0.04338-0.56784-0.09342-0.85712-0.06374-0.36798-0.045-0.46065,0.06212-0.30854,0.12509,0.17757,0.16704,0.16328,0.2288-0.07792,0.0547-0.21349,0.08067-0.17912,0.09371,0.12402,0.01,0.23065,0.09428,0.46648,0.18749,0.52406,0.09314,0.05759,0.13285,0.24457,0.08809,0.41552-0.04471,0.17095-0.02188,0.46693,0.05061,0.65774,0.07259,0.19081,0.07782,0.43442,0.0117,0.54137-0.07363,0.11912-0.1618-0.06584-0.22761-0.47746zm2.4134,0.39985c0.0076-0.18154,0.04443-0.21847,0.09418-0.09415,0.045,0.1125,0.03948,0.24691-0.01227,0.29869s-0.08857-0.04026-0.08181-0.20454zm0.31168-0.46752c0.0076-0.18154,0.04443-0.21847,0.09418-0.09415,0.045,0.1125,0.03948,0.24691-0.01227,0.29869s-0.08867-0.04026-0.08182-0.20454zm-0.7792-0.15584c0.0076-0.18154,0.04443-0.21847,0.09418-0.09416,0.045,0.1125,0.03948,0.24691-0.01227,0.29869s-0.08866-0.04026-0.08181-0.20454zm-3.572-0.22077c0-0.21428,0.03539-0.30194,0.07858-0.1948s0.04319,0.28246,0,0.3896-0.07858,0.01948-0.07858-0.1948zm3.894-0.152c0-0.21428,0.03539-0.30194,0.07858-0.1948s0.04319,0.28246,0,0.3896-0.07858,0.01948-0.07858-0.1948zm0.31168-0.46752c0-0.21428,0.03539-0.30194,0.07858-0.1948s0.04319,0.28246,0,0.3896-0.07858,0.01948-0.07858-0.1948zm2.637,0.06494c0.0076-0.18154,0.04443-0.21847,0.09418-0.09415,0.045,0.1125,0.03948,0.24691-0.01227,0.29869s-0.08857-0.04026-0.08181-0.20454zm-3.429-0.156c0.0076-0.18154,0.04443-0.21847,0.09418-0.09416,0.045,0.1125,0.03948,0.24691-0.01227,0.29869s-0.08866-0.04026-0.08182-0.20454zm-3.5843-0.31168c0.0076-0.18154,0.04443-0.21847,0.09418-0.09415,0.045,0.1125,0.03948,0.24691-0.01227,0.29869s-0.08857-0.04026-0.08181-0.20454zm3.9083-0.06494c0-0.21428,0.03539-0.30194,0.07858-0.1948s0.04319,0.28246,0,0.3896-0.07858,0.01948-0.07858-0.1948zm0.31168-0.46752c0-0.21428,0.03539-0.30194,0.07858-0.1948s0.04319,0.28246,0,0.3896-0.07858,0.01948-0.07858-0.1948zm2.6493,0c0-0.21428,0.03539-0.30194,0.07858-0.1948s0.04319,0.28246,0,0.3896-0.07858,0.01948-0.07858-0.1948zm-3.4408-0.0909c0.0076-0.18154,0.04443-0.21847,0.09418-0.09416,0.045,0.1125,0.03948,0.24691-0.01227,0.29869s-0.08866-0.04026-0.08181-0.20454zm-3.572-0.37661c0-0.21428,0.03539-0.30194,0.07858-0.1948s0.04319,0.28246,0,0.3896-0.07858,0.01948-0.07858-0.1948zm0.921-1.9483c-0.22786-1.42-0.41618-2.2057-0.49783-2.0769-0.08486,0.13384-0.13218,0.000312-0.13372-0.37724-0.000952-0.32142,0.06773-0.5844,0.15345-0.5844s0.15584,0.11688,0.15584,0.25973,0.04205,0.2177,0.09342,0.16634c0.1078-0.1078-0.68947-5.0234-0.89055-5.4908-0.08895-0.20663-0.1099-0.04906-0.06231,0.46752,0.06317,0.68558,0.05508,0.71397-0.06755,0.23629-0.20101-0.78312-0.34136-2.0608-0.17146-1.5609l0.134,0.39,0.009-0.389c0.0048-0.21428-0.09085-0.84543-0.21191-1.4026l-0.22018-1.013,0.06098,1.013c0.07677,1.2759-0.000771,0.94422-0.78312-3.3505-0.71713-3.9366-0.75033-4.2849-0.40864-4.2877,0.14359-0.0011,0.41627-0.04374,0.60596-0.09459,0.2872-0.076993,0.33433-0.037531,0.28167,0.23589-0.03567,0.185,0.01789,0.3294,0.12261,0.33074,0.13916,0.0018,0.14049,0.03125,0.0057,0.11728-0.21119,0.13438-0.09219,0.97121,0.13814,0.97121,0.0938,0,0.11314,0.22322,0.04899,0.56512-0.10692,0.56996,0.12761,1.4276,0.45209,1.6532,0.10261,0.07134,0.07658,0.11629-0.06907,0.11926-0.20779,0.0043-0.20779,0.02315,0,0.17009,0.17569,0.12425,0.18543,0.18493,0.03919,0.24428-0.26121,0.10601-0.08315,1.2776,0.25426,1.6733,0.18856,0.22111,0.20296,0.31264,0.05718,0.36362-0.10714,0.03747-0.1948,0.16164-0.1948,0.27592s-0.06888,0.23116-0.15308,0.25973c-0.09659,0.03277-0.10153,0.22446-0.01341,0.51946l0.13969,0.46752,0.01341-0.45453c0.0076-0.24999,0.05784-0.41007,0.11218-0.35574,0.12412,0.12412,0.23079,0.74113,0.30172,1.7453l0.05508,0.7792-0.20927-0.7792c-0.40858-1.5214-0.23328-0.09646,0.53683,4.3635,0.88149,5.105,0.85948,4.9656,0.9846,6.2336,0.0508,0.51427,0.05004,0.79478-0.0019,0.62336-0.08809-0.29229-0.10024-0.29397-0.19602-0.02694-0.0586,0.16341-0.2583-0.68851-0.46863-1.9993zm0.51072,1.2403c-0.0508-0.13226-0.12571-0.20706-0.16656-0.16621-0.04081,0.04085-0.02806,0.14907,0.02845,0.24048,0.15367,0.24864,0.24349,0.20033,0.13811-0.07427zm-2.691-15.704c-0.20123-0.20123-0.22237,0.08311-0.05004,0.67351l0.1137,0.3896,0.05223-0.44754c0.02873-0.24615-0.0234-0.52315-0.11583-0.61556zm0.54883,0.26833c-0.05546-0.14453-0.1359-0.22772-0.17876-0.18486-0.04291,0.04286-0.03254,0.19617,0.02293,0.3407,0.05546,0.14453,0.13591,0.22772,0.17876,0.18486,0.0429-0.04286,0.03254-0.19617-0.02293-0.3407zm4.594,16.054c0.0076-0.18154,0.04443-0.21847,0.09418-0.09416,0.045,0.1125,0.03948,0.24691-0.01227,0.29869s-0.08866-0.04026-0.08182-0.20454zm-0.45522-0.53245c0-0.21428,0.03539-0.30194,0.07858-0.1948s0.04319,0.28246,0,0.3896-0.07858,0.01948-0.07858-0.1948zm0.7669,0.06494c0.0076-0.18154,0.04443-0.21847,0.09418-0.09416,0.045,0.1125,0.03948,0.24691-0.01227,0.29869s-0.08857-0.04026-0.08181-0.20454zm-4.3512-0.53245c0-0.21428,0.03539-0.30194,0.07858-0.1948s0.04319,0.28246,0,0.3896-0.07858,0.01948-0.07858-0.1948zm3.896,0c0-0.21428,0.03539-0.30194,0.07858-0.1948s0.04319,0.28246,0,0.3896-0.07858,0.01948-0.07858-0.1948zm0.31168-0.46752c0-0.21428,0.03539-0.30194,0.07858-0.1948s0.04319,0.28246,0,0.3896-0.07858,0.01948-0.07858-0.1948zm-0.7915-0.09091c0.0076-0.18154,0.04443-0.21847,0.09418-0.09415,0.045,0.1125,0.03948,0.24691-0.01227,0.29869s-0.08857-0.04026-0.08181-0.20454zm-3.572-0.37661c0-0.21428,0.03539-0.30194,0.07858-0.1948s0.04319,0.28246,0,0.3896-0.07858,0.01948-0.07858-0.1948zm3.896,0c0-0.21428,0.03539-0.30194,0.07858-0.1948s0.04319,0.28246,0,0.3896-0.07858,0.01948-0.07858-0.1948zm-0.46751-0.62336c0-0.21428,0.03539-0.30194,0.07858-0.1948s0.04319,0.28246,0,0.3896-0.07858,0.01948-0.07858-0.1948zm0.76689,0.06494c0.0076-0.18154,0.04443-0.21847,0.09418-0.09415,0.045,0.1125,0.03948,0.24691-0.01227,0.29869s-0.08866-0.04026-0.08182-0.20454zm-4.3512-0.37661c0-0.21428,0.03539-0.30194,0.07858-0.1948s0.04319,0.28246,0,0.3896-0.07858,0.01948-0.07858-0.1948zm3.8837-0.0909c0.0076-0.18154,0.04443-0.21847,0.09418-0.09416,0.045,0.1125,0.03948,0.24691-0.01227,0.29869s-0.08857-0.04026-0.08182-0.20454zm-0.46751-0.62336c0.0076-0.18154,0.04443-0.21847,0.09418-0.09415,0.045,0.1125,0.03948,0.24691-0.01227,0.29869s-0.08867-0.04026-0.08182-0.20454zm0.77919,0c0.0076-0.18154,0.04443-0.21847,0.09418-0.09415,0.045,0.1125,0.03948,0.24691-0.01227,0.29869s-0.08866-0.04026-0.08181-0.20454zm-4.3512-0.22078c0-0.21428,0.03539-0.30194,0.07858-0.1948s0.04319,0.28246,0,0.3896-0.07858,0.01948-0.07858-0.1948zm-0.15006-0.85712c0.0029-0.25713,0.03805-0.34346,0.07763-0.19183,0.03948,0.15163,0.03691,0.36201-0.0057,0.46752-0.04272,0.10551-0.07506-0.01855-0.07183-0.27568zm4.3454-0.01299c0.0076-0.18154,0.04443-0.21847,0.09418-0.09415,0.045,0.1125,0.03948,0.24691-0.01227,0.29869s-0.08867-0.04026-0.08182-0.20454zm-3.2545-0.76621c0.0029-0.25713,0.03805-0.34346,0.07763-0.19183,0.03948,0.15163,0.03691,0.36201-0.0057,0.46752-0.04271,0.10551-0.07506-0.01855-0.07183-0.27568zm2.787,0.14285c0.0076-0.18154,0.04443-0.21847,0.09418-0.09416,0.045,0.1125,0.03948,0.24691-0.01227,0.29869s-0.08857-0.04026-0.08182-0.20454zm-4.0395-0.22077c0-0.21428,0.03539-0.30194,0.07858-0.1948s0.04319,0.28246,0,0.3896-0.07858,0.01948-0.07858-0.1948zm3.5843-0.31168c0-0.21428,0.03539-0.30194,0.07858-0.1948s0.04319,0.28246,0,0.3896-0.07858,0.01948-0.07858-0.1948zm0.77919,0c0-0.21428,0.03539-0.30194,0.07858-0.1948s0.04319,0.28246,0,0.3896-0.07858,0.01948-0.07858-0.1948zm-3.273-0.468c0-0.21428,0.03539-0.30194,0.07858-0.1948s0.04319,0.28246,0,0.3896-0.07858,0.01948-0.07858-0.1948zm-1.2467-0.15584c0-0.21428,0.03539-0.30194,0.07858-0.1948s0.04319,0.28246,0,0.3896-0.07858,0.01948-0.07858-0.1948zm4.0395,0.06493c0.0076-0.18154,0.04443-0.21847,0.09418-0.09415,0.045,0.1125,0.03948,0.24691-0.01227,0.29869s-0.08867-0.04026-0.08182-0.20454zm0.32976-0.45453c0.0029-0.25714,0.03805-0.34346,0.07763-0.19183,0.03948,0.15163,0.03691,0.36201-0.0057,0.46752-0.04272,0.10551-0.07506-0.01855-0.07183-0.27568zm-0.784-0.077c0-0.21428,0.03539-0.30194,0.07858-0.1948s0.04319,0.28246,0,0.3896-0.07858,0.01948-0.07858-0.1948zm-3.7401-0.31168c0-0.21428,0.03539-0.30194,0.07858-0.1948s0.04319,0.28246,0,0.3896-0.07858,0.01948-0.07858-0.1948zm1.2467,0c0-0.21428,0.03539-0.30194,0.07858-0.1948s0.04319,0.28246,0,0.3896-0.07858,0.01948-0.07858-0.1948zm2.8051-0.15584c0-0.21428,0.03539-0.30194,0.07858-0.1948s0.04319,0.28246,0,0.3896-0.07858,0.01948-0.07858-0.1948zm-2.3305-1.2496c-0.10316-0.60157-0.18312-1.1801-0.17768-1.2857,0.0196-0.38089,0.32625,0.60347,0.40142,1.2886,0.04234,0.3857,0.10513,0.78894,0.1396,0.89608,0.03444,0.10714,0.0095,0.1948-0.05651,0.1948-0.06555,0-0.20363-0.49219-0.30678-1.0938zm2.6421,0.62625c0-0.21428,0.03539-0.30194,0.07858-0.1948s0.04319,0.28246,0,0.3896-0.07858,0.01948-0.07858-0.1948zm-4.5193-0.15584c0-0.21428,0.03539-0.30194,0.07858-0.1948s0.04319,0.28246,0,0.3896-0.07858,0.01948-0.07858-0.1948zm1.2467,0c0-0.21428,0.03539-0.30194,0.07858-0.1948s0.04319,0.28246,0,0.3896-0.07858,0.01948-0.07858-0.1948zm2.4934,0c0-0.21428,0.03539-0.30194,0.07858-0.1948s0.04319,0.28246,0,0.3896-0.07858,0.01948-0.07858-0.1948zm0.31745-0.3896c0.0029-0.25713,0.03815-0.34346,0.07763-0.19183s0.03691,0.36201-0.0057,0.46752c-0.04272,0.10551-0.07497-0.01855-0.07183-0.27568zm-4.2134-0.3896c0-0.21428,0.03539-0.30194,0.07858-0.1948s0.04319,0.28246,0,0.3896-0.07858,0.01948-0.07858-0.1948zm4.507-0.24674c0.0076-0.18154,0.04443-0.21847,0.09418-0.09415,0.045,0.1125,0.03948,0.24691-0.01227,0.29869s-0.08867-0.04026-0.08182-0.20454zm-0.7792-0.15584c0.0076-0.18154,0.04443-0.21847,0.09418-0.09415,0.045,0.1125,0.03948,0.24691-0.01227,0.29869s-0.08857-0.04026-0.08182-0.20454zm-3.8837-0.37661c0-0.21428,0.03539-0.30194,0.07858-0.1948s0.04319,0.28246,0,0.3896-0.07858,0.01948-0.07858-0.1948zm4.1954-0.09091c0.0076-0.18154,0.04443-0.21847,0.09418-0.09415,0.045,0.1125,0.03948,0.24691-0.01227,0.29869s-0.08867-0.04026-0.08182-0.20454zm3.6081-0.22077c0-0.29999,0.03206-0.42271,0.07126-0.27272s0.0392,0.39544,0,0.54544c-0.03919,0.15-0.07126,0.02727-0.07126-0.27272zm-0.33553,0.06493c0.0076-0.18154,0.04443-0.21847,0.09418-0.09415,0.045,0.1125,0.03948,0.24691-0.01227,0.29869s-0.08867-0.04026-0.08182-0.20454zm-2.9486-0.37661c0-0.21428,0.03539-0.30194,0.07858-0.1948s0.04319,0.28246,0,0.3896-0.07858,0.01948-0.07858-0.1948zm-4.6752-0.15584c0-0.21428,0.03539-0.30194,0.07858-0.1948s0.04319,0.28246,0,0.3896-0.07858,0.01948-0.07858-0.1948zm3.8837-0.0909c0.0076-0.18154,0.04443-0.21847,0.09418-0.09416,0.045,0.1125,0.03948,0.24691-0.01227,0.29869s-0.08857-0.04026-0.08182-0.20454zm3.5843-0.31168c0.0076-0.18154,0.04443-0.21847,0.09418-0.09415,0.045,0.1125,0.03948,0.24691-0.01227,0.29869s-0.08857-0.04026-0.08182-0.20454zm-2.961-0.62c0.0076-0.18154,0.04443-0.21847,0.09418-0.09416,0.045,0.1125,0.03948,0.24691-0.01227,0.29869s-0.08866-0.04026-0.08181-0.20454zm-0.7792-0.15584c0.0076-0.18154,0.04443-0.21847,0.09418-0.09415,0.045,0.1125,0.03948,0.24691-0.01227,0.29869s-0.08866-0.04026-0.08181-0.20454zm0.32398-0.37661c0-0.21428,0.03539-0.30194,0.07858-0.1948s0.04319,0.28246,0,0.3896-0.07858,0.01948-0.07858-0.1948zm3.2603,0.06493c0.0076-0.18154,0.04443-0.21847,0.09418-0.09415,0.045,0.1125,0.03948,0.24691-0.01227,0.29869s-0.08857-0.04026-0.08181-0.20454zm-2.9609-0.7792c0.0076-0.18154,0.04443-0.21847,0.09418-0.09416,0.045,0.1125,0.03948,0.24691-0.01227,0.29869s-0.08867-0.04026-0.08182-0.20454zm-0.7792-0.15582c0.0076-0.18154,0.04443-0.21847,0.09418-0.09415,0.045,0.1125,0.03948,0.24691-0.01227,0.29869s-0.08857-0.04026-0.08182-0.20454zm3.6024-0.14285c0.0029-0.25714,0.03805-0.34346,0.07763-0.19183,0.03948,0.15163,0.03691,0.36201-0.0057,0.46752-0.04272,0.10551-0.07506-0.01855-0.07183-0.27568zm-3.2907-0.32466c0.0076-0.18154,0.04443-0.21847,0.09418-0.09415,0.045,0.1125,0.03948,0.24691-0.01227,0.29869s-0.08857-0.04026-0.08182-0.20454zm3.5966-0.06493c0-0.21428,0.03539-0.30194,0.07858-0.1948s0.04319,0.28246,0,0.3896-0.07858,0.01948-0.07858-0.1948zm-3.284-0.4011c0.0076-0.18154,0.04443-0.21847,0.09418-0.09415,0.045,0.1125,0.03948,0.24691-0.01227,0.29869s-0.08857-0.04026-0.08181-0.20454zm-3.896-0.15584c0.0076-0.18154,0.04443-0.21847,0.09418-0.09415,0.045,0.1125,0.03948,0.24691-0.01227,0.29869s-0.08866-0.04026-0.08182-0.20454zm3.1168,0c0.0076-0.18154,0.04443-0.21847,0.09418-0.09415,0.045,0.1125,0.03948,0.24691-0.01227,0.29869s-0.08866-0.04026-0.08182-0.20454zm0.32398-0.53245c0-0.21428,0.03539-0.30194,0.07858-0.1948s0.04319,0.28246,0,0.3896-0.07858,0.01948-0.07858-0.1948zm-3.5966-0.40258c0.0076-0.18154,0.04443-0.21847,0.09418-0.09415,0.045,0.1125,0.03948,0.24691-0.01227,0.29869s-0.08857-0.04026-0.08181-0.20454zm3.9083-0.06493c0-0.21428,0.03539-0.30194,0.07858-0.1948s0.04319,0.28246,0,0.3896-0.07858,0.01948-0.07858-0.1948zm-0.7915-0.24674c0.0076-0.18154,0.04443-0.21847,0.09418-0.09416,0.045,0.1125,0.03948,0.24691-0.01227,0.29869s-0.08866-0.04026-0.08181-0.20454zm-4.2077-0.46752c0.0076-0.18154,0.04443-0.21847,0.09418-0.09415,0.045,0.1125,0.03948,0.24691-0.01227,0.29869s-0.08857-0.04026-0.08182-0.20454zm4.5193,0c0.0076-0.18154,0.04443-0.21847,0.09418-0.09415,0.045,0.1125,0.03948,0.24691-0.01227,0.29869s-0.08857-0.04026-0.08182-0.20454zm0.32398-0.53245c0-0.21428,0.03539-0.30194,0.07858-0.1948s0.04319,0.28246,0,0.3896-0.07858,0.01948-0.07858-0.1948zm-0.7915-0.24674c0.0076-0.18154,0.04443-0.21847,0.09418-0.09415,0.045,0.1125,0.03948,0.24691-0.01227,0.29869s-0.08867-0.04026-0.08182-0.20454zm0.31168-0.31168c0.0076-0.18154,0.04443-0.21847,0.09418-0.09415,0.045,0.1125,0.03948,0.24691-0.01227,0.29869s-0.08866-0.04026-0.08182-0.20454zm0.32398-0.53245c0-0.21428,0.03539-0.30194,0.07858-0.1948s0.04319,0.28246,0,0.3896-0.07858,0.01948-0.07858-0.1948zm-0.16814-1.0259c0.0076-0.18154,0.04443-0.21847,0.09418-0.09415,0.045,0.1125,0.03948,0.24691-0.01227,0.29869s-0.08857-0.04026-0.08182-0.20454zm-0.45522-0.68829c0-0.21428,0.03539-0.30194,0.07858-0.1948s0.04319,0.28246,0,0.3896-0.07858,0.01948-0.07858-0.1948zm-4.7387-0.8824c0.10713-0.043229,0.28245-0.043229,0.38959,0,0.10714,0.04323,0.0195,0.0786-0.1948,0.0786-0.21428,0-0.30194-0.03537-0.1948-0.0786zm1.1006-0.15909c0.1125-0.045018,0.2469-0.039481,0.29869,0.012301,0.05175,0.051782-0.04024,0.088618-0.20454,0.081854-0.18154-0.00752-0.21848-0.044409-0.09418-0.094154zm-1.257-0.1527c0.10713-0.043229,0.28245-0.043229,0.38959,0s0.0195,0.0786-0.1948,0.0786c-0.21428,0-0.30194-0.035371-0.1948-0.0786zm0.78893-0.15909c0.1125-0.045018,0.24691-0.039481,0.29869,0.012301,0.05175,0.051782-0.04024,0.088618-0.20454,0.081854-0.18154-0.00752-0.21848-0.044409-0.09418-0.094154zm7.6361-0.31168c0.1125-0.045018,0.24691-0.039481,0.29869,0.012301,0.05175,0.051782-0.04024,0.088618-0.20454,0.081854-0.18154-0.00752-0.21847-0.044409-0.09418-0.094155zm0.45778-0.46427c0.10714-0.043229,0.28246-0.043229,0.38959,0,0.10714,0.043229,0.0195,0.0786-0.1948,0.0786-0.21427,0-0.30194-0.035371-0.1948-0.0786z"/>
</svg>
